<?xml version="1.0" encoding="utf-8" standalone="no"?>
<!DOCTYPE svg PUBLIC "-//W3C//DTD SVG 1.1//EN"
  "http://www.w3.org/Graphics/SVG/1.1/DTD/svg11.dtd">
<svg xmlns:xlink="http://www.w3.org/1999/xlink" width="288pt" height="288pt" viewBox="0 0 288 288" xmlns="http://www.w3.org/2000/svg" version="1.1">
 <metadata>
  <rdf:RDF xmlns:dc="http://purl.org/dc/elements/1.1/" xmlns:cc="http://creativecommons.org/ns#" xmlns:rdf="http://www.w3.org/1999/02/22-rdf-syntax-ns#">
   <cc:Work>
    <dc:type rdf:resource="http://purl.org/dc/dcmitype/StillImage"/>
    <dc:date>2025-09-10T16:01:51.186913</dc:date>
    <dc:format>image/svg+xml</dc:format>
    <dc:creator>
     <cc:Agent>
      <dc:title>Matplotlib v3.9.4, https://matplotlib.org/</dc:title>
     </cc:Agent>
    </dc:creator>
   </cc:Work>
  </rdf:RDF>
 </metadata>
 <defs>
  <style type="text/css">*{stroke-linejoin: round; stroke-linecap: butt}</style>
 </defs>
 <g id="figure_1">
  <g id="patch_1">
   <path d="M 0 288 
L 288 288 
L 288 0 
L 0 0 
z
" style="fill: #ffffff"/>
  </g>
  <g id="axes_1">
   <g id="patch_2">
    <path d="M 36 135.36 
L 259.2 135.36 
L 259.2 34.56 
L 36 34.56 
z
" style="fill: #ffffff"/>
   </g>
   <g id="matplotlib.axis_1">
    <g id="xtick_1">
     <g id="line2d_1">
      <defs>
       <path id="mfa0a59a378" d="M 0 0 
L 0 3.5 
" style="stroke: #000000; stroke-width: 0.8"/>
      </defs>
      <g>
       <use xlink:href="#mfa0a59a378" x="58.32" y="135.36" style="stroke: #000000; stroke-width: 0.8"/>
      </g>
     </g>
     <g id="text_1">
      <!-- −0.4 -->
      <g transform="translate(46.178594 149.958437) scale(0.1 -0.1)">
       <defs>
        <path id="DejaVuSans-2212" d="M 678 2272 
L 4684 2272 
L 4684 1741 
L 678 1741 
L 678 2272 
z
" transform="scale(0.015625)"/>
        <path id="DejaVuSans-30" d="M 2034 4250 
Q 1547 4250 1301 3770 
Q 1056 3291 1056 2328 
Q 1056 1369 1301 889 
Q 1547 409 2034 409 
Q 2525 409 2770 889 
Q 3016 1369 3016 2328 
Q 3016 3291 2770 3770 
Q 2525 4250 2034 4250 
z
M 2034 4750 
Q 2819 4750 3233 4129 
Q 3647 3509 3647 2328 
Q 3647 1150 3233 529 
Q 2819 -91 2034 -91 
Q 1250 -91 836 529 
Q 422 1150 422 2328 
Q 422 3509 836 4129 
Q 1250 4750 2034 4750 
z
" transform="scale(0.015625)"/>
        <path id="DejaVuSans-2e" d="M 684 794 
L 1344 794 
L 1344 0 
L 684 0 
L 684 794 
z
" transform="scale(0.015625)"/>
        <path id="DejaVuSans-34" d="M 2419 4116 
L 825 1625 
L 2419 1625 
L 2419 4116 
z
M 2253 4666 
L 3047 4666 
L 3047 1625 
L 3713 1625 
L 3713 1100 
L 3047 1100 
L 3047 0 
L 2419 0 
L 2419 1100 
L 313 1100 
L 313 1709 
L 2253 4666 
z
" transform="scale(0.015625)"/>
       </defs>
       <use xlink:href="#DejaVuSans-2212"/>
       <use xlink:href="#DejaVuSans-30" x="83.789062"/>
       <use xlink:href="#DejaVuSans-2e" x="147.412109"/>
       <use xlink:href="#DejaVuSans-34" x="179.199219"/>
      </g>
     </g>
    </g>
    <g id="xtick_2">
     <g id="line2d_2">
      <g>
       <use xlink:href="#mfa0a59a378" x="102.96" y="135.36" style="stroke: #000000; stroke-width: 0.8"/>
      </g>
     </g>
     <g id="text_2">
      <!-- −0.2 -->
      <g transform="translate(90.818594 149.958437) scale(0.1 -0.1)">
       <defs>
        <path id="DejaVuSans-32" d="M 1228 531 
L 3431 531 
L 3431 0 
L 469 0 
L 469 531 
Q 828 903 1448 1529 
Q 2069 2156 2228 2338 
Q 2531 2678 2651 2914 
Q 2772 3150 2772 3378 
Q 2772 3750 2511 3984 
Q 2250 4219 1831 4219 
Q 1534 4219 1204 4116 
Q 875 4013 500 3803 
L 500 4441 
Q 881 4594 1212 4672 
Q 1544 4750 1819 4750 
Q 2544 4750 2975 4387 
Q 3406 4025 3406 3419 
Q 3406 3131 3298 2873 
Q 3191 2616 2906 2266 
Q 2828 2175 2409 1742 
Q 1991 1309 1228 531 
z
" transform="scale(0.015625)"/>
       </defs>
       <use xlink:href="#DejaVuSans-2212"/>
       <use xlink:href="#DejaVuSans-30" x="83.789062"/>
       <use xlink:href="#DejaVuSans-2e" x="147.412109"/>
       <use xlink:href="#DejaVuSans-32" x="179.199219"/>
      </g>
     </g>
    </g>
    <g id="xtick_3">
     <g id="line2d_3">
      <g>
       <use xlink:href="#mfa0a59a378" x="147.6" y="135.36" style="stroke: #000000; stroke-width: 0.8"/>
      </g>
     </g>
     <g id="text_3">
      <!-- 0.0 -->
      <g transform="translate(139.648438 149.958437) scale(0.1 -0.1)">
       <use xlink:href="#DejaVuSans-30"/>
       <use xlink:href="#DejaVuSans-2e" x="63.623047"/>
       <use xlink:href="#DejaVuSans-30" x="95.410156"/>
      </g>
     </g>
    </g>
    <g id="xtick_4">
     <g id="line2d_4">
      <g>
       <use xlink:href="#mfa0a59a378" x="192.24" y="135.36" style="stroke: #000000; stroke-width: 0.8"/>
      </g>
     </g>
     <g id="text_4">
      <!-- 0.2 -->
      <g transform="translate(184.288437 149.958437) scale(0.1 -0.1)">
       <use xlink:href="#DejaVuSans-30"/>
       <use xlink:href="#DejaVuSans-2e" x="63.623047"/>
       <use xlink:href="#DejaVuSans-32" x="95.410156"/>
      </g>
     </g>
    </g>
    <g id="xtick_5">
     <g id="line2d_5">
      <g>
       <use xlink:href="#mfa0a59a378" x="236.88" y="135.36" style="stroke: #000000; stroke-width: 0.8"/>
      </g>
     </g>
     <g id="text_5">
      <!-- 0.4 -->
      <g transform="translate(228.928437 149.958437) scale(0.1 -0.1)">
       <use xlink:href="#DejaVuSans-30"/>
       <use xlink:href="#DejaVuSans-2e" x="63.623047"/>
       <use xlink:href="#DejaVuSans-34" x="95.410156"/>
      </g>
     </g>
    </g>
   </g>
   <g id="matplotlib.axis_2">
    <g id="ytick_1">
     <g id="line2d_6">
      <defs>
       <path id="md2cc9cd800" d="M 0 0 
L -3.5 0 
" style="stroke: #000000; stroke-width: 0.8"/>
      </defs>
      <g>
       <use xlink:href="#md2cc9cd800" x="36" y="131.729415" style="stroke: #000000; stroke-width: 0.8"/>
      </g>
     </g>
     <g id="text_6">
      <!-- 0 -->
      <g transform="translate(22.6375 135.528634) scale(0.1 -0.1)">
       <use xlink:href="#DejaVuSans-30"/>
      </g>
     </g>
    </g>
    <g id="ytick_2">
     <g id="line2d_7">
      <g>
       <use xlink:href="#md2cc9cd800" x="36" y="109.415304" style="stroke: #000000; stroke-width: 0.8"/>
      </g>
     </g>
     <g id="text_7">
      <!-- 1 -->
      <g transform="translate(22.6375 113.214523) scale(0.1 -0.1)">
       <defs>
        <path id="DejaVuSans-31" d="M 794 531 
L 1825 531 
L 1825 4091 
L 703 3866 
L 703 4441 
L 1819 4666 
L 2450 4666 
L 2450 531 
L 3481 531 
L 3481 0 
L 794 0 
L 794 531 
z
" transform="scale(0.015625)"/>
       </defs>
       <use xlink:href="#DejaVuSans-31"/>
      </g>
     </g>
    </g>
    <g id="ytick_3">
     <g id="line2d_8">
      <g>
       <use xlink:href="#md2cc9cd800" x="36" y="87.101193" style="stroke: #000000; stroke-width: 0.8"/>
      </g>
     </g>
     <g id="text_8">
      <!-- 2 -->
      <g transform="translate(22.6375 90.900412) scale(0.1 -0.1)">
       <use xlink:href="#DejaVuSans-32"/>
      </g>
     </g>
    </g>
    <g id="ytick_4">
     <g id="line2d_9">
      <g>
       <use xlink:href="#md2cc9cd800" x="36" y="64.787082" style="stroke: #000000; stroke-width: 0.8"/>
      </g>
     </g>
     <g id="text_9">
      <!-- 3 -->
      <g transform="translate(22.6375 68.586301) scale(0.1 -0.1)">
       <defs>
        <path id="DejaVuSans-33" d="M 2597 2516 
Q 3050 2419 3304 2112 
Q 3559 1806 3559 1356 
Q 3559 666 3084 287 
Q 2609 -91 1734 -91 
Q 1441 -91 1130 -33 
Q 819 25 488 141 
L 488 750 
Q 750 597 1062 519 
Q 1375 441 1716 441 
Q 2309 441 2620 675 
Q 2931 909 2931 1356 
Q 2931 1769 2642 2001 
Q 2353 2234 1838 2234 
L 1294 2234 
L 1294 2753 
L 1863 2753 
Q 2328 2753 2575 2939 
Q 2822 3125 2822 3475 
Q 2822 3834 2567 4026 
Q 2313 4219 1838 4219 
Q 1578 4219 1281 4162 
Q 984 4106 628 3988 
L 628 4550 
Q 988 4650 1302 4700 
Q 1616 4750 1894 4750 
Q 2613 4750 3031 4423 
Q 3450 4097 3450 3541 
Q 3450 3153 3228 2886 
Q 3006 2619 2597 2516 
z
" transform="scale(0.015625)"/>
       </defs>
       <use xlink:href="#DejaVuSans-33"/>
      </g>
     </g>
    </g>
    <g id="ytick_5">
     <g id="line2d_10">
      <g>
       <use xlink:href="#md2cc9cd800" x="36" y="42.472971" style="stroke: #000000; stroke-width: 0.8"/>
      </g>
     </g>
     <g id="text_10">
      <!-- 4 -->
      <g transform="translate(22.6375 46.272189) scale(0.1 -0.1)">
       <use xlink:href="#DejaVuSans-34"/>
      </g>
     </g>
    </g>
   </g>
   <g id="line2d_11">
    <path d="M 36 117.730313 
L 43.5888 115.900781 
L 50.7312 113.952851 
L 57.4272 111.900681 
L 63.6768 109.762773 
L 69.9264 107.383455 
L 75.7296 104.932226 
L 81.0864 102.439248 
L 86.4432 99.700993 
L 91.3536 96.952956 
L 96.264 93.953955 
L 101.1744 90.678723 
L 105.6384 87.437902 
L 110.1024 83.922076 
L 114.5664 80.105264 
L 118.584 76.389067 
L 122.6016 72.382657 
L 126.6192 68.060604 
L 130.6368 63.394936 
L 134.6544 58.35485 
L 138.2256 53.533079 
L 141.7968 48.362533 
L 145.368 42.814638 
L 147.6 39.141818 
L 151.1712 44.941241 
L 154.7424 50.344118 
L 158.3136 55.38066 
L 162.3312 60.643209 
L 166.3488 65.51289 
L 170.3664 70.022213 
L 174.384 74.200684 
L 178.4016 78.075113 
L 182.8656 82.053023 
L 187.3296 85.715927 
L 191.7936 89.091165 
L 196.2576 92.203435 
L 201.168 95.349799 
L 206.0784 98.231754 
L 211.4352 101.10236 
L 216.792 103.71486 
L 222.5952 106.282678 
L 228.3984 108.605044 
L 234.648 110.860203 
L 241.344 113.02408 
L 248.04 114.956047 
L 255.1824 116.790644 
L 259.2 117.730313 
L 259.2 117.730313 
" clip-path="url(#p6df48e2490)" style="fill: none; stroke-dasharray: 5.55,2.4; stroke-dashoffset: 0; stroke: #1f77b4; stroke-width: 1.5"/>
   </g>
   <g id="line2d_12">
    <path d="M 36 117.772775 
L 43.5888 115.955112 
L 50.7312 114.021368 
L 57.4272 111.985845 
L 63.6768 109.867106 
L 69.9264 107.51127 
L 75.7296 105.086556 
L 81.0864 102.622908 
L 86.4432 99.919559 
L 91.3536 97.209318 
L 96.264 94.254648 
L 101.1744 91.031413 
L 105.6384 87.845626 
L 110.1024 84.393421 
L 114.5664 80.650157 
L 118.584 77.009917 
L 122.6016 73.090052 
L 126.6192 68.866608 
L 130.6368 64.313295 
L 134.6544 59.401228 
L 138.672 54.098636 
L 142.2432 49.029178 
L 145.8144 43.596651 
L 147.6 40.735161 
L 151.1712 46.360073 
L 154.7424 51.607553 
L 158.76 57.094734 
L 162.7776 62.176263 
L 166.7952 66.885292 
L 170.8128 71.251951 
L 174.8304 75.303649 
L 178.848 79.065349 
L 183.312 82.932506 
L 187.776 86.498039 
L 192.24 89.78759 
L 197.1504 93.114986 
L 202.0608 96.164388 
L 206.9712 98.960877 
L 212.328 101.749619 
L 217.6848 104.290521 
L 223.488 106.790728 
L 229.2912 109.054358 
L 235.5408 111.254722 
L 242.2368 113.368137 
L 249.3792 115.375391 
L 256.968 117.261708 
L 259.2 117.772775 
L 259.2 117.772775 
" clip-path="url(#p6df48e2490)" style="fill: none; stroke: #1f77b4; stroke-width: 1.5; stroke-linecap: square"/>
   </g>
   <g id="line2d_13">
    <path d="M 36 130.758891 
L 52.0704 129.755969 
L 66.3552 128.650634 
L 79.3008 127.43272 
L 90.9072 126.12576 
L 101.6208 124.699012 
L 111.4416 123.165865 
L 120.3696 121.546786 
L 128.4048 119.870404 
L 135.9936 118.060944 
L 143.136 116.121145 
L 147.6 114.774197 
L 154.296 116.754358 
L 161.4384 118.618205 
L 169.0272 120.359075 
L 177.0624 121.973931 
L 185.9904 123.535472 
L 195.8112 125.015845 
L 206.5248 126.394936 
L 218.1312 127.659387 
L 231.0768 128.838553 
L 245.3616 129.909272 
L 259.2 130.758891 
L 259.2 130.758891 
" clip-path="url(#p6df48e2490)" style="fill: none; stroke-dasharray: 5.55,2.4; stroke-dashoffset: 0; stroke: #ff7f0e; stroke-width: 1.5"/>
   </g>
   <g id="line2d_14">
    <path d="M 36 130.778182 
L 52.5168 129.757709 
L 67.248 128.626993 
L 80.64 127.375355 
L 92.6928 126.025465 
L 103.4064 124.609818 
L 113.2272 123.097542 
L 122.1552 121.510284 
L 130.6368 119.779936 
L 138.2256 118.015094 
L 145.368 116.134808 
L 147.6 115.498072 
L 154.7424 117.451946 
L 162.3312 119.283664 
L 170.3664 120.98906 
L 179.2944 122.644272 
L 188.6688 124.15274 
L 198.936 125.578137 
L 210.096 126.902438 
L 222.5952 128.15452 
L 236.4336 129.306211 
L 251.6112 130.338295 
L 259.2 130.778182 
L 259.2 130.778182 
" clip-path="url(#p6df48e2490)" style="fill: none; stroke: #ff7f0e; stroke-width: 1.5; stroke-linecap: square"/>
   </g>
   <g id="patch_3">
    <path d="M 36 135.36 
L 36 34.56 
" style="fill: none; stroke: #000000; stroke-width: 0.8; stroke-linejoin: miter; stroke-linecap: square"/>
   </g>
   <g id="patch_4">
    <path d="M 259.2 135.36 
L 259.2 34.56 
" style="fill: none; stroke: #000000; stroke-width: 0.8; stroke-linejoin: miter; stroke-linecap: square"/>
   </g>
   <g id="patch_5">
    <path d="M 36 135.36 
L 259.2 135.36 
" style="fill: none; stroke: #000000; stroke-width: 0.8; stroke-linejoin: miter; stroke-linecap: square"/>
   </g>
   <g id="patch_6">
    <path d="M 36 34.56 
L 259.2 34.56 
" style="fill: none; stroke: #000000; stroke-width: 0.8; stroke-linejoin: miter; stroke-linecap: square"/>
   </g>
  </g>
  <g id="axes_2">
   <g id="patch_7">
    <path d="M 36 256.32 
L 259.2 256.32 
L 259.2 155.52 
L 36 155.52 
z
" style="fill: #ffffff"/>
   </g>
   <g id="matplotlib.axis_3">
    <g id="xtick_6">
     <g id="line2d_15">
      <g>
       <use xlink:href="#mfa0a59a378" x="58.32" y="256.32" style="stroke: #000000; stroke-width: 0.8"/>
      </g>
     </g>
     <g id="text_11">
      <!-- −0.4 -->
      <g transform="translate(46.178594 270.918437) scale(0.1 -0.1)">
       <use xlink:href="#DejaVuSans-2212"/>
       <use xlink:href="#DejaVuSans-30" x="83.789062"/>
       <use xlink:href="#DejaVuSans-2e" x="147.412109"/>
       <use xlink:href="#DejaVuSans-34" x="179.199219"/>
      </g>
     </g>
    </g>
    <g id="xtick_7">
     <g id="line2d_16">
      <g>
       <use xlink:href="#mfa0a59a378" x="102.96" y="256.32" style="stroke: #000000; stroke-width: 0.8"/>
      </g>
     </g>
     <g id="text_12">
      <!-- −0.2 -->
      <g transform="translate(90.818594 270.918437) scale(0.1 -0.1)">
       <use xlink:href="#DejaVuSans-2212"/>
       <use xlink:href="#DejaVuSans-30" x="83.789062"/>
       <use xlink:href="#DejaVuSans-2e" x="147.412109"/>
       <use xlink:href="#DejaVuSans-32" x="179.199219"/>
      </g>
     </g>
    </g>
    <g id="xtick_8">
     <g id="line2d_17">
      <g>
       <use xlink:href="#mfa0a59a378" x="147.6" y="256.32" style="stroke: #000000; stroke-width: 0.8"/>
      </g>
     </g>
     <g id="text_13">
      <!-- 0.0 -->
      <g transform="translate(139.648438 270.918437) scale(0.1 -0.1)">
       <use xlink:href="#DejaVuSans-30"/>
       <use xlink:href="#DejaVuSans-2e" x="63.623047"/>
       <use xlink:href="#DejaVuSans-30" x="95.410156"/>
      </g>
     </g>
    </g>
    <g id="xtick_9">
     <g id="line2d_18">
      <g>
       <use xlink:href="#mfa0a59a378" x="192.24" y="256.32" style="stroke: #000000; stroke-width: 0.8"/>
      </g>
     </g>
     <g id="text_14">
      <!-- 0.2 -->
      <g transform="translate(184.288437 270.918437) scale(0.1 -0.1)">
       <use xlink:href="#DejaVuSans-30"/>
       <use xlink:href="#DejaVuSans-2e" x="63.623047"/>
       <use xlink:href="#DejaVuSans-32" x="95.410156"/>
      </g>
     </g>
    </g>
    <g id="xtick_10">
     <g id="line2d_19">
      <g>
       <use xlink:href="#mfa0a59a378" x="236.88" y="256.32" style="stroke: #000000; stroke-width: 0.8"/>
      </g>
     </g>
     <g id="text_15">
      <!-- 0.4 -->
      <g transform="translate(228.928437 270.918437) scale(0.1 -0.1)">
       <use xlink:href="#DejaVuSans-30"/>
       <use xlink:href="#DejaVuSans-2e" x="63.623047"/>
       <use xlink:href="#DejaVuSans-34" x="95.410156"/>
      </g>
     </g>
    </g>
   </g>
   <g id="matplotlib.axis_4">
    <g id="ytick_6">
     <g id="line2d_20">
      <g>
       <use xlink:href="#md2cc9cd800" x="36" y="237.455015" style="stroke: #000000; stroke-width: 0.8"/>
      </g>
     </g>
     <g id="text_16">
      <!-- −10.0 -->
      <g transform="translate(-1.645313 241.254234) scale(0.1 -0.1)">
       <use xlink:href="#DejaVuSans-2212"/>
       <use xlink:href="#DejaVuSans-31" x="83.789062"/>
       <use xlink:href="#DejaVuSans-30" x="147.412109"/>
       <use xlink:href="#DejaVuSans-2e" x="211.035156"/>
       <use xlink:href="#DejaVuSans-30" x="242.822266"/>
      </g>
     </g>
    </g>
    <g id="ytick_7">
     <g id="line2d_21">
      <g>
       <use xlink:href="#md2cc9cd800" x="36" y="216.414287" style="stroke: #000000; stroke-width: 0.8"/>
      </g>
     </g>
     <g id="text_17">
      <!-- −7.5 -->
      <g transform="translate(4.717187 220.213506) scale(0.1 -0.1)">
       <defs>
        <path id="DejaVuSans-37" d="M 525 4666 
L 3525 4666 
L 3525 4397 
L 1831 0 
L 1172 0 
L 2766 4134 
L 525 4134 
L 525 4666 
z
" transform="scale(0.015625)"/>
        <path id="DejaVuSans-35" d="M 691 4666 
L 3169 4666 
L 3169 4134 
L 1269 4134 
L 1269 2991 
Q 1406 3038 1543 3061 
Q 1681 3084 1819 3084 
Q 2600 3084 3056 2656 
Q 3513 2228 3513 1497 
Q 3513 744 3044 326 
Q 2575 -91 1722 -91 
Q 1428 -91 1123 -41 
Q 819 9 494 109 
L 494 744 
Q 775 591 1075 516 
Q 1375 441 1709 441 
Q 2250 441 2565 725 
Q 2881 1009 2881 1497 
Q 2881 1984 2565 2268 
Q 2250 2553 1709 2553 
Q 1456 2553 1204 2497 
Q 953 2441 691 2322 
L 691 4666 
z
" transform="scale(0.015625)"/>
       </defs>
       <use xlink:href="#DejaVuSans-2212"/>
       <use xlink:href="#DejaVuSans-37" x="83.789062"/>
       <use xlink:href="#DejaVuSans-2e" x="147.412109"/>
       <use xlink:href="#DejaVuSans-35" x="179.199219"/>
      </g>
     </g>
    </g>
    <g id="ytick_8">
     <g id="line2d_22">
      <g>
       <use xlink:href="#md2cc9cd800" x="36" y="195.373559" style="stroke: #000000; stroke-width: 0.8"/>
      </g>
     </g>
     <g id="text_18">
      <!-- −5.0 -->
      <g transform="translate(4.717187 199.172778) scale(0.1 -0.1)">
       <use xlink:href="#DejaVuSans-2212"/>
       <use xlink:href="#DejaVuSans-35" x="83.789062"/>
       <use xlink:href="#DejaVuSans-2e" x="147.412109"/>
       <use xlink:href="#DejaVuSans-30" x="179.199219"/>
      </g>
     </g>
    </g>
    <g id="ytick_9">
     <g id="line2d_23">
      <g>
       <use xlink:href="#md2cc9cd800" x="36" y="174.332831" style="stroke: #000000; stroke-width: 0.8"/>
      </g>
     </g>
     <g id="text_19">
      <!-- −2.5 -->
      <g transform="translate(4.717187 178.13205) scale(0.1 -0.1)">
       <use xlink:href="#DejaVuSans-2212"/>
       <use xlink:href="#DejaVuSans-32" x="83.789062"/>
       <use xlink:href="#DejaVuSans-2e" x="147.412109"/>
       <use xlink:href="#DejaVuSans-35" x="179.199219"/>
      </g>
     </g>
    </g>
   </g>
   <g id="line2d_24">
    <path d="M 36 216.28939 
L 49.392 217.813894 
L 61.8912 219.461247 
L 73.944 221.276855 
L 85.5504 223.24692 
L 98.0496 225.598238 
L 122.1552 230.219291 
L 126.6192 230.775941 
L 129.744 230.94611 
L 131.976 230.874649 
L 133.7616 230.635419 
L 135.5472 230.150947 
L 136.8864 229.549403 
L 138.2256 228.643328 
L 139.1184 227.797298 
L 140.0112 226.676737 
L 140.904 225.170626 
L 141.7968 223.099616 
L 142.6896 220.15391 
L 143.5824 215.748327 
L 144.0288 212.655197 
L 144.4752 208.628886 
L 144.9216 203.202415 
L 145.368 195.535219 
L 145.8144 183.946164 
L 146.2608 164.512605 
L 146.7072 125.466604 
L 147.1536 7.968457 
M 148.0464 7.968457 
L 148.4928 125.466604 
L 148.9392 164.512605 
L 149.3856 183.946164 
L 149.832 195.535219 
L 150.2784 203.202415 
L 150.7248 208.628886 
L 151.6176 215.748327 
L 152.5104 220.15391 
L 153.4032 223.099616 
L 154.296 225.170626 
L 155.1888 226.676737 
L 156.0816 227.797298 
L 156.9744 228.643328 
L 158.3136 229.549403 
L 159.6528 230.150947 
L 161.4384 230.635419 
L 163.224 230.874649 
L 165.456 230.94611 
L 168.1344 230.814444 
L 171.7056 230.413172 
L 176.616 229.628646 
L 185.0976 228.006098 
L 207.864 223.569103 
L 219.9168 221.493011 
L 231.5232 219.715724 
L 243.576 218.091407 
L 256.5216 216.575826 
L 259.2 216.28939 
L 259.2 216.28939 
" clip-path="url(#p1ed1991c9d)" style="fill: none; stroke-dasharray: 5.55,2.4; stroke-dashoffset: 0; stroke: #1f77b4; stroke-width: 1.5"/>
   </g>
   <g id="line2d_25">
    <path d="M 36 215.974543 
L 48.9456 217.402776 
L 60.9984 218.948989 
L 72.1584 220.596239 
L 82.872 222.400448 
L 93.1392 224.360858 
L 102.5136 226.371563 
L 111.4416 228.502661 
L 120.3696 230.864038 
L 128.8512 233.338184 
L 136.8864 235.904568 
L 144.9216 238.700812 
L 147.1536 239.52 
M 148.0464 239.52 
L 156.0816 236.657706 
L 164.1168 234.028754 
L 172.5984 231.492624 
L 181.08 229.186018 
L 190.008 226.987857 
L 199.3824 224.912854 
L 209.2032 222.971884 
L 219.4704 221.171994 
L 230.184 219.516568 
L 241.7904 217.949338 
L 254.2896 216.490243 
L 259.2 215.974543 
L 259.2 215.974543 
" clip-path="url(#p1ed1991c9d)" style="fill: none; stroke: #1f77b4; stroke-width: 1.5; stroke-linecap: square"/>
   </g>
   <g id="line2d_26">
    <path d="M 36 175.250923 
L 38.6784 176.730087 
L 41.8032 178.188851 
L 45.8208 179.789765 
L 50.7312 181.487368 
L 57.4272 183.547022 
L 68.5872 186.706017 
L 91.3536 193.129498 
L 112.7808 199.255039 
L 117.6912 200.406681 
L 121.2624 201.043858 
L 124.3872 201.36647 
L 126.6192 201.39138 
L 128.4048 201.234323 
L 130.1904 200.86108 
L 131.5296 200.391958 
L 132.8688 199.708081 
L 134.208 198.741539 
L 135.5472 197.394172 
L 136.44 196.214522 
L 137.3328 194.739587 
L 138.2256 192.883441 
L 139.1184 190.523957 
L 140.0112 187.481521 
L 140.904 183.480706 
L 141.7968 178.076567 
L 142.6896 170.500538 
L 143.5824 159.300854 
L 144.0288 151.49149 
L 144.4752 141.366555 
L 144.9216 127.767534 
L 145.368 108.609094 
L 145.8144 79.720567 
L 146.2608 31.370389 
L 146.409761 -1 
M 148.790239 -1 
L 148.9392 31.370389 
L 149.3856 79.720567 
L 149.832 108.609094 
L 150.2784 127.767534 
L 150.7248 141.366555 
L 151.6176 159.300854 
L 152.5104 170.500538 
L 153.4032 178.076567 
L 154.296 183.480706 
L 155.1888 187.481521 
L 156.0816 190.523957 
L 156.9744 192.883441 
L 157.8672 194.739587 
L 158.76 196.214522 
L 160.0992 197.893401 
L 161.4384 199.100404 
L 162.7776 199.9636 
L 164.1168 200.569476 
L 165.9024 201.079038 
L 167.688 201.335946 
L 169.92 201.401306 
L 172.5984 201.215526 
L 175.7232 200.753316 
L 179.7408 199.912925 
L 185.0976 198.547068 
L 194.0256 196.004185 
L 218.5776 188.936262 
L 241.344 182.474828 
L 247.5936 180.432953 
L 252.0576 178.750613 
L 255.6288 177.171498 
L 258.3072 175.773285 
L 259.2 175.250923 
L 259.2 175.250923 
" clip-path="url(#p1ed1991c9d)" style="fill: none; stroke-dasharray: 5.55,2.4; stroke-dashoffset: 0; stroke: #ff7f0e; stroke-width: 1.5"/>
   </g>
   <g id="line2d_27">
    <path d="M 36 172.32 
L 38.232 173.759989 
L 40.9104 175.23088 
L 44.0352 176.699763 
L 48.0528 178.326842 
L 52.9632 180.062865 
L 59.6592 182.177379 
L 71.712 185.696877 
L 86.4432 190.055704 
L 95.8176 193.060428 
L 103.8528 195.855791 
L 111.4416 198.725651 
L 118.584 201.663656 
L 125.28 204.6532 
L 131.976 207.894168 
L 138.2256 211.165751 
L 144.4752 214.693247 
L 147.1536 216.287386 
M 148.0464 216.287386 
L 154.296 212.645232 
L 160.5456 209.266024 
L 166.7952 206.132973 
L 173.4912 203.028955 
L 180.1872 200.164014 
L 187.3296 197.344902 
L 194.9184 194.585032 
L 203.4 191.742867 
L 213.2208 188.700232 
L 227.952 184.409694 
L 239.112 181.075713 
L 245.3616 178.983615 
L 249.8256 177.269224 
L 253.3968 175.673658 
L 256.5216 174.022184 
L 258.7536 172.627175 
L 259.2 172.32 
L 259.2 172.32 
" clip-path="url(#p1ed1991c9d)" style="fill: none; stroke: #ff7f0e; stroke-width: 1.5; stroke-linecap: square"/>
   </g>
   <g id="patch_8">
    <path d="M 36 256.32 
L 36 155.52 
" style="fill: none; stroke: #000000; stroke-width: 0.8; stroke-linejoin: miter; stroke-linecap: square"/>
   </g>
   <g id="patch_9">
    <path d="M 259.2 256.32 
L 259.2 155.52 
" style="fill: none; stroke: #000000; stroke-width: 0.8; stroke-linejoin: miter; stroke-linecap: square"/>
   </g>
   <g id="patch_10">
    <path d="M 36 256.32 
L 259.2 256.32 
" style="fill: none; stroke: #000000; stroke-width: 0.8; stroke-linejoin: miter; stroke-linecap: square"/>
   </g>
   <g id="patch_11">
    <path d="M 36 155.52 
L 259.2 155.52 
" style="fill: none; stroke: #000000; stroke-width: 0.8; stroke-linejoin: miter; stroke-linecap: square"/>
   </g>
  </g>
 </g>
 <defs>
  <clipPath id="p6df48e2490">
   <rect x="36" y="34.56" width="223.2" height="100.8"/>
  </clipPath>
  <clipPath id="p1ed1991c9d">
   <rect x="36" y="155.52" width="223.2" height="100.8"/>
  </clipPath>
 </defs>
</svg>
