<?xml version="1.0" encoding="utf-8" standalone="no"?>
<!DOCTYPE svg PUBLIC "-//W3C//DTD SVG 1.1//EN"
  "http://www.w3.org/Graphics/SVG/1.1/DTD/svg11.dtd">
<svg xmlns:xlink="http://www.w3.org/1999/xlink" width="288pt" height="288pt" viewBox="0 0 288 288" xmlns="http://www.w3.org/2000/svg" version="1.1">
 <metadata>
  <rdf:RDF xmlns:dc="http://purl.org/dc/elements/1.1/" xmlns:cc="http://creativecommons.org/ns#" xmlns:rdf="http://www.w3.org/1999/02/22-rdf-syntax-ns#">
   <cc:Work>
    <dc:type rdf:resource="http://purl.org/dc/dcmitype/StillImage"/>
    <dc:date>2026-05-25T14:21:27.853225</dc:date>
    <dc:format>image/svg+xml</dc:format>
    <dc:creator>
     <cc:Agent>
      <dc:title>Matplotlib v3.10.9, https://matplotlib.org/</dc:title>
     </cc:Agent>
    </dc:creator>
   </cc:Work>
  </rdf:RDF>
 </metadata>
 <defs>
  <style type="text/css">*{stroke-linejoin: round; stroke-linecap: butt}</style>
 </defs>
 <g id="figure_1">
  <g id="patch_1">
   <path d="M 0 288 
L 288 288 
L 288 0 
L 0 0 
z
" style="fill: #ffffff"/>
  </g>
  <g id="axes_1">
   <g id="patch_2">
    <path d="M 38.86 121.52 
L 277.2 121.52 
L 277.2 26.88 
L 38.86 26.88 
z
" style="fill: #ffffff"/>
   </g>
   <g id="matplotlib.axis_1">
    <g id="xtick_1">
     <g id="line2d_1">
      <defs>
       <path id="m22b610da08" d="M 0 0 
L 0 3.5 
" style="stroke: #000000; stroke-width: 0.8"/>
      </defs>
      <g>
       <use xlink:href="#m22b610da08" x="62.694" y="121.52" style="stroke: #000000; stroke-width: 0.8"/>
      </g>
     </g>
     <g id="text_1">
      <!-- −0.4 -->
      <g transform="translate(50.552594 136.118437) scale(0.1 -0.1)">
       <defs>
        <path id="DejaVuSans-2212" d="M 678 2272 
L 4684 2272 
L 4684 1741 
L 678 1741 
L 678 2272 
z
" transform="scale(0.015625)"/>
        <path id="DejaVuSans-30" d="M 2034 4250 
Q 1547 4250 1301 3770 
Q 1056 3291 1056 2328 
Q 1056 1369 1301 889 
Q 1547 409 2034 409 
Q 2525 409 2770 889 
Q 3016 1369 3016 2328 
Q 3016 3291 2770 3770 
Q 2525 4250 2034 4250 
z
M 2034 4750 
Q 2819 4750 3233 4129 
Q 3647 3509 3647 2328 
Q 3647 1150 3233 529 
Q 2819 -91 2034 -91 
Q 1250 -91 836 529 
Q 422 1150 422 2328 
Q 422 3509 836 4129 
Q 1250 4750 2034 4750 
z
" transform="scale(0.015625)"/>
        <path id="DejaVuSans-2e" d="M 684 794 
L 1344 794 
L 1344 0 
L 684 0 
L 684 794 
z
" transform="scale(0.015625)"/>
        <path id="DejaVuSans-34" d="M 2419 4116 
L 825 1625 
L 2419 1625 
L 2419 4116 
z
M 2253 4666 
L 3047 4666 
L 3047 1625 
L 3713 1625 
L 3713 1100 
L 3047 1100 
L 3047 0 
L 2419 0 
L 2419 1100 
L 313 1100 
L 313 1709 
L 2253 4666 
z
" transform="scale(0.015625)"/>
       </defs>
       <use xlink:href="#DejaVuSans-2212"/>
       <use xlink:href="#DejaVuSans-30" transform="translate(83.789062 0)"/>
       <use xlink:href="#DejaVuSans-2e" transform="translate(147.412109 0)"/>
       <use xlink:href="#DejaVuSans-34" transform="translate(179.199219 0)"/>
      </g>
     </g>
    </g>
    <g id="xtick_2">
     <g id="line2d_2">
      <g>
       <use xlink:href="#m22b610da08" x="110.362" y="121.52" style="stroke: #000000; stroke-width: 0.8"/>
      </g>
     </g>
     <g id="text_2">
      <!-- −0.2 -->
      <g transform="translate(98.220594 136.118437) scale(0.1 -0.1)">
       <defs>
        <path id="DejaVuSans-32" d="M 1228 531 
L 3431 531 
L 3431 0 
L 469 0 
L 469 531 
Q 828 903 1448 1529 
Q 2069 2156 2228 2338 
Q 2531 2678 2651 2914 
Q 2772 3150 2772 3378 
Q 2772 3750 2511 3984 
Q 2250 4219 1831 4219 
Q 1534 4219 1204 4116 
Q 875 4013 500 3803 
L 500 4441 
Q 881 4594 1212 4672 
Q 1544 4750 1819 4750 
Q 2544 4750 2975 4387 
Q 3406 4025 3406 3419 
Q 3406 3131 3298 2873 
Q 3191 2616 2906 2266 
Q 2828 2175 2409 1742 
Q 1991 1309 1228 531 
z
" transform="scale(0.015625)"/>
       </defs>
       <use xlink:href="#DejaVuSans-2212"/>
       <use xlink:href="#DejaVuSans-30" transform="translate(83.789062 0)"/>
       <use xlink:href="#DejaVuSans-2e" transform="translate(147.412109 0)"/>
       <use xlink:href="#DejaVuSans-32" transform="translate(179.199219 0)"/>
      </g>
     </g>
    </g>
    <g id="xtick_3">
     <g id="line2d_3">
      <g>
       <use xlink:href="#m22b610da08" x="158.03" y="121.52" style="stroke: #000000; stroke-width: 0.8"/>
      </g>
     </g>
     <g id="text_3">
      <!-- 0.0 -->
      <g transform="translate(150.078437 136.118437) scale(0.1 -0.1)">
       <use xlink:href="#DejaVuSans-30"/>
       <use xlink:href="#DejaVuSans-2e" transform="translate(63.623047 0)"/>
       <use xlink:href="#DejaVuSans-30" transform="translate(95.410156 0)"/>
      </g>
     </g>
    </g>
    <g id="xtick_4">
     <g id="line2d_4">
      <g>
       <use xlink:href="#m22b610da08" x="205.698" y="121.52" style="stroke: #000000; stroke-width: 0.8"/>
      </g>
     </g>
     <g id="text_4">
      <!-- 0.2 -->
      <g transform="translate(197.746437 136.118437) scale(0.1 -0.1)">
       <use xlink:href="#DejaVuSans-30"/>
       <use xlink:href="#DejaVuSans-2e" transform="translate(63.623047 0)"/>
       <use xlink:href="#DejaVuSans-32" transform="translate(95.410156 0)"/>
      </g>
     </g>
    </g>
    <g id="xtick_5">
     <g id="line2d_5">
      <g>
       <use xlink:href="#m22b610da08" x="253.366" y="121.52" style="stroke: #000000; stroke-width: 0.8"/>
      </g>
     </g>
     <g id="text_5">
      <!-- 0.4 -->
      <g transform="translate(245.414437 136.118437) scale(0.1 -0.1)">
       <use xlink:href="#DejaVuSans-30"/>
       <use xlink:href="#DejaVuSans-2e" transform="translate(63.623047 0)"/>
       <use xlink:href="#DejaVuSans-34" transform="translate(95.410156 0)"/>
      </g>
     </g>
    </g>
   </g>
   <g id="matplotlib.axis_2">
    <g id="ytick_1">
     <g id="line2d_6">
      <defs>
       <path id="ma3bb903559" d="M 0 0 
L -3.5 0 
" style="stroke: #000000; stroke-width: 0.8"/>
      </defs>
      <g>
       <use xlink:href="#ma3bb903559" x="38.86" y="114.54134" style="stroke: #000000; stroke-width: 0.8"/>
      </g>
     </g>
     <g id="text_6">
      <!-- 0 -->
      <g transform="translate(25.4975 118.340559) scale(0.1 -0.1)">
       <use xlink:href="#DejaVuSans-30"/>
      </g>
     </g>
    </g>
    <g id="ytick_2">
     <g id="line2d_7">
      <g>
       <use xlink:href="#ma3bb903559" x="38.86" y="89.988795" style="stroke: #000000; stroke-width: 0.8"/>
      </g>
     </g>
     <g id="text_7">
      <!-- 5 -->
      <g transform="translate(25.4975 93.788014) scale(0.1 -0.1)">
       <defs>
        <path id="DejaVuSans-35" d="M 691 4666 
L 3169 4666 
L 3169 4134 
L 1269 4134 
L 1269 2991 
Q 1406 3038 1543 3061 
Q 1681 3084 1819 3084 
Q 2600 3084 3056 2656 
Q 3513 2228 3513 1497 
Q 3513 744 3044 326 
Q 2575 -91 1722 -91 
Q 1428 -91 1123 -41 
Q 819 9 494 109 
L 494 744 
Q 775 591 1075 516 
Q 1375 441 1709 441 
Q 2250 441 2565 725 
Q 2881 1009 2881 1497 
Q 2881 1984 2565 2268 
Q 2250 2553 1709 2553 
Q 1456 2553 1204 2497 
Q 953 2441 691 2322 
L 691 4666 
z
" transform="scale(0.015625)"/>
       </defs>
       <use xlink:href="#DejaVuSans-35"/>
      </g>
     </g>
    </g>
    <g id="ytick_3">
     <g id="line2d_8">
      <g>
       <use xlink:href="#ma3bb903559" x="38.86" y="65.43625" style="stroke: #000000; stroke-width: 0.8"/>
      </g>
     </g>
     <g id="text_8">
      <!-- 10 -->
      <g transform="translate(19.135 69.235469) scale(0.1 -0.1)">
       <defs>
        <path id="DejaVuSans-31" d="M 794 531 
L 1825 531 
L 1825 4091 
L 703 3866 
L 703 4441 
L 1819 4666 
L 2450 4666 
L 2450 531 
L 3481 531 
L 3481 0 
L 794 0 
L 794 531 
z
" transform="scale(0.015625)"/>
       </defs>
       <use xlink:href="#DejaVuSans-31"/>
       <use xlink:href="#DejaVuSans-30" transform="translate(63.623047 0)"/>
      </g>
     </g>
    </g>
    <g id="ytick_4">
     <g id="line2d_9">
      <g>
       <use xlink:href="#ma3bb903559" x="38.86" y="40.883705" style="stroke: #000000; stroke-width: 0.8"/>
      </g>
     </g>
     <g id="text_9">
      <!-- 15 -->
      <g transform="translate(19.135 44.682924) scale(0.1 -0.1)">
       <use xlink:href="#DejaVuSans-31"/>
       <use xlink:href="#DejaVuSans-35" transform="translate(63.623047 0)"/>
      </g>
     </g>
    </g>
   </g>
   <g id="line2d_10">
    <path d="M 38.86 113.80152 
L 51.756152 113.330706 
L 61.786493 112.759915 
L 70.383928 112.055409 
L 77.548457 111.254841 
L 83.757715 110.350695 
L 89.489339 109.292098 
L 94.743327 108.083448 
L 99.519679 106.739769 
L 103.818397 105.288054 
L 107.639479 103.767656 
L 111.460561 101.992142 
L 114.804008 100.194976 
L 118.147455 98.134748 
L 121.013267 96.129627 
L 123.879078 93.87376 
L 126.74489 91.334835 
L 129.610701 88.476183 
L 132.476513 85.256156 
L 134.864689 82.262771 
L 137.252866 78.954809 
L 139.641042 75.297872 
L 142.029218 71.253566 
L 144.417395 66.778987 
L 146.805571 61.826146 
L 149.193747 56.341302 
L 151.581924 50.264191 
L 153.9701 43.527155 
L 156.358277 36.054118 
L 157.791182 31.181818 
L 158.268818 31.181818 
L 160.656994 39.136905 
L 163.04517 46.305828 
L 165.433347 52.770261 
L 167.821523 58.602781 
L 170.209699 63.867976 
L 172.597876 68.623401 
L 174.986052 72.920411 
L 177.374228 76.804886 
L 179.762405 80.31786 
L 182.150581 83.496072 
L 185.016393 86.914159 
L 187.882204 89.947953 
L 190.748016 92.641863 
L 193.613828 95.034961 
L 196.479639 97.161666 
L 199.823086 99.34641 
L 203.166533 101.25183 
L 206.50998 102.914364 
L 210.331062 104.557272 
L 214.152144 105.964467 
L 218.450862 107.308425 
L 223.227214 108.552692 
L 228.481202 109.672227 
L 234.212826 110.653052 
L 240.422084 111.491024 
L 247.586613 112.233235 
L 256.184048 112.886626 
L 266.214389 113.416228 
L 277.2 113.80152 
L 277.2 113.80152 
" clip-path="url(#pf0b2793af9)" style="fill: none; stroke-dasharray: 5.55,2.4; stroke-dashoffset: 0; stroke: #1f77b4; stroke-width: 1.5"/>
   </g>
   <g id="line2d_11">
    <path d="M 38.86 113.801536 
L 51.756152 113.330753 
L 62.264128 112.726834 
L 70.861563 112.009041 
L 78.026092 111.193353 
L 84.235351 110.272123 
L 89.966974 109.193536 
L 94.743327 108.085078 
L 99.519679 106.742186 
L 103.818397 105.291499 
L 107.639479 103.772377 
L 111.460561 101.998611 
L 114.804008 100.203498 
L 118.147455 98.145976 
L 121.013267 96.143847 
L 123.879078 93.89177 
L 126.74489 91.357644 
L 129.610701 88.505072 
L 132.476513 85.292744 
L 134.864689 82.307321 
L 137.252866 79.009053 
L 139.641042 75.363921 
L 142.029218 71.333988 
L 144.417395 66.87691 
L 146.805571 61.945379 
L 149.193747 56.486481 
L 151.581924 50.440964 
L 153.9701 43.742396 
L 156.358277 36.316198 
L 157.791182 31.476763 
L 158.268818 31.476763 
L 160.656994 39.379137 
L 163.04517 46.504767 
L 165.433347 52.933645 
L 167.821523 58.736965 
L 170.209699 63.978179 
L 172.597876 68.713908 
L 174.986052 72.994742 
L 177.374228 76.865933 
L 179.762405 80.367996 
L 182.150581 83.537247 
L 185.016393 86.94667 
L 187.882204 89.973622 
L 190.748016 92.66213 
L 193.613828 95.050964 
L 196.479639 97.174301 
L 199.823086 99.356001 
L 203.166533 101.259111 
L 206.50998 102.91989 
L 210.331062 104.561305 
L 214.152144 105.96741 
L 218.450862 107.310489 
L 223.227214 108.554084 
L 228.481202 109.67313 
L 234.212826 110.653615 
L 240.422084 111.491361 
L 247.586613 112.233422 
L 256.184048 112.886718 
L 266.214389 113.416268 
L 277.2 113.801536 
L 277.2 113.801536 
" clip-path="url(#pf0b2793af9)" style="fill: none; stroke: #1f77b4; stroke-width: 1.5; stroke-linecap: square"/>
   </g>
   <g id="line2d_12">
    <path d="M 38.86 117.203511 
L 57.487776 117.166915 
L 71.339198 116.923518 
L 82.32481 116.517736 
L 91.877515 115.942589 
L 99.997315 115.232406 
L 107.161844 114.385266 
L 113.371102 113.440238 
L 119.102725 112.35401 
L 124.356713 111.140392 
L 129.133066 109.82161 
L 133.909419 108.260356 
L 138.208136 106.612436 
L 142.029218 104.923554 
L 145.850301 102.992177 
L 149.193747 101.075676 
L 152.537194 98.919387 
L 155.880641 96.492309 
L 157.791182 94.970406 
L 158.268818 94.970406 
L 161.612265 97.567805 
L 164.955711 99.874767 
L 168.299158 101.924729 
L 172.12024 103.990262 
L 175.941323 105.796298 
L 180.24004 107.558567 
L 184.538758 109.073808 
L 189.31511 110.508901 
L 194.569098 111.830579 
L 199.823086 112.92541 
L 205.554709 113.903595 
L 212.241603 114.809755 
L 219.406132 115.553433 
L 227.525932 116.172041 
L 237.078637 116.666224 
L 248.064248 117.0054 
L 261.438036 117.190099 
L 277.2 117.203511 
L 277.2 117.203511 
" clip-path="url(#pf0b2793af9)" style="fill: none; stroke-dasharray: 5.55,2.4; stroke-dashoffset: 0; stroke: #ff7f0e; stroke-width: 1.5"/>
   </g>
   <g id="line2d_13">
    <path d="M 38.86 117.203513 
L 57.487776 117.166924 
L 71.339198 116.923548 
L 82.32481 116.517813 
L 91.877515 115.942757 
L 99.997315 115.232734 
L 107.161844 114.385859 
L 113.371102 113.441228 
L 119.102725 112.355597 
L 124.356713 111.14284 
L 129.133066 109.82524 
L 133.909419 108.265737 
L 138.208136 106.620106 
L 142.029218 104.934065 
L 145.850301 103.00658 
L 149.193747 101.09465 
L 152.537194 98.944383 
L 155.880641 96.525239 
L 157.791182 95.008954 
L 158.268818 95.008954 
L 161.612265 97.597066 
L 164.955711 99.896978 
L 168.299158 101.941589 
L 172.12024 104.002566 
L 175.941323 105.805277 
L 180.24004 107.564867 
L 184.538758 109.078228 
L 189.31511 110.511882 
L 194.569098 111.832512 
L 199.823086 112.926663 
L 205.554709 113.904377 
L 212.241603 114.810205 
L 219.406132 115.553683 
L 227.525932 116.172168 
L 237.078637 116.666282 
L 248.064248 117.005424 
L 261.438036 117.190107 
L 277.2 117.203513 
L 277.2 117.203513 
" clip-path="url(#pf0b2793af9)" style="fill: none; stroke: #ff7f0e; stroke-width: 1.5; stroke-linecap: square"/>
   </g>
   <g id="patch_3">
    <path d="M 38.86 121.52 
L 38.86 26.88 
" style="fill: none; stroke: #000000; stroke-width: 0.8; stroke-linejoin: miter; stroke-linecap: square"/>
   </g>
   <g id="patch_4">
    <path d="M 277.2 121.52 
L 277.2 26.88 
" style="fill: none; stroke: #000000; stroke-width: 0.8; stroke-linejoin: miter; stroke-linecap: square"/>
   </g>
   <g id="patch_5">
    <path d="M 38.86 121.52 
L 277.2 121.52 
" style="fill: none; stroke: #000000; stroke-width: 0.8; stroke-linejoin: miter; stroke-linecap: square"/>
   </g>
   <g id="patch_6">
    <path d="M 38.86 26.88 
L 277.2 26.88 
" style="fill: none; stroke: #000000; stroke-width: 0.8; stroke-linejoin: miter; stroke-linecap: square"/>
   </g>
   <g id="text_10">
    <!-- Atom 1 (Z=10): Wavefunction -->
    <g transform="translate(68.169687 20.88) scale(0.12 -0.12)">
     <defs>
      <path id="DejaVuSans-41" d="M 2188 4044 
L 1331 1722 
L 3047 1722 
L 2188 4044 
z
M 1831 4666 
L 2547 4666 
L 4325 0 
L 3669 0 
L 3244 1197 
L 1141 1197 
L 716 0 
L 50 0 
L 1831 4666 
z
" transform="scale(0.015625)"/>
      <path id="DejaVuSans-74" d="M 1172 4494 
L 1172 3500 
L 2356 3500 
L 2356 3053 
L 1172 3053 
L 1172 1153 
Q 1172 725 1289 603 
Q 1406 481 1766 481 
L 2356 481 
L 2356 0 
L 1766 0 
Q 1100 0 847 248 
Q 594 497 594 1153 
L 594 3053 
L 172 3053 
L 172 3500 
L 594 3500 
L 594 4494 
L 1172 4494 
z
" transform="scale(0.015625)"/>
      <path id="DejaVuSans-6f" d="M 1959 3097 
Q 1497 3097 1228 2736 
Q 959 2375 959 1747 
Q 959 1119 1226 758 
Q 1494 397 1959 397 
Q 2419 397 2687 759 
Q 2956 1122 2956 1747 
Q 2956 2369 2687 2733 
Q 2419 3097 1959 3097 
z
M 1959 3584 
Q 2709 3584 3137 3096 
Q 3566 2609 3566 1747 
Q 3566 888 3137 398 
Q 2709 -91 1959 -91 
Q 1206 -91 779 398 
Q 353 888 353 1747 
Q 353 2609 779 3096 
Q 1206 3584 1959 3584 
z
" transform="scale(0.015625)"/>
      <path id="DejaVuSans-6d" d="M 3328 2828 
Q 3544 3216 3844 3400 
Q 4144 3584 4550 3584 
Q 5097 3584 5394 3201 
Q 5691 2819 5691 2113 
L 5691 0 
L 5113 0 
L 5113 2094 
Q 5113 2597 4934 2840 
Q 4756 3084 4391 3084 
Q 3944 3084 3684 2787 
Q 3425 2491 3425 1978 
L 3425 0 
L 2847 0 
L 2847 2094 
Q 2847 2600 2669 2842 
Q 2491 3084 2119 3084 
Q 1678 3084 1418 2786 
Q 1159 2488 1159 1978 
L 1159 0 
L 581 0 
L 581 3500 
L 1159 3500 
L 1159 2956 
Q 1356 3278 1631 3431 
Q 1906 3584 2284 3584 
Q 2666 3584 2933 3390 
Q 3200 3197 3328 2828 
z
" transform="scale(0.015625)"/>
      <path id="DejaVuSans-20" transform="scale(0.015625)"/>
      <path id="DejaVuSans-28" d="M 1984 4856 
Q 1566 4138 1362 3434 
Q 1159 2731 1159 2009 
Q 1159 1288 1364 580 
Q 1569 -128 1984 -844 
L 1484 -844 
Q 1016 -109 783 600 
Q 550 1309 550 2009 
Q 550 2706 781 3412 
Q 1013 4119 1484 4856 
L 1984 4856 
z
" transform="scale(0.015625)"/>
      <path id="DejaVuSans-5a" d="M 359 4666 
L 4025 4666 
L 4025 4184 
L 1075 531 
L 4097 531 
L 4097 0 
L 288 0 
L 288 481 
L 3238 4134 
L 359 4134 
L 359 4666 
z
" transform="scale(0.015625)"/>
      <path id="DejaVuSans-3d" d="M 678 2906 
L 4684 2906 
L 4684 2381 
L 678 2381 
L 678 2906 
z
M 678 1631 
L 4684 1631 
L 4684 1100 
L 678 1100 
L 678 1631 
z
" transform="scale(0.015625)"/>
      <path id="DejaVuSans-29" d="M 513 4856 
L 1013 4856 
Q 1481 4119 1714 3412 
Q 1947 2706 1947 2009 
Q 1947 1309 1714 600 
Q 1481 -109 1013 -844 
L 513 -844 
Q 928 -128 1133 580 
Q 1338 1288 1338 2009 
Q 1338 2731 1133 3434 
Q 928 4138 513 4856 
z
" transform="scale(0.015625)"/>
      <path id="DejaVuSans-3a" d="M 750 794 
L 1409 794 
L 1409 0 
L 750 0 
L 750 794 
z
M 750 3309 
L 1409 3309 
L 1409 2516 
L 750 2516 
L 750 3309 
z
" transform="scale(0.015625)"/>
      <path id="DejaVuSans-57" d="M 213 4666 
L 850 4666 
L 1831 722 
L 2809 4666 
L 3519 4666 
L 4500 722 
L 5478 4666 
L 6119 4666 
L 4947 0 
L 4153 0 
L 3169 4050 
L 2175 0 
L 1381 0 
L 213 4666 
z
" transform="scale(0.015625)"/>
      <path id="DejaVuSans-61" d="M 2194 1759 
Q 1497 1759 1228 1600 
Q 959 1441 959 1056 
Q 959 750 1161 570 
Q 1363 391 1709 391 
Q 2188 391 2477 730 
Q 2766 1069 2766 1631 
L 2766 1759 
L 2194 1759 
z
M 3341 1997 
L 3341 0 
L 2766 0 
L 2766 531 
Q 2569 213 2275 61 
Q 1981 -91 1556 -91 
Q 1019 -91 701 211 
Q 384 513 384 1019 
Q 384 1609 779 1909 
Q 1175 2209 1959 2209 
L 2766 2209 
L 2766 2266 
Q 2766 2663 2505 2880 
Q 2244 3097 1772 3097 
Q 1472 3097 1187 3025 
Q 903 2953 641 2809 
L 641 3341 
Q 956 3463 1253 3523 
Q 1550 3584 1831 3584 
Q 2591 3584 2966 3190 
Q 3341 2797 3341 1997 
z
" transform="scale(0.015625)"/>
      <path id="DejaVuSans-76" d="M 191 3500 
L 800 3500 
L 1894 563 
L 2988 3500 
L 3597 3500 
L 2284 0 
L 1503 0 
L 191 3500 
z
" transform="scale(0.015625)"/>
      <path id="DejaVuSans-65" d="M 3597 1894 
L 3597 1613 
L 953 1613 
Q 991 1019 1311 708 
Q 1631 397 2203 397 
Q 2534 397 2845 478 
Q 3156 559 3463 722 
L 3463 178 
Q 3153 47 2828 -22 
Q 2503 -91 2169 -91 
Q 1331 -91 842 396 
Q 353 884 353 1716 
Q 353 2575 817 3079 
Q 1281 3584 2069 3584 
Q 2775 3584 3186 3129 
Q 3597 2675 3597 1894 
z
M 3022 2063 
Q 3016 2534 2758 2815 
Q 2500 3097 2075 3097 
Q 1594 3097 1305 2825 
Q 1016 2553 972 2059 
L 3022 2063 
z
" transform="scale(0.015625)"/>
      <path id="DejaVuSans-66" d="M 2375 4863 
L 2375 4384 
L 1825 4384 
Q 1516 4384 1395 4259 
Q 1275 4134 1275 3809 
L 1275 3500 
L 2222 3500 
L 2222 3053 
L 1275 3053 
L 1275 0 
L 697 0 
L 697 3053 
L 147 3053 
L 147 3500 
L 697 3500 
L 697 3744 
Q 697 4328 969 4595 
Q 1241 4863 1831 4863 
L 2375 4863 
z
" transform="scale(0.015625)"/>
      <path id="DejaVuSans-75" d="M 544 1381 
L 544 3500 
L 1119 3500 
L 1119 1403 
Q 1119 906 1312 657 
Q 1506 409 1894 409 
Q 2359 409 2629 706 
Q 2900 1003 2900 1516 
L 2900 3500 
L 3475 3500 
L 3475 0 
L 2900 0 
L 2900 538 
Q 2691 219 2414 64 
Q 2138 -91 1772 -91 
Q 1169 -91 856 284 
Q 544 659 544 1381 
z
M 1991 3584 
L 1991 3584 
z
" transform="scale(0.015625)"/>
      <path id="DejaVuSans-6e" d="M 3513 2113 
L 3513 0 
L 2938 0 
L 2938 2094 
Q 2938 2591 2744 2837 
Q 2550 3084 2163 3084 
Q 1697 3084 1428 2787 
Q 1159 2491 1159 1978 
L 1159 0 
L 581 0 
L 581 3500 
L 1159 3500 
L 1159 2956 
Q 1366 3272 1645 3428 
Q 1925 3584 2291 3584 
Q 2894 3584 3203 3211 
Q 3513 2838 3513 2113 
z
" transform="scale(0.015625)"/>
      <path id="DejaVuSans-63" d="M 3122 3366 
L 3122 2828 
Q 2878 2963 2633 3030 
Q 2388 3097 2138 3097 
Q 1578 3097 1268 2742 
Q 959 2388 959 1747 
Q 959 1106 1268 751 
Q 1578 397 2138 397 
Q 2388 397 2633 464 
Q 2878 531 3122 666 
L 3122 134 
Q 2881 22 2623 -34 
Q 2366 -91 2075 -91 
Q 1284 -91 818 406 
Q 353 903 353 1747 
Q 353 2603 823 3093 
Q 1294 3584 2113 3584 
Q 2378 3584 2631 3529 
Q 2884 3475 3122 3366 
z
" transform="scale(0.015625)"/>
      <path id="DejaVuSans-69" d="M 603 3500 
L 1178 3500 
L 1178 0 
L 603 0 
L 603 3500 
z
M 603 4863 
L 1178 4863 
L 1178 4134 
L 603 4134 
L 603 4863 
z
" transform="scale(0.015625)"/>
     </defs>
     <use xlink:href="#DejaVuSans-41"/>
     <use xlink:href="#DejaVuSans-74" transform="translate(66.658203 0)"/>
     <use xlink:href="#DejaVuSans-6f" transform="translate(105.867188 0)"/>
     <use xlink:href="#DejaVuSans-6d" transform="translate(167.048828 0)"/>
     <use xlink:href="#DejaVuSans-20" transform="translate(264.460938 0)"/>
     <use xlink:href="#DejaVuSans-31" transform="translate(296.248047 0)"/>
     <use xlink:href="#DejaVuSans-20" transform="translate(359.871094 0)"/>
     <use xlink:href="#DejaVuSans-28" transform="translate(391.658203 0)"/>
     <use xlink:href="#DejaVuSans-5a" transform="translate(430.671875 0)"/>
     <use xlink:href="#DejaVuSans-3d" transform="translate(499.177734 0)"/>
     <use xlink:href="#DejaVuSans-31" transform="translate(582.966797 0)"/>
     <use xlink:href="#DejaVuSans-30" transform="translate(646.589844 0)"/>
     <use xlink:href="#DejaVuSans-29" transform="translate(710.212891 0)"/>
     <use xlink:href="#DejaVuSans-3a" transform="translate(749.226562 0)"/>
     <use xlink:href="#DejaVuSans-20" transform="translate(782.917969 0)"/>
     <use xlink:href="#DejaVuSans-57" transform="translate(814.705078 0)"/>
     <use xlink:href="#DejaVuSans-61" transform="translate(907.207031 0)"/>
     <use xlink:href="#DejaVuSans-76" transform="translate(968.486328 0)"/>
     <use xlink:href="#DejaVuSans-65" transform="translate(1027.666016 0)"/>
     <use xlink:href="#DejaVuSans-66" transform="translate(1089.189453 0)"/>
     <use xlink:href="#DejaVuSans-75" transform="translate(1124.394531 0)"/>
     <use xlink:href="#DejaVuSans-6e" transform="translate(1187.773438 0)"/>
     <use xlink:href="#DejaVuSans-63" transform="translate(1251.152344 0)"/>
     <use xlink:href="#DejaVuSans-74" transform="translate(1306.132812 0)"/>
     <use xlink:href="#DejaVuSans-69" transform="translate(1345.341797 0)"/>
     <use xlink:href="#DejaVuSans-6f" transform="translate(1373.125 0)"/>
     <use xlink:href="#DejaVuSans-6e" transform="translate(1434.306641 0)"/>
    </g>
   </g>
  </g>
  <g id="axes_2">
   <g id="patch_7">
    <path d="M 38.86 260.12 
L 277.2 260.12 
L 277.2 165.48 
L 38.86 165.48 
z
" style="fill: #ffffff"/>
   </g>
   <g id="matplotlib.axis_3">
    <g id="xtick_6">
     <g id="line2d_14">
      <g>
       <use xlink:href="#m22b610da08" x="62.694" y="260.12" style="stroke: #000000; stroke-width: 0.8"/>
      </g>
     </g>
     <g id="text_11">
      <!-- −0.4 -->
      <g transform="translate(50.552594 274.718437) scale(0.1 -0.1)">
       <use xlink:href="#DejaVuSans-2212"/>
       <use xlink:href="#DejaVuSans-30" transform="translate(83.789062 0)"/>
       <use xlink:href="#DejaVuSans-2e" transform="translate(147.412109 0)"/>
       <use xlink:href="#DejaVuSans-34" transform="translate(179.199219 0)"/>
      </g>
     </g>
    </g>
    <g id="xtick_7">
     <g id="line2d_15">
      <g>
       <use xlink:href="#m22b610da08" x="110.362" y="260.12" style="stroke: #000000; stroke-width: 0.8"/>
      </g>
     </g>
     <g id="text_12">
      <!-- −0.2 -->
      <g transform="translate(98.220594 274.718437) scale(0.1 -0.1)">
       <use xlink:href="#DejaVuSans-2212"/>
       <use xlink:href="#DejaVuSans-30" transform="translate(83.789062 0)"/>
       <use xlink:href="#DejaVuSans-2e" transform="translate(147.412109 0)"/>
       <use xlink:href="#DejaVuSans-32" transform="translate(179.199219 0)"/>
      </g>
     </g>
    </g>
    <g id="xtick_8">
     <g id="line2d_16">
      <g>
       <use xlink:href="#m22b610da08" x="158.03" y="260.12" style="stroke: #000000; stroke-width: 0.8"/>
      </g>
     </g>
     <g id="text_13">
      <!-- 0.0 -->
      <g transform="translate(150.078437 274.718437) scale(0.1 -0.1)">
       <use xlink:href="#DejaVuSans-30"/>
       <use xlink:href="#DejaVuSans-2e" transform="translate(63.623047 0)"/>
       <use xlink:href="#DejaVuSans-30" transform="translate(95.410156 0)"/>
      </g>
     </g>
    </g>
    <g id="xtick_9">
     <g id="line2d_17">
      <g>
       <use xlink:href="#m22b610da08" x="205.698" y="260.12" style="stroke: #000000; stroke-width: 0.8"/>
      </g>
     </g>
     <g id="text_14">
      <!-- 0.2 -->
      <g transform="translate(197.746437 274.718437) scale(0.1 -0.1)">
       <use xlink:href="#DejaVuSans-30"/>
       <use xlink:href="#DejaVuSans-2e" transform="translate(63.623047 0)"/>
       <use xlink:href="#DejaVuSans-32" transform="translate(95.410156 0)"/>
      </g>
     </g>
    </g>
    <g id="xtick_10">
     <g id="line2d_18">
      <g>
       <use xlink:href="#m22b610da08" x="253.366" y="260.12" style="stroke: #000000; stroke-width: 0.8"/>
      </g>
     </g>
     <g id="text_15">
      <!-- 0.4 -->
      <g transform="translate(245.414437 274.718437) scale(0.1 -0.1)">
       <use xlink:href="#DejaVuSans-30"/>
       <use xlink:href="#DejaVuSans-2e" transform="translate(63.623047 0)"/>
       <use xlink:href="#DejaVuSans-34" transform="translate(95.410156 0)"/>
      </g>
     </g>
    </g>
   </g>
   <g id="matplotlib.axis_4">
    <g id="ytick_5">
     <g id="line2d_19">
      <g>
       <use xlink:href="#ma3bb903559" x="38.86" y="250.650846" style="stroke: #000000; stroke-width: 0.8"/>
      </g>
     </g>
     <g id="text_16">
      <!-- −60 -->
      <g transform="translate(10.755312 254.450065) scale(0.1 -0.1)">
       <defs>
        <path id="DejaVuSans-36" d="M 2113 2584 
Q 1688 2584 1439 2293 
Q 1191 2003 1191 1497 
Q 1191 994 1439 701 
Q 1688 409 2113 409 
Q 2538 409 2786 701 
Q 3034 994 3034 1497 
Q 3034 2003 2786 2293 
Q 2538 2584 2113 2584 
z
M 3366 4563 
L 3366 3988 
Q 3128 4100 2886 4159 
Q 2644 4219 2406 4219 
Q 1781 4219 1451 3797 
Q 1122 3375 1075 2522 
Q 1259 2794 1537 2939 
Q 1816 3084 2150 3084 
Q 2853 3084 3261 2657 
Q 3669 2231 3669 1497 
Q 3669 778 3244 343 
Q 2819 -91 2113 -91 
Q 1303 -91 875 529 
Q 447 1150 447 2328 
Q 447 3434 972 4092 
Q 1497 4750 2381 4750 
Q 2619 4750 2861 4703 
Q 3103 4656 3366 4563 
z
" transform="scale(0.015625)"/>
       </defs>
       <use xlink:href="#DejaVuSans-2212"/>
       <use xlink:href="#DejaVuSans-36" transform="translate(83.789062 0)"/>
       <use xlink:href="#DejaVuSans-30" transform="translate(147.412109 0)"/>
      </g>
     </g>
    </g>
    <g id="ytick_6">
     <g id="line2d_20">
      <g>
       <use xlink:href="#ma3bb903559" x="38.86" y="220.529115" style="stroke: #000000; stroke-width: 0.8"/>
      </g>
     </g>
     <g id="text_17">
      <!-- −40 -->
      <g transform="translate(10.755312 224.328334) scale(0.1 -0.1)">
       <use xlink:href="#DejaVuSans-2212"/>
       <use xlink:href="#DejaVuSans-34" transform="translate(83.789062 0)"/>
       <use xlink:href="#DejaVuSans-30" transform="translate(147.412109 0)"/>
      </g>
     </g>
    </g>
    <g id="ytick_7">
     <g id="line2d_21">
      <g>
       <use xlink:href="#ma3bb903559" x="38.86" y="190.407384" style="stroke: #000000; stroke-width: 0.8"/>
      </g>
     </g>
     <g id="text_18">
      <!-- −20 -->
      <g transform="translate(10.755312 194.206602) scale(0.1 -0.1)">
       <use xlink:href="#DejaVuSans-2212"/>
       <use xlink:href="#DejaVuSans-32" transform="translate(83.789062 0)"/>
       <use xlink:href="#DejaVuSans-30" transform="translate(147.412109 0)"/>
      </g>
     </g>
    </g>
   </g>
   <g id="line2d_22">
    <path d="M 38.86 226.181252 
L 85.668257 230.549428 
L 100.952585 232.229301 
L 112.415832 233.706282 
L 121.968537 235.159091 
L 130.088337 236.612423 
L 137.730501 238.203534 
L 151.104289 241.095848 
L 152.537194 241.163244 
L 153.492465 241.057136 
L 154.447735 240.708466 
L 154.925371 240.370308 
L 155.403006 239.841619 
L 155.880641 238.993604 
L 156.358277 237.550224 
L 156.835912 234.793703 
L 157.313547 228.092075 
L 157.791182 193.757291 
L 158.268818 193.757291 
L 158.746453 228.092075 
L 159.224088 234.793703 
L 159.701723 237.550224 
L 160.179359 238.993604 
L 160.656994 239.841619 
L 161.134629 240.370308 
L 162.0899 240.92426 
L 163.04517 241.131497 
L 164.478076 241.138883 
L 166.388617 240.890198 
L 169.732064 240.196683 
L 185.016393 236.798984 
L 193.136192 235.318553 
L 202.211263 233.909344 
L 212.719238 232.518044 
L 225.615391 231.048244 
L 242.810261 229.327372 
L 274.811824 226.398347 
L 277.2 226.181252 
L 277.2 226.181252 
" clip-path="url(#pd7db16008e)" style="fill: none; stroke-dasharray: 5.55,2.4; stroke-dashoffset: 0; stroke: #1f77b4; stroke-width: 1.5"/>
   </g>
   <g id="line2d_23">
    <path d="M 38.86 226.176946 
L 87.101162 230.665861 
L 101.907856 232.289866 
L 113.371102 233.763018 
L 122.446172 235.141196 
L 130.088337 236.510015 
L 136.77523 237.917472 
L 142.984489 239.450583 
L 148.238477 240.960068 
L 153.492465 242.707146 
L 158.268818 244.346667 
L 163.04517 242.537292 
L 167.821523 240.960068 
L 173.075511 239.450583 
L 178.807134 238.026983 
L 185.494028 236.603389 
L 193.136192 235.220483 
L 201.733627 233.897822 
L 212.241603 232.519288 
L 225.137756 231.063186 
L 242.810261 229.309335 
L 277.2 226.176946 
L 277.2 226.176946 
" clip-path="url(#pd7db16008e)" style="fill: none; stroke: #1f77b4; stroke-width: 1.5; stroke-linecap: square"/>
   </g>
   <g id="line2d_24">
    <path d="M 38.86 181.253141 
L 55.099599 182.657329 
L 67.995752 183.983383 
L 78.503727 185.281313 
L 86.145892 186.435644 
L 91.39988 187.428527 
L 95.220962 188.369747 
L 97.609138 189.16222 
L 99.519679 190.041527 
L 100.952585 191.001653 
L 101.907856 191.933417 
L 102.863126 193.346565 
L 103.340762 194.396217 
L 103.818397 195.876145 
L 104.296032 198.151705 
L 104.773667 202.166179 
L 105.251303 211.331003 
L 105.728938 254.866724 
L 106.206573 113.985233 
L 106.684208 164.721218 
L 107.161844 174.46238 
L 107.639479 178.638324 
L 108.117114 180.983409 
L 108.594749 182.501847 
L 109.55002 184.38744 
L 110.505291 185.549614 
L 111.460561 186.368016 
L 112.893467 187.265072 
L 114.804008 188.149064 
L 117.66982 189.171882 
L 121.968537 190.436784 
L 133.909419 193.611018 
L 150.626653 197.983329 
L 152.537194 198.282995 
L 153.9701 198.314199 
L 154.925371 198.110902 
L 155.403006 197.867702 
L 155.880641 197.44574 
L 156.358277 196.691312 
L 156.835912 195.204805 
L 157.313547 191.521009 
L 157.791182 172.453125 
L 158.268818 172.453125 
L 158.746453 191.521009 
L 159.224088 195.204805 
L 159.701723 196.691312 
L 160.179359 197.44574 
L 160.656994 197.867702 
L 161.612265 198.247074 
L 162.567535 198.334272 
L 164.000441 198.226574 
L 166.388617 197.781773 
L 170.687335 196.708288 
L 197.43491 189.471027 
L 200.778357 188.337889 
L 202.688898 187.510615 
L 204.121804 186.700356 
L 205.077074 185.989388 
L 206.032345 185.026824 
L 206.987615 183.57713 
L 207.465251 182.501847 
L 207.942886 180.983409 
L 208.420521 178.638324 
L 208.898156 174.46238 
L 209.375792 164.721218 
L 209.853427 113.985233 
L 210.331062 254.866724 
L 210.808697 211.331003 
L 211.286333 202.166179 
L 211.763968 198.151705 
L 212.241603 195.876145 
L 212.719238 194.396217 
L 213.674509 192.555942 
L 214.62978 191.426227 
L 215.58505 190.638327 
L 217.017956 189.790378 
L 218.928497 188.983577 
L 221.316673 188.235332 
L 224.66012 187.428527 
L 229.436473 186.517071 
L 236.123367 185.480416 
L 245.198437 184.31348 
L 256.661683 183.074175 
L 270.990741 181.762083 
L 277.2 181.253141 
L 277.2 181.253141 
" clip-path="url(#pd7db16008e)" style="fill: none; stroke-dasharray: 5.55,2.4; stroke-dashoffset: 0; stroke: #ff7f0e; stroke-width: 1.5"/>
   </g>
   <g id="line2d_25">
    <path d="M 38.86 181.253333 
L 55.099599 182.658048 
L 67.995752 183.985562 
L 78.026092 185.221896 
L 85.668257 186.367713 
L 90.922244 187.349851 
L 94.743327 188.272996 
L 97.131503 189.038511 
L 99.042044 189.86849 
L 100.47495 190.744933 
L 101.43022 191.562043 
L 102.385491 192.736561 
L 102.863126 193.559782 
L 103.340762 194.653573 
L 103.818397 196.196487 
L 104.296032 198.568968 
L 104.773667 202.751187 
L 105.251303 212.273444 
L 105.728938 256.941196 
L 106.206573 108.819225 
L 106.684208 163.357194 
L 107.161844 173.666938 
L 107.639479 178.068709 
L 108.117114 180.534579 
L 108.594749 182.128046 
L 109.55002 184.101553 
L 110.505291 185.313303 
L 111.460561 186.163291 
L 112.893467 187.090498 
L 114.804008 187.998342 
L 117.66982 189.040669 
L 121.968537 190.319405 
L 133.431784 193.384879 
L 144.417395 196.452827 
L 154.925371 199.62924 
L 157.791182 200.528962 
L 158.268818 200.528962 
L 170.209699 196.87238 
L 180.24004 194.031248 
L 199.345451 188.719706 
L 201.733627 187.79415 
L 203.644168 186.813837 
L 205.077074 185.770464 
L 206.032345 184.768787 
L 206.987615 183.254359 
L 207.465251 182.128046 
L 207.942886 180.534579 
L 208.420521 178.068709 
L 208.898156 173.666938 
L 209.375792 163.357194 
L 209.853427 108.819225 
L 210.331062 256.941196 
L 210.808697 212.273444 
L 211.286333 202.751187 
L 211.763968 198.568968 
L 212.241603 196.196487 
L 212.719238 194.653573 
L 213.674509 192.736561 
L 214.62978 191.562043 
L 215.58505 190.744933 
L 217.017956 189.86849 
L 218.928497 189.038511 
L 221.316673 188.272996 
L 224.66012 187.45236 
L 229.436473 186.530556 
L 236.123367 185.487085 
L 245.198437 184.316299 
L 256.661683 183.075208 
L 270.990741 181.762399 
L 277.2 181.253333 
L 277.2 181.253333 
" clip-path="url(#pd7db16008e)" style="fill: none; stroke: #ff7f0e; stroke-width: 1.5; stroke-linecap: square"/>
   </g>
   <g id="patch_8">
    <path d="M 38.86 260.12 
L 38.86 165.48 
" style="fill: none; stroke: #000000; stroke-width: 0.8; stroke-linejoin: miter; stroke-linecap: square"/>
   </g>
   <g id="patch_9">
    <path d="M 277.2 260.12 
L 277.2 165.48 
" style="fill: none; stroke: #000000; stroke-width: 0.8; stroke-linejoin: miter; stroke-linecap: square"/>
   </g>
   <g id="patch_10">
    <path d="M 38.86 260.12 
L 277.2 260.12 
" style="fill: none; stroke: #000000; stroke-width: 0.8; stroke-linejoin: miter; stroke-linecap: square"/>
   </g>
   <g id="patch_11">
    <path d="M 38.86 165.48 
L 277.2 165.48 
" style="fill: none; stroke: #000000; stroke-width: 0.8; stroke-linejoin: miter; stroke-linecap: square"/>
   </g>
   <g id="text_19">
    <!-- Atom 1: Local Energy -->
    <g transform="translate(94.04375 159.48) scale(0.12 -0.12)">
     <defs>
      <path id="DejaVuSans-4c" d="M 628 4666 
L 1259 4666 
L 1259 531 
L 3531 531 
L 3531 0 
L 628 0 
L 628 4666 
z
" transform="scale(0.015625)"/>
      <path id="DejaVuSans-6c" d="M 603 4863 
L 1178 4863 
L 1178 0 
L 603 0 
L 603 4863 
z
" transform="scale(0.015625)"/>
      <path id="DejaVuSans-45" d="M 628 4666 
L 3578 4666 
L 3578 4134 
L 1259 4134 
L 1259 2753 
L 3481 2753 
L 3481 2222 
L 1259 2222 
L 1259 531 
L 3634 531 
L 3634 0 
L 628 0 
L 628 4666 
z
" transform="scale(0.015625)"/>
      <path id="DejaVuSans-72" d="M 2631 2963 
Q 2534 3019 2420 3045 
Q 2306 3072 2169 3072 
Q 1681 3072 1420 2755 
Q 1159 2438 1159 1844 
L 1159 0 
L 581 0 
L 581 3500 
L 1159 3500 
L 1159 2956 
Q 1341 3275 1631 3429 
Q 1922 3584 2338 3584 
Q 2397 3584 2469 3576 
Q 2541 3569 2628 3553 
L 2631 2963 
z
" transform="scale(0.015625)"/>
      <path id="DejaVuSans-67" d="M 2906 1791 
Q 2906 2416 2648 2759 
Q 2391 3103 1925 3103 
Q 1463 3103 1205 2759 
Q 947 2416 947 1791 
Q 947 1169 1205 825 
Q 1463 481 1925 481 
Q 2391 481 2648 825 
Q 2906 1169 2906 1791 
z
M 3481 434 
Q 3481 -459 3084 -895 
Q 2688 -1331 1869 -1331 
Q 1566 -1331 1297 -1286 
Q 1028 -1241 775 -1147 
L 775 -588 
Q 1028 -725 1275 -790 
Q 1522 -856 1778 -856 
Q 2344 -856 2625 -561 
Q 2906 -266 2906 331 
L 2906 616 
Q 2728 306 2450 153 
Q 2172 0 1784 0 
Q 1141 0 747 490 
Q 353 981 353 1791 
Q 353 2603 747 3093 
Q 1141 3584 1784 3584 
Q 2172 3584 2450 3431 
Q 2728 3278 2906 2969 
L 2906 3500 
L 3481 3500 
L 3481 434 
z
" transform="scale(0.015625)"/>
      <path id="DejaVuSans-79" d="M 2059 -325 
Q 1816 -950 1584 -1140 
Q 1353 -1331 966 -1331 
L 506 -1331 
L 506 -850 
L 844 -850 
Q 1081 -850 1212 -737 
Q 1344 -625 1503 -206 
L 1606 56 
L 191 3500 
L 800 3500 
L 1894 763 
L 2988 3500 
L 3597 3500 
L 2059 -325 
z
" transform="scale(0.015625)"/>
     </defs>
     <use xlink:href="#DejaVuSans-41"/>
     <use xlink:href="#DejaVuSans-74" transform="translate(66.658203 0)"/>
     <use xlink:href="#DejaVuSans-6f" transform="translate(105.867188 0)"/>
     <use xlink:href="#DejaVuSans-6d" transform="translate(167.048828 0)"/>
     <use xlink:href="#DejaVuSans-20" transform="translate(264.460938 0)"/>
     <use xlink:href="#DejaVuSans-31" transform="translate(296.248047 0)"/>
     <use xlink:href="#DejaVuSans-3a" transform="translate(359.871094 0)"/>
     <use xlink:href="#DejaVuSans-20" transform="translate(393.5625 0)"/>
     <use xlink:href="#DejaVuSans-4c" transform="translate(425.349609 0)"/>
     <use xlink:href="#DejaVuSans-6f" transform="translate(479.3125 0)"/>
     <use xlink:href="#DejaVuSans-63" transform="translate(540.494141 0)"/>
     <use xlink:href="#DejaVuSans-61" transform="translate(595.474609 0)"/>
     <use xlink:href="#DejaVuSans-6c" transform="translate(656.753906 0)"/>
     <use xlink:href="#DejaVuSans-20" transform="translate(684.537109 0)"/>
     <use xlink:href="#DejaVuSans-45" transform="translate(716.324219 0)"/>
     <use xlink:href="#DejaVuSans-6e" transform="translate(779.507812 0)"/>
     <use xlink:href="#DejaVuSans-65" transform="translate(842.886719 0)"/>
     <use xlink:href="#DejaVuSans-72" transform="translate(904.410156 0)"/>
     <use xlink:href="#DejaVuSans-67" transform="translate(943.773438 0)"/>
     <use xlink:href="#DejaVuSans-79" transform="translate(1007.25 0)"/>
    </g>
   </g>
  </g>
 </g>
 <defs>
  <clipPath id="pf0b2793af9">
   <rect x="38.86" y="26.88" width="238.34" height="94.64"/>
  </clipPath>
  <clipPath id="pd7db16008e">
   <rect x="38.86" y="165.48" width="238.34" height="94.64"/>
  </clipPath>
 </defs>
</svg>
