<?xml version="1.0" encoding="utf-8" standalone="no"?>
<!DOCTYPE svg PUBLIC "-//W3C//DTD SVG 1.1//EN"
  "http://www.w3.org/Graphics/SVG/1.1/DTD/svg11.dtd">
<svg xmlns:xlink="http://www.w3.org/1999/xlink" width="288pt" height="288pt" viewBox="0 0 288 288" xmlns="http://www.w3.org/2000/svg" version="1.1">
 <metadata>
  <rdf:RDF xmlns:dc="http://purl.org/dc/elements/1.1/" xmlns:cc="http://creativecommons.org/ns#" xmlns:rdf="http://www.w3.org/1999/02/22-rdf-syntax-ns#">
   <cc:Work>
    <dc:type rdf:resource="http://purl.org/dc/dcmitype/StillImage"/>
    <dc:date>2025-09-10T16:42:04.883279</dc:date>
    <dc:format>image/svg+xml</dc:format>
    <dc:creator>
     <cc:Agent>
      <dc:title>Matplotlib v3.9.4, https://matplotlib.org/</dc:title>
     </cc:Agent>
    </dc:creator>
   </cc:Work>
  </rdf:RDF>
 </metadata>
 <defs>
  <style type="text/css">*{stroke-linejoin: round; stroke-linecap: butt}</style>
 </defs>
 <g id="figure_1">
  <g id="patch_1">
   <path d="M 0 288 
L 288 288 
L 288 0 
L 0 0 
z
" style="fill: #ffffff"/>
  </g>
  <g id="axes_1">
   <g id="patch_2">
    <path d="M 36 135.36 
L 259.2 135.36 
L 259.2 34.56 
L 36 34.56 
z
" style="fill: #ffffff"/>
   </g>
   <g id="matplotlib.axis_1">
    <g id="xtick_1">
     <g id="line2d_1">
      <defs>
       <path id="mcb0386e290" d="M 0 0 
L 0 3.5 
" style="stroke: #000000; stroke-width: 0.8"/>
      </defs>
      <g>
       <use xlink:href="#mcb0386e290" x="58.32" y="135.36" style="stroke: #000000; stroke-width: 0.8"/>
      </g>
     </g>
     <g id="text_1">
      <!-- −0.4 -->
      <g transform="translate(46.178594 149.958437) scale(0.1 -0.1)">
       <defs>
        <path id="DejaVuSans-2212" d="M 678 2272 
L 4684 2272 
L 4684 1741 
L 678 1741 
L 678 2272 
z
" transform="scale(0.015625)"/>
        <path id="DejaVuSans-30" d="M 2034 4250 
Q 1547 4250 1301 3770 
Q 1056 3291 1056 2328 
Q 1056 1369 1301 889 
Q 1547 409 2034 409 
Q 2525 409 2770 889 
Q 3016 1369 3016 2328 
Q 3016 3291 2770 3770 
Q 2525 4250 2034 4250 
z
M 2034 4750 
Q 2819 4750 3233 4129 
Q 3647 3509 3647 2328 
Q 3647 1150 3233 529 
Q 2819 -91 2034 -91 
Q 1250 -91 836 529 
Q 422 1150 422 2328 
Q 422 3509 836 4129 
Q 1250 4750 2034 4750 
z
" transform="scale(0.015625)"/>
        <path id="DejaVuSans-2e" d="M 684 794 
L 1344 794 
L 1344 0 
L 684 0 
L 684 794 
z
" transform="scale(0.015625)"/>
        <path id="DejaVuSans-34" d="M 2419 4116 
L 825 1625 
L 2419 1625 
L 2419 4116 
z
M 2253 4666 
L 3047 4666 
L 3047 1625 
L 3713 1625 
L 3713 1100 
L 3047 1100 
L 3047 0 
L 2419 0 
L 2419 1100 
L 313 1100 
L 313 1709 
L 2253 4666 
z
" transform="scale(0.015625)"/>
       </defs>
       <use xlink:href="#DejaVuSans-2212"/>
       <use xlink:href="#DejaVuSans-30" x="83.789062"/>
       <use xlink:href="#DejaVuSans-2e" x="147.412109"/>
       <use xlink:href="#DejaVuSans-34" x="179.199219"/>
      </g>
     </g>
    </g>
    <g id="xtick_2">
     <g id="line2d_2">
      <g>
       <use xlink:href="#mcb0386e290" x="102.96" y="135.36" style="stroke: #000000; stroke-width: 0.8"/>
      </g>
     </g>
     <g id="text_2">
      <!-- −0.2 -->
      <g transform="translate(90.818594 149.958437) scale(0.1 -0.1)">
       <defs>
        <path id="DejaVuSans-32" d="M 1228 531 
L 3431 531 
L 3431 0 
L 469 0 
L 469 531 
Q 828 903 1448 1529 
Q 2069 2156 2228 2338 
Q 2531 2678 2651 2914 
Q 2772 3150 2772 3378 
Q 2772 3750 2511 3984 
Q 2250 4219 1831 4219 
Q 1534 4219 1204 4116 
Q 875 4013 500 3803 
L 500 4441 
Q 881 4594 1212 4672 
Q 1544 4750 1819 4750 
Q 2544 4750 2975 4387 
Q 3406 4025 3406 3419 
Q 3406 3131 3298 2873 
Q 3191 2616 2906 2266 
Q 2828 2175 2409 1742 
Q 1991 1309 1228 531 
z
" transform="scale(0.015625)"/>
       </defs>
       <use xlink:href="#DejaVuSans-2212"/>
       <use xlink:href="#DejaVuSans-30" x="83.789062"/>
       <use xlink:href="#DejaVuSans-2e" x="147.412109"/>
       <use xlink:href="#DejaVuSans-32" x="179.199219"/>
      </g>
     </g>
    </g>
    <g id="xtick_3">
     <g id="line2d_3">
      <g>
       <use xlink:href="#mcb0386e290" x="147.6" y="135.36" style="stroke: #000000; stroke-width: 0.8"/>
      </g>
     </g>
     <g id="text_3">
      <!-- 0.0 -->
      <g transform="translate(139.648438 149.958437) scale(0.1 -0.1)">
       <use xlink:href="#DejaVuSans-30"/>
       <use xlink:href="#DejaVuSans-2e" x="63.623047"/>
       <use xlink:href="#DejaVuSans-30" x="95.410156"/>
      </g>
     </g>
    </g>
    <g id="xtick_4">
     <g id="line2d_4">
      <g>
       <use xlink:href="#mcb0386e290" x="192.24" y="135.36" style="stroke: #000000; stroke-width: 0.8"/>
      </g>
     </g>
     <g id="text_4">
      <!-- 0.2 -->
      <g transform="translate(184.288437 149.958437) scale(0.1 -0.1)">
       <use xlink:href="#DejaVuSans-30"/>
       <use xlink:href="#DejaVuSans-2e" x="63.623047"/>
       <use xlink:href="#DejaVuSans-32" x="95.410156"/>
      </g>
     </g>
    </g>
    <g id="xtick_5">
     <g id="line2d_5">
      <g>
       <use xlink:href="#mcb0386e290" x="236.88" y="135.36" style="stroke: #000000; stroke-width: 0.8"/>
      </g>
     </g>
     <g id="text_5">
      <!-- 0.4 -->
      <g transform="translate(228.928437 149.958437) scale(0.1 -0.1)">
       <use xlink:href="#DejaVuSans-30"/>
       <use xlink:href="#DejaVuSans-2e" x="63.623047"/>
       <use xlink:href="#DejaVuSans-34" x="95.410156"/>
      </g>
     </g>
    </g>
   </g>
   <g id="matplotlib.axis_2">
    <g id="ytick_1">
     <g id="line2d_6">
      <defs>
       <path id="ma2d19f0dc1" d="M 0 0 
L -3.5 0 
" style="stroke: #000000; stroke-width: 0.8"/>
      </defs>
      <g>
       <use xlink:href="#ma2d19f0dc1" x="36" y="127.954574" style="stroke: #000000; stroke-width: 0.8"/>
      </g>
     </g>
     <g id="text_6">
      <!-- 0 -->
      <g transform="translate(22.6375 131.753793) scale(0.1 -0.1)">
       <use xlink:href="#DejaVuSans-30"/>
      </g>
     </g>
    </g>
    <g id="ytick_2">
     <g id="line2d_7">
      <g>
       <use xlink:href="#ma2d19f0dc1" x="36" y="102.057439" style="stroke: #000000; stroke-width: 0.8"/>
      </g>
     </g>
     <g id="text_7">
      <!-- 5 -->
      <g transform="translate(22.6375 105.856658) scale(0.1 -0.1)">
       <defs>
        <path id="DejaVuSans-35" d="M 691 4666 
L 3169 4666 
L 3169 4134 
L 1269 4134 
L 1269 2991 
Q 1406 3038 1543 3061 
Q 1681 3084 1819 3084 
Q 2600 3084 3056 2656 
Q 3513 2228 3513 1497 
Q 3513 744 3044 326 
Q 2575 -91 1722 -91 
Q 1428 -91 1123 -41 
Q 819 9 494 109 
L 494 744 
Q 775 591 1075 516 
Q 1375 441 1709 441 
Q 2250 441 2565 725 
Q 2881 1009 2881 1497 
Q 2881 1984 2565 2268 
Q 2250 2553 1709 2553 
Q 1456 2553 1204 2497 
Q 953 2441 691 2322 
L 691 4666 
z
" transform="scale(0.015625)"/>
       </defs>
       <use xlink:href="#DejaVuSans-35"/>
      </g>
     </g>
    </g>
    <g id="ytick_3">
     <g id="line2d_8">
      <g>
       <use xlink:href="#ma2d19f0dc1" x="36" y="76.160304" style="stroke: #000000; stroke-width: 0.8"/>
      </g>
     </g>
     <g id="text_8">
      <!-- 10 -->
      <g transform="translate(16.275 79.959523) scale(0.1 -0.1)">
       <defs>
        <path id="DejaVuSans-31" d="M 794 531 
L 1825 531 
L 1825 4091 
L 703 3866 
L 703 4441 
L 1819 4666 
L 2450 4666 
L 2450 531 
L 3481 531 
L 3481 0 
L 794 0 
L 794 531 
z
" transform="scale(0.015625)"/>
       </defs>
       <use xlink:href="#DejaVuSans-31"/>
       <use xlink:href="#DejaVuSans-30" x="63.623047"/>
      </g>
     </g>
    </g>
    <g id="ytick_4">
     <g id="line2d_9">
      <g>
       <use xlink:href="#ma2d19f0dc1" x="36" y="50.263169" style="stroke: #000000; stroke-width: 0.8"/>
      </g>
     </g>
     <g id="text_9">
      <!-- 15 -->
      <g transform="translate(16.275 54.062388) scale(0.1 -0.1)">
       <use xlink:href="#DejaVuSans-31"/>
       <use xlink:href="#DejaVuSans-35" x="63.623047"/>
      </g>
     </g>
    </g>
   </g>
   <g id="line2d_10">
    <path d="M 36 127.174256 
L 48.0528 126.678928 
L 57.4272 126.078947 
L 65.016 125.386966 
L 71.712 124.562328 
L 77.5152 123.631573 
L 82.872 122.542434 
L 87.336 121.423662 
L 91.8 120.068846 
L 95.8176 118.605847 
L 99.3888 117.074349 
L 102.96 115.286679 
L 106.0848 113.477992 
L 109.2096 111.405418 
L 111.888 109.389079 
L 114.5664 107.121443 
L 117.2448 104.57026 
L 119.9232 101.698952 
L 122.6016 98.466003 
L 125.28 94.824234 
L 127.512 91.438627 
L 129.744 87.697003 
L 131.976 83.560345 
L 134.208 78.98508 
L 136.44 73.922494 
L 138.672 68.318065 
L 140.904 62.110694 
L 143.136 55.231824 
L 145.368 47.604425 
L 147.6 39.141818 
L 149.832 47.604425 
L 152.064 55.231824 
L 154.296 62.110694 
L 156.528 68.318065 
L 158.76 73.922494 
L 160.992 78.98508 
L 163.224 83.560345 
L 165.456 87.697003 
L 167.688 91.438627 
L 170.3664 95.461777 
L 173.0448 99.031869 
L 175.7232 102.20143 
L 178.4016 105.016642 
L 181.08 107.518152 
L 183.7584 109.741774 
L 186.8832 112.026708 
L 190.008 114.020096 
L 193.1328 115.759891 
L 196.704 117.479677 
L 200.2752 118.9532 
L 204.2928 120.360988 
L 208.7568 121.664844 
L 213.2208 122.741676 
L 218.5776 123.790126 
L 224.3808 124.686242 
L 231.0768 125.480317 
L 238.6656 126.14677 
L 247.5936 126.702045 
L 258.7536 127.15999 
L 259.2 127.174256 
L 259.2 127.174256 
" clip-path="url(#p04c2a27ac5)" style="fill: none; stroke-dasharray: 5.55,2.4; stroke-dashoffset: 0; stroke: #1f77b4; stroke-width: 1.5"/>
   </g>
   <g id="line2d_11">
    <path d="M 36 127.174274 
L 48.0528 126.678977 
L 57.4272 126.07906 
L 65.016 125.387186 
L 71.712 124.562725 
L 77.5152 123.632234 
L 82.872 122.543494 
L 87.336 121.425231 
L 91.8 120.071171 
L 95.8176 118.609159 
L 99.3888 117.078883 
L 102.96 115.292889 
L 106.0848 113.486168 
L 109.2096 111.416184 
L 112.3344 109.043586 
L 115.0128 106.734812 
L 117.6912 104.137711 
L 120.3696 101.215197 
L 123.048 97.925198 
L 125.7264 94.219943 
L 127.9584 90.776059 
L 130.1904 86.970866 
L 132.4224 82.764952 
L 134.6544 78.114337 
L 136.8864 72.969902 
L 139.1184 67.276725 
L 141.3504 60.973325 
L 143.5824 53.990797 
L 145.8144 46.251814 
L 147.6 39.457938 
L 149.832 47.86415 
L 152.064 55.445214 
L 154.296 62.286015 
L 156.528 68.462109 
L 158.76 74.040841 
L 160.992 79.082314 
L 163.224 83.640233 
L 165.456 87.762639 
L 167.688 91.492554 
L 170.3664 95.504375 
L 173.0448 99.065519 
L 175.7232 102.228012 
L 178.4016 105.03764 
L 181.08 107.534739 
L 183.7584 109.754876 
L 186.8832 112.036659 
L 190.008 114.027654 
L 193.1328 115.765631 
L 196.704 117.483869 
L 200.2752 118.956261 
L 204.2928 120.363137 
L 208.7568 121.666295 
L 213.2208 122.742655 
L 218.5776 123.790737 
L 224.3808 124.686609 
L 231.0768 125.480521 
L 238.6656 126.146875 
L 247.5936 126.702093 
L 258.7536 127.160008 
L 259.2 127.174274 
L 259.2 127.174274 
" clip-path="url(#p04c2a27ac5)" style="fill: none; stroke: #1f77b4; stroke-width: 1.5; stroke-linecap: square"/>
   </g>
   <g id="line2d_12">
    <path d="M 36 130.762692 
L 52.9632 130.729117 
L 65.4624 130.495604 
L 75.7296 130.090879 
L 84.2112 129.548245 
L 91.8 128.84646 
L 98.496 128.006941 
L 104.2992 127.068867 
L 109.656 125.989592 
L 114.5664 124.783087 
L 119.0304 123.471707 
L 123.4944 121.919154 
L 127.512 120.280613 
L 131.0832 118.601724 
L 134.6544 116.682374 
L 138.2256 114.487826 
L 141.3504 112.310342 
L 144.4752 109.860408 
L 147.6 107.102635 
L 150.7248 109.860408 
L 153.8496 112.310342 
L 156.9744 114.487826 
L 160.5456 116.682374 
L 164.1168 118.601724 
L 167.688 120.280613 
L 171.7056 121.919154 
L 175.7232 123.32795 
L 180.1872 124.661734 
L 185.0976 125.889083 
L 190.4544 126.987324 
L 196.2576 127.942298 
L 202.5072 128.747635 
L 209.6496 129.440945 
L 217.6848 129.994536 
L 227.0592 130.411959 
L 238.2192 130.678626 
L 252.0576 130.778046 
L 259.2 130.762692 
L 259.2 130.762692 
" clip-path="url(#p04c2a27ac5)" style="fill: none; stroke-dasharray: 5.55,2.4; stroke-dashoffset: 0; stroke: #ff7f0e; stroke-width: 1.5"/>
   </g>
   <g id="line2d_13">
    <path d="M 36 130.762694 
L 52.9632 130.729127 
L 65.4624 130.495633 
L 75.7296 130.090951 
L 84.2112 129.548396 
L 91.8 128.846756 
L 98.496 128.007475 
L 104.2992 127.069757 
L 109.656 125.991018 
L 114.5664 124.785284 
L 119.0304 123.474962 
L 123.4944 121.923975 
L 127.512 120.28748 
L 131.0832 118.611128 
L 134.6544 116.695253 
L 138.2256 114.505462 
L 141.3504 112.333563 
L 144.4752 109.890982 
L 147.6 107.142891 
L 150.7248 109.890982 
L 153.8496 112.333563 
L 156.9744 114.505462 
L 160.5456 116.695253 
L 164.1168 118.611128 
L 167.688 120.28748 
L 171.7056 121.923975 
L 175.7232 123.331335 
L 180.1872 124.664019 
L 185.0976 125.890566 
L 190.4544 126.98825 
L 196.2576 127.942853 
L 202.5072 128.747955 
L 209.6496 129.441116 
L 217.6848 129.99462 
L 227.0592 130.411996 
L 238.2192 130.67864 
L 252.0576 130.778051 
L 259.2 130.762694 
L 259.2 130.762694 
" clip-path="url(#p04c2a27ac5)" style="fill: none; stroke: #ff7f0e; stroke-width: 1.5; stroke-linecap: square"/>
   </g>
   <g id="patch_3">
    <path d="M 36 135.36 
L 36 34.56 
" style="fill: none; stroke: #000000; stroke-width: 0.8; stroke-linejoin: miter; stroke-linecap: square"/>
   </g>
   <g id="patch_4">
    <path d="M 259.2 135.36 
L 259.2 34.56 
" style="fill: none; stroke: #000000; stroke-width: 0.8; stroke-linejoin: miter; stroke-linecap: square"/>
   </g>
   <g id="patch_5">
    <path d="M 36 135.36 
L 259.2 135.36 
" style="fill: none; stroke: #000000; stroke-width: 0.8; stroke-linejoin: miter; stroke-linecap: square"/>
   </g>
   <g id="patch_6">
    <path d="M 36 34.56 
L 259.2 34.56 
" style="fill: none; stroke: #000000; stroke-width: 0.8; stroke-linejoin: miter; stroke-linecap: square"/>
   </g>
  </g>
  <g id="axes_2">
   <g id="patch_7">
    <path d="M 36 256.32 
L 259.2 256.32 
L 259.2 155.52 
L 36 155.52 
z
" style="fill: #ffffff"/>
   </g>
   <g id="matplotlib.axis_3">
    <g id="xtick_6">
     <g id="line2d_14">
      <g>
       <use xlink:href="#mcb0386e290" x="58.32" y="256.32" style="stroke: #000000; stroke-width: 0.8"/>
      </g>
     </g>
     <g id="text_10">
      <!-- −0.4 -->
      <g transform="translate(46.178594 270.918437) scale(0.1 -0.1)">
       <use xlink:href="#DejaVuSans-2212"/>
       <use xlink:href="#DejaVuSans-30" x="83.789062"/>
       <use xlink:href="#DejaVuSans-2e" x="147.412109"/>
       <use xlink:href="#DejaVuSans-34" x="179.199219"/>
      </g>
     </g>
    </g>
    <g id="xtick_7">
     <g id="line2d_15">
      <g>
       <use xlink:href="#mcb0386e290" x="102.96" y="256.32" style="stroke: #000000; stroke-width: 0.8"/>
      </g>
     </g>
     <g id="text_11">
      <!-- −0.2 -->
      <g transform="translate(90.818594 270.918437) scale(0.1 -0.1)">
       <use xlink:href="#DejaVuSans-2212"/>
       <use xlink:href="#DejaVuSans-30" x="83.789062"/>
       <use xlink:href="#DejaVuSans-2e" x="147.412109"/>
       <use xlink:href="#DejaVuSans-32" x="179.199219"/>
      </g>
     </g>
    </g>
    <g id="xtick_8">
     <g id="line2d_16">
      <g>
       <use xlink:href="#mcb0386e290" x="147.6" y="256.32" style="stroke: #000000; stroke-width: 0.8"/>
      </g>
     </g>
     <g id="text_12">
      <!-- 0.0 -->
      <g transform="translate(139.648438 270.918437) scale(0.1 -0.1)">
       <use xlink:href="#DejaVuSans-30"/>
       <use xlink:href="#DejaVuSans-2e" x="63.623047"/>
       <use xlink:href="#DejaVuSans-30" x="95.410156"/>
      </g>
     </g>
    </g>
    <g id="xtick_9">
     <g id="line2d_17">
      <g>
       <use xlink:href="#mcb0386e290" x="192.24" y="256.32" style="stroke: #000000; stroke-width: 0.8"/>
      </g>
     </g>
     <g id="text_13">
      <!-- 0.2 -->
      <g transform="translate(184.288437 270.918437) scale(0.1 -0.1)">
       <use xlink:href="#DejaVuSans-30"/>
       <use xlink:href="#DejaVuSans-2e" x="63.623047"/>
       <use xlink:href="#DejaVuSans-32" x="95.410156"/>
      </g>
     </g>
    </g>
    <g id="xtick_10">
     <g id="line2d_18">
      <g>
       <use xlink:href="#mcb0386e290" x="236.88" y="256.32" style="stroke: #000000; stroke-width: 0.8"/>
      </g>
     </g>
     <g id="text_14">
      <!-- 0.4 -->
      <g transform="translate(228.928437 270.918437) scale(0.1 -0.1)">
       <use xlink:href="#DejaVuSans-30"/>
       <use xlink:href="#DejaVuSans-2e" x="63.623047"/>
       <use xlink:href="#DejaVuSans-34" x="95.410156"/>
      </g>
     </g>
    </g>
   </g>
   <g id="matplotlib.axis_4">
    <g id="ytick_5">
     <g id="line2d_19">
      <g>
       <use xlink:href="#ma2d19f0dc1" x="36" y="246.349631" style="stroke: #000000; stroke-width: 0.8"/>
      </g>
     </g>
     <g id="text_15">
      <!-- −60 -->
      <g transform="translate(7.895312 250.14885) scale(0.1 -0.1)">
       <defs>
        <path id="DejaVuSans-36" d="M 2113 2584 
Q 1688 2584 1439 2293 
Q 1191 2003 1191 1497 
Q 1191 994 1439 701 
Q 1688 409 2113 409 
Q 2538 409 2786 701 
Q 3034 994 3034 1497 
Q 3034 2003 2786 2293 
Q 2538 2584 2113 2584 
z
M 3366 4563 
L 3366 3988 
Q 3128 4100 2886 4159 
Q 2644 4219 2406 4219 
Q 1781 4219 1451 3797 
Q 1122 3375 1075 2522 
Q 1259 2794 1537 2939 
Q 1816 3084 2150 3084 
Q 2853 3084 3261 2657 
Q 3669 2231 3669 1497 
Q 3669 778 3244 343 
Q 2819 -91 2113 -91 
Q 1303 -91 875 529 
Q 447 1150 447 2328 
Q 447 3434 972 4092 
Q 1497 4750 2381 4750 
Q 2619 4750 2861 4703 
Q 3103 4656 3366 4563 
z
" transform="scale(0.015625)"/>
       </defs>
       <use xlink:href="#DejaVuSans-2212"/>
       <use xlink:href="#DejaVuSans-36" x="83.789062"/>
       <use xlink:href="#DejaVuSans-30" x="147.412109"/>
      </g>
     </g>
    </g>
    <g id="ytick_6">
     <g id="line2d_20">
      <g>
       <use xlink:href="#ma2d19f0dc1" x="36" y="214.217434" style="stroke: #000000; stroke-width: 0.8"/>
      </g>
     </g>
     <g id="text_16">
      <!-- −40 -->
      <g transform="translate(7.895312 218.016653) scale(0.1 -0.1)">
       <use xlink:href="#DejaVuSans-2212"/>
       <use xlink:href="#DejaVuSans-34" x="83.789062"/>
       <use xlink:href="#DejaVuSans-30" x="147.412109"/>
      </g>
     </g>
    </g>
    <g id="ytick_7">
     <g id="line2d_21">
      <g>
       <use xlink:href="#ma2d19f0dc1" x="36" y="182.085237" style="stroke: #000000; stroke-width: 0.8"/>
      </g>
     </g>
     <g id="text_17">
      <!-- −20 -->
      <g transform="translate(7.895312 185.884456) scale(0.1 -0.1)">
       <use xlink:href="#DejaVuSans-2212"/>
       <use xlink:href="#DejaVuSans-32" x="83.789062"/>
       <use xlink:href="#DejaVuSans-30" x="147.412109"/>
      </g>
     </g>
    </g>
   </g>
   <g id="line2d_22">
    <path d="M 36 220.247776 
L 79.3008 224.845014 
L 93.1392 226.562954 
L 103.8528 228.111249 
L 112.7808 229.628187 
L 120.3696 231.141914 
L 127.512 232.799912 
L 136.44 235.144943 
L 140.0112 235.984277 
L 141.7968 236.221586 
L 143.136 236.164623 
L 144.0288 235.874962 
L 144.4752 235.586538 
L 144.9216 235.136751 
L 145.368 234.427104 
L 145.8144 233.260558 
L 146.2608 231.177293 
L 146.7072 226.797752 
L 147.1536 213.223961 
M 148.0464 213.223961 
L 148.4928 226.797752 
L 148.9392 231.177293 
L 149.3856 233.260558 
L 149.832 234.427104 
L 150.2784 235.136751 
L 150.7248 235.586538 
L 151.6176 236.056723 
L 152.5104 236.219521 
L 153.8496 236.185206 
L 155.6352 235.896475 
L 159.2064 235.027554 
L 171.2592 231.940907 
L 178.4016 230.400202 
L 185.9904 228.99138 
L 194.9184 227.567342 
L 205.632 226.095107 
L 219.4704 224.435679 
L 239.5584 222.27482 
L 259.2 220.247776 
L 259.2 220.247776 
" clip-path="url(#p49d79d8a08)" style="fill: none; stroke-dasharray: 5.55,2.4; stroke-dashoffset: 0; stroke: #1f77b4; stroke-width: 1.5"/>
   </g>
   <g id="line2d_23">
    <path d="M 36 220.243199 
L 80.64 224.969041 
L 94.4784 226.687751 
L 104.7456 228.171903 
L 113.2272 229.609693 
L 120.3696 231.032326 
L 126.6192 232.490546 
L 132.4224 234.074815 
L 137.3328 235.631441 
L 141.7968 237.255345 
L 146.2608 239.115879 
L 147.1536 239.52 
M 148.0464 239.52 
L 152.5104 237.607251 
L 156.9744 235.93913 
L 161.8848 234.34181 
L 167.2416 232.83447 
L 173.0448 231.426147 
L 179.7408 230.030332 
L 187.3296 228.675013 
L 196.2576 227.305064 
L 207.4176 225.825091 
L 222.1488 224.111696 
L 245.3616 221.666056 
L 259.2 220.243199 
L 259.2 220.243199 
" clip-path="url(#p49d79d8a08)" style="fill: none; stroke: #1f77b4; stroke-width: 1.5; stroke-linecap: square"/>
   </g>
   <g id="line2d_24">
    <path d="M 36 172.319801 
L 50.7312 173.766373 
L 62.784 175.167812 
L 72.1584 176.467086 
L 79.3008 177.661316 
L 84.6576 178.774542 
L 88.2288 179.733025 
L 90.4608 180.518776 
L 92.2464 181.360017 
L 93.5856 182.235817 
L 94.4784 183.040922 
L 95.3712 184.179741 
L 95.8176 184.965565 
L 96.264 185.994593 
L 96.7104 187.418122 
L 97.1568 189.546217 
L 97.6032 193.130087 
L 98.0496 200.57969 
L 98.496 226.1842 
L 98.90969 -1 
M 98.990267 -1 
L 99.3888 148.560243 
L 99.8352 163.068984 
L 100.2816 168.531626 
L 100.728 171.427822 
L 101.1744 173.241848 
L 102.0672 175.430924 
L 102.96 176.746777 
L 103.8528 177.65906 
L 105.192 178.646523 
L 106.9776 179.608518 
L 109.2096 180.543991 
L 112.7808 181.780012 
L 120.3696 184.100208 
L 141.3504 190.319883 
L 143.136 190.558328 
L 144.0288 190.520968 
L 144.9216 190.236588 
L 145.368 189.908203 
L 145.8144 189.330962 
L 146.2608 188.255428 
L 146.7072 185.93332 
L 147.1536 178.623287 
M 148.0464 178.623287 
L 148.4928 185.93332 
L 148.9392 188.255428 
L 149.3856 189.330962 
L 149.832 189.908203 
L 150.2784 190.236588 
L 151.1712 190.520968 
L 152.5104 190.526916 
L 154.296 190.226256 
L 157.4208 189.408294 
L 165.0096 187.088301 
L 186.4368 180.371571 
L 188.6688 179.392397 
L 190.4544 178.352557 
L 191.7936 177.238416 
L 192.6864 176.157897 
L 193.5792 174.498606 
L 194.0256 173.241848 
L 194.472 171.427822 
L 194.9184 168.531626 
L 195.3648 163.068984 
L 195.8112 148.560243 
L 196.209733 -1 
M 196.29031 -1 
L 196.704 226.1842 
L 197.1504 200.57969 
L 197.5968 193.130087 
L 198.0432 189.546217 
L 198.4896 187.418122 
L 198.936 185.994593 
L 199.8288 184.179741 
L 200.7216 183.040922 
L 201.6144 182.235817 
L 202.9536 181.360017 
L 204.7392 180.518776 
L 206.9712 179.733025 
L 210.096 178.881485 
L 214.56 177.916149 
L 220.8096 176.815861 
L 228.8448 175.635877 
L 239.112 174.359593 
L 251.6112 173.035097 
L 259.2 172.319801 
L 259.2 172.319801 
" clip-path="url(#p49d79d8a08)" style="fill: none; stroke-dasharray: 5.55,2.4; stroke-dashoffset: 0; stroke: #ff7f0e; stroke-width: 1.5"/>
   </g>
   <g id="line2d_25">
    <path d="M 36 172.32 
L 50.7312 173.767088 
L 62.784 175.169963 
L 72.1584 176.472507 
L 79.3008 177.673118 
L 84.2112 178.691985 
L 87.7824 179.633399 
L 90.4608 180.574543 
L 92.2464 181.43898 
L 93.5856 182.343055 
L 94.4784 183.176874 
L 95.3712 184.359216 
L 95.8176 185.176319 
L 96.264 186.247193 
L 96.7104 187.729446 
L 97.1568 189.945722 
L 97.6032 193.676308 
L 98.0496 201.416437 
L 98.496 227.833693 
L 98.879852 -1 
M 99.032345 -1 
L 99.3888 146.774148 
L 99.8352 162.135604 
L 100.2816 167.89018 
L 100.728 170.933142 
L 101.1744 172.835266 
L 102.0672 175.12471 
L 102.96 176.495851 
L 103.8528 177.442881 
L 105.192 178.463178 
L 106.9776 179.450922 
L 109.2096 180.404726 
L 112.7808 181.655778 
L 119.9232 183.854902 
L 132.4224 187.73407 
L 141.7968 190.89762 
L 147.1536 192.797315 
M 148.0464 192.797315 
L 158.76 189.061307 
L 168.1344 186.031844 
L 185.9904 180.404726 
L 188.2224 179.450922 
L 190.008 178.463178 
L 191.3472 177.442881 
L 192.24 176.495851 
L 193.1328 175.12471 
L 193.5792 174.15065 
L 194.0256 172.835266 
L 194.472 170.933142 
L 194.9184 167.89018 
L 195.3648 162.135604 
L 195.8112 146.774148 
L 196.167655 -1 
M 196.320148 -1 
L 196.704 227.833693 
L 197.1504 201.416437 
L 197.5968 193.676308 
L 198.0432 189.945722 
L 198.4896 187.729446 
L 198.936 186.247193 
L 199.8288 184.359216 
L 200.7216 183.176874 
L 201.6144 182.343055 
L 202.9536 181.43898 
L 204.7392 180.574543 
L 206.9712 179.771388 
L 210.096 178.905835 
L 214.56 177.929964 
L 220.8096 176.822711 
L 228.8448 175.638908 
L 239.112 174.360749 
L 251.6112 173.035478 
L 259.2 172.32 
L 259.2 172.32 
" clip-path="url(#p49d79d8a08)" style="fill: none; stroke: #ff7f0e; stroke-width: 1.5; stroke-linecap: square"/>
   </g>
   <g id="patch_8">
    <path d="M 36 256.32 
L 36 155.52 
" style="fill: none; stroke: #000000; stroke-width: 0.8; stroke-linejoin: miter; stroke-linecap: square"/>
   </g>
   <g id="patch_9">
    <path d="M 259.2 256.32 
L 259.2 155.52 
" style="fill: none; stroke: #000000; stroke-width: 0.8; stroke-linejoin: miter; stroke-linecap: square"/>
   </g>
   <g id="patch_10">
    <path d="M 36 256.32 
L 259.2 256.32 
" style="fill: none; stroke: #000000; stroke-width: 0.8; stroke-linejoin: miter; stroke-linecap: square"/>
   </g>
   <g id="patch_11">
    <path d="M 36 155.52 
L 259.2 155.52 
" style="fill: none; stroke: #000000; stroke-width: 0.8; stroke-linejoin: miter; stroke-linecap: square"/>
   </g>
  </g>
 </g>
 <defs>
  <clipPath id="p04c2a27ac5">
   <rect x="36" y="34.56" width="223.2" height="100.8"/>
  </clipPath>
  <clipPath id="p49d79d8a08">
   <rect x="36" y="155.52" width="223.2" height="100.8"/>
  </clipPath>
 </defs>
</svg>
