<?xml version="1.0" encoding="utf-8" standalone="no"?>
<!DOCTYPE svg PUBLIC "-//W3C//DTD SVG 1.1//EN"
  "http://www.w3.org/Graphics/SVG/1.1/DTD/svg11.dtd">
<svg xmlns:xlink="http://www.w3.org/1999/xlink" width="288pt" height="288pt" viewBox="0 0 288 288" xmlns="http://www.w3.org/2000/svg" version="1.1">
 <metadata>
  <rdf:RDF xmlns:dc="http://purl.org/dc/elements/1.1/" xmlns:cc="http://creativecommons.org/ns#" xmlns:rdf="http://www.w3.org/1999/02/22-rdf-syntax-ns#">
   <cc:Work>
    <dc:type rdf:resource="http://purl.org/dc/dcmitype/StillImage"/>
    <dc:date>2026-05-25T23:03:11.218303</dc:date>
    <dc:format>image/svg+xml</dc:format>
    <dc:creator>
     <cc:Agent>
      <dc:title>Matplotlib v3.10.9, https://matplotlib.org/</dc:title>
     </cc:Agent>
    </dc:creator>
   </cc:Work>
  </rdf:RDF>
 </metadata>
 <defs>
  <style type="text/css">*{stroke-linejoin: round; stroke-linecap: butt}</style>
 </defs>
 <g id="figure_1">
  <g id="patch_1">
   <path d="M 0 288 
L 288 288 
L 288 0 
L 0 0 
z
" style="fill: #ffffff"/>
  </g>
  <g id="axes_1">
   <g id="patch_2">
    <path d="M 45.16 121.52 
L 277.2 121.52 
L 277.2 26.88 
L 45.16 26.88 
z
" style="fill: #ffffff"/>
   </g>
   <g id="matplotlib.axis_1">
    <g id="xtick_1">
     <g id="line2d_1">
      <defs>
       <path id="m31b26b6bf8" d="M 0 0 
L 0 3.5 
" style="stroke: #000000; stroke-width: 0.8"/>
      </defs>
      <g>
       <use xlink:href="#m31b26b6bf8" x="68.364" y="121.52" style="stroke: #000000; stroke-width: 0.8"/>
      </g>
     </g>
     <g id="text_1">
      <!-- −0.4 -->
      <g transform="translate(56.222594 136.118437) scale(0.1 -0.1)">
       <defs>
        <path id="DejaVuSans-2212" d="M 678 2272 
L 4684 2272 
L 4684 1741 
L 678 1741 
L 678 2272 
z
" transform="scale(0.015625)"/>
        <path id="DejaVuSans-30" d="M 2034 4250 
Q 1547 4250 1301 3770 
Q 1056 3291 1056 2328 
Q 1056 1369 1301 889 
Q 1547 409 2034 409 
Q 2525 409 2770 889 
Q 3016 1369 3016 2328 
Q 3016 3291 2770 3770 
Q 2525 4250 2034 4250 
z
M 2034 4750 
Q 2819 4750 3233 4129 
Q 3647 3509 3647 2328 
Q 3647 1150 3233 529 
Q 2819 -91 2034 -91 
Q 1250 -91 836 529 
Q 422 1150 422 2328 
Q 422 3509 836 4129 
Q 1250 4750 2034 4750 
z
" transform="scale(0.015625)"/>
        <path id="DejaVuSans-2e" d="M 684 794 
L 1344 794 
L 1344 0 
L 684 0 
L 684 794 
z
" transform="scale(0.015625)"/>
        <path id="DejaVuSans-34" d="M 2419 4116 
L 825 1625 
L 2419 1625 
L 2419 4116 
z
M 2253 4666 
L 3047 4666 
L 3047 1625 
L 3713 1625 
L 3713 1100 
L 3047 1100 
L 3047 0 
L 2419 0 
L 2419 1100 
L 313 1100 
L 313 1709 
L 2253 4666 
z
" transform="scale(0.015625)"/>
       </defs>
       <use xlink:href="#DejaVuSans-2212"/>
       <use xlink:href="#DejaVuSans-30" transform="translate(83.789062 0)"/>
       <use xlink:href="#DejaVuSans-2e" transform="translate(147.412109 0)"/>
       <use xlink:href="#DejaVuSans-34" transform="translate(179.199219 0)"/>
      </g>
     </g>
    </g>
    <g id="xtick_2">
     <g id="line2d_2">
      <g>
       <use xlink:href="#m31b26b6bf8" x="114.772" y="121.52" style="stroke: #000000; stroke-width: 0.8"/>
      </g>
     </g>
     <g id="text_2">
      <!-- −0.2 -->
      <g transform="translate(102.630594 136.118437) scale(0.1 -0.1)">
       <defs>
        <path id="DejaVuSans-32" d="M 1228 531 
L 3431 531 
L 3431 0 
L 469 0 
L 469 531 
Q 828 903 1448 1529 
Q 2069 2156 2228 2338 
Q 2531 2678 2651 2914 
Q 2772 3150 2772 3378 
Q 2772 3750 2511 3984 
Q 2250 4219 1831 4219 
Q 1534 4219 1204 4116 
Q 875 4013 500 3803 
L 500 4441 
Q 881 4594 1212 4672 
Q 1544 4750 1819 4750 
Q 2544 4750 2975 4387 
Q 3406 4025 3406 3419 
Q 3406 3131 3298 2873 
Q 3191 2616 2906 2266 
Q 2828 2175 2409 1742 
Q 1991 1309 1228 531 
z
" transform="scale(0.015625)"/>
       </defs>
       <use xlink:href="#DejaVuSans-2212"/>
       <use xlink:href="#DejaVuSans-30" transform="translate(83.789062 0)"/>
       <use xlink:href="#DejaVuSans-2e" transform="translate(147.412109 0)"/>
       <use xlink:href="#DejaVuSans-32" transform="translate(179.199219 0)"/>
      </g>
     </g>
    </g>
    <g id="xtick_3">
     <g id="line2d_3">
      <g>
       <use xlink:href="#m31b26b6bf8" x="161.18" y="121.52" style="stroke: #000000; stroke-width: 0.8"/>
      </g>
     </g>
     <g id="text_3">
      <!-- 0.0 -->
      <g transform="translate(153.228438 136.118437) scale(0.1 -0.1)">
       <use xlink:href="#DejaVuSans-30"/>
       <use xlink:href="#DejaVuSans-2e" transform="translate(63.623047 0)"/>
       <use xlink:href="#DejaVuSans-30" transform="translate(95.410156 0)"/>
      </g>
     </g>
    </g>
    <g id="xtick_4">
     <g id="line2d_4">
      <g>
       <use xlink:href="#m31b26b6bf8" x="207.588" y="121.52" style="stroke: #000000; stroke-width: 0.8"/>
      </g>
     </g>
     <g id="text_4">
      <!-- 0.2 -->
      <g transform="translate(199.636437 136.118437) scale(0.1 -0.1)">
       <use xlink:href="#DejaVuSans-30"/>
       <use xlink:href="#DejaVuSans-2e" transform="translate(63.623047 0)"/>
       <use xlink:href="#DejaVuSans-32" transform="translate(95.410156 0)"/>
      </g>
     </g>
    </g>
    <g id="xtick_5">
     <g id="line2d_5">
      <g>
       <use xlink:href="#m31b26b6bf8" x="253.996" y="121.52" style="stroke: #000000; stroke-width: 0.8"/>
      </g>
     </g>
     <g id="text_5">
      <!-- 0.4 -->
      <g transform="translate(246.044437 136.118437) scale(0.1 -0.1)">
       <use xlink:href="#DejaVuSans-30"/>
       <use xlink:href="#DejaVuSans-2e" transform="translate(63.623047 0)"/>
       <use xlink:href="#DejaVuSans-34" transform="translate(95.410156 0)"/>
      </g>
     </g>
    </g>
   </g>
   <g id="matplotlib.axis_2">
    <g id="ytick_1">
     <g id="line2d_6">
      <defs>
       <path id="m7ae5594d4c" d="M 0 0 
L -3.5 0 
" style="stroke: #000000; stroke-width: 0.8"/>
      </defs>
      <g>
       <use xlink:href="#m7ae5594d4c" x="45.16" y="113.599058" style="stroke: #000000; stroke-width: 0.8"/>
      </g>
     </g>
     <g id="text_6">
      <!-- 0 -->
      <g transform="translate(31.7975 117.398277) scale(0.1 -0.1)">
       <use xlink:href="#DejaVuSans-30"/>
      </g>
     </g>
    </g>
    <g id="ytick_2">
     <g id="line2d_7">
      <g>
       <use xlink:href="#m7ae5594d4c" x="45.16" y="78.041974" style="stroke: #000000; stroke-width: 0.8"/>
      </g>
     </g>
     <g id="text_7">
      <!-- 50 -->
      <g transform="translate(25.435 81.841193) scale(0.1 -0.1)">
       <defs>
        <path id="DejaVuSans-35" d="M 691 4666 
L 3169 4666 
L 3169 4134 
L 1269 4134 
L 1269 2991 
Q 1406 3038 1543 3061 
Q 1681 3084 1819 3084 
Q 2600 3084 3056 2656 
Q 3513 2228 3513 1497 
Q 3513 744 3044 326 
Q 2575 -91 1722 -91 
Q 1428 -91 1123 -41 
Q 819 9 494 109 
L 494 744 
Q 775 591 1075 516 
Q 1375 441 1709 441 
Q 2250 441 2565 725 
Q 2881 1009 2881 1497 
Q 2881 1984 2565 2268 
Q 2250 2553 1709 2553 
Q 1456 2553 1204 2497 
Q 953 2441 691 2322 
L 691 4666 
z
" transform="scale(0.015625)"/>
       </defs>
       <use xlink:href="#DejaVuSans-35"/>
       <use xlink:href="#DejaVuSans-30" transform="translate(63.623047 0)"/>
      </g>
     </g>
    </g>
    <g id="ytick_3">
     <g id="line2d_8">
      <g>
       <use xlink:href="#m7ae5594d4c" x="45.16" y="42.484891" style="stroke: #000000; stroke-width: 0.8"/>
      </g>
     </g>
     <g id="text_8">
      <!-- 100 -->
      <g transform="translate(19.0725 46.28411) scale(0.1 -0.1)">
       <defs>
        <path id="DejaVuSans-31" d="M 794 531 
L 1825 531 
L 1825 4091 
L 703 3866 
L 703 4441 
L 1819 4666 
L 2450 4666 
L 2450 531 
L 3481 531 
L 3481 0 
L 794 0 
L 794 531 
z
" transform="scale(0.015625)"/>
       </defs>
       <use xlink:href="#DejaVuSans-31"/>
       <use xlink:href="#DejaVuSans-30" transform="translate(63.623047 0)"/>
       <use xlink:href="#DejaVuSans-30" transform="translate(127.246094 0)"/>
      </g>
     </g>
    </g>
   </g>
   <g id="line2d_9">
    <path d="M 45.16 113.598962 
L 116.771543 113.492037 
L 124.676713 113.258292 
L 129.326814 112.920701 
L 132.581884 112.497365 
L 135.371944 111.926543 
L 137.696994 111.227751 
L 139.557034 110.461359 
L 141.417074 109.444566 
L 142.812104 108.468907 
L 144.207134 107.261867 
L 145.602164 105.768057 
L 146.997194 103.918686 
L 148.392224 101.628272 
L 149.787255 98.790534 
L 151.182285 95.273251 
L 152.577315 90.911821 
L 153.972345 85.501191 
L 155.367375 78.785721 
L 156.762405 70.446455 
L 158.157435 60.085106 
L 159.552465 47.204023 
L 160.947495 31.184504 
L 161.412505 31.184504 
L 162.807535 47.204023 
L 164.202565 60.085106 
L 165.597595 70.446455 
L 166.992625 78.785721 
L 168.387655 85.501191 
L 169.782685 90.911821 
L 171.177715 95.273251 
L 172.572745 98.790534 
L 173.967776 101.628272 
L 175.362806 103.918686 
L 176.757836 105.768057 
L 178.152866 107.261867 
L 179.547896 108.468907 
L 181.407936 109.726347 
L 183.267976 110.673703 
L 185.128016 111.387862 
L 187.453066 112.039136 
L 190.243126 112.57125 
L 193.498196 112.96598 
L 198.148297 113.280871 
L 204.658437 113.476512 
L 216.748697 113.577739 
L 260.924649 113.598919 
L 277.2 113.598962 
L 277.2 113.598962 
" clip-path="url(#pc454941069)" style="fill: none; stroke-dasharray: 5.55,2.4; stroke-dashoffset: 0; stroke: #1f77b4; stroke-width: 1.5"/>
   </g>
   <g id="line2d_10">
    <path d="M 45.16 113.598962 
L 116.771543 113.492037 
L 124.676713 113.258292 
L 129.326814 112.920701 
L 132.581884 112.497365 
L 135.371944 111.926543 
L 137.696994 111.227751 
L 139.557034 110.461359 
L 141.417074 109.444566 
L 142.812104 108.468907 
L 144.207134 107.261867 
L 145.602164 105.768057 
L 146.997194 103.918686 
L 148.392224 101.628272 
L 149.787255 98.790534 
L 151.182285 95.273251 
L 152.577315 90.911821 
L 153.972345 85.501191 
L 155.367375 78.785721 
L 156.762405 70.446455 
L 158.157435 60.085102 
L 159.552465 47.203919 
L 160.947495 31.181818 
L 161.412505 31.181818 
L 162.807535 47.203919 
L 164.202565 60.085102 
L 165.597595 70.446455 
L 166.992625 78.785721 
L 168.387655 85.501191 
L 169.782685 90.911821 
L 171.177715 95.273251 
L 172.572745 98.790534 
L 173.967776 101.628272 
L 175.362806 103.918686 
L 176.757836 105.768057 
L 178.152866 107.261867 
L 179.547896 108.468907 
L 181.407936 109.726347 
L 183.267976 110.673703 
L 185.128016 111.387862 
L 187.453066 112.039136 
L 190.243126 112.57125 
L 193.498196 112.96598 
L 198.148297 113.280871 
L 204.658437 113.476512 
L 216.748697 113.577739 
L 260.924649 113.598919 
L 277.2 113.598962 
L 277.2 113.598962 
" clip-path="url(#pc454941069)" style="fill: none; stroke: #1f77b4; stroke-width: 1.5; stroke-linecap: square"/>
   </g>
   <g id="line2d_11">
    <path d="M 45.16 113.675163 
L 71.200561 113.889094 
L 86.545892 114.224994 
L 98.171142 114.691888 
L 108.401363 115.325635 
L 119.096593 116.220485 
L 129.791824 117.089783 
L 133.976914 117.218182 
L 137.231984 117.105534 
L 140.022044 116.770087 
L 142.347094 116.247558 
L 144.207134 115.616468 
L 146.067174 114.742827 
L 147.927214 113.565495 
L 149.322244 112.438536 
L 150.717275 111.060729 
L 152.112305 109.387555 
L 153.507335 107.366863 
L 154.902365 104.937518 
L 156.297395 102.027834 
L 157.692425 98.553856 
L 159.087455 94.417617 
L 160.482485 89.504755 
L 160.947495 87.670641 
L 161.412505 87.670641 
L 162.807535 92.872526 
L 164.202565 97.253967 
L 165.597595 100.937074 
L 166.992625 104.02487 
L 168.387655 106.605794 
L 169.782685 108.755424 
L 171.177715 110.538229 
L 172.572745 112.009194 
L 173.967776 113.215245 
L 175.827816 114.479641 
L 177.687856 115.422971 
L 179.547896 116.109634 
L 181.872946 116.685766 
L 184.197996 117.023006 
L 186.988056 117.199285 
L 190.708136 117.174904 
L 195.823246 116.869809 
L 207.448497 115.848138 
L 218.143727 115.038145 
L 228.373948 114.496414 
L 239.999198 114.107997 
L 255.344529 113.833299 
L 277.2 113.675163 
L 277.2 113.675163 
" clip-path="url(#pc454941069)" style="fill: none; stroke-dasharray: 5.55,2.4; stroke-dashoffset: 0; stroke: #ff7f0e; stroke-width: 1.5"/>
   </g>
   <g id="line2d_12">
    <path d="M 45.16 113.675163 
L 71.200561 113.889094 
L 86.545892 114.224994 
L 98.171142 114.691888 
L 108.401363 115.325635 
L 119.096593 116.220485 
L 129.791824 117.089783 
L 133.976914 117.218182 
L 137.231984 117.105534 
L 140.022044 116.770087 
L 142.347094 116.247558 
L 144.207134 115.616468 
L 146.067174 114.742827 
L 147.927214 113.565495 
L 149.322244 112.438536 
L 150.717275 111.060729 
L 152.112305 109.387555 
L 153.507335 107.366863 
L 154.902365 104.937518 
L 156.297395 102.027834 
L 157.692425 98.553857 
L 159.087455 94.417655 
L 160.482485 89.505737 
L 160.947495 87.673539 
L 161.412505 87.673539 
L 162.807535 92.872639 
L 164.202565 97.253971 
L 165.597595 100.937074 
L 166.992625 104.02487 
L 168.387655 106.605794 
L 169.782685 108.755424 
L 171.177715 110.538229 
L 172.572745 112.009194 
L 173.967776 113.215245 
L 175.827816 114.479641 
L 177.687856 115.422971 
L 179.547896 116.109634 
L 181.872946 116.685766 
L 184.197996 117.023006 
L 186.988056 117.199285 
L 190.708136 117.174904 
L 195.823246 116.869809 
L 207.448497 115.848138 
L 218.143727 115.038145 
L 228.373948 114.496414 
L 239.999198 114.107997 
L 255.344529 113.833299 
L 277.2 113.675163 
L 277.2 113.675163 
" clip-path="url(#pc454941069)" style="fill: none; stroke: #ff7f0e; stroke-width: 1.5; stroke-linecap: square"/>
   </g>
   <g id="line2d_13">
    <path d="M 45.16 112.985749 
L 75.385651 112.89439 
L 91.195992 113.060967 
L 103.286253 113.399012 
L 114.911503 113.950926 
L 135.371944 115.018311 
L 139.557034 114.963815 
L 142.812104 114.71715 
L 145.602164 114.290483 
L 147.927214 113.725209 
L 150.252265 112.907741 
L 152.112305 112.022994 
L 153.972345 110.882735 
L 155.832385 109.429821 
L 157.227415 108.093614 
L 158.622445 106.507668 
L 160.017475 104.631086 
L 160.947495 103.19643 
L 161.412505 103.19643 
L 162.807535 105.291682 
L 164.202565 107.066461 
L 165.597595 108.564924 
L 167.457635 110.199386 
L 169.317675 111.488113 
L 171.177715 112.494154 
L 173.037756 113.269337 
L 175.362806 113.978001 
L 177.687856 114.459495 
L 180.477916 114.811235 
L 183.732986 114.997025 
L 187.918076 115.002849 
L 193.963206 114.75977 
L 223.723848 113.24219 
L 236.279118 112.979171 
L 252.089459 112.884676 
L 277.2 112.985749 
L 277.2 112.985749 
" clip-path="url(#pc454941069)" style="fill: none; stroke-dasharray: 5.55,2.4; stroke-dashoffset: 0; stroke: #2ca02c; stroke-width: 1.5"/>
   </g>
   <g id="line2d_14">
    <path d="M 45.16 112.985749 
L 75.385651 112.89439 
L 91.195992 113.060967 
L 103.286253 113.399012 
L 114.911503 113.950926 
L 135.371944 115.018311 
L 139.557034 114.963815 
L 142.812104 114.71715 
L 145.602164 114.290483 
L 147.927214 113.725209 
L 150.252265 112.907741 
L 152.112305 112.022994 
L 153.972345 110.882735 
L 155.832385 109.429821 
L 157.227415 108.093614 
L 158.622445 106.507663 
L 160.017475 104.630941 
L 160.947495 103.195165 
L 161.412505 103.195165 
L 162.807535 105.291632 
L 164.202565 107.066459 
L 165.597595 108.564924 
L 167.457635 110.199386 
L 169.317675 111.488113 
L 171.177715 112.494154 
L 173.037756 113.269337 
L 175.362806 113.978001 
L 177.687856 114.459495 
L 180.477916 114.811235 
L 183.732986 114.997025 
L 187.918076 115.002849 
L 193.963206 114.75977 
L 223.723848 113.24219 
L 236.279118 112.979171 
L 252.089459 112.884676 
L 277.2 112.985749 
L 277.2 112.985749 
" clip-path="url(#pc454941069)" style="fill: none; stroke: #2ca02c; stroke-width: 1.5; stroke-linecap: square"/>
   </g>
   <g id="line2d_15">
    <path d="M 45.16 113.462968 
L 88.870942 113.39881 
L 109.331383 113.591706 
L 141.417074 114.001738 
L 146.532184 113.762257 
L 150.252265 113.385208 
L 153.507335 112.837814 
L 156.297395 112.139905 
L 158.622445 111.34139 
L 161.412505 110.285689 
L 163.737555 111.34139 
L 166.062605 112.139905 
L 168.852665 112.837814 
L 172.107735 113.385208 
L 175.827816 113.762257 
L 180.477916 113.989539 
L 186.523046 114.051022 
L 197.218277 113.894356 
L 223.723848 113.461239 
L 245.579319 113.377529 
L 277.2 113.462968 
L 277.2 113.462968 
" clip-path="url(#pc454941069)" style="fill: none; stroke-dasharray: 5.55,2.4; stroke-dashoffset: 0; stroke: #d62728; stroke-width: 1.5"/>
   </g>
   <g id="line2d_16">
    <path d="M 45.16 113.462968 
L 88.870942 113.39881 
L 109.331383 113.591706 
L 141.417074 114.001738 
L 146.532184 113.762257 
L 150.252265 113.385208 
L 153.507335 112.837814 
L 156.297395 112.139905 
L 158.622445 111.341382 
L 161.412505 110.284006 
L 163.737555 111.341382 
L 166.062605 112.139905 
L 168.852665 112.837814 
L 172.107735 113.385208 
L 175.827816 113.762257 
L 180.477916 113.989539 
L 186.523046 114.051022 
L 197.218277 113.894356 
L 223.723848 113.461239 
L 245.579319 113.377529 
L 277.2 113.462968 
L 277.2 113.462968 
" clip-path="url(#pc454941069)" style="fill: none; stroke: #d62728; stroke-width: 1.5; stroke-linecap: square"/>
   </g>
   <g id="patch_3">
    <path d="M 45.16 121.52 
L 45.16 26.88 
" style="fill: none; stroke: #000000; stroke-width: 0.8; stroke-linejoin: miter; stroke-linecap: square"/>
   </g>
   <g id="patch_4">
    <path d="M 277.2 121.52 
L 277.2 26.88 
" style="fill: none; stroke: #000000; stroke-width: 0.8; stroke-linejoin: miter; stroke-linecap: square"/>
   </g>
   <g id="patch_5">
    <path d="M 45.16 121.52 
L 277.2 121.52 
" style="fill: none; stroke: #000000; stroke-width: 0.8; stroke-linejoin: miter; stroke-linecap: square"/>
   </g>
   <g id="patch_6">
    <path d="M 45.16 26.88 
L 277.2 26.88 
" style="fill: none; stroke: #000000; stroke-width: 0.8; stroke-linejoin: miter; stroke-linecap: square"/>
   </g>
   <g id="text_9">
    <!-- Atom 1 (Z=36): Wavefunction -->
    <g transform="translate(71.319688 20.88) scale(0.12 -0.12)">
     <defs>
      <path id="DejaVuSans-41" d="M 2188 4044 
L 1331 1722 
L 3047 1722 
L 2188 4044 
z
M 1831 4666 
L 2547 4666 
L 4325 0 
L 3669 0 
L 3244 1197 
L 1141 1197 
L 716 0 
L 50 0 
L 1831 4666 
z
" transform="scale(0.015625)"/>
      <path id="DejaVuSans-74" d="M 1172 4494 
L 1172 3500 
L 2356 3500 
L 2356 3053 
L 1172 3053 
L 1172 1153 
Q 1172 725 1289 603 
Q 1406 481 1766 481 
L 2356 481 
L 2356 0 
L 1766 0 
Q 1100 0 847 248 
Q 594 497 594 1153 
L 594 3053 
L 172 3053 
L 172 3500 
L 594 3500 
L 594 4494 
L 1172 4494 
z
" transform="scale(0.015625)"/>
      <path id="DejaVuSans-6f" d="M 1959 3097 
Q 1497 3097 1228 2736 
Q 959 2375 959 1747 
Q 959 1119 1226 758 
Q 1494 397 1959 397 
Q 2419 397 2687 759 
Q 2956 1122 2956 1747 
Q 2956 2369 2687 2733 
Q 2419 3097 1959 3097 
z
M 1959 3584 
Q 2709 3584 3137 3096 
Q 3566 2609 3566 1747 
Q 3566 888 3137 398 
Q 2709 -91 1959 -91 
Q 1206 -91 779 398 
Q 353 888 353 1747 
Q 353 2609 779 3096 
Q 1206 3584 1959 3584 
z
" transform="scale(0.015625)"/>
      <path id="DejaVuSans-6d" d="M 3328 2828 
Q 3544 3216 3844 3400 
Q 4144 3584 4550 3584 
Q 5097 3584 5394 3201 
Q 5691 2819 5691 2113 
L 5691 0 
L 5113 0 
L 5113 2094 
Q 5113 2597 4934 2840 
Q 4756 3084 4391 3084 
Q 3944 3084 3684 2787 
Q 3425 2491 3425 1978 
L 3425 0 
L 2847 0 
L 2847 2094 
Q 2847 2600 2669 2842 
Q 2491 3084 2119 3084 
Q 1678 3084 1418 2786 
Q 1159 2488 1159 1978 
L 1159 0 
L 581 0 
L 581 3500 
L 1159 3500 
L 1159 2956 
Q 1356 3278 1631 3431 
Q 1906 3584 2284 3584 
Q 2666 3584 2933 3390 
Q 3200 3197 3328 2828 
z
" transform="scale(0.015625)"/>
      <path id="DejaVuSans-20" transform="scale(0.015625)"/>
      <path id="DejaVuSans-28" d="M 1984 4856 
Q 1566 4138 1362 3434 
Q 1159 2731 1159 2009 
Q 1159 1288 1364 580 
Q 1569 -128 1984 -844 
L 1484 -844 
Q 1016 -109 783 600 
Q 550 1309 550 2009 
Q 550 2706 781 3412 
Q 1013 4119 1484 4856 
L 1984 4856 
z
" transform="scale(0.015625)"/>
      <path id="DejaVuSans-5a" d="M 359 4666 
L 4025 4666 
L 4025 4184 
L 1075 531 
L 4097 531 
L 4097 0 
L 288 0 
L 288 481 
L 3238 4134 
L 359 4134 
L 359 4666 
z
" transform="scale(0.015625)"/>
      <path id="DejaVuSans-3d" d="M 678 2906 
L 4684 2906 
L 4684 2381 
L 678 2381 
L 678 2906 
z
M 678 1631 
L 4684 1631 
L 4684 1100 
L 678 1100 
L 678 1631 
z
" transform="scale(0.015625)"/>
      <path id="DejaVuSans-33" d="M 2597 2516 
Q 3050 2419 3304 2112 
Q 3559 1806 3559 1356 
Q 3559 666 3084 287 
Q 2609 -91 1734 -91 
Q 1441 -91 1130 -33 
Q 819 25 488 141 
L 488 750 
Q 750 597 1062 519 
Q 1375 441 1716 441 
Q 2309 441 2620 675 
Q 2931 909 2931 1356 
Q 2931 1769 2642 2001 
Q 2353 2234 1838 2234 
L 1294 2234 
L 1294 2753 
L 1863 2753 
Q 2328 2753 2575 2939 
Q 2822 3125 2822 3475 
Q 2822 3834 2567 4026 
Q 2313 4219 1838 4219 
Q 1578 4219 1281 4162 
Q 984 4106 628 3988 
L 628 4550 
Q 988 4650 1302 4700 
Q 1616 4750 1894 4750 
Q 2613 4750 3031 4423 
Q 3450 4097 3450 3541 
Q 3450 3153 3228 2886 
Q 3006 2619 2597 2516 
z
" transform="scale(0.015625)"/>
      <path id="DejaVuSans-36" d="M 2113 2584 
Q 1688 2584 1439 2293 
Q 1191 2003 1191 1497 
Q 1191 994 1439 701 
Q 1688 409 2113 409 
Q 2538 409 2786 701 
Q 3034 994 3034 1497 
Q 3034 2003 2786 2293 
Q 2538 2584 2113 2584 
z
M 3366 4563 
L 3366 3988 
Q 3128 4100 2886 4159 
Q 2644 4219 2406 4219 
Q 1781 4219 1451 3797 
Q 1122 3375 1075 2522 
Q 1259 2794 1537 2939 
Q 1816 3084 2150 3084 
Q 2853 3084 3261 2657 
Q 3669 2231 3669 1497 
Q 3669 778 3244 343 
Q 2819 -91 2113 -91 
Q 1303 -91 875 529 
Q 447 1150 447 2328 
Q 447 3434 972 4092 
Q 1497 4750 2381 4750 
Q 2619 4750 2861 4703 
Q 3103 4656 3366 4563 
z
" transform="scale(0.015625)"/>
      <path id="DejaVuSans-29" d="M 513 4856 
L 1013 4856 
Q 1481 4119 1714 3412 
Q 1947 2706 1947 2009 
Q 1947 1309 1714 600 
Q 1481 -109 1013 -844 
L 513 -844 
Q 928 -128 1133 580 
Q 1338 1288 1338 2009 
Q 1338 2731 1133 3434 
Q 928 4138 513 4856 
z
" transform="scale(0.015625)"/>
      <path id="DejaVuSans-3a" d="M 750 794 
L 1409 794 
L 1409 0 
L 750 0 
L 750 794 
z
M 750 3309 
L 1409 3309 
L 1409 2516 
L 750 2516 
L 750 3309 
z
" transform="scale(0.015625)"/>
      <path id="DejaVuSans-57" d="M 213 4666 
L 850 4666 
L 1831 722 
L 2809 4666 
L 3519 4666 
L 4500 722 
L 5478 4666 
L 6119 4666 
L 4947 0 
L 4153 0 
L 3169 4050 
L 2175 0 
L 1381 0 
L 213 4666 
z
" transform="scale(0.015625)"/>
      <path id="DejaVuSans-61" d="M 2194 1759 
Q 1497 1759 1228 1600 
Q 959 1441 959 1056 
Q 959 750 1161 570 
Q 1363 391 1709 391 
Q 2188 391 2477 730 
Q 2766 1069 2766 1631 
L 2766 1759 
L 2194 1759 
z
M 3341 1997 
L 3341 0 
L 2766 0 
L 2766 531 
Q 2569 213 2275 61 
Q 1981 -91 1556 -91 
Q 1019 -91 701 211 
Q 384 513 384 1019 
Q 384 1609 779 1909 
Q 1175 2209 1959 2209 
L 2766 2209 
L 2766 2266 
Q 2766 2663 2505 2880 
Q 2244 3097 1772 3097 
Q 1472 3097 1187 3025 
Q 903 2953 641 2809 
L 641 3341 
Q 956 3463 1253 3523 
Q 1550 3584 1831 3584 
Q 2591 3584 2966 3190 
Q 3341 2797 3341 1997 
z
" transform="scale(0.015625)"/>
      <path id="DejaVuSans-76" d="M 191 3500 
L 800 3500 
L 1894 563 
L 2988 3500 
L 3597 3500 
L 2284 0 
L 1503 0 
L 191 3500 
z
" transform="scale(0.015625)"/>
      <path id="DejaVuSans-65" d="M 3597 1894 
L 3597 1613 
L 953 1613 
Q 991 1019 1311 708 
Q 1631 397 2203 397 
Q 2534 397 2845 478 
Q 3156 559 3463 722 
L 3463 178 
Q 3153 47 2828 -22 
Q 2503 -91 2169 -91 
Q 1331 -91 842 396 
Q 353 884 353 1716 
Q 353 2575 817 3079 
Q 1281 3584 2069 3584 
Q 2775 3584 3186 3129 
Q 3597 2675 3597 1894 
z
M 3022 2063 
Q 3016 2534 2758 2815 
Q 2500 3097 2075 3097 
Q 1594 3097 1305 2825 
Q 1016 2553 972 2059 
L 3022 2063 
z
" transform="scale(0.015625)"/>
      <path id="DejaVuSans-66" d="M 2375 4863 
L 2375 4384 
L 1825 4384 
Q 1516 4384 1395 4259 
Q 1275 4134 1275 3809 
L 1275 3500 
L 2222 3500 
L 2222 3053 
L 1275 3053 
L 1275 0 
L 697 0 
L 697 3053 
L 147 3053 
L 147 3500 
L 697 3500 
L 697 3744 
Q 697 4328 969 4595 
Q 1241 4863 1831 4863 
L 2375 4863 
z
" transform="scale(0.015625)"/>
      <path id="DejaVuSans-75" d="M 544 1381 
L 544 3500 
L 1119 3500 
L 1119 1403 
Q 1119 906 1312 657 
Q 1506 409 1894 409 
Q 2359 409 2629 706 
Q 2900 1003 2900 1516 
L 2900 3500 
L 3475 3500 
L 3475 0 
L 2900 0 
L 2900 538 
Q 2691 219 2414 64 
Q 2138 -91 1772 -91 
Q 1169 -91 856 284 
Q 544 659 544 1381 
z
M 1991 3584 
L 1991 3584 
z
" transform="scale(0.015625)"/>
      <path id="DejaVuSans-6e" d="M 3513 2113 
L 3513 0 
L 2938 0 
L 2938 2094 
Q 2938 2591 2744 2837 
Q 2550 3084 2163 3084 
Q 1697 3084 1428 2787 
Q 1159 2491 1159 1978 
L 1159 0 
L 581 0 
L 581 3500 
L 1159 3500 
L 1159 2956 
Q 1366 3272 1645 3428 
Q 1925 3584 2291 3584 
Q 2894 3584 3203 3211 
Q 3513 2838 3513 2113 
z
" transform="scale(0.015625)"/>
      <path id="DejaVuSans-63" d="M 3122 3366 
L 3122 2828 
Q 2878 2963 2633 3030 
Q 2388 3097 2138 3097 
Q 1578 3097 1268 2742 
Q 959 2388 959 1747 
Q 959 1106 1268 751 
Q 1578 397 2138 397 
Q 2388 397 2633 464 
Q 2878 531 3122 666 
L 3122 134 
Q 2881 22 2623 -34 
Q 2366 -91 2075 -91 
Q 1284 -91 818 406 
Q 353 903 353 1747 
Q 353 2603 823 3093 
Q 1294 3584 2113 3584 
Q 2378 3584 2631 3529 
Q 2884 3475 3122 3366 
z
" transform="scale(0.015625)"/>
      <path id="DejaVuSans-69" d="M 603 3500 
L 1178 3500 
L 1178 0 
L 603 0 
L 603 3500 
z
M 603 4863 
L 1178 4863 
L 1178 4134 
L 603 4134 
L 603 4863 
z
" transform="scale(0.015625)"/>
     </defs>
     <use xlink:href="#DejaVuSans-41"/>
     <use xlink:href="#DejaVuSans-74" transform="translate(66.658203 0)"/>
     <use xlink:href="#DejaVuSans-6f" transform="translate(105.867188 0)"/>
     <use xlink:href="#DejaVuSans-6d" transform="translate(167.048828 0)"/>
     <use xlink:href="#DejaVuSans-20" transform="translate(264.460938 0)"/>
     <use xlink:href="#DejaVuSans-31" transform="translate(296.248047 0)"/>
     <use xlink:href="#DejaVuSans-20" transform="translate(359.871094 0)"/>
     <use xlink:href="#DejaVuSans-28" transform="translate(391.658203 0)"/>
     <use xlink:href="#DejaVuSans-5a" transform="translate(430.671875 0)"/>
     <use xlink:href="#DejaVuSans-3d" transform="translate(499.177734 0)"/>
     <use xlink:href="#DejaVuSans-33" transform="translate(582.966797 0)"/>
     <use xlink:href="#DejaVuSans-36" transform="translate(646.589844 0)"/>
     <use xlink:href="#DejaVuSans-29" transform="translate(710.212891 0)"/>
     <use xlink:href="#DejaVuSans-3a" transform="translate(749.226562 0)"/>
     <use xlink:href="#DejaVuSans-20" transform="translate(782.917969 0)"/>
     <use xlink:href="#DejaVuSans-57" transform="translate(814.705078 0)"/>
     <use xlink:href="#DejaVuSans-61" transform="translate(907.207031 0)"/>
     <use xlink:href="#DejaVuSans-76" transform="translate(968.486328 0)"/>
     <use xlink:href="#DejaVuSans-65" transform="translate(1027.666016 0)"/>
     <use xlink:href="#DejaVuSans-66" transform="translate(1089.189453 0)"/>
     <use xlink:href="#DejaVuSans-75" transform="translate(1124.394531 0)"/>
     <use xlink:href="#DejaVuSans-6e" transform="translate(1187.773438 0)"/>
     <use xlink:href="#DejaVuSans-63" transform="translate(1251.152344 0)"/>
     <use xlink:href="#DejaVuSans-74" transform="translate(1306.132812 0)"/>
     <use xlink:href="#DejaVuSans-69" transform="translate(1345.341797 0)"/>
     <use xlink:href="#DejaVuSans-6f" transform="translate(1373.125 0)"/>
     <use xlink:href="#DejaVuSans-6e" transform="translate(1434.306641 0)"/>
    </g>
   </g>
  </g>
  <g id="axes_2">
   <g id="patch_7">
    <path d="M 45.16 260.12 
L 277.2 260.12 
L 277.2 165.48 
L 45.16 165.48 
z
" style="fill: #ffffff"/>
   </g>
   <g id="matplotlib.axis_3">
    <g id="xtick_6">
     <g id="line2d_17">
      <g>
       <use xlink:href="#m31b26b6bf8" x="68.364" y="260.12" style="stroke: #000000; stroke-width: 0.8"/>
      </g>
     </g>
     <g id="text_10">
      <!-- −0.4 -->
      <g transform="translate(56.222594 274.718437) scale(0.1 -0.1)">
       <use xlink:href="#DejaVuSans-2212"/>
       <use xlink:href="#DejaVuSans-30" transform="translate(83.789062 0)"/>
       <use xlink:href="#DejaVuSans-2e" transform="translate(147.412109 0)"/>
       <use xlink:href="#DejaVuSans-34" transform="translate(179.199219 0)"/>
      </g>
     </g>
    </g>
    <g id="xtick_7">
     <g id="line2d_18">
      <g>
       <use xlink:href="#m31b26b6bf8" x="114.772" y="260.12" style="stroke: #000000; stroke-width: 0.8"/>
      </g>
     </g>
     <g id="text_11">
      <!-- −0.2 -->
      <g transform="translate(102.630594 274.718437) scale(0.1 -0.1)">
       <use xlink:href="#DejaVuSans-2212"/>
       <use xlink:href="#DejaVuSans-30" transform="translate(83.789062 0)"/>
       <use xlink:href="#DejaVuSans-2e" transform="translate(147.412109 0)"/>
       <use xlink:href="#DejaVuSans-32" transform="translate(179.199219 0)"/>
      </g>
     </g>
    </g>
    <g id="xtick_8">
     <g id="line2d_19">
      <g>
       <use xlink:href="#m31b26b6bf8" x="161.18" y="260.12" style="stroke: #000000; stroke-width: 0.8"/>
      </g>
     </g>
     <g id="text_12">
      <!-- 0.0 -->
      <g transform="translate(153.228438 274.718437) scale(0.1 -0.1)">
       <use xlink:href="#DejaVuSans-30"/>
       <use xlink:href="#DejaVuSans-2e" transform="translate(63.623047 0)"/>
       <use xlink:href="#DejaVuSans-30" transform="translate(95.410156 0)"/>
      </g>
     </g>
    </g>
    <g id="xtick_9">
     <g id="line2d_20">
      <g>
       <use xlink:href="#m31b26b6bf8" x="207.588" y="260.12" style="stroke: #000000; stroke-width: 0.8"/>
      </g>
     </g>
     <g id="text_13">
      <!-- 0.2 -->
      <g transform="translate(199.636437 274.718437) scale(0.1 -0.1)">
       <use xlink:href="#DejaVuSans-30"/>
       <use xlink:href="#DejaVuSans-2e" transform="translate(63.623047 0)"/>
       <use xlink:href="#DejaVuSans-32" transform="translate(95.410156 0)"/>
      </g>
     </g>
    </g>
    <g id="xtick_10">
     <g id="line2d_21">
      <g>
       <use xlink:href="#m31b26b6bf8" x="253.996" y="260.12" style="stroke: #000000; stroke-width: 0.8"/>
      </g>
     </g>
     <g id="text_14">
      <!-- 0.4 -->
      <g transform="translate(246.044437 274.718437) scale(0.1 -0.1)">
       <use xlink:href="#DejaVuSans-30"/>
       <use xlink:href="#DejaVuSans-2e" transform="translate(63.623047 0)"/>
       <use xlink:href="#DejaVuSans-34" transform="translate(95.410156 0)"/>
      </g>
     </g>
    </g>
   </g>
   <g id="matplotlib.axis_4">
    <g id="ytick_4">
     <g id="line2d_22">
      <g>
       <use xlink:href="#m7ae5594d4c" x="45.16" y="253.356314" style="stroke: #000000; stroke-width: 0.8"/>
      </g>
     </g>
     <g id="text_15">
      <!-- −750 -->
      <g transform="translate(10.692813 257.155532) scale(0.1 -0.1)">
       <defs>
        <path id="DejaVuSans-37" d="M 525 4666 
L 3525 4666 
L 3525 4397 
L 1831 0 
L 1172 0 
L 2766 4134 
L 525 4134 
L 525 4666 
z
" transform="scale(0.015625)"/>
       </defs>
       <use xlink:href="#DejaVuSans-2212"/>
       <use xlink:href="#DejaVuSans-37" transform="translate(83.789062 0)"/>
       <use xlink:href="#DejaVuSans-35" transform="translate(147.412109 0)"/>
       <use xlink:href="#DejaVuSans-30" transform="translate(211.035156 0)"/>
      </g>
     </g>
    </g>
    <g id="ytick_5">
     <g id="line2d_23">
      <g>
       <use xlink:href="#m7ae5594d4c" x="45.16" y="227.437325" style="stroke: #000000; stroke-width: 0.8"/>
      </g>
     </g>
     <g id="text_16">
      <!-- −500 -->
      <g transform="translate(10.692813 231.236544) scale(0.1 -0.1)">
       <use xlink:href="#DejaVuSans-2212"/>
       <use xlink:href="#DejaVuSans-35" transform="translate(83.789062 0)"/>
       <use xlink:href="#DejaVuSans-30" transform="translate(147.412109 0)"/>
       <use xlink:href="#DejaVuSans-30" transform="translate(211.035156 0)"/>
      </g>
     </g>
    </g>
    <g id="ytick_6">
     <g id="line2d_24">
      <g>
       <use xlink:href="#m7ae5594d4c" x="45.16" y="201.518336" style="stroke: #000000; stroke-width: 0.8"/>
      </g>
     </g>
     <g id="text_17">
      <!-- −250 -->
      <g transform="translate(10.692813 205.317555) scale(0.1 -0.1)">
       <use xlink:href="#DejaVuSans-2212"/>
       <use xlink:href="#DejaVuSans-32" transform="translate(83.789062 0)"/>
       <use xlink:href="#DejaVuSans-35" transform="translate(147.412109 0)"/>
       <use xlink:href="#DejaVuSans-30" transform="translate(211.035156 0)"/>
      </g>
     </g>
    </g>
    <g id="ytick_7">
     <g id="line2d_25">
      <g>
       <use xlink:href="#m7ae5594d4c" x="45.16" y="175.599348" style="stroke: #000000; stroke-width: 0.8"/>
      </g>
     </g>
     <g id="text_18">
      <!-- 0 -->
      <g transform="translate(31.7975 179.398567) scale(0.1 -0.1)">
       <use xlink:href="#DejaVuSans-30"/>
      </g>
     </g>
    </g>
   </g>
   <g id="line2d_26">
    <path d="M 45.16 175.403857 
L 47.48505 175.797077 
L 49.34509 176.296056 
L 51.20513 177.013737 
L 53.06517 178.017786 
L 54.4602 179.010317 
L 55.85523 180.257065 
L 57.250261 181.809373 
L 58.645291 183.724121 
L 60.040321 186.060727 
L 61.435351 188.875487 
L 62.830381 192.212403 
L 64.225411 196.090186 
L 66.085451 202.055335 
L 68.410501 210.453468 
L 71.665571 222.346221 
L 73.060601 226.820104 
L 74.455631 230.627149 
L 75.850661 233.662635 
L 76.780681 235.245816 
L 77.710701 236.490851 
L 78.640721 237.423141 
L 79.570741 238.075802 
L 80.500762 238.48615 
L 81.430782 238.692731 
L 82.825812 238.701873 
L 84.220842 238.450795 
L 86.080882 237.87354 
L 93.521042 235.273802 
L 95.846092 234.767721 
L 98.171142 234.459093 
L 100.961202 234.3317 
L 103.751263 234.431923 
L 107.006333 234.77396 
L 111.191423 235.456126 
L 118.631583 236.961137 
L 127.931784 238.783061 
L 136.301964 240.175526 
L 149.787255 242.387205 
L 155.832385 243.64508 
L 159.552465 244.41196 
L 160.482485 244.374382 
L 160.947495 245.206441 
L 161.412505 245.206441 
L 161.877515 244.374382 
L 162.807535 244.41196 
L 164.667575 244.070634 
L 172.107735 242.475305 
L 179.082886 241.266089 
L 197.218277 238.266951 
L 206.518477 236.380411 
L 213.493627 235.050952 
L 217.213707 234.552828 
L 220.468778 234.342058 
L 223.258838 234.388658 
L 225.583888 234.620932 
L 227.908938 235.047575 
L 230.698998 235.816789 
L 233.954068 236.992564 
L 237.674148 238.326388 
L 239.069178 238.641954 
L 240.464208 238.731415 
L 241.394228 238.612521 
L 242.324248 238.308854 
L 243.254269 237.782153 
L 244.184289 236.994157 
L 245.114309 235.909238 
L 246.044329 234.497679 
L 246.974349 232.73932 
L 248.369379 229.440528 
L 249.764409 225.395208 
L 251.624449 219.082383 
L 257.669579 197.500603 
L 259.529619 192.212403 
L 260.924649 188.875487 
L 262.319679 186.060727 
L 263.714709 183.724121 
L 265.109739 181.809373 
L 266.50477 180.257065 
L 267.8998 179.010317 
L 269.29483 178.017786 
L 271.15487 177.013737 
L 273.01491 176.296056 
L 274.87495 175.797077 
L 277.2 175.403857 
L 277.2 175.403857 
" clip-path="url(#pa56051907a)" style="fill: none; stroke-dasharray: 5.55,2.4; stroke-dashoffset: 0; stroke: #1f77b4; stroke-width: 1.5"/>
   </g>
   <g id="line2d_27">
    <path d="M 45.16 175.403857 
L 47.48505 175.797077 
L 49.34509 176.296056 
L 51.20513 177.013737 
L 53.06517 178.017786 
L 54.4602 179.010317 
L 55.85523 180.257065 
L 57.250261 181.809373 
L 58.645291 183.724121 
L 60.040321 186.060727 
L 61.435351 188.875487 
L 62.830381 192.212403 
L 64.225411 196.090186 
L 66.085451 202.055335 
L 68.410501 210.453468 
L 71.665571 222.346221 
L 73.060601 226.820104 
L 74.455631 230.627149 
L 75.850661 233.662635 
L 76.780681 235.245816 
L 77.710701 236.490851 
L 78.640721 237.423141 
L 79.570741 238.075802 
L 80.500762 238.48615 
L 81.430782 238.692731 
L 82.825812 238.701873 
L 84.220842 238.450795 
L 86.080882 237.87354 
L 93.521042 235.273802 
L 95.846092 234.767721 
L 98.171142 234.459093 
L 100.961202 234.3317 
L 103.751263 234.431923 
L 107.006333 234.77396 
L 111.191423 235.456126 
L 118.631583 236.961137 
L 127.931784 238.783061 
L 136.301964 240.175526 
L 149.787255 242.387205 
L 155.832385 243.645086 
L 159.552465 244.423917 
L 160.482485 244.346667 
L 160.947495 243.997561 
L 161.412505 243.997561 
L 161.877515 244.346667 
L 162.807535 244.423917 
L 164.667575 244.070954 
L 172.107735 242.475305 
L 179.082886 241.266089 
L 197.218277 238.266951 
L 206.518477 236.380411 
L 213.493627 235.050952 
L 217.213707 234.552828 
L 220.468778 234.342058 
L 223.258838 234.388658 
L 225.583888 234.620932 
L 227.908938 235.047575 
L 230.698998 235.816789 
L 233.954068 236.992564 
L 237.674148 238.326388 
L 239.069178 238.641954 
L 240.464208 238.731415 
L 241.394228 238.612521 
L 242.324248 238.308854 
L 243.254269 237.782153 
L 244.184289 236.994157 
L 245.114309 235.909238 
L 246.044329 234.497679 
L 246.974349 232.73932 
L 248.369379 229.440528 
L 249.764409 225.395208 
L 251.624449 219.082383 
L 257.669579 197.500603 
L 259.529619 192.212403 
L 260.924649 188.875487 
L 262.319679 186.060727 
L 263.714709 183.724121 
L 265.109739 181.809373 
L 266.50477 180.257065 
L 267.8998 179.010317 
L 269.29483 178.017786 
L 271.15487 177.013737 
L 273.01491 176.296056 
L 274.87495 175.797077 
L 277.2 175.403857 
L 277.2 175.403857 
" clip-path="url(#pa56051907a)" style="fill: none; stroke: #1f77b4; stroke-width: 1.5; stroke-linecap: square"/>
   </g>
   <g id="line2d_28">
    <path d="M 45.16 188.061154 
L 89.335952 189.941265 
L 104.681283 190.864845 
L 117.701563 191.863605 
L 128.396794 192.893707 
L 136.766974 193.914608 
L 142.347094 194.790322 
L 145.602164 195.480716 
L 146.532184 195.78856 
L 146.997194 196.043957 
L 147.462204 196.658787 
L 147.927214 186.865564 
L 148.392224 195.066625 
L 148.857234 195.553687 
L 149.787255 195.972043 
L 152.577315 196.786033 
L 157.692425 198.091541 
L 159.552465 198.538911 
L 160.482485 199.15413 
L 160.947495 196.33966 
L 161.412505 196.33966 
L 161.877515 199.15413 
L 162.807535 198.538911 
L 164.202565 198.184814 
L 167.457635 197.41917 
L 172.572745 195.972043 
L 173.502766 195.553687 
L 173.967776 195.066625 
L 174.432786 186.865564 
L 174.897796 196.658787 
L 175.362806 196.043957 
L 176.292826 195.617666 
L 178.152866 195.151489 
L 182.337956 194.397467 
L 188.383086 193.545121 
L 196.753267 192.601526 
L 207.448497 191.62939 
L 220.468778 190.678918 
L 235.349098 189.820134 
L 254.414509 188.957248 
L 277.2 188.061154 
L 277.2 188.061154 
" clip-path="url(#pa56051907a)" style="fill: none; stroke-dasharray: 5.55,2.4; stroke-dashoffset: 0; stroke: #ff7f0e; stroke-width: 1.5"/>
   </g>
   <g id="line2d_29">
    <path d="M 45.16 188.061154 
L 89.335952 189.941265 
L 104.681283 190.864845 
L 117.701563 191.863605 
L 128.396794 192.893707 
L 136.766974 193.914608 
L 142.347094 194.790322 
L 145.602164 195.480716 
L 146.532184 195.78856 
L 146.997194 196.043957 
L 147.462204 196.658787 
L 147.927214 186.865564 
L 148.392224 195.066625 
L 148.857234 195.553687 
L 149.787255 195.972043 
L 152.577315 196.786033 
L 157.692425 198.090393 
L 159.552465 198.497324 
L 160.017475 198.732942 
L 160.482485 199.247491 
L 160.947495 200.481923 
L 161.412505 200.481923 
L 161.877515 199.247491 
L 162.342525 198.732942 
L 163.272545 198.366296 
L 167.922645 197.294445 
L 173.037756 195.795029 
L 173.502766 195.553687 
L 173.967776 195.066625 
L 174.432786 186.865564 
L 174.897796 196.658787 
L 175.362806 196.043957 
L 176.292826 195.617666 
L 178.152866 195.151489 
L 182.337956 194.397467 
L 188.383086 193.545121 
L 196.753267 192.601526 
L 207.448497 191.62939 
L 220.468778 190.678918 
L 235.349098 189.820134 
L 254.414509 188.957248 
L 277.2 188.061154 
L 277.2 188.061154 
" clip-path="url(#pa56051907a)" style="fill: none; stroke: #ff7f0e; stroke-width: 1.5; stroke-linecap: square"/>
   </g>
   <g id="line2d_30">
    <path d="M 45.16 182.143419 
L 69.805531 183.027543 
L 88.405932 183.901275 
L 100.961202 184.688891 
L 105.611303 185.16183 
L 106.541323 185.37314 
L 107.006333 185.573198 
L 107.471343 186.027958 
L 107.936353 189.228618 
L 108.401363 183.300807 
L 108.866373 184.414504 
L 109.331383 184.727758 
L 110.261403 185.000256 
L 112.586453 185.325851 
L 135.836954 187.957397 
L 142.347094 189.002726 
L 145.602164 189.685526 
L 146.997194 190.165349 
L 147.462204 190.481709 
L 147.927214 191.305078 
L 148.392224 177.932741 
L 148.857234 188.973117 
L 149.322244 189.605652 
L 150.252265 190.090621 
L 152.577315 190.782618 
L 157.692425 192.274076 
L 159.087455 192.64937 
L 159.552465 192.668781 
L 160.017475 192.526785 
L 160.482485 192.217998 
L 160.947495 195.223666 
L 161.412505 195.223666 
L 161.877515 192.217998 
L 162.342525 192.526785 
L 162.807535 192.668781 
L 163.737555 192.551078 
L 172.107735 190.090621 
L 173.037756 189.605652 
L 173.502766 188.973117 
L 173.967776 177.932741 
L 174.432786 191.305078 
L 174.897796 190.481709 
L 175.827816 189.966696 
L 177.687856 189.464132 
L 181.872946 188.677902 
L 188.383086 187.69616 
L 196.753267 186.661446 
L 208.843527 185.425336 
L 212.098597 185.000256 
L 213.028617 184.727758 
L 213.493627 184.414504 
L 213.958637 183.300807 
L 214.423647 189.228618 
L 214.888657 186.027958 
L 215.353667 185.573198 
L 216.283687 185.250562 
L 218.143727 184.977532 
L 223.258838 184.552495 
L 234.884088 183.851318 
L 252.089459 183.046736 
L 274.87495 182.217313 
L 277.2 182.143419 
L 277.2 182.143419 
" clip-path="url(#pa56051907a)" style="fill: none; stroke-dasharray: 5.55,2.4; stroke-dashoffset: 0; stroke: #2ca02c; stroke-width: 1.5"/>
   </g>
   <g id="line2d_31">
    <path d="M 45.16 182.143419 
L 69.805531 183.027543 
L 88.405932 183.901275 
L 100.961202 184.688891 
L 105.611303 185.16183 
L 106.541323 185.37314 
L 107.006333 185.573198 
L 107.471343 186.027958 
L 107.936353 189.228618 
L 108.401363 183.300807 
L 108.866373 184.414504 
L 109.331383 184.727758 
L 110.261403 185.000256 
L 112.586453 185.325851 
L 135.836954 187.957397 
L 142.347094 189.002726 
L 145.602164 189.685526 
L 146.997194 190.165349 
L 147.462204 190.481709 
L 147.927214 191.305078 
L 148.392224 177.932741 
L 148.857234 188.973117 
L 149.322244 189.605652 
L 150.252265 190.090621 
L 152.577315 190.782618 
L 157.692425 192.275332 
L 159.087455 192.669576 
L 159.552465 192.714113 
L 160.017475 192.602432 
L 160.482485 192.116716 
L 160.947495 190.717521 
L 161.412505 190.717521 
L 161.877515 192.116716 
L 162.342525 192.602432 
L 162.807535 192.714113 
L 163.737555 192.559335 
L 172.572745 189.893782 
L 173.037756 189.605652 
L 173.502766 188.973117 
L 173.967776 177.932741 
L 174.432786 191.305078 
L 174.897796 190.481709 
L 175.827816 189.966696 
L 177.687856 189.464132 
L 181.872946 188.677902 
L 188.383086 187.69616 
L 196.753267 186.661446 
L 208.843527 185.425336 
L 212.098597 185.000256 
L 213.028617 184.727758 
L 213.493627 184.414504 
L 213.958637 183.300807 
L 214.423647 189.228618 
L 214.888657 186.027958 
L 215.353667 185.573198 
L 216.283687 185.250562 
L 218.143727 184.977532 
L 223.258838 184.552495 
L 234.884088 183.851318 
L 252.089459 183.046736 
L 274.87495 182.217313 
L 277.2 182.143419 
L 277.2 182.143419 
" clip-path="url(#pa56051907a)" style="fill: none; stroke: #2ca02c; stroke-width: 1.5; stroke-linecap: square"/>
   </g>
   <g id="line2d_32">
    <path d="M 45.16 181.253333 
L 71.665571 182.23858 
L 89.800962 183.118139 
L 100.961202 183.850691 
L 105.611303 184.322361 
L 107.471343 184.694267 
L 108.401363 185.118467 
L 108.866373 185.595755 
L 109.331383 186.948213 
L 109.521235 289 
M 110.065858 289 
L 110.261403 181.668501 
L 110.726413 183.064592 
L 111.191423 183.551598 
L 112.121443 183.985731 
L 113.516473 184.303128 
L 116.771543 184.745151 
L 134.906934 186.942219 
L 142.812104 188.179652 
L 146.067174 188.831828 
L 146.997194 189.119936 
L 147.462204 189.359337 
L 147.927214 189.903358 
L 148.392224 212.596997 
L 148.857234 188.1027 
L 149.322244 188.711811 
L 150.252265 189.141334 
L 153.042325 189.882879 
L 155.832385 190.729331 
L 159.087455 191.930689 
L 159.552465 191.697817 
L 160.017475 190.885681 
L 160.482485 189.578373 
L 160.947495 202.569007 
L 161.412505 202.569007 
L 161.877515 189.578373 
L 162.342525 190.885681 
L 162.807535 191.697817 
L 163.272545 191.930689 
L 163.737555 191.881739 
L 165.132585 191.301134 
L 166.992625 190.564803 
L 169.782685 189.76355 
L 172.572745 188.968534 
L 173.037756 188.711811 
L 173.502766 188.1027 
L 173.967776 212.596997 
L 174.432786 189.903358 
L 174.897796 189.359337 
L 175.827816 188.959647 
L 178.152866 188.433999 
L 183.732986 187.493982 
L 192.103166 186.312621 
L 202.333387 185.11025 
L 208.843527 184.303128 
L 210.238557 183.985731 
L 211.168577 183.551598 
L 211.633587 183.064592 
L 212.098597 181.668501 
L 212.294142 289 
M 212.838765 289 
L 213.028617 186.948213 
L 213.493627 185.595755 
L 213.958637 185.118467 
L 214.888657 184.694267 
L 216.283687 184.39265 
L 219.538758 184.010871 
L 226.513908 183.483298 
L 239.534188 182.75002 
L 258.599599 181.917463 
L 277.2 181.253333 
L 277.2 181.253333 
" clip-path="url(#pa56051907a)" style="fill: none; stroke-dasharray: 5.55,2.4; stroke-dashoffset: 0; stroke: #d62728; stroke-width: 1.5"/>
   </g>
   <g id="line2d_33">
    <path d="M 45.16 181.253333 
L 71.665571 182.23858 
L 89.800962 183.118139 
L 100.961202 183.850691 
L 105.611303 184.322361 
L 107.471343 184.694267 
L 108.401363 185.118467 
L 108.866373 185.595755 
L 109.331383 186.948213 
L 109.521235 289 
M 110.065858 289 
L 110.261403 181.668501 
L 110.726413 183.064592 
L 111.191423 183.551598 
L 112.121443 183.985731 
L 113.516473 184.303128 
L 116.771543 184.745151 
L 134.906934 186.942219 
L 142.812104 188.179652 
L 146.067174 188.831828 
L 146.997194 189.119936 
L 147.462204 189.359337 
L 147.927214 189.903358 
L 148.392224 212.596997 
L 148.857234 188.1027 
L 149.322244 188.711811 
L 150.252265 189.141334 
L 153.042325 189.88288 
L 155.832385 190.729441 
L 158.157435 191.730284 
L 159.087455 192.015109 
L 159.552465 191.887189 
L 160.017475 191.20171 
L 160.482485 189.155965 
L 160.947495 183.752887 
L 161.412505 183.752887 
L 161.877515 189.155965 
L 162.342525 191.20171 
L 162.807535 191.887189 
L 163.272545 192.015109 
L 164.202565 191.730284 
L 166.992625 190.564845 
L 169.782685 189.76355 
L 172.572745 188.968534 
L 173.037756 188.711811 
L 173.502766 188.1027 
L 173.967776 212.596997 
L 174.432786 189.903358 
L 174.897796 189.359337 
L 175.827816 188.959647 
L 178.152866 188.433999 
L 183.732986 187.493982 
L 192.103166 186.312621 
L 202.333387 185.11025 
L 208.843527 184.303128 
L 210.238557 183.985731 
L 211.168577 183.551598 
L 211.633587 183.064592 
L 212.098597 181.668501 
L 212.294142 289 
M 212.838765 289 
L 213.028617 186.948213 
L 213.493627 185.595755 
L 213.958637 185.118467 
L 214.888657 184.694267 
L 216.283687 184.39265 
L 219.538758 184.010871 
L 226.513908 183.483298 
L 239.534188 182.75002 
L 258.599599 181.917463 
L 277.2 181.253333 
L 277.2 181.253333 
" clip-path="url(#pa56051907a)" style="fill: none; stroke: #d62728; stroke-width: 1.5; stroke-linecap: square"/>
   </g>
   <g id="patch_8">
    <path d="M 45.16 260.12 
L 45.16 165.48 
" style="fill: none; stroke: #000000; stroke-width: 0.8; stroke-linejoin: miter; stroke-linecap: square"/>
   </g>
   <g id="patch_9">
    <path d="M 277.2 260.12 
L 277.2 165.48 
" style="fill: none; stroke: #000000; stroke-width: 0.8; stroke-linejoin: miter; stroke-linecap: square"/>
   </g>
   <g id="patch_10">
    <path d="M 45.16 260.12 
L 277.2 260.12 
" style="fill: none; stroke: #000000; stroke-width: 0.8; stroke-linejoin: miter; stroke-linecap: square"/>
   </g>
   <g id="patch_11">
    <path d="M 45.16 165.48 
L 277.2 165.48 
" style="fill: none; stroke: #000000; stroke-width: 0.8; stroke-linejoin: miter; stroke-linecap: square"/>
   </g>
   <g id="text_19">
    <!-- Atom 1: Local Energy -->
    <g transform="translate(97.19375 159.48) scale(0.12 -0.12)">
     <defs>
      <path id="DejaVuSans-4c" d="M 628 4666 
L 1259 4666 
L 1259 531 
L 3531 531 
L 3531 0 
L 628 0 
L 628 4666 
z
" transform="scale(0.015625)"/>
      <path id="DejaVuSans-6c" d="M 603 4863 
L 1178 4863 
L 1178 0 
L 603 0 
L 603 4863 
z
" transform="scale(0.015625)"/>
      <path id="DejaVuSans-45" d="M 628 4666 
L 3578 4666 
L 3578 4134 
L 1259 4134 
L 1259 2753 
L 3481 2753 
L 3481 2222 
L 1259 2222 
L 1259 531 
L 3634 531 
L 3634 0 
L 628 0 
L 628 4666 
z
" transform="scale(0.015625)"/>
      <path id="DejaVuSans-72" d="M 2631 2963 
Q 2534 3019 2420 3045 
Q 2306 3072 2169 3072 
Q 1681 3072 1420 2755 
Q 1159 2438 1159 1844 
L 1159 0 
L 581 0 
L 581 3500 
L 1159 3500 
L 1159 2956 
Q 1341 3275 1631 3429 
Q 1922 3584 2338 3584 
Q 2397 3584 2469 3576 
Q 2541 3569 2628 3553 
L 2631 2963 
z
" transform="scale(0.015625)"/>
      <path id="DejaVuSans-67" d="M 2906 1791 
Q 2906 2416 2648 2759 
Q 2391 3103 1925 3103 
Q 1463 3103 1205 2759 
Q 947 2416 947 1791 
Q 947 1169 1205 825 
Q 1463 481 1925 481 
Q 2391 481 2648 825 
Q 2906 1169 2906 1791 
z
M 3481 434 
Q 3481 -459 3084 -895 
Q 2688 -1331 1869 -1331 
Q 1566 -1331 1297 -1286 
Q 1028 -1241 775 -1147 
L 775 -588 
Q 1028 -725 1275 -790 
Q 1522 -856 1778 -856 
Q 2344 -856 2625 -561 
Q 2906 -266 2906 331 
L 2906 616 
Q 2728 306 2450 153 
Q 2172 0 1784 0 
Q 1141 0 747 490 
Q 353 981 353 1791 
Q 353 2603 747 3093 
Q 1141 3584 1784 3584 
Q 2172 3584 2450 3431 
Q 2728 3278 2906 2969 
L 2906 3500 
L 3481 3500 
L 3481 434 
z
" transform="scale(0.015625)"/>
      <path id="DejaVuSans-79" d="M 2059 -325 
Q 1816 -950 1584 -1140 
Q 1353 -1331 966 -1331 
L 506 -1331 
L 506 -850 
L 844 -850 
Q 1081 -850 1212 -737 
Q 1344 -625 1503 -206 
L 1606 56 
L 191 3500 
L 800 3500 
L 1894 763 
L 2988 3500 
L 3597 3500 
L 2059 -325 
z
" transform="scale(0.015625)"/>
     </defs>
     <use xlink:href="#DejaVuSans-41"/>
     <use xlink:href="#DejaVuSans-74" transform="translate(66.658203 0)"/>
     <use xlink:href="#DejaVuSans-6f" transform="translate(105.867188 0)"/>
     <use xlink:href="#DejaVuSans-6d" transform="translate(167.048828 0)"/>
     <use xlink:href="#DejaVuSans-20" transform="translate(264.460938 0)"/>
     <use xlink:href="#DejaVuSans-31" transform="translate(296.248047 0)"/>
     <use xlink:href="#DejaVuSans-3a" transform="translate(359.871094 0)"/>
     <use xlink:href="#DejaVuSans-20" transform="translate(393.5625 0)"/>
     <use xlink:href="#DejaVuSans-4c" transform="translate(425.349609 0)"/>
     <use xlink:href="#DejaVuSans-6f" transform="translate(479.3125 0)"/>
     <use xlink:href="#DejaVuSans-63" transform="translate(540.494141 0)"/>
     <use xlink:href="#DejaVuSans-61" transform="translate(595.474609 0)"/>
     <use xlink:href="#DejaVuSans-6c" transform="translate(656.753906 0)"/>
     <use xlink:href="#DejaVuSans-20" transform="translate(684.537109 0)"/>
     <use xlink:href="#DejaVuSans-45" transform="translate(716.324219 0)"/>
     <use xlink:href="#DejaVuSans-6e" transform="translate(779.507812 0)"/>
     <use xlink:href="#DejaVuSans-65" transform="translate(842.886719 0)"/>
     <use xlink:href="#DejaVuSans-72" transform="translate(904.410156 0)"/>
     <use xlink:href="#DejaVuSans-67" transform="translate(943.773438 0)"/>
     <use xlink:href="#DejaVuSans-79" transform="translate(1007.25 0)"/>
    </g>
   </g>
  </g>
 </g>
 <defs>
  <clipPath id="pc454941069">
   <rect x="45.16" y="26.88" width="232.04" height="94.64"/>
  </clipPath>
  <clipPath id="pa56051907a">
   <rect x="45.16" y="165.48" width="232.04" height="94.64"/>
  </clipPath>
 </defs>
</svg>
