<?xml version="1.0" encoding="utf-8" standalone="no"?>
<!DOCTYPE svg PUBLIC "-//W3C//DTD SVG 1.1//EN"
  "http://www.w3.org/Graphics/SVG/1.1/DTD/svg11.dtd">
<svg xmlns:xlink="http://www.w3.org/1999/xlink" width="288pt" height="288pt" viewBox="0 0 288 288" xmlns="http://www.w3.org/2000/svg" version="1.1">
 <metadata>
  <rdf:RDF xmlns:dc="http://purl.org/dc/elements/1.1/" xmlns:cc="http://creativecommons.org/ns#" xmlns:rdf="http://www.w3.org/1999/02/22-rdf-syntax-ns#">
   <cc:Work>
    <dc:type rdf:resource="http://purl.org/dc/dcmitype/StillImage"/>
    <dc:date>2025-09-10T16:42:39.926514</dc:date>
    <dc:format>image/svg+xml</dc:format>
    <dc:creator>
     <cc:Agent>
      <dc:title>Matplotlib v3.9.4, https://matplotlib.org/</dc:title>
     </cc:Agent>
    </dc:creator>
   </cc:Work>
  </rdf:RDF>
 </metadata>
 <defs>
  <style type="text/css">*{stroke-linejoin: round; stroke-linecap: butt}</style>
 </defs>
 <g id="figure_1">
  <g id="patch_1">
   <path d="M 0 288 
L 288 288 
L 288 0 
L 0 0 
z
" style="fill: #ffffff"/>
  </g>
  <g id="axes_1">
   <g id="patch_2">
    <path d="M 36 135.36 
L 259.2 135.36 
L 259.2 34.56 
L 36 34.56 
z
" style="fill: #ffffff"/>
   </g>
   <g id="matplotlib.axis_1">
    <g id="xtick_1">
     <g id="line2d_1">
      <defs>
       <path id="m29f79a40f7" d="M 0 0 
L 0 3.5 
" style="stroke: #000000; stroke-width: 0.8"/>
      </defs>
      <g>
       <use xlink:href="#m29f79a40f7" x="58.32" y="135.36" style="stroke: #000000; stroke-width: 0.8"/>
      </g>
     </g>
     <g id="text_1">
      <!-- −0.4 -->
      <g transform="translate(46.178594 149.958437) scale(0.1 -0.1)">
       <defs>
        <path id="DejaVuSans-2212" d="M 678 2272 
L 4684 2272 
L 4684 1741 
L 678 1741 
L 678 2272 
z
" transform="scale(0.015625)"/>
        <path id="DejaVuSans-30" d="M 2034 4250 
Q 1547 4250 1301 3770 
Q 1056 3291 1056 2328 
Q 1056 1369 1301 889 
Q 1547 409 2034 409 
Q 2525 409 2770 889 
Q 3016 1369 3016 2328 
Q 3016 3291 2770 3770 
Q 2525 4250 2034 4250 
z
M 2034 4750 
Q 2819 4750 3233 4129 
Q 3647 3509 3647 2328 
Q 3647 1150 3233 529 
Q 2819 -91 2034 -91 
Q 1250 -91 836 529 
Q 422 1150 422 2328 
Q 422 3509 836 4129 
Q 1250 4750 2034 4750 
z
" transform="scale(0.015625)"/>
        <path id="DejaVuSans-2e" d="M 684 794 
L 1344 794 
L 1344 0 
L 684 0 
L 684 794 
z
" transform="scale(0.015625)"/>
        <path id="DejaVuSans-34" d="M 2419 4116 
L 825 1625 
L 2419 1625 
L 2419 4116 
z
M 2253 4666 
L 3047 4666 
L 3047 1625 
L 3713 1625 
L 3713 1100 
L 3047 1100 
L 3047 0 
L 2419 0 
L 2419 1100 
L 313 1100 
L 313 1709 
L 2253 4666 
z
" transform="scale(0.015625)"/>
       </defs>
       <use xlink:href="#DejaVuSans-2212"/>
       <use xlink:href="#DejaVuSans-30" x="83.789062"/>
       <use xlink:href="#DejaVuSans-2e" x="147.412109"/>
       <use xlink:href="#DejaVuSans-34" x="179.199219"/>
      </g>
     </g>
    </g>
    <g id="xtick_2">
     <g id="line2d_2">
      <g>
       <use xlink:href="#m29f79a40f7" x="102.96" y="135.36" style="stroke: #000000; stroke-width: 0.8"/>
      </g>
     </g>
     <g id="text_2">
      <!-- −0.2 -->
      <g transform="translate(90.818594 149.958437) scale(0.1 -0.1)">
       <defs>
        <path id="DejaVuSans-32" d="M 1228 531 
L 3431 531 
L 3431 0 
L 469 0 
L 469 531 
Q 828 903 1448 1529 
Q 2069 2156 2228 2338 
Q 2531 2678 2651 2914 
Q 2772 3150 2772 3378 
Q 2772 3750 2511 3984 
Q 2250 4219 1831 4219 
Q 1534 4219 1204 4116 
Q 875 4013 500 3803 
L 500 4441 
Q 881 4594 1212 4672 
Q 1544 4750 1819 4750 
Q 2544 4750 2975 4387 
Q 3406 4025 3406 3419 
Q 3406 3131 3298 2873 
Q 3191 2616 2906 2266 
Q 2828 2175 2409 1742 
Q 1991 1309 1228 531 
z
" transform="scale(0.015625)"/>
       </defs>
       <use xlink:href="#DejaVuSans-2212"/>
       <use xlink:href="#DejaVuSans-30" x="83.789062"/>
       <use xlink:href="#DejaVuSans-2e" x="147.412109"/>
       <use xlink:href="#DejaVuSans-32" x="179.199219"/>
      </g>
     </g>
    </g>
    <g id="xtick_3">
     <g id="line2d_3">
      <g>
       <use xlink:href="#m29f79a40f7" x="147.6" y="135.36" style="stroke: #000000; stroke-width: 0.8"/>
      </g>
     </g>
     <g id="text_3">
      <!-- 0.0 -->
      <g transform="translate(139.648438 149.958437) scale(0.1 -0.1)">
       <use xlink:href="#DejaVuSans-30"/>
       <use xlink:href="#DejaVuSans-2e" x="63.623047"/>
       <use xlink:href="#DejaVuSans-30" x="95.410156"/>
      </g>
     </g>
    </g>
    <g id="xtick_4">
     <g id="line2d_4">
      <g>
       <use xlink:href="#m29f79a40f7" x="192.24" y="135.36" style="stroke: #000000; stroke-width: 0.8"/>
      </g>
     </g>
     <g id="text_4">
      <!-- 0.2 -->
      <g transform="translate(184.288437 149.958437) scale(0.1 -0.1)">
       <use xlink:href="#DejaVuSans-30"/>
       <use xlink:href="#DejaVuSans-2e" x="63.623047"/>
       <use xlink:href="#DejaVuSans-32" x="95.410156"/>
      </g>
     </g>
    </g>
    <g id="xtick_5">
     <g id="line2d_5">
      <g>
       <use xlink:href="#m29f79a40f7" x="236.88" y="135.36" style="stroke: #000000; stroke-width: 0.8"/>
      </g>
     </g>
     <g id="text_5">
      <!-- 0.4 -->
      <g transform="translate(228.928437 149.958437) scale(0.1 -0.1)">
       <use xlink:href="#DejaVuSans-30"/>
       <use xlink:href="#DejaVuSans-2e" x="63.623047"/>
       <use xlink:href="#DejaVuSans-34" x="95.410156"/>
      </g>
     </g>
    </g>
   </g>
   <g id="matplotlib.axis_2">
    <g id="ytick_1">
     <g id="line2d_6">
      <defs>
       <path id="m68e8bcbdc8" d="M 0 0 
L -3.5 0 
" style="stroke: #000000; stroke-width: 0.8"/>
      </defs>
      <g>
       <use xlink:href="#m68e8bcbdc8" x="36" y="127.054758" style="stroke: #000000; stroke-width: 0.8"/>
      </g>
     </g>
     <g id="text_6">
      <!-- 0 -->
      <g transform="translate(22.6375 130.853977) scale(0.1 -0.1)">
       <use xlink:href="#DejaVuSans-30"/>
      </g>
     </g>
    </g>
    <g id="ytick_2">
     <g id="line2d_7">
      <g>
       <use xlink:href="#m68e8bcbdc8" x="36" y="90.470332" style="stroke: #000000; stroke-width: 0.8"/>
      </g>
     </g>
     <g id="text_7">
      <!-- 50 -->
      <g transform="translate(16.275 94.269551) scale(0.1 -0.1)">
       <defs>
        <path id="DejaVuSans-35" d="M 691 4666 
L 3169 4666 
L 3169 4134 
L 1269 4134 
L 1269 2991 
Q 1406 3038 1543 3061 
Q 1681 3084 1819 3084 
Q 2600 3084 3056 2656 
Q 3513 2228 3513 1497 
Q 3513 744 3044 326 
Q 2575 -91 1722 -91 
Q 1428 -91 1123 -41 
Q 819 9 494 109 
L 494 744 
Q 775 591 1075 516 
Q 1375 441 1709 441 
Q 2250 441 2565 725 
Q 2881 1009 2881 1497 
Q 2881 1984 2565 2268 
Q 2250 2553 1709 2553 
Q 1456 2553 1204 2497 
Q 953 2441 691 2322 
L 691 4666 
z
" transform="scale(0.015625)"/>
       </defs>
       <use xlink:href="#DejaVuSans-35"/>
       <use xlink:href="#DejaVuSans-30" x="63.623047"/>
      </g>
     </g>
    </g>
    <g id="ytick_3">
     <g id="line2d_8">
      <g>
       <use xlink:href="#m68e8bcbdc8" x="36" y="53.885906" style="stroke: #000000; stroke-width: 0.8"/>
      </g>
     </g>
     <g id="text_8">
      <!-- 100 -->
      <g transform="translate(9.9125 57.685125) scale(0.1 -0.1)">
       <defs>
        <path id="DejaVuSans-31" d="M 794 531 
L 1825 531 
L 1825 4091 
L 703 3866 
L 703 4441 
L 1819 4666 
L 2450 4666 
L 2450 531 
L 3481 531 
L 3481 0 
L 794 0 
L 794 531 
z
" transform="scale(0.015625)"/>
       </defs>
       <use xlink:href="#DejaVuSans-31"/>
       <use xlink:href="#DejaVuSans-30" x="63.623047"/>
       <use xlink:href="#DejaVuSans-30" x="127.246094"/>
      </g>
     </g>
    </g>
   </g>
   <g id="line2d_9">
    <path d="M 36 127.05466 
L 104.7456 126.946917 
L 112.3344 126.712275 
L 116.7984 126.374046 
L 119.9232 125.950448 
L 122.6016 125.379842 
L 124.8336 124.681902 
L 126.6192 123.916975 
L 128.4048 122.902759 
L 129.744 121.9301 
L 131.0832 120.727342 
L 132.4224 119.239539 
L 133.7616 117.398487 
L 135.1008 115.119476 
L 136.44 112.29724 
L 137.7792 108.800892 
L 139.1184 104.467575 
L 140.4576 99.094524 
L 141.7968 92.42909 
L 143.136 84.156232 
L 144.4752 73.882773 
L 145.8144 61.117686 
L 147.1536 45.249372 
L 147.6 39.146571 
L 148.9392 56.20709 
L 150.2784 69.932098 
L 151.6176 80.976056 
L 152.9568 89.867711 
L 154.296 97.030448 
L 155.6352 102.803426 
L 156.9744 107.458555 
L 158.3136 111.214008 
L 159.6528 114.24497 
L 160.992 116.69221 
L 162.3312 118.668914 
L 163.6704 120.266147 
L 165.0096 121.557219 
L 166.3488 122.601178 
L 168.1344 123.689602 
L 169.92 124.510376 
L 172.152 125.259151 
L 174.8304 125.871193 
L 177.9552 126.325438 
L 181.9728 126.662003 
L 187.776 126.892895 
L 197.5968 127.017955 
L 224.8272 127.054152 
L 259.2 127.05466 
L 259.2 127.05466 
" clip-path="url(#p78af41f8ec)" style="fill: none; stroke-dasharray: 5.55,2.4; stroke-dashoffset: 0; stroke: #1f77b4; stroke-width: 1.5"/>
   </g>
   <g id="line2d_10">
    <path d="M 36 127.05466 
L 104.7456 126.946917 
L 112.3344 126.712275 
L 116.7984 126.374046 
L 119.9232 125.950448 
L 122.6016 125.379842 
L 124.8336 124.681902 
L 126.6192 123.916975 
L 128.4048 122.902759 
L 129.744 121.9301 
L 131.0832 120.727342 
L 132.4224 119.239539 
L 133.7616 117.398487 
L 135.1008 115.119476 
L 136.44 112.29724 
L 137.7792 108.800892 
L 139.1184 104.467575 
L 140.4576 99.094524 
L 141.7968 92.42909 
L 143.136 84.156231 
L 144.4752 73.88277 
L 145.8144 61.117622 
L 147.1536 45.247758 
L 147.6 39.141818 
L 148.9392 56.206904 
L 150.2784 69.932091 
L 151.6176 80.976056 
L 152.9568 89.867711 
L 154.296 97.030448 
L 155.6352 102.803426 
L 156.9744 107.458555 
L 158.3136 111.214008 
L 159.6528 114.24497 
L 160.992 116.69221 
L 162.3312 118.668914 
L 163.6704 120.266147 
L 165.0096 121.557219 
L 166.3488 122.601178 
L 168.1344 123.689602 
L 169.92 124.510376 
L 172.152 125.259151 
L 174.8304 125.871193 
L 177.9552 126.325438 
L 181.9728 126.662003 
L 187.776 126.892895 
L 197.5968 127.017955 
L 224.8272 127.054152 
L 259.2 127.05466 
L 259.2 127.05466 
" clip-path="url(#p78af41f8ec)" style="fill: none; stroke: #1f77b4; stroke-width: 1.5; stroke-linecap: square"/>
   </g>
   <g id="line2d_11">
    <path d="M 36 127.133062 
L 60.552 127.34543 
L 75.2832 127.681694 
L 86.4432 128.149682 
L 96.264 128.787003 
L 106.5312 129.694885 
L 117.2448 130.636586 
L 121.2624 130.778182 
L 124.3872 130.676247 
L 127.0656 130.350142 
L 129.2976 129.835407 
L 131.0832 129.210509 
L 132.8688 128.342989 
L 134.6544 127.171701 
L 135.9936 126.049239 
L 137.3328 124.675931 
L 138.672 123.007312 
L 140.0112 120.991322 
L 141.3504 118.56695 
L 142.6896 115.662685 
L 144.0288 112.194769 
L 145.368 108.065425 
L 146.7072 103.160807 
L 147.6 99.391456 
L 148.9392 104.88966 
L 150.2784 109.522029 
L 151.6176 113.419097 
L 152.9568 116.688993 
L 154.296 119.424629 
L 155.6352 121.705481 
L 156.9744 123.599374 
L 158.3136 125.164172 
L 159.6528 126.449266 
L 161.4384 127.799653 
L 163.224 128.810601 
L 165.0096 129.549939 
L 166.7952 130.07279 
L 169.0272 130.489347 
L 171.7056 130.730927 
L 174.8304 130.767809 
L 178.848 130.578607 
L 185.544 129.998031 
L 200.2752 128.685976 
L 209.6496 128.103128 
L 220.3632 127.66753 
L 233.7552 127.359496 
L 252.9504 127.164147 
L 259.2 127.133062 
L 259.2 127.133062 
" clip-path="url(#p78af41f8ec)" style="fill: none; stroke-dasharray: 5.55,2.4; stroke-dashoffset: 0; stroke: #ff7f0e; stroke-width: 1.5"/>
   </g>
   <g id="line2d_12">
    <path d="M 36 127.133062 
L 60.552 127.34543 
L 75.2832 127.681694 
L 86.4432 128.149682 
L 96.264 128.787003 
L 106.5312 129.694885 
L 117.2448 130.636586 
L 121.2624 130.778182 
L 124.3872 130.676247 
L 127.0656 130.350142 
L 129.2976 129.835407 
L 131.0832 129.210509 
L 132.8688 128.342989 
L 134.6544 127.171701 
L 135.9936 126.049239 
L 137.3328 124.675931 
L 138.672 123.007312 
L 140.0112 120.991322 
L 141.3504 118.56695 
L 142.6896 115.662685 
L 144.0288 112.19477 
L 145.368 108.065449 
L 146.7072 103.161399 
L 147.6 99.396596 
L 148.9392 104.889862 
L 150.2784 109.522036 
L 151.6176 113.419097 
L 152.9568 116.688993 
L 154.296 119.424629 
L 155.6352 121.705481 
L 156.9744 123.599374 
L 158.3136 125.164172 
L 159.6528 126.449266 
L 161.4384 127.799653 
L 163.224 128.810601 
L 165.0096 129.549939 
L 166.7952 130.07279 
L 169.0272 130.489347 
L 171.7056 130.730927 
L 174.8304 130.767809 
L 178.848 130.578607 
L 185.544 129.998031 
L 200.2752 128.685976 
L 209.6496 128.103128 
L 220.3632 127.66753 
L 233.7552 127.359496 
L 252.9504 127.164147 
L 259.2 127.133062 
L 259.2 127.133062 
" clip-path="url(#p78af41f8ec)" style="fill: none; stroke: #ff7f0e; stroke-width: 1.5; stroke-linecap: square"/>
   </g>
   <g id="line2d_13">
    <path d="M 36 126.423729 
L 65.016 126.329503 
L 80.1936 126.499303 
L 91.8 126.844439 
L 102.5136 127.381835 
L 123.048 128.51819 
L 127.0656 128.445979 
L 130.1904 128.173033 
L 132.8688 127.711339 
L 135.1008 127.105094 
L 136.8864 126.43203 
L 138.672 125.550209 
L 140.4576 124.412573 
L 142.2432 122.961995 
L 143.5824 121.627396 
L 144.9216 120.043017 
L 146.2608 118.168042 
L 147.6 115.9573 
L 148.9392 118.168042 
L 150.2784 120.043017 
L 152.064 122.098179 
L 153.8496 123.730426 
L 155.6352 125.016678 
L 157.4208 126.019943 
L 159.2064 126.792056 
L 161.4384 127.496515 
L 163.6704 127.973471 
L 166.3488 128.319455 
L 169.4736 128.498298 
L 173.4912 128.495157 
L 179.2944 128.239737 
L 206.9712 126.713412 
L 218.5776 126.435486 
L 233.3088 126.321388 
L 255.6288 126.399355 
L 259.2 126.423729 
L 259.2 126.423729 
" clip-path="url(#p78af41f8ec)" style="fill: none; stroke-dasharray: 5.55,2.4; stroke-dashoffset: 0; stroke: #2ca02c; stroke-width: 1.5"/>
   </g>
   <g id="line2d_14">
    <path d="M 36 126.423729 
L 65.016 126.329503 
L 80.1936 126.499303 
L 91.8 126.844439 
L 102.5136 127.381835 
L 123.048 128.51819 
L 127.0656 128.445979 
L 130.1904 128.173033 
L 132.8688 127.711339 
L 135.1008 127.105094 
L 136.8864 126.43203 
L 138.672 125.550209 
L 140.4576 124.412573 
L 142.2432 122.961995 
L 143.5824 121.627396 
L 144.9216 120.043013 
L 146.2608 118.167954 
L 147.6 115.955053 
L 148.9392 118.167954 
L 150.2784 120.043013 
L 152.064 122.098179 
L 153.8496 123.730426 
L 155.6352 125.016678 
L 157.4208 126.019943 
L 159.2064 126.792056 
L 161.4384 127.496515 
L 163.6704 127.973471 
L 166.3488 128.319455 
L 169.4736 128.498298 
L 173.4912 128.495157 
L 179.2944 128.239737 
L 206.9712 126.713412 
L 218.5776 126.435486 
L 233.3088 126.321388 
L 255.6288 126.399355 
L 259.2 126.423729 
L 259.2 126.423729 
" clip-path="url(#p78af41f8ec)" style="fill: none; stroke: #2ca02c; stroke-width: 1.5; stroke-linecap: square"/>
   </g>
   <g id="line2d_15">
    <path d="M 36 126.914738 
L 77.9616 126.848358 
L 97.6032 127.04515 
L 128.8512 127.461946 
L 133.3152 127.237833 
L 136.8864 126.863009 
L 140.0112 126.31721 
L 142.6896 125.620363 
L 144.9216 124.822625 
L 147.1536 123.767155 
L 147.6 123.520843 
L 149.832 124.634223 
L 152.064 125.478468 
L 154.7424 126.217716 
L 157.4208 126.731389 
L 160.992 127.163933 
L 165.0096 127.416306 
L 170.3664 127.520592 
L 178.848 127.42974 
L 212.7744 126.872502 
L 235.5408 126.834093 
L 259.2 126.914738 
L 259.2 126.914738 
" clip-path="url(#p78af41f8ec)" style="fill: none; stroke-dasharray: 5.55,2.4; stroke-dashoffset: 0; stroke: #d62728; stroke-width: 1.5"/>
   </g>
   <g id="line2d_16">
    <path d="M 36 126.914738 
L 77.9616 126.848358 
L 97.6032 127.04515 
L 128.8512 127.461946 
L 133.3152 127.237833 
L 136.8864 126.863009 
L 140.0112 126.31721 
L 142.6896 125.620363 
L 144.9216 124.82262 
L 147.1536 123.766147 
L 147.6 123.517875 
L 149.832 124.63421 
L 152.064 125.478468 
L 154.7424 126.217716 
L 157.4208 126.731389 
L 160.992 127.163933 
L 165.0096 127.416306 
L 170.3664 127.520592 
L 178.848 127.42974 
L 212.7744 126.872502 
L 235.5408 126.834093 
L 259.2 126.914738 
L 259.2 126.914738 
" clip-path="url(#p78af41f8ec)" style="fill: none; stroke: #d62728; stroke-width: 1.5; stroke-linecap: square"/>
   </g>
   <g id="patch_3">
    <path d="M 36 135.36 
L 36 34.56 
" style="fill: none; stroke: #000000; stroke-width: 0.8; stroke-linejoin: miter; stroke-linecap: square"/>
   </g>
   <g id="patch_4">
    <path d="M 259.2 135.36 
L 259.2 34.56 
" style="fill: none; stroke: #000000; stroke-width: 0.8; stroke-linejoin: miter; stroke-linecap: square"/>
   </g>
   <g id="patch_5">
    <path d="M 36 135.36 
L 259.2 135.36 
" style="fill: none; stroke: #000000; stroke-width: 0.8; stroke-linejoin: miter; stroke-linecap: square"/>
   </g>
   <g id="patch_6">
    <path d="M 36 34.56 
L 259.2 34.56 
" style="fill: none; stroke: #000000; stroke-width: 0.8; stroke-linejoin: miter; stroke-linecap: square"/>
   </g>
  </g>
  <g id="axes_2">
   <g id="patch_7">
    <path d="M 36 256.32 
L 259.2 256.32 
L 259.2 155.52 
L 36 155.52 
z
" style="fill: #ffffff"/>
   </g>
   <g id="matplotlib.axis_3">
    <g id="xtick_6">
     <g id="line2d_17">
      <g>
       <use xlink:href="#m29f79a40f7" x="58.32" y="256.32" style="stroke: #000000; stroke-width: 0.8"/>
      </g>
     </g>
     <g id="text_9">
      <!-- −0.4 -->
      <g transform="translate(46.178594 270.918437) scale(0.1 -0.1)">
       <use xlink:href="#DejaVuSans-2212"/>
       <use xlink:href="#DejaVuSans-30" x="83.789062"/>
       <use xlink:href="#DejaVuSans-2e" x="147.412109"/>
       <use xlink:href="#DejaVuSans-34" x="179.199219"/>
      </g>
     </g>
    </g>
    <g id="xtick_7">
     <g id="line2d_18">
      <g>
       <use xlink:href="#m29f79a40f7" x="102.96" y="256.32" style="stroke: #000000; stroke-width: 0.8"/>
      </g>
     </g>
     <g id="text_10">
      <!-- −0.2 -->
      <g transform="translate(90.818594 270.918437) scale(0.1 -0.1)">
       <use xlink:href="#DejaVuSans-2212"/>
       <use xlink:href="#DejaVuSans-30" x="83.789062"/>
       <use xlink:href="#DejaVuSans-2e" x="147.412109"/>
       <use xlink:href="#DejaVuSans-32" x="179.199219"/>
      </g>
     </g>
    </g>
    <g id="xtick_8">
     <g id="line2d_19">
      <g>
       <use xlink:href="#m29f79a40f7" x="147.6" y="256.32" style="stroke: #000000; stroke-width: 0.8"/>
      </g>
     </g>
     <g id="text_11">
      <!-- 0.0 -->
      <g transform="translate(139.648438 270.918437) scale(0.1 -0.1)">
       <use xlink:href="#DejaVuSans-30"/>
       <use xlink:href="#DejaVuSans-2e" x="63.623047"/>
       <use xlink:href="#DejaVuSans-30" x="95.410156"/>
      </g>
     </g>
    </g>
    <g id="xtick_9">
     <g id="line2d_20">
      <g>
       <use xlink:href="#m29f79a40f7" x="192.24" y="256.32" style="stroke: #000000; stroke-width: 0.8"/>
      </g>
     </g>
     <g id="text_12">
      <!-- 0.2 -->
      <g transform="translate(184.288437 270.918437) scale(0.1 -0.1)">
       <use xlink:href="#DejaVuSans-30"/>
       <use xlink:href="#DejaVuSans-2e" x="63.623047"/>
       <use xlink:href="#DejaVuSans-32" x="95.410156"/>
      </g>
     </g>
    </g>
    <g id="xtick_10">
     <g id="line2d_21">
      <g>
       <use xlink:href="#m29f79a40f7" x="236.88" y="256.32" style="stroke: #000000; stroke-width: 0.8"/>
      </g>
     </g>
     <g id="text_13">
      <!-- 0.4 -->
      <g transform="translate(228.928437 270.918437) scale(0.1 -0.1)">
       <use xlink:href="#DejaVuSans-30"/>
       <use xlink:href="#DejaVuSans-2e" x="63.623047"/>
       <use xlink:href="#DejaVuSans-34" x="95.410156"/>
      </g>
     </g>
    </g>
   </g>
   <g id="matplotlib.axis_4">
    <g id="ytick_4">
     <g id="line2d_22">
      <g>
       <use xlink:href="#m68e8bcbdc8" x="36" y="254.804589" style="stroke: #000000; stroke-width: 0.8"/>
      </g>
     </g>
     <g id="text_14">
      <!-- −800 -->
      <g transform="translate(1.532812 258.603808) scale(0.1 -0.1)">
       <defs>
        <path id="DejaVuSans-38" d="M 2034 2216 
Q 1584 2216 1326 1975 
Q 1069 1734 1069 1313 
Q 1069 891 1326 650 
Q 1584 409 2034 409 
Q 2484 409 2743 651 
Q 3003 894 3003 1313 
Q 3003 1734 2745 1975 
Q 2488 2216 2034 2216 
z
M 1403 2484 
Q 997 2584 770 2862 
Q 544 3141 544 3541 
Q 544 4100 942 4425 
Q 1341 4750 2034 4750 
Q 2731 4750 3128 4425 
Q 3525 4100 3525 3541 
Q 3525 3141 3298 2862 
Q 3072 2584 2669 2484 
Q 3125 2378 3379 2068 
Q 3634 1759 3634 1313 
Q 3634 634 3220 271 
Q 2806 -91 2034 -91 
Q 1263 -91 848 271 
Q 434 634 434 1313 
Q 434 1759 690 2068 
Q 947 2378 1403 2484 
z
M 1172 3481 
Q 1172 3119 1398 2916 
Q 1625 2713 2034 2713 
Q 2441 2713 2670 2916 
Q 2900 3119 2900 3481 
Q 2900 3844 2670 4047 
Q 2441 4250 2034 4250 
Q 1625 4250 1398 4047 
Q 1172 3844 1172 3481 
z
" transform="scale(0.015625)"/>
       </defs>
       <use xlink:href="#DejaVuSans-2212"/>
       <use xlink:href="#DejaVuSans-38" x="83.789062"/>
       <use xlink:href="#DejaVuSans-30" x="147.412109"/>
       <use xlink:href="#DejaVuSans-30" x="211.035156"/>
      </g>
     </g>
    </g>
    <g id="ytick_5">
     <g id="line2d_23">
      <g>
       <use xlink:href="#m68e8bcbdc8" x="36" y="232.674898" style="stroke: #000000; stroke-width: 0.8"/>
      </g>
     </g>
     <g id="text_15">
      <!-- −600 -->
      <g transform="translate(1.532812 236.474116) scale(0.1 -0.1)">
       <defs>
        <path id="DejaVuSans-36" d="M 2113 2584 
Q 1688 2584 1439 2293 
Q 1191 2003 1191 1497 
Q 1191 994 1439 701 
Q 1688 409 2113 409 
Q 2538 409 2786 701 
Q 3034 994 3034 1497 
Q 3034 2003 2786 2293 
Q 2538 2584 2113 2584 
z
M 3366 4563 
L 3366 3988 
Q 3128 4100 2886 4159 
Q 2644 4219 2406 4219 
Q 1781 4219 1451 3797 
Q 1122 3375 1075 2522 
Q 1259 2794 1537 2939 
Q 1816 3084 2150 3084 
Q 2853 3084 3261 2657 
Q 3669 2231 3669 1497 
Q 3669 778 3244 343 
Q 2819 -91 2113 -91 
Q 1303 -91 875 529 
Q 447 1150 447 2328 
Q 447 3434 972 4092 
Q 1497 4750 2381 4750 
Q 2619 4750 2861 4703 
Q 3103 4656 3366 4563 
z
" transform="scale(0.015625)"/>
       </defs>
       <use xlink:href="#DejaVuSans-2212"/>
       <use xlink:href="#DejaVuSans-36" x="83.789062"/>
       <use xlink:href="#DejaVuSans-30" x="147.412109"/>
       <use xlink:href="#DejaVuSans-30" x="211.035156"/>
      </g>
     </g>
    </g>
    <g id="ytick_6">
     <g id="line2d_24">
      <g>
       <use xlink:href="#m68e8bcbdc8" x="36" y="210.545206" style="stroke: #000000; stroke-width: 0.8"/>
      </g>
     </g>
     <g id="text_16">
      <!-- −400 -->
      <g transform="translate(1.532812 214.344424) scale(0.1 -0.1)">
       <use xlink:href="#DejaVuSans-2212"/>
       <use xlink:href="#DejaVuSans-34" x="83.789062"/>
       <use xlink:href="#DejaVuSans-30" x="147.412109"/>
       <use xlink:href="#DejaVuSans-30" x="211.035156"/>
      </g>
     </g>
    </g>
    <g id="ytick_7">
     <g id="line2d_25">
      <g>
       <use xlink:href="#m68e8bcbdc8" x="36" y="188.415514" style="stroke: #000000; stroke-width: 0.8"/>
      </g>
     </g>
     <g id="text_17">
      <!-- −200 -->
      <g transform="translate(1.532812 192.214733) scale(0.1 -0.1)">
       <use xlink:href="#DejaVuSans-2212"/>
       <use xlink:href="#DejaVuSans-32" x="83.789062"/>
       <use xlink:href="#DejaVuSans-30" x="147.412109"/>
       <use xlink:href="#DejaVuSans-30" x="211.035156"/>
      </g>
     </g>
    </g>
    <g id="ytick_8">
     <g id="line2d_26">
      <g>
       <use xlink:href="#m68e8bcbdc8" x="36" y="166.285822" style="stroke: #000000; stroke-width: 0.8"/>
      </g>
     </g>
     <g id="text_18">
      <!-- 0 -->
      <g transform="translate(22.6375 170.085041) scale(0.1 -0.1)">
       <use xlink:href="#DejaVuSans-30"/>
      </g>
     </g>
    </g>
   </g>
   <g id="line2d_27">
    <path d="M 36 166.073767 
L 38.232 166.492563 
L 40.0176 167.023608 
L 41.8032 167.78702 
L 43.1424 168.554504 
L 44.4816 169.530378 
L 45.8208 170.759507 
L 47.16 172.294037 
L 48.4992 174.192597 
L 49.8384 176.517894 
L 51.1776 179.331816 
L 52.5168 182.687112 
L 53.856 186.615026 
L 55.6416 192.724731 
L 57.8736 201.487354 
L 61.8912 217.687925 
L 63.2304 222.261349 
L 64.5696 226.081903 
L 65.9088 229.066297 
L 66.8016 230.591594 
L 67.6944 231.767596 
L 68.5872 232.625389 
L 69.48 233.202557 
L 70.3728 233.53968 
L 71.2656 233.677492 
L 72.6048 233.594514 
L 73.944 233.265957 
L 76.176 232.422134 
L 81.0864 230.42944 
L 83.3184 229.756761 
L 85.5504 229.292525 
L 87.7824 229.0357 
L 90.4608 228.975943 
L 93.1392 229.144151 
L 96.264 229.561114 
L 100.2816 230.328049 
L 108.7632 232.253025 
L 116.352 233.864087 
L 124.3872 235.329417 
L 136.44 237.523496 
L 141.7968 238.742628 
L 145.8144 239.70076 
L 147.1536 239.753279 
M 148.0464 239.753279 
L 150.7248 239.418994 
L 158.76 237.523496 
L 165.456 236.256456 
L 181.5264 233.322996 
L 189.5616 231.535438 
L 197.1504 229.877574 
L 200.7216 229.297958 
L 203.8464 229.009145 
L 206.5248 228.987458 
L 208.7568 229.165627 
L 210.9888 229.545614 
L 213.2208 230.136333 
L 215.8992 231.099669 
L 221.7024 233.396424 
L 223.0416 233.654797 
L 224.3808 233.63101 
L 225.2736 233.398554 
L 226.1664 232.946548 
L 227.0592 232.234028 
L 227.952 231.221511 
L 228.8448 229.874191 
L 229.7376 228.165679 
L 230.6304 226.081903 
L 231.9696 222.261349 
L 233.3088 217.687925 
L 235.0944 210.730078 
L 239.5584 192.724731 
L 241.344 186.615026 
L 242.6832 182.687112 
L 244.0224 179.331816 
L 245.3616 176.517894 
L 246.7008 174.192597 
L 248.04 172.294037 
L 249.3792 170.759507 
L 250.7184 169.530378 
L 252.0576 168.554504 
L 253.8432 167.570784 
L 255.6288 166.871461 
L 257.4144 166.389386 
L 259.2 166.073767 
L 259.2 166.073767 
" clip-path="url(#p9dbb25cdc4)" style="fill: none; stroke-dasharray: 5.55,2.4; stroke-dashoffset: 0; stroke: #1f77b4; stroke-width: 1.5"/>
   </g>
   <g id="line2d_28">
    <path d="M 36 166.073767 
L 38.232 166.492563 
L 40.0176 167.023608 
L 41.8032 167.78702 
L 43.1424 168.554504 
L 44.4816 169.530378 
L 45.8208 170.759507 
L 47.16 172.294037 
L 48.4992 174.192597 
L 49.8384 176.517894 
L 51.1776 179.331816 
L 52.5168 182.687112 
L 53.856 186.615026 
L 55.6416 192.724731 
L 57.8736 201.487354 
L 61.8912 217.687925 
L 63.2304 222.261349 
L 64.5696 226.081903 
L 65.9088 229.066297 
L 66.8016 230.591594 
L 67.6944 231.767596 
L 68.5872 232.625389 
L 69.48 233.202557 
L 70.3728 233.53968 
L 71.2656 233.677492 
L 72.6048 233.594514 
L 73.944 233.265957 
L 76.176 232.422134 
L 81.0864 230.42944 
L 83.3184 229.756761 
L 85.5504 229.292525 
L 87.7824 229.0357 
L 90.4608 228.975943 
L 93.1392 229.144151 
L 96.264 229.561114 
L 100.2816 230.328049 
L 108.7632 232.253025 
L 116.352 233.864087 
L 124.3872 235.329417 
L 136.44 237.523496 
L 141.7968 238.742629 
L 146.2608 239.756846 
L 146.7072 239.727013 
L 147.1536 239.52 
M 148.0464 239.52 
L 148.4928 239.727013 
L 149.3856 239.709473 
L 151.6176 239.194317 
L 157.8672 237.711313 
L 164.1168 236.494864 
L 183.312 232.944873 
L 200.2752 229.357982 
L 203.4 229.034677 
L 206.0784 228.974276 
L 208.3104 229.114409 
L 210.5424 229.452787 
L 212.7744 230.001584 
L 215.4528 230.922853 
L 222.1488 233.507121 
L 223.488 233.683899 
L 224.3808 233.63101 
L 225.2736 233.398554 
L 226.1664 232.946548 
L 227.0592 232.234028 
L 227.952 231.221511 
L 228.8448 229.874191 
L 229.7376 228.165679 
L 230.6304 226.081903 
L 231.9696 222.261349 
L 233.3088 217.687925 
L 235.0944 210.730078 
L 239.5584 192.724731 
L 241.344 186.615026 
L 242.6832 182.687112 
L 244.0224 179.331816 
L 245.3616 176.517894 
L 246.7008 174.192597 
L 248.04 172.294037 
L 249.3792 170.759507 
L 250.7184 169.530378 
L 252.0576 168.554504 
L 253.8432 167.570784 
L 255.6288 166.871461 
L 257.4144 166.389386 
L 259.2 166.073767 
L 259.2 166.073767 
" clip-path="url(#p9dbb25cdc4)" style="fill: none; stroke: #1f77b4; stroke-width: 1.5; stroke-linecap: square"/>
   </g>
   <g id="line2d_29">
    <path d="M 36 179.585756 
L 77.9616 181.561163 
L 92.2464 182.502412 
L 104.7456 183.546214 
L 115.0128 184.618462 
L 123.048 185.671215 
L 128.8512 186.643135 
L 132.4224 187.447604 
L 133.7616 187.967939 
L 134.208 188.371388 
L 134.6544 190.534794 
L 135.1008 186.43023 
L 135.5472 187.410895 
L 136.44 187.948243 
L 138.672 188.697128 
L 144.0288 190.240263 
L 145.8144 190.677162 
L 146.2608 190.891175 
L 146.7072 191.250287 
L 147.1536 191.245404 
M 148.0464 191.245404 
L 148.4928 191.250287 
L 148.9392 190.891175 
L 149.832 190.543835 
L 153.8496 189.510439 
L 158.76 187.948243 
L 159.6528 187.410895 
L 160.0992 186.43023 
L 160.5456 190.534794 
L 160.992 188.371388 
L 161.4384 187.967939 
L 162.3312 187.584074 
L 164.5632 187.008568 
L 168.5808 186.238867 
L 174.8304 185.291802 
L 182.8656 184.315048 
L 193.1328 183.301669 
L 205.1856 182.339657 
L 219.4704 181.433214 
L 237.3264 180.540118 
L 259.2 179.585756 
L 259.2 179.585756 
" clip-path="url(#p9dbb25cdc4)" style="fill: none; stroke-dasharray: 5.55,2.4; stroke-dashoffset: 0; stroke: #ff7f0e; stroke-width: 1.5"/>
   </g>
   <g id="line2d_30">
    <path d="M 36 179.585756 
L 77.9616 181.561163 
L 92.2464 182.502412 
L 104.7456 183.546214 
L 115.0128 184.618462 
L 123.048 185.671215 
L 128.8512 186.643135 
L 132.4224 187.447604 
L 133.7616 187.967939 
L 134.208 188.371388 
L 134.6544 190.534794 
L 135.1008 186.43023 
L 135.5472 187.410895 
L 136.44 187.948243 
L 138.672 188.697128 
L 144.0288 190.239491 
L 146.2608 190.829286 
L 146.7072 191.196546 
L 147.1536 192.044626 
M 148.0464 192.044626 
L 148.4928 191.196546 
L 148.9392 190.829286 
L 149.832 190.530958 
L 152.9568 189.771282 
L 158.3136 188.119438 
L 159.2064 187.73738 
L 159.6528 187.410895 
L 160.0992 186.43023 
L 160.5456 190.534794 
L 160.992 188.371388 
L 161.4384 187.967939 
L 162.3312 187.584074 
L 164.5632 187.008568 
L 168.5808 186.238867 
L 174.8304 185.291802 
L 182.8656 184.315048 
L 193.1328 183.301669 
L 205.1856 182.339657 
L 219.4704 181.433214 
L 237.3264 180.540118 
L 259.2 179.585756 
L 259.2 179.585756 
" clip-path="url(#p9dbb25cdc4)" style="fill: none; stroke: #ff7f0e; stroke-width: 1.5; stroke-linecap: square"/>
   </g>
   <g id="line2d_31">
    <path d="M 36 173.270013 
L 59.2128 174.191077 
L 77.0688 175.114358 
L 89.1216 175.940179 
L 93.5856 176.398397 
L 94.9248 176.677342 
L 95.3712 176.860378 
L 95.8176 177.230118 
L 96.264 178.754416 
L 96.7104 173.234118 
L 97.1568 175.528637 
L 97.6032 175.959895 
L 98.496 176.289582 
L 100.2816 176.592773 
L 106.9776 177.345713 
L 116.7984 178.533614 
L 124.3872 179.664488 
L 130.1904 180.736648 
L 132.8688 181.39468 
L 133.7616 181.729365 
L 134.208 181.99437 
L 134.6544 182.514541 
L 135.1008 185.518434 
L 135.5472 179.696894 
L 135.9936 181.017276 
L 136.44 181.422044 
L 137.3328 181.848148 
L 140.0112 182.695761 
L 144.0288 184.005468 
L 145.368 184.437846 
L 145.8144 184.50794 
L 146.2608 184.454106 
L 146.7072 184.184953 
L 147.1536 184.212374 
M 148.0464 184.212374 
L 148.4928 184.184953 
L 148.9392 184.454106 
L 149.3856 184.50794 
L 150.2784 184.311537 
L 158.76 181.422044 
L 159.2064 181.017276 
L 159.6528 179.696894 
L 160.0992 185.518434 
L 160.5456 182.514541 
L 160.992 181.99437 
L 161.8848 181.544162 
L 163.6704 181.036548 
L 167.688 180.209917 
L 173.9376 179.17028 
L 181.9728 178.07266 
L 193.1328 176.808456 
L 196.704 176.289582 
L 197.5968 175.959895 
L 198.0432 175.528637 
L 198.4896 173.234118 
L 198.936 178.754416 
L 199.3824 177.230118 
L 199.8288 176.860378 
L 200.7216 176.558867 
L 202.5072 176.281182 
L 207.4176 175.832983 
L 218.1312 175.114358 
L 234.2016 174.273037 
L 254.736 173.429264 
L 259.2 173.270013 
L 259.2 173.270013 
" clip-path="url(#p9dbb25cdc4)" style="fill: none; stroke-dasharray: 5.55,2.4; stroke-dashoffset: 0; stroke: #2ca02c; stroke-width: 1.5"/>
   </g>
   <g id="line2d_32">
    <path d="M 36 173.270013 
L 59.2128 174.191077 
L 77.0688 175.114358 
L 89.1216 175.940179 
L 93.5856 176.398397 
L 94.9248 176.677342 
L 95.3712 176.860378 
L 95.8176 177.230118 
L 96.264 178.754416 
L 96.7104 173.234118 
L 97.1568 175.528637 
L 97.6032 175.959895 
L 98.496 176.289582 
L 100.2816 176.592773 
L 106.9776 177.345713 
L 116.7984 178.533614 
L 124.3872 179.664488 
L 130.1904 180.736648 
L 132.8688 181.39468 
L 133.7616 181.729365 
L 134.208 181.99437 
L 134.6544 182.514541 
L 135.1008 185.518434 
L 135.5472 179.696894 
L 135.9936 181.017276 
L 136.44 181.422044 
L 137.3328 181.848148 
L 140.0112 182.695761 
L 144.0288 184.006315 
L 145.8144 184.541152 
L 146.2608 184.521633 
L 146.7072 184.243697 
L 147.1536 183.342394 
M 148.0464 183.342394 
L 148.4928 184.243697 
L 148.9392 184.521633 
L 149.832 184.451912 
L 152.5104 183.540342 
L 158.76 181.422044 
L 159.2064 181.017276 
L 159.6528 179.696894 
L 160.0992 185.518434 
L 160.5456 182.514541 
L 160.992 181.99437 
L 161.8848 181.544162 
L 163.6704 181.036548 
L 167.688 180.209917 
L 173.9376 179.17028 
L 181.9728 178.07266 
L 193.1328 176.808456 
L 196.704 176.289582 
L 197.5968 175.959895 
L 198.0432 175.528637 
L 198.4896 173.234118 
L 198.936 178.754416 
L 199.3824 177.230118 
L 199.8288 176.860378 
L 200.7216 176.558867 
L 202.5072 176.281182 
L 207.4176 175.832983 
L 218.1312 175.114358 
L 234.2016 174.273037 
L 254.736 173.429264 
L 259.2 173.270013 
L 259.2 173.270013 
" clip-path="url(#p9dbb25cdc4)" style="fill: none; stroke: #2ca02c; stroke-width: 1.5; stroke-linecap: square"/>
   </g>
   <g id="line2d_33">
    <path d="M 36 172.32 
L 60.9984 173.348104 
L 78.408 174.277133 
L 89.1216 175.043276 
L 94.032 175.57738 
L 95.8176 175.9536 
L 96.7104 176.356309 
L 97.1568 176.773729 
L 97.6032 177.780874 
L 98.0496 185.485023 
L 98.496 171.610623 
L 98.9424 174.004342 
L 99.3888 174.660978 
L 100.2816 175.189267 
L 101.6208 175.548844 
L 104.7456 176.028692 
L 122.6016 178.434811 
L 129.744 179.675756 
L 133.3152 180.482347 
L 134.208 180.842051 
L 134.6544 181.213277 
L 135.1008 182.753268 
L 135.5472 178.637202 
L 135.9936 180.080307 
L 136.44 180.448618 
L 137.7792 180.96399 
L 142.2432 182.347957 
L 144.0288 183.158643 
L 145.368 183.712613 
L 145.8144 183.643193 
L 146.2608 183.129885 
L 146.7072 181.867253 
L 147.1536 182.148844 
M 148.0464 182.148844 
L 148.4928 181.867253 
L 148.9392 183.129885 
L 149.3856 183.643193 
L 149.832 183.712613 
L 150.7248 183.382467 
L 152.9568 182.347957 
L 155.1888 181.59958 
L 158.3136 180.661425 
L 158.76 180.448618 
L 159.2064 180.080307 
L 159.6528 178.637202 
L 160.0992 182.753268 
L 160.5456 181.213277 
L 160.992 180.842051 
L 161.8848 180.482347 
L 164.1168 179.943679 
L 169.4736 178.949563 
L 177.5088 177.696143 
L 186.8832 176.473269 
L 193.5792 175.548844 
L 194.9184 175.189267 
L 195.8112 174.660978 
L 196.2576 174.004342 
L 196.704 171.610623 
L 197.1504 185.485023 
L 197.5968 177.780874 
L 198.0432 176.773729 
L 198.4896 176.356309 
L 199.3824 175.9536 
L 201.168 175.57738 
L 204.7392 175.164205 
L 212.328 174.567251 
L 225.2736 173.792719 
L 243.576 172.932121 
L 259.2 172.32 
L 259.2 172.32 
" clip-path="url(#p9dbb25cdc4)" style="fill: none; stroke-dasharray: 5.55,2.4; stroke-dashoffset: 0; stroke: #d62728; stroke-width: 1.5"/>
   </g>
   <g id="line2d_34">
    <path d="M 36 172.32 
L 60.9984 173.348104 
L 78.408 174.277133 
L 89.1216 175.043276 
L 94.032 175.57738 
L 95.8176 175.9536 
L 96.7104 176.356309 
L 97.1568 176.773729 
L 97.6032 177.780874 
L 98.0496 185.485023 
L 98.496 171.610623 
L 98.9424 174.004342 
L 99.3888 174.660978 
L 100.2816 175.189267 
L 101.6208 175.548844 
L 104.7456 176.028692 
L 122.6016 178.434811 
L 129.744 179.675756 
L 133.3152 180.482347 
L 134.208 180.842051 
L 134.6544 181.213277 
L 135.1008 182.753268 
L 135.5472 178.637202 
L 135.9936 180.080307 
L 136.44 180.448618 
L 137.7792 180.96399 
L 142.2432 182.348031 
L 144.0288 183.162159 
L 145.368 183.770979 
L 145.8144 183.780984 
L 146.2608 183.410025 
L 146.7072 182.111125 
L 147.1536 178.542269 
M 148.0464 178.542269 
L 148.4928 182.111125 
L 148.9392 183.410025 
L 149.3856 183.780984 
L 149.832 183.770979 
L 150.7248 183.391599 
L 152.9568 182.348031 
L 155.1888 181.59958 
L 158.3136 180.661425 
L 158.76 180.448618 
L 159.2064 180.080307 
L 159.6528 178.637202 
L 160.0992 182.753268 
L 160.5456 181.213277 
L 160.992 180.842051 
L 161.8848 180.482347 
L 164.1168 179.943679 
L 169.4736 178.949563 
L 177.5088 177.696143 
L 186.8832 176.473269 
L 193.5792 175.548844 
L 194.9184 175.189267 
L 195.8112 174.660978 
L 196.2576 174.004342 
L 196.704 171.610623 
L 197.1504 185.485023 
L 197.5968 177.780874 
L 198.0432 176.773729 
L 198.4896 176.356309 
L 199.3824 175.9536 
L 201.168 175.57738 
L 204.7392 175.164205 
L 212.328 174.567251 
L 225.2736 173.792719 
L 243.576 172.932121 
L 259.2 172.32 
L 259.2 172.32 
" clip-path="url(#p9dbb25cdc4)" style="fill: none; stroke: #d62728; stroke-width: 1.5; stroke-linecap: square"/>
   </g>
   <g id="patch_8">
    <path d="M 36 256.32 
L 36 155.52 
" style="fill: none; stroke: #000000; stroke-width: 0.8; stroke-linejoin: miter; stroke-linecap: square"/>
   </g>
   <g id="patch_9">
    <path d="M 259.2 256.32 
L 259.2 155.52 
" style="fill: none; stroke: #000000; stroke-width: 0.8; stroke-linejoin: miter; stroke-linecap: square"/>
   </g>
   <g id="patch_10">
    <path d="M 36 256.32 
L 259.2 256.32 
" style="fill: none; stroke: #000000; stroke-width: 0.8; stroke-linejoin: miter; stroke-linecap: square"/>
   </g>
   <g id="patch_11">
    <path d="M 36 155.52 
L 259.2 155.52 
" style="fill: none; stroke: #000000; stroke-width: 0.8; stroke-linejoin: miter; stroke-linecap: square"/>
   </g>
  </g>
 </g>
 <defs>
  <clipPath id="p78af41f8ec">
   <rect x="36" y="34.56" width="223.2" height="100.8"/>
  </clipPath>
  <clipPath id="p9dbb25cdc4">
   <rect x="36" y="155.52" width="223.2" height="100.8"/>
  </clipPath>
 </defs>
</svg>
