<?xml version="1.0" encoding="utf-8" standalone="no"?>
<!DOCTYPE svg PUBLIC "-//W3C//DTD SVG 1.1//EN"
  "http://www.w3.org/Graphics/SVG/1.1/DTD/svg11.dtd">
<svg xmlns:xlink="http://www.w3.org/1999/xlink" width="288pt" height="288pt" viewBox="0 0 288 288" xmlns="http://www.w3.org/2000/svg" version="1.1">
 <metadata>
  <rdf:RDF xmlns:dc="http://purl.org/dc/elements/1.1/" xmlns:cc="http://creativecommons.org/ns#" xmlns:rdf="http://www.w3.org/1999/02/22-rdf-syntax-ns#">
   <cc:Work>
    <dc:type rdf:resource="http://purl.org/dc/dcmitype/StillImage"/>
    <dc:date>2025-09-10T16:43:01.126364</dc:date>
    <dc:format>image/svg+xml</dc:format>
    <dc:creator>
     <cc:Agent>
      <dc:title>Matplotlib v3.9.4, https://matplotlib.org/</dc:title>
     </cc:Agent>
    </dc:creator>
   </cc:Work>
  </rdf:RDF>
 </metadata>
 <defs>
  <style type="text/css">*{stroke-linejoin: round; stroke-linecap: butt}</style>
 </defs>
 <g id="figure_1">
  <g id="patch_1">
   <path d="M 0 288 
L 288 288 
L 288 0 
L 0 0 
z
" style="fill: #ffffff"/>
  </g>
  <g id="axes_1">
   <g id="patch_2">
    <path d="M 36 135.36 
L 259.2 135.36 
L 259.2 34.56 
L 36 34.56 
z
" style="fill: #ffffff"/>
   </g>
   <g id="matplotlib.axis_1">
    <g id="xtick_1">
     <g id="line2d_1">
      <defs>
       <path id="m1a48bb0cae" d="M 0 0 
L 0 3.5 
" style="stroke: #000000; stroke-width: 0.8"/>
      </defs>
      <g>
       <use xlink:href="#m1a48bb0cae" x="58.32" y="135.36" style="stroke: #000000; stroke-width: 0.8"/>
      </g>
     </g>
     <g id="text_1">
      <!-- −0.4 -->
      <g transform="translate(46.178594 149.958437) scale(0.1 -0.1)">
       <defs>
        <path id="DejaVuSans-2212" d="M 678 2272 
L 4684 2272 
L 4684 1741 
L 678 1741 
L 678 2272 
z
" transform="scale(0.015625)"/>
        <path id="DejaVuSans-30" d="M 2034 4250 
Q 1547 4250 1301 3770 
Q 1056 3291 1056 2328 
Q 1056 1369 1301 889 
Q 1547 409 2034 409 
Q 2525 409 2770 889 
Q 3016 1369 3016 2328 
Q 3016 3291 2770 3770 
Q 2525 4250 2034 4250 
z
M 2034 4750 
Q 2819 4750 3233 4129 
Q 3647 3509 3647 2328 
Q 3647 1150 3233 529 
Q 2819 -91 2034 -91 
Q 1250 -91 836 529 
Q 422 1150 422 2328 
Q 422 3509 836 4129 
Q 1250 4750 2034 4750 
z
" transform="scale(0.015625)"/>
        <path id="DejaVuSans-2e" d="M 684 794 
L 1344 794 
L 1344 0 
L 684 0 
L 684 794 
z
" transform="scale(0.015625)"/>
        <path id="DejaVuSans-34" d="M 2419 4116 
L 825 1625 
L 2419 1625 
L 2419 4116 
z
M 2253 4666 
L 3047 4666 
L 3047 1625 
L 3713 1625 
L 3713 1100 
L 3047 1100 
L 3047 0 
L 2419 0 
L 2419 1100 
L 313 1100 
L 313 1709 
L 2253 4666 
z
" transform="scale(0.015625)"/>
       </defs>
       <use xlink:href="#DejaVuSans-2212"/>
       <use xlink:href="#DejaVuSans-30" x="83.789062"/>
       <use xlink:href="#DejaVuSans-2e" x="147.412109"/>
       <use xlink:href="#DejaVuSans-34" x="179.199219"/>
      </g>
     </g>
    </g>
    <g id="xtick_2">
     <g id="line2d_2">
      <g>
       <use xlink:href="#m1a48bb0cae" x="102.96" y="135.36" style="stroke: #000000; stroke-width: 0.8"/>
      </g>
     </g>
     <g id="text_2">
      <!-- −0.2 -->
      <g transform="translate(90.818594 149.958437) scale(0.1 -0.1)">
       <defs>
        <path id="DejaVuSans-32" d="M 1228 531 
L 3431 531 
L 3431 0 
L 469 0 
L 469 531 
Q 828 903 1448 1529 
Q 2069 2156 2228 2338 
Q 2531 2678 2651 2914 
Q 2772 3150 2772 3378 
Q 2772 3750 2511 3984 
Q 2250 4219 1831 4219 
Q 1534 4219 1204 4116 
Q 875 4013 500 3803 
L 500 4441 
Q 881 4594 1212 4672 
Q 1544 4750 1819 4750 
Q 2544 4750 2975 4387 
Q 3406 4025 3406 3419 
Q 3406 3131 3298 2873 
Q 3191 2616 2906 2266 
Q 2828 2175 2409 1742 
Q 1991 1309 1228 531 
z
" transform="scale(0.015625)"/>
       </defs>
       <use xlink:href="#DejaVuSans-2212"/>
       <use xlink:href="#DejaVuSans-30" x="83.789062"/>
       <use xlink:href="#DejaVuSans-2e" x="147.412109"/>
       <use xlink:href="#DejaVuSans-32" x="179.199219"/>
      </g>
     </g>
    </g>
    <g id="xtick_3">
     <g id="line2d_3">
      <g>
       <use xlink:href="#m1a48bb0cae" x="147.6" y="135.36" style="stroke: #000000; stroke-width: 0.8"/>
      </g>
     </g>
     <g id="text_3">
      <!-- 0.0 -->
      <g transform="translate(139.648438 149.958437) scale(0.1 -0.1)">
       <use xlink:href="#DejaVuSans-30"/>
       <use xlink:href="#DejaVuSans-2e" x="63.623047"/>
       <use xlink:href="#DejaVuSans-30" x="95.410156"/>
      </g>
     </g>
    </g>
    <g id="xtick_4">
     <g id="line2d_4">
      <g>
       <use xlink:href="#m1a48bb0cae" x="192.24" y="135.36" style="stroke: #000000; stroke-width: 0.8"/>
      </g>
     </g>
     <g id="text_4">
      <!-- 0.2 -->
      <g transform="translate(184.288437 149.958437) scale(0.1 -0.1)">
       <use xlink:href="#DejaVuSans-30"/>
       <use xlink:href="#DejaVuSans-2e" x="63.623047"/>
       <use xlink:href="#DejaVuSans-32" x="95.410156"/>
      </g>
     </g>
    </g>
    <g id="xtick_5">
     <g id="line2d_5">
      <g>
       <use xlink:href="#m1a48bb0cae" x="236.88" y="135.36" style="stroke: #000000; stroke-width: 0.8"/>
      </g>
     </g>
     <g id="text_5">
      <!-- 0.4 -->
      <g transform="translate(228.928437 149.958437) scale(0.1 -0.1)">
       <use xlink:href="#DejaVuSans-30"/>
       <use xlink:href="#DejaVuSans-2e" x="63.623047"/>
       <use xlink:href="#DejaVuSans-34" x="95.410156"/>
      </g>
     </g>
    </g>
   </g>
   <g id="matplotlib.axis_2">
    <g id="ytick_1">
     <g id="line2d_6">
      <defs>
       <path id="m535029f63d" d="M 0 0 
L -3.5 0 
" style="stroke: #000000; stroke-width: 0.8"/>
      </defs>
      <g>
       <use xlink:href="#m535029f63d" x="36" y="126.931459" style="stroke: #000000; stroke-width: 0.8"/>
      </g>
     </g>
     <g id="text_6">
      <!-- 0 -->
      <g transform="translate(22.6375 130.730678) scale(0.1 -0.1)">
       <use xlink:href="#DejaVuSans-30"/>
      </g>
     </g>
    </g>
    <g id="ytick_2">
     <g id="line2d_7">
      <g>
       <use xlink:href="#m535029f63d" x="36" y="87.326884" style="stroke: #000000; stroke-width: 0.8"/>
      </g>
     </g>
     <g id="text_7">
      <!-- 100 -->
      <g transform="translate(9.9125 91.126103) scale(0.1 -0.1)">
       <defs>
        <path id="DejaVuSans-31" d="M 794 531 
L 1825 531 
L 1825 4091 
L 703 3866 
L 703 4441 
L 1819 4666 
L 2450 4666 
L 2450 531 
L 3481 531 
L 3481 0 
L 794 0 
L 794 531 
z
" transform="scale(0.015625)"/>
       </defs>
       <use xlink:href="#DejaVuSans-31"/>
       <use xlink:href="#DejaVuSans-30" x="63.623047"/>
       <use xlink:href="#DejaVuSans-30" x="127.246094"/>
      </g>
     </g>
    </g>
    <g id="ytick_3">
     <g id="line2d_8">
      <g>
       <use xlink:href="#m535029f63d" x="36" y="47.72231" style="stroke: #000000; stroke-width: 0.8"/>
      </g>
     </g>
     <g id="text_8">
      <!-- 200 -->
      <g transform="translate(9.9125 51.521528) scale(0.1 -0.1)">
       <use xlink:href="#DejaVuSans-32"/>
       <use xlink:href="#DejaVuSans-30" x="63.623047"/>
       <use xlink:href="#DejaVuSans-30" x="127.246094"/>
      </g>
     </g>
    </g>
   </g>
   <g id="line2d_9">
    <path d="M 36 126.931463 
L 119.0304 126.830123 
L 123.9408 126.614107 
L 127.0656 126.272023 
L 129.2976 125.817152 
L 131.0832 125.233915 
L 132.4224 124.602042 
L 133.7616 123.733017 
L 135.1008 122.537132 
L 135.9936 121.498873 
L 136.8864 120.213511 
L 137.7792 118.621818 
L 138.672 116.65026 
L 139.5648 114.207516 
L 140.4576 111.180141 
L 141.3504 107.427144 
L 142.2432 102.773234 
L 143.136 97.000358 
L 144.0288 89.837108 
L 144.9216 80.945398 
L 145.8144 69.903722 
L 146.7072 56.186759 
L 147.6 39.141818 
L 148.4928 56.186759 
L 149.3856 69.903722 
L 150.2784 80.945398 
L 151.1712 89.837108 
L 152.064 97.000358 
L 152.9568 102.773234 
L 153.8496 107.427144 
L 154.7424 111.180141 
L 155.6352 114.207516 
L 156.528 116.65026 
L 157.4208 118.621818 
L 158.3136 120.213511 
L 159.6528 122.045666 
L 160.992 123.376013 
L 162.3312 124.342561 
L 163.6704 125.045205 
L 165.456 125.693622 
L 167.688 126.199179 
L 170.3664 126.540501 
L 174.384 126.778156 
L 181.08 126.898766 
L 201.168 126.931139 
L 259.2 126.931463 
L 259.2 126.931463 
" clip-path="url(#p576972839f)" style="fill: none; stroke-dasharray: 5.55,2.4; stroke-dashoffset: 0; stroke: #1f77b4; stroke-width: 1.5"/>
   </g>
   <g id="line2d_10">
    <path d="M 36 126.931463 
L 119.0304 126.830123 
L 123.9408 126.614107 
L 127.0656 126.272023 
L 129.2976 125.817152 
L 131.0832 125.233915 
L 132.4224 124.602042 
L 133.7616 123.733017 
L 135.1008 122.537132 
L 135.9936 121.498873 
L 136.8864 120.213511 
L 137.7792 118.621818 
L 138.672 116.65026 
L 139.5648 114.207516 
L 140.4576 111.180141 
L 141.3504 107.427144 
L 142.2432 102.773234 
L 143.136 97.000358 
L 144.0288 89.837108 
L 144.9216 80.945398 
L 145.8144 69.903722 
L 146.7072 56.18676 
L 147.6 39.145964 
L 148.4928 56.18676 
L 149.3856 69.903722 
L 150.2784 80.945398 
L 151.1712 89.837108 
L 152.064 97.000358 
L 152.9568 102.773234 
L 153.8496 107.427144 
L 154.7424 111.180141 
L 155.6352 114.207516 
L 156.528 116.65026 
L 157.4208 118.621818 
L 158.3136 120.213511 
L 159.6528 122.045666 
L 160.992 123.376013 
L 162.3312 124.342561 
L 163.6704 125.045205 
L 165.456 125.693622 
L 167.688 126.199179 
L 170.3664 126.540501 
L 174.384 126.778156 
L 181.08 126.898766 
L 201.168 126.931139 
L 259.2 126.931463 
L 259.2 126.931463 
" clip-path="url(#p576972839f)" style="fill: none; stroke: #1f77b4; stroke-width: 1.5; stroke-linecap: square"/>
   </g>
   <g id="line2d_11">
    <path d="M 36 126.934032 
L 80.64 127.051605 
L 93.5856 127.289254 
L 102.0672 127.646352 
L 108.7632 128.135222 
L 115.0128 128.822266 
L 121.7088 129.800658 
L 127.512 130.612718 
L 130.1904 130.777999 
L 131.976 130.712371 
L 133.7616 130.421759 
L 135.1008 129.995533 
L 136.44 129.328818 
L 137.7792 128.349999 
L 139.1184 126.96889 
L 140.0112 125.769733 
L 140.904 124.301348 
L 141.7968 122.516419 
L 142.6896 120.35978 
L 143.5824 117.76713 
L 144.4752 114.663601 
L 145.368 110.962252 
L 146.2608 106.562369 
L 147.1536 101.344855 
L 147.6 98.389872 
L 148.9392 106.562369 
L 150.2784 112.893602 
L 151.6176 117.76713 
L 152.9568 121.488352 
L 154.296 124.301348 
L 155.6352 126.400283 
L 156.9744 127.939402 
L 158.3136 129.041254 
L 159.6528 129.803215 
L 160.992 130.30263 
L 162.7776 130.664289 
L 164.5632 130.778182 
L 166.7952 130.693598 
L 169.92 130.338997 
L 185.9904 128.176334 
L 192.24 127.699013 
L 199.8288 127.346256 
L 210.096 127.106991 
L 226.6128 126.974379 
L 259.2 126.934032 
L 259.2 126.934032 
" clip-path="url(#p576972839f)" style="fill: none; stroke-dasharray: 5.55,2.4; stroke-dashoffset: 0; stroke: #ff7f0e; stroke-width: 1.5"/>
   </g>
   <g id="line2d_12">
    <path d="M 36 126.934032 
L 80.64 127.051605 
L 93.5856 127.289254 
L 102.0672 127.646352 
L 108.7632 128.135222 
L 115.0128 128.822266 
L 121.7088 129.800658 
L 127.512 130.612718 
L 130.1904 130.777999 
L 131.976 130.712371 
L 133.7616 130.421759 
L 135.1008 129.995533 
L 136.44 129.328818 
L 137.7792 128.349999 
L 139.1184 126.96889 
L 140.0112 125.769733 
L 140.904 124.301348 
L 141.7968 122.516419 
L 142.6896 120.35978 
L 143.5824 117.76713 
L 144.4752 114.663601 
L 145.368 110.962252 
L 146.2608 106.562369 
L 147.1536 101.34479 
L 147.6 98.383417 
L 148.9392 106.562369 
L 150.2784 112.893602 
L 151.6176 117.76713 
L 152.9568 121.488352 
L 154.296 124.301348 
L 155.6352 126.400283 
L 156.9744 127.939402 
L 158.3136 129.041254 
L 159.6528 129.803215 
L 160.992 130.30263 
L 162.7776 130.664289 
L 164.5632 130.778182 
L 166.7952 130.693598 
L 169.92 130.338997 
L 185.9904 128.176334 
L 192.24 127.699013 
L 199.8288 127.346256 
L 210.096 127.106991 
L 226.6128 126.974379 
L 259.2 126.934032 
L 259.2 126.934032 
" clip-path="url(#p576972839f)" style="fill: none; stroke: #ff7f0e; stroke-width: 1.5; stroke-linecap: square"/>
   </g>
   <g id="line2d_13">
    <path d="M 36 126.72563 
L 65.4624 126.400771 
L 94.032 126.087296 
L 102.96 126.223483 
L 110.1024 126.553445 
L 116.352 127.062722 
L 123.9408 127.931045 
L 129.744 128.532512 
L 132.4224 128.618951 
L 134.6544 128.482448 
L 136.44 128.15948 
L 137.7792 127.743282 
L 139.1184 127.132374 
L 140.4576 126.27537 
L 141.7968 125.108943 
L 143.136 123.555005 
L 144.4752 121.517338 
L 145.8144 118.877937 
L 147.1536 115.491563 
L 147.6 114.168098 
L 148.9392 117.840393 
L 150.2784 120.71092 
L 151.6176 122.934875 
L 152.9568 124.638364 
L 154.296 125.924464 
L 155.6352 126.876907 
L 156.9744 127.563599 
L 158.3136 128.039629 
L 160.0992 128.422673 
L 162.3312 128.610263 
L 165.0096 128.560342 
L 168.5808 128.245266 
L 183.7584 126.644099 
L 190.4544 126.28382 
L 198.0432 126.108482 
L 208.3104 126.109855 
L 229.7376 126.400771 
L 259.2 126.72563 
L 259.2 126.72563 
" clip-path="url(#p576972839f)" style="fill: none; stroke-dasharray: 5.55,2.4; stroke-dashoffset: 0; stroke: #2ca02c; stroke-width: 1.5"/>
   </g>
   <g id="line2d_14">
    <path d="M 36 126.72563 
L 65.4624 126.400771 
L 94.032 126.087296 
L 102.96 126.223483 
L 110.1024 126.553445 
L 116.352 127.062722 
L 123.9408 127.931045 
L 129.744 128.532512 
L 132.4224 128.618951 
L 134.6544 128.482448 
L 136.44 128.15948 
L 137.7792 127.743282 
L 139.1184 127.132374 
L 140.4576 126.27537 
L 141.7968 125.108943 
L 143.136 123.555005 
L 144.4752 121.517338 
L 145.8144 118.877937 
L 147.1536 115.491526 
L 147.6 114.164433 
L 148.9392 117.840393 
L 150.2784 120.71092 
L 151.6176 122.934875 
L 152.9568 124.638364 
L 154.296 125.924464 
L 155.6352 126.876907 
L 156.9744 127.563599 
L 158.3136 128.039629 
L 160.0992 128.422673 
L 162.3312 128.610263 
L 165.0096 128.560342 
L 168.5808 128.245266 
L 183.7584 126.644099 
L 190.4544 126.28382 
L 198.0432 126.108482 
L 208.3104 126.109855 
L 229.7376 126.400771 
L 259.2 126.72563 
L 259.2 126.72563 
" clip-path="url(#p576972839f)" style="fill: none; stroke: #2ca02c; stroke-width: 1.5; stroke-linecap: square"/>
   </g>
   <g id="line2d_15">
    <path d="M 36 127.133124 
L 65.016 126.911214 
L 102.5136 126.573875 
L 111.888 126.75446 
L 120.3696 127.136054 
L 131.976 127.69884 
L 135.1008 127.621436 
L 137.3328 127.389229 
L 139.5648 126.923643 
L 141.3504 126.310672 
L 142.6896 125.662388 
L 144.0288 124.80808 
L 145.368 123.698167 
L 146.7072 122.272647 
L 147.6 121.111065 
L 148.9392 122.787138 
L 150.2784 124.100006 
L 151.6176 125.118602 
L 152.9568 125.899198 
L 154.7424 126.648782 
L 156.528 127.144076 
L 158.76 127.505142 
L 161.4384 127.68229 
L 165.0096 127.662973 
L 171.2592 127.345552 
L 182.4192 126.784539 
L 191.3472 126.586194 
L 202.5072 126.578746 
L 225.2736 126.851201 
L 254.736 127.113822 
L 259.2 127.133124 
L 259.2 127.133124 
" clip-path="url(#p576972839f)" style="fill: none; stroke-dasharray: 5.55,2.4; stroke-dashoffset: 0; stroke: #d62728; stroke-width: 1.5"/>
   </g>
   <g id="line2d_16">
    <path d="M 36 127.133124 
L 65.016 126.911214 
L 102.5136 126.573875 
L 111.888 126.75446 
L 120.3696 127.136054 
L 131.976 127.69884 
L 135.1008 127.621436 
L 137.3328 127.389229 
L 139.5648 126.923643 
L 141.3504 126.310672 
L 142.6896 125.662388 
L 144.0288 124.80808 
L 145.368 123.698167 
L 146.7072 122.272647 
L 147.6 121.108417 
L 148.9392 122.787138 
L 150.2784 124.100006 
L 151.6176 125.118602 
L 152.9568 125.899198 
L 154.7424 126.648782 
L 156.528 127.144076 
L 158.76 127.505142 
L 161.4384 127.68229 
L 165.0096 127.662973 
L 171.2592 127.345552 
L 182.4192 126.784539 
L 191.3472 126.586194 
L 202.5072 126.578746 
L 225.2736 126.851201 
L 254.736 127.113822 
L 259.2 127.133124 
L 259.2 127.133124 
" clip-path="url(#p576972839f)" style="fill: none; stroke: #d62728; stroke-width: 1.5; stroke-linecap: square"/>
   </g>
   <g id="line2d_17">
    <path d="M 36 127.008162 
L 81.5328 126.857769 
L 108.3168 126.832127 
L 123.048 127.055076 
L 134.208 127.190646 
L 138.2256 127.039777 
L 141.3504 126.714311 
L 143.5824 126.294831 
L 145.8144 125.641274 
L 147.6 124.885491 
L 149.3856 125.641274 
L 151.6176 126.294831 
L 153.8496 126.714311 
L 156.9744 127.039777 
L 160.992 127.190646 
L 167.2416 127.154796 
L 192.6864 126.804496 
L 215.0064 126.864459 
L 259.2 127.008162 
L 259.2 127.008162 
" clip-path="url(#p576972839f)" style="fill: none; stroke-dasharray: 5.55,2.4; stroke-dashoffset: 0; stroke: #9467bd; stroke-width: 1.5"/>
   </g>
   <g id="line2d_18">
    <path d="M 36 127.008162 
L 81.5328 126.857769 
L 108.3168 126.832127 
L 123.048 127.055076 
L 134.208 127.190646 
L 138.2256 127.039777 
L 141.3504 126.714311 
L 143.5824 126.294831 
L 145.8144 125.641274 
L 147.6 124.883715 
L 149.3856 125.641274 
L 151.6176 126.294831 
L 153.8496 126.714311 
L 156.9744 127.039777 
L 160.992 127.190646 
L 167.2416 127.154796 
L 192.6864 126.804496 
L 215.0064 126.864459 
L 259.2 127.008162 
L 259.2 127.008162 
" clip-path="url(#p576972839f)" style="fill: none; stroke: #9467bd; stroke-width: 1.5; stroke-linecap: square"/>
   </g>
   <g id="patch_3">
    <path d="M 36 135.36 
L 36 34.56 
" style="fill: none; stroke: #000000; stroke-width: 0.8; stroke-linejoin: miter; stroke-linecap: square"/>
   </g>
   <g id="patch_4">
    <path d="M 259.2 135.36 
L 259.2 34.56 
" style="fill: none; stroke: #000000; stroke-width: 0.8; stroke-linejoin: miter; stroke-linecap: square"/>
   </g>
   <g id="patch_5">
    <path d="M 36 135.36 
L 259.2 135.36 
" style="fill: none; stroke: #000000; stroke-width: 0.8; stroke-linejoin: miter; stroke-linecap: square"/>
   </g>
   <g id="patch_6">
    <path d="M 36 34.56 
L 259.2 34.56 
" style="fill: none; stroke: #000000; stroke-width: 0.8; stroke-linejoin: miter; stroke-linecap: square"/>
   </g>
  </g>
  <g id="axes_2">
   <g id="patch_7">
    <path d="M 36 256.32 
L 259.2 256.32 
L 259.2 155.52 
L 36 155.52 
z
" style="fill: #ffffff"/>
   </g>
   <g id="matplotlib.axis_3">
    <g id="xtick_6">
     <g id="line2d_19">
      <g>
       <use xlink:href="#m1a48bb0cae" x="58.32" y="256.32" style="stroke: #000000; stroke-width: 0.8"/>
      </g>
     </g>
     <g id="text_9">
      <!-- −0.4 -->
      <g transform="translate(46.178594 270.918437) scale(0.1 -0.1)">
       <use xlink:href="#DejaVuSans-2212"/>
       <use xlink:href="#DejaVuSans-30" x="83.789062"/>
       <use xlink:href="#DejaVuSans-2e" x="147.412109"/>
       <use xlink:href="#DejaVuSans-34" x="179.199219"/>
      </g>
     </g>
    </g>
    <g id="xtick_7">
     <g id="line2d_20">
      <g>
       <use xlink:href="#m1a48bb0cae" x="102.96" y="256.32" style="stroke: #000000; stroke-width: 0.8"/>
      </g>
     </g>
     <g id="text_10">
      <!-- −0.2 -->
      <g transform="translate(90.818594 270.918437) scale(0.1 -0.1)">
       <use xlink:href="#DejaVuSans-2212"/>
       <use xlink:href="#DejaVuSans-30" x="83.789062"/>
       <use xlink:href="#DejaVuSans-2e" x="147.412109"/>
       <use xlink:href="#DejaVuSans-32" x="179.199219"/>
      </g>
     </g>
    </g>
    <g id="xtick_8">
     <g id="line2d_21">
      <g>
       <use xlink:href="#m1a48bb0cae" x="147.6" y="256.32" style="stroke: #000000; stroke-width: 0.8"/>
      </g>
     </g>
     <g id="text_11">
      <!-- 0.0 -->
      <g transform="translate(139.648438 270.918437) scale(0.1 -0.1)">
       <use xlink:href="#DejaVuSans-30"/>
       <use xlink:href="#DejaVuSans-2e" x="63.623047"/>
       <use xlink:href="#DejaVuSans-30" x="95.410156"/>
      </g>
     </g>
    </g>
    <g id="xtick_9">
     <g id="line2d_22">
      <g>
       <use xlink:href="#m1a48bb0cae" x="192.24" y="256.32" style="stroke: #000000; stroke-width: 0.8"/>
      </g>
     </g>
     <g id="text_12">
      <!-- 0.2 -->
      <g transform="translate(184.288437 270.918437) scale(0.1 -0.1)">
       <use xlink:href="#DejaVuSans-30"/>
       <use xlink:href="#DejaVuSans-2e" x="63.623047"/>
       <use xlink:href="#DejaVuSans-32" x="95.410156"/>
      </g>
     </g>
    </g>
    <g id="xtick_10">
     <g id="line2d_23">
      <g>
       <use xlink:href="#m1a48bb0cae" x="236.88" y="256.32" style="stroke: #000000; stroke-width: 0.8"/>
      </g>
     </g>
     <g id="text_13">
      <!-- 0.4 -->
      <g transform="translate(228.928437 270.918437) scale(0.1 -0.1)">
       <use xlink:href="#DejaVuSans-30"/>
       <use xlink:href="#DejaVuSans-2e" x="63.623047"/>
       <use xlink:href="#DejaVuSans-34" x="95.410156"/>
      </g>
     </g>
    </g>
   </g>
   <g id="matplotlib.axis_4">
    <g id="ytick_4">
     <g id="line2d_24">
      <g>
       <use xlink:href="#m535029f63d" x="36" y="240.346803" style="stroke: #000000; stroke-width: 0.8"/>
      </g>
     </g>
     <g id="text_14">
      <!-- −1500 -->
      <g transform="translate(-4.829687 244.146022) scale(0.1 -0.1)">
       <defs>
        <path id="DejaVuSans-35" d="M 691 4666 
L 3169 4666 
L 3169 4134 
L 1269 4134 
L 1269 2991 
Q 1406 3038 1543 3061 
Q 1681 3084 1819 3084 
Q 2600 3084 3056 2656 
Q 3513 2228 3513 1497 
Q 3513 744 3044 326 
Q 2575 -91 1722 -91 
Q 1428 -91 1123 -41 
Q 819 9 494 109 
L 494 744 
Q 775 591 1075 516 
Q 1375 441 1709 441 
Q 2250 441 2565 725 
Q 2881 1009 2881 1497 
Q 2881 1984 2565 2268 
Q 2250 2553 1709 2553 
Q 1456 2553 1204 2497 
Q 953 2441 691 2322 
L 691 4666 
z
" transform="scale(0.015625)"/>
       </defs>
       <use xlink:href="#DejaVuSans-2212"/>
       <use xlink:href="#DejaVuSans-31" x="83.789062"/>
       <use xlink:href="#DejaVuSans-35" x="147.412109"/>
       <use xlink:href="#DejaVuSans-30" x="211.035156"/>
       <use xlink:href="#DejaVuSans-30" x="274.658203"/>
      </g>
     </g>
    </g>
    <g id="ytick_5">
     <g id="line2d_25">
      <g>
       <use xlink:href="#m535029f63d" x="36" y="216.352182" style="stroke: #000000; stroke-width: 0.8"/>
      </g>
     </g>
     <g id="text_15">
      <!-- −1000 -->
      <g transform="translate(-4.829687 220.151401) scale(0.1 -0.1)">
       <use xlink:href="#DejaVuSans-2212"/>
       <use xlink:href="#DejaVuSans-31" x="83.789062"/>
       <use xlink:href="#DejaVuSans-30" x="147.412109"/>
       <use xlink:href="#DejaVuSans-30" x="211.035156"/>
       <use xlink:href="#DejaVuSans-30" x="274.658203"/>
      </g>
     </g>
    </g>
    <g id="ytick_6">
     <g id="line2d_26">
      <g>
       <use xlink:href="#m535029f63d" x="36" y="192.357562" style="stroke: #000000; stroke-width: 0.8"/>
      </g>
     </g>
     <g id="text_16">
      <!-- −500 -->
      <g transform="translate(1.532812 196.15678) scale(0.1 -0.1)">
       <use xlink:href="#DejaVuSans-2212"/>
       <use xlink:href="#DejaVuSans-35" x="83.789062"/>
       <use xlink:href="#DejaVuSans-30" x="147.412109"/>
       <use xlink:href="#DejaVuSans-30" x="211.035156"/>
      </g>
     </g>
    </g>
    <g id="ytick_7">
     <g id="line2d_27">
      <g>
       <use xlink:href="#m535029f63d" x="36" y="168.362941" style="stroke: #000000; stroke-width: 0.8"/>
      </g>
     </g>
     <g id="text_17">
      <!-- 0 -->
      <g transform="translate(22.6375 172.16216) scale(0.1 -0.1)">
       <use xlink:href="#DejaVuSans-30"/>
      </g>
     </g>
    </g>
   </g>
   <g id="line2d_28">
    <path d="M 36 174.457903 
L 47.16 178.0828 
L 49.8384 178.591548 
L 52.0704 178.800494 
L 54.3024 178.793057 
L 56.5344 178.562418 
L 58.7664 178.108294 
L 60.9984 177.428569 
L 63.2304 176.508774 
L 65.4624 175.308607 
L 67.248 174.091002 
L 69.0336 172.561258 
L 70.3728 171.13222 
L 71.712 169.366945 
L 73.0512 167.131334 
L 73.944 165.279654 
L 74.8368 163.034076 
L 75.7296 160.260551 
L 76.6224 156.759968 
L 77.5152 152.22388 
L 78.408 146.148332 
L 79.3008 137.650802 
L 80.1936 125.033848 
L 80.64 116.165967 
L 81.0864 104.563996 
L 81.5328 88.777511 
L 81.9792 66.114288 
L 82.4256 30.949453 
L 82.656711 -1 
M 83.879066 -1 
L 83.925937 289 
M 87.150602 289 
L 87.7824 274.139327 
L 88.6752 260.804797 
L 89.568 252.083616 
L 90.4608 246.050034 
L 91.3536 241.720285 
L 92.2464 238.538536 
L 93.1392 236.16633 
L 94.032 234.385213 
L 94.9248 233.047426 
L 95.8176 232.049088 
L 96.7104 231.314776 
L 97.6032 230.788213 
L 98.9424 230.296596 
L 100.2816 230.070514 
L 102.0672 230.053745 
L 104.2992 230.322681 
L 107.424 230.97832 
L 123.9408 234.834512 
L 147.1536 239.558591 
M 148.0464 239.558591 
L 152.064 238.69854 
L 156.9744 237.623833 
L 180.6336 232.756603 
L 191.3472 230.25058 
L 193.5792 230.033868 
L 195.3648 230.121576 
L 196.704 230.426435 
L 198.0432 231.028471 
L 198.936 231.652814 
L 199.8288 232.511076 
L 200.7216 233.668205 
L 201.6144 235.212389 
L 202.5072 237.266978 
L 203.4 240.010688 
L 204.2928 243.713677 
L 205.1856 248.806154 
L 206.0784 256.019722 
L 206.9712 266.71062 
L 207.4176 274.139327 
L 208.049398 289 
M 211.274063 289 
L 211.320934 -1 
M 212.543289 -1 
L 212.7744 30.949453 
L 213.2208 66.114288 
L 213.6672 88.777511 
L 214.1136 104.563996 
L 215.0064 125.033848 
L 215.8992 137.650802 
L 216.792 146.148332 
L 217.6848 152.22388 
L 218.5776 156.759968 
L 219.4704 160.260551 
L 220.3632 163.034076 
L 221.256 165.279654 
L 222.5952 167.939788 
L 223.9344 169.999792 
L 225.2736 171.640844 
L 226.6128 172.979016 
L 228.3984 174.420869 
L 230.184 175.574328 
L 232.416 176.713368 
L 234.648 177.582982 
L 236.88 178.216995 
L 239.112 178.626449 
L 241.344 178.812322 
L 243.576 178.775608 
L 245.808 178.525211 
L 248.4864 177.974165 
L 251.6112 177.067648 
L 257.4144 175.061801 
L 259.2 174.457903 
L 259.2 174.457903 
" clip-path="url(#p7a7009ecb8)" style="fill: none; stroke-dasharray: 5.55,2.4; stroke-dashoffset: 0; stroke: #1f77b4; stroke-width: 1.5"/>
   </g>
   <g id="line2d_29">
    <path d="M 36 174.457903 
L 47.16 178.0828 
L 49.8384 178.591548 
L 52.0704 178.800494 
L 54.3024 178.793057 
L 56.5344 178.562418 
L 58.7664 178.108294 
L 60.9984 177.428569 
L 63.2304 176.508774 
L 65.4624 175.308607 
L 67.248 174.091002 
L 69.0336 172.561258 
L 70.3728 171.13222 
L 71.712 169.366945 
L 73.0512 167.131334 
L 73.944 165.279654 
L 74.8368 163.034076 
L 75.7296 160.260551 
L 76.6224 156.759968 
L 77.5152 152.22388 
L 78.408 146.148332 
L 79.3008 137.650802 
L 80.1936 125.033848 
L 80.64 116.165967 
L 81.0864 104.563996 
L 81.5328 88.777511 
L 81.9792 66.114288 
L 82.4256 30.949453 
L 82.656711 -1 
M 83.879066 -1 
L 83.925937 289 
M 87.150602 289 
L 87.7824 274.139327 
L 88.6752 260.804797 
L 89.568 252.083616 
L 90.4608 246.050034 
L 91.3536 241.720285 
L 92.2464 238.538536 
L 93.1392 236.16633 
L 94.032 234.385213 
L 94.9248 233.047426 
L 95.8176 232.049088 
L 96.7104 231.314776 
L 97.6032 230.788213 
L 98.9424 230.296596 
L 100.2816 230.070514 
L 102.0672 230.053745 
L 104.2992 230.322681 
L 107.424 230.97832 
L 123.9408 234.834512 
L 147.1536 239.52 
M 148.0464 239.52 
L 149.832 239.279092 
L 154.7424 238.087417 
L 162.3312 236.577681 
L 175.2768 233.989618 
L 182.4192 232.316812 
L 190.4544 230.401777 
L 192.6864 230.086773 
L 194.472 230.040333 
L 195.8112 230.196011 
L 197.1504 230.589004 
L 198.0432 231.028471 
L 198.936 231.652814 
L 199.8288 232.511076 
L 200.7216 233.668205 
L 201.6144 235.212389 
L 202.5072 237.266978 
L 203.4 240.010688 
L 204.2928 243.713677 
L 205.1856 248.806154 
L 206.0784 256.019722 
L 206.9712 266.71062 
L 207.4176 274.139327 
L 208.049398 289 
M 211.274063 289 
L 211.320934 -1 
M 212.543289 -1 
L 212.7744 30.949453 
L 213.2208 66.114288 
L 213.6672 88.777511 
L 214.1136 104.563996 
L 215.0064 125.033848 
L 215.8992 137.650802 
L 216.792 146.148332 
L 217.6848 152.22388 
L 218.5776 156.759968 
L 219.4704 160.260551 
L 220.3632 163.034076 
L 221.256 165.279654 
L 222.5952 167.939788 
L 223.9344 169.999792 
L 225.2736 171.640844 
L 226.6128 172.979016 
L 228.3984 174.420869 
L 230.184 175.574328 
L 232.416 176.713368 
L 234.648 177.582982 
L 236.88 178.216995 
L 239.112 178.626449 
L 241.344 178.812322 
L 243.576 178.775608 
L 245.808 178.525211 
L 248.4864 177.974165 
L 251.6112 177.067648 
L 257.4144 175.061801 
L 259.2 174.457903 
L 259.2 174.457903 
" clip-path="url(#p7a7009ecb8)" style="fill: none; stroke: #1f77b4; stroke-width: 1.5; stroke-linecap: square"/>
   </g>
   <g id="line2d_30">
    <path d="M 36 180.726943 
L 43.5888 180.758057 
L 52.5168 181.021026 
L 65.016 181.633242 
L 94.4784 183.373473 
L 108.7632 184.401814 
L 119.0304 185.354602 
L 127.512 186.353117 
L 133.3152 187.236846 
L 136.8864 187.960474 
L 138.2256 188.347625 
L 138.672 188.588081 
L 139.1184 192.683925 
L 139.5648 188.220062 
L 140.4576 188.672375 
L 143.5824 189.603623 
L 146.2608 190.351528 
L 146.7072 190.735986 
L 147.1536 190.521431 
M 148.0464 190.521431 
L 148.4928 190.735986 
L 148.9392 190.351528 
L 149.832 190.01677 
L 152.9568 189.227417 
L 155.1888 188.50073 
L 155.6352 188.220062 
L 156.0816 192.683925 
L 156.528 188.588081 
L 157.4208 188.197162 
L 159.6528 187.662345 
L 163.6704 186.937857 
L 169.92 186.065438 
L 178.4016 185.127451 
L 188.6688 184.222326 
L 201.6144 183.31655 
L 228.3984 181.732676 
L 243.576 180.986173 
L 252.9504 180.73788 
L 259.2 180.726943 
L 259.2 180.726943 
" clip-path="url(#p7a7009ecb8)" style="fill: none; stroke-dasharray: 5.55,2.4; stroke-dashoffset: 0; stroke: #ff7f0e; stroke-width: 1.5"/>
   </g>
   <g id="line2d_31">
    <path d="M 36 180.726943 
L 43.5888 180.758057 
L 52.5168 181.021026 
L 65.016 181.633242 
L 94.4784 183.373473 
L 108.7632 184.401814 
L 119.0304 185.354602 
L 127.512 186.353117 
L 133.3152 187.236846 
L 136.8864 187.960474 
L 138.2256 188.347625 
L 138.672 188.588081 
L 139.1184 192.683925 
L 139.5648 188.220062 
L 140.4576 188.672375 
L 143.5824 189.603623 
L 146.2608 190.351563 
L 146.7072 190.738837 
L 147.1536 190.706593 
M 148.0464 190.706593 
L 148.4928 190.738837 
L 148.9392 190.351563 
L 149.832 190.01677 
L 152.9568 189.227417 
L 155.1888 188.50073 
L 155.6352 188.220062 
L 156.0816 192.683925 
L 156.528 188.588081 
L 157.4208 188.197162 
L 159.6528 187.662345 
L 163.6704 186.937857 
L 169.92 186.065438 
L 178.4016 185.127451 
L 188.6688 184.222326 
L 201.6144 183.31655 
L 228.3984 181.732676 
L 243.576 180.986173 
L 252.9504 180.73788 
L 259.2 180.726943 
L 259.2 180.726943 
" clip-path="url(#p7a7009ecb8)" style="fill: none; stroke: #ff7f0e; stroke-width: 1.5; stroke-linecap: square"/>
   </g>
   <g id="line2d_32">
    <path d="M 36 174.102498 
L 60.9984 174.810949 
L 80.1936 175.565342 
L 95.3712 176.371737 
L 107.424 177.219994 
L 114.5664 177.826126 
L 115.0128 178.128394 
L 115.4592 177.955218 
L 119.9232 178.401985 
L 127.512 179.339886 
L 133.3152 180.269297 
L 136.8864 181.053871 
L 138.2256 181.504748 
L 138.672 181.765287 
L 139.1184 182.407733 
L 139.5648 177.874833 
L 140.0112 181.064609 
L 140.4576 181.471168 
L 141.7968 182.044763 
L 144.0288 182.703445 
L 145.8144 183.11967 
L 146.2608 183.361145 
L 146.7072 183.827883 
L 147.1536 183.541674 
M 148.0464 183.541674 
L 148.4928 183.827883 
L 148.9392 183.361145 
L 149.832 182.991067 
L 152.5104 182.334628 
L 154.296 181.702204 
L 154.7424 181.471168 
L 155.1888 181.064609 
L 155.6352 177.874833 
L 156.0816 182.407733 
L 156.528 181.765287 
L 157.4208 181.326764 
L 159.2064 180.828013 
L 162.7776 180.107059 
L 168.1344 179.277928 
L 175.7232 178.353241 
L 179.7408 177.955218 
L 180.1872 178.128394 
L 180.6336 177.826126 
L 186.8832 177.292526 
L 198.4896 176.4553 
L 212.328 175.691365 
L 229.7376 174.966329 
L 251.1648 174.304612 
L 259.2 174.102498 
L 259.2 174.102498 
" clip-path="url(#p7a7009ecb8)" style="fill: none; stroke-dasharray: 5.55,2.4; stroke-dashoffset: 0; stroke: #2ca02c; stroke-width: 1.5"/>
   </g>
   <g id="line2d_33">
    <path d="M 36 174.102498 
L 60.9984 174.810949 
L 80.1936 175.565342 
L 95.3712 176.371737 
L 107.424 177.219994 
L 114.5664 177.826126 
L 115.0128 178.128394 
L 115.4592 177.955218 
L 119.9232 178.401985 
L 127.512 179.339886 
L 133.3152 180.269297 
L 136.8864 181.053871 
L 138.2256 181.504748 
L 138.672 181.765287 
L 139.1184 182.407733 
L 139.5648 177.874833 
L 140.0112 181.064609 
L 140.4576 181.471168 
L 141.7968 182.044763 
L 144.0288 182.703445 
L 145.8144 183.11967 
L 146.2608 183.361189 
L 146.7072 183.831506 
L 147.1536 183.776809 
M 148.0464 183.776809 
L 148.4928 183.831506 
L 148.9392 183.361189 
L 149.832 182.991067 
L 152.5104 182.334628 
L 154.296 181.702204 
L 154.7424 181.471168 
L 155.1888 181.064609 
L 155.6352 177.874833 
L 156.0816 182.407733 
L 156.528 181.765287 
L 157.4208 181.326764 
L 159.2064 180.828013 
L 162.7776 180.107059 
L 168.1344 179.277928 
L 175.7232 178.353241 
L 179.7408 177.955218 
L 180.1872 178.128394 
L 180.6336 177.826126 
L 186.8832 177.292526 
L 198.4896 176.4553 
L 212.328 175.691365 
L 229.7376 174.966329 
L 251.1648 174.304612 
L 259.2 174.102498 
L 259.2 174.102498 
" clip-path="url(#p7a7009ecb8)" style="fill: none; stroke: #2ca02c; stroke-width: 1.5; stroke-linecap: square"/>
   </g>
   <g id="line2d_34">
    <path d="M 36 172.601773 
L 56.088 173.217256 
L 60.9984 173.537167 
L 61.8912 173.717909 
L 62.3376 173.918545 
L 62.784 174.475627 
L 63.2304 203.730327 
L 63.6768 172.215469 
L 64.1232 172.837753 
L 65.016 173.164864 
L 66.8016 173.376803 
L 72.6048 173.696907 
L 94.032 174.82263 
L 106.5312 175.71496 
L 113.6736 176.397069 
L 115.4592 176.734839 
L 115.9056 177.009561 
L 116.352 181.844588 
L 116.7984 176.019714 
L 117.2448 176.378023 
L 118.1376 176.614568 
L 121.2624 177.042591 
L 130.1904 178.25105 
L 134.6544 179.065686 
L 137.3328 179.753085 
L 138.2256 180.105812 
L 138.672 180.39076 
L 139.1184 181.042467 
L 139.5648 164.947491 
L 140.0112 179.34608 
L 140.4576 179.913455 
L 141.3504 180.401737 
L 143.136 181.007988 
L 144.9216 181.368066 
L 145.8144 181.571726 
L 146.2608 181.890501 
L 146.7072 182.580791 
L 147.1536 182.101294 
M 148.0464 182.101294 
L 148.4928 182.580791 
L 148.9392 181.890501 
L 149.3856 181.571726 
L 150.2784 181.368066 
L 152.064 181.007988 
L 153.8496 180.401737 
L 154.7424 179.913455 
L 155.1888 179.34608 
L 155.6352 164.947491 
L 156.0816 181.042467 
L 156.528 180.39076 
L 157.4208 179.910764 
L 159.2064 179.375354 
L 162.3312 178.709464 
L 167.2416 177.914947 
L 177.9552 176.378023 
L 178.4016 176.019714 
L 178.848 181.844588 
L 179.2944 177.009561 
L 179.7408 176.734839 
L 181.08 176.456343 
L 185.0976 176.025631 
L 194.472 175.269821 
L 207.4176 174.455324 
L 230.184 173.164864 
L 231.0768 172.837753 
L 231.5232 172.215469 
L 231.9696 203.730327 
L 232.416 174.475627 
L 232.8624 173.918545 
L 233.7552 173.608963 
L 235.5408 173.406409 
L 240.8976 173.146257 
L 256.5216 172.670244 
L 259.2 172.601773 
L 259.2 172.601773 
" clip-path="url(#p7a7009ecb8)" style="fill: none; stroke-dasharray: 5.55,2.4; stroke-dashoffset: 0; stroke: #d62728; stroke-width: 1.5"/>
   </g>
   <g id="line2d_35">
    <path d="M 36 172.601773 
L 56.088 173.217256 
L 60.9984 173.537167 
L 61.8912 173.717909 
L 62.3376 173.918545 
L 62.784 174.475627 
L 63.2304 203.730327 
L 63.6768 172.215469 
L 64.1232 172.837753 
L 65.016 173.164864 
L 66.8016 173.376803 
L 72.6048 173.696907 
L 94.032 174.82263 
L 106.5312 175.71496 
L 113.6736 176.397069 
L 115.4592 176.734839 
L 115.9056 177.009561 
L 116.352 181.844588 
L 116.7984 176.019714 
L 117.2448 176.378023 
L 118.1376 176.614568 
L 121.2624 177.042591 
L 130.1904 178.25105 
L 134.6544 179.065686 
L 137.3328 179.753085 
L 138.2256 180.105812 
L 138.672 180.39076 
L 139.1184 181.042467 
L 139.5648 164.947491 
L 140.0112 179.34608 
L 140.4576 179.913455 
L 141.3504 180.401737 
L 143.136 181.007988 
L 144.9216 181.368066 
L 145.8144 181.571726 
L 146.2608 181.890571 
L 146.7072 182.586532 
L 147.1536 182.473879 
M 148.0464 182.473879 
L 148.4928 182.586532 
L 148.9392 181.890571 
L 149.3856 181.571726 
L 150.2784 181.368066 
L 152.064 181.007988 
L 153.8496 180.401737 
L 154.7424 179.913455 
L 155.1888 179.34608 
L 155.6352 164.947491 
L 156.0816 181.042467 
L 156.528 180.39076 
L 157.4208 179.910764 
L 159.2064 179.375354 
L 162.3312 178.709464 
L 167.2416 177.914947 
L 177.9552 176.378023 
L 178.4016 176.019714 
L 178.848 181.844588 
L 179.2944 177.009561 
L 179.7408 176.734839 
L 181.08 176.456343 
L 185.0976 176.025631 
L 194.472 175.269821 
L 207.4176 174.455324 
L 230.184 173.164864 
L 231.0768 172.837753 
L 231.5232 172.215469 
L 231.9696 203.730327 
L 232.416 174.475627 
L 232.8624 173.918545 
L 233.7552 173.608963 
L 235.5408 173.406409 
L 240.8976 173.146257 
L 256.5216 172.670244 
L 259.2 172.601773 
L 259.2 172.601773 
" clip-path="url(#p7a7009ecb8)" style="fill: none; stroke: #d62728; stroke-width: 1.5; stroke-linecap: square"/>
   </g>
   <g id="line2d_36">
    <path d="M 36 172.32 
L 56.9808 172.951047 
L 63.2304 173.294498 
L 64.5696 173.495128 
L 65.016 173.633374 
L 65.4624 173.903035 
L 65.9088 174.763289 
L 66.3552 163.754815 
L 66.8016 172.051911 
L 67.248 172.618362 
L 68.1408 172.955584 
L 69.9264 173.184893 
L 75.2832 173.506019 
L 96.7104 174.704732 
L 108.3168 175.588154 
L 114.5664 176.232823 
L 115.9056 176.565649 
L 116.352 177.078942 
L 116.7984 174.706491 
L 117.2448 175.98207 
L 118.1376 176.313816 
L 120.816 176.700704 
L 130.6368 178.007922 
L 134.6544 178.769751 
L 136.8864 179.36864 
L 138.2256 179.931166 
L 138.672 180.269396 
L 139.1184 181.050641 
L 139.5648 145.947904 
L 140.0112 178.858296 
L 140.4576 179.581394 
L 141.3504 180.16032 
L 142.6896 180.667947 
L 144.0288 180.938045 
L 145.8144 181.112957 
L 146.2608 181.618215 
L 146.7072 182.859434 
L 147.1536 181.915229 
M 148.0464 181.915229 
L 148.4928 182.859434 
L 148.9392 181.618215 
L 149.3856 181.112957 
L 149.832 180.978376 
L 151.6176 180.879044 
L 152.9568 180.523643 
L 154.296 179.920876 
L 154.7424 179.581394 
L 155.1888 178.858296 
L 155.6352 145.947904 
L 156.0816 181.050641 
L 156.528 180.269396 
L 157.4208 179.70404 
L 158.76 179.22998 
L 161.4384 178.575852 
L 165.456 177.867569 
L 171.7056 177.026545 
L 177.0624 176.313816 
L 177.9552 175.98207 
L 178.4016 174.706491 
L 178.848 177.078942 
L 179.2944 176.565649 
L 180.1872 176.306495 
L 182.8656 175.966022 
L 190.9008 175.255315 
L 202.9536 174.419271 
L 219.024 173.551246 
L 226.1664 173.095942 
L 227.5056 172.835137 
L 227.952 172.618362 
L 228.3984 172.051911 
L 228.8448 163.754815 
L 229.2912 174.763289 
L 229.7376 173.903035 
L 230.184 173.633374 
L 231.0768 173.407212 
L 233.3088 173.187687 
L 239.5584 172.90011 
L 256.5216 172.387909 
L 259.2 172.32 
L 259.2 172.32 
" clip-path="url(#p7a7009ecb8)" style="fill: none; stroke-dasharray: 5.55,2.4; stroke-dashoffset: 0; stroke: #9467bd; stroke-width: 1.5"/>
   </g>
   <g id="line2d_37">
    <path d="M 36 172.32 
L 56.9808 172.951047 
L 63.2304 173.294498 
L 64.5696 173.495128 
L 65.016 173.633374 
L 65.4624 173.903035 
L 65.9088 174.763289 
L 66.3552 163.754815 
L 66.8016 172.051911 
L 67.248 172.618362 
L 68.1408 172.955584 
L 69.9264 173.184893 
L 75.2832 173.506019 
L 96.7104 174.704732 
L 108.3168 175.588154 
L 114.5664 176.232823 
L 115.9056 176.565649 
L 116.352 177.078942 
L 116.7984 174.706491 
L 117.2448 175.98207 
L 118.1376 176.313816 
L 120.816 176.700704 
L 130.6368 178.007922 
L 134.6544 178.769751 
L 136.8864 179.36864 
L 138.2256 179.931166 
L 138.672 180.269396 
L 139.1184 181.050641 
L 139.5648 145.947904 
L 140.0112 178.858296 
L 140.4576 179.581394 
L 141.3504 180.16032 
L 142.6896 180.667947 
L 144.0288 180.938045 
L 145.8144 181.112959 
L 146.2608 181.61835 
L 146.7072 182.870388 
L 147.1536 182.626073 
M 148.0464 182.626073 
L 148.4928 182.870388 
L 148.9392 181.61835 
L 149.3856 181.112959 
L 149.832 180.978376 
L 151.6176 180.879044 
L 152.9568 180.523643 
L 154.296 179.920876 
L 154.7424 179.581394 
L 155.1888 178.858296 
L 155.6352 145.947904 
L 156.0816 181.050641 
L 156.528 180.269396 
L 157.4208 179.70404 
L 158.76 179.22998 
L 161.4384 178.575852 
L 165.456 177.867569 
L 171.7056 177.026545 
L 177.0624 176.313816 
L 177.9552 175.98207 
L 178.4016 174.706491 
L 178.848 177.078942 
L 179.2944 176.565649 
L 180.1872 176.306495 
L 182.8656 175.966022 
L 190.9008 175.255315 
L 202.9536 174.419271 
L 219.024 173.551246 
L 226.1664 173.095942 
L 227.5056 172.835137 
L 227.952 172.618362 
L 228.3984 172.051911 
L 228.8448 163.754815 
L 229.2912 174.763289 
L 229.7376 173.903035 
L 230.184 173.633374 
L 231.0768 173.407212 
L 233.3088 173.187687 
L 239.5584 172.90011 
L 256.5216 172.387909 
L 259.2 172.32 
L 259.2 172.32 
" clip-path="url(#p7a7009ecb8)" style="fill: none; stroke: #9467bd; stroke-width: 1.5; stroke-linecap: square"/>
   </g>
   <g id="patch_8">
    <path d="M 36 256.32 
L 36 155.52 
" style="fill: none; stroke: #000000; stroke-width: 0.8; stroke-linejoin: miter; stroke-linecap: square"/>
   </g>
   <g id="patch_9">
    <path d="M 259.2 256.32 
L 259.2 155.52 
" style="fill: none; stroke: #000000; stroke-width: 0.8; stroke-linejoin: miter; stroke-linecap: square"/>
   </g>
   <g id="patch_10">
    <path d="M 36 256.32 
L 259.2 256.32 
" style="fill: none; stroke: #000000; stroke-width: 0.8; stroke-linejoin: miter; stroke-linecap: square"/>
   </g>
   <g id="patch_11">
    <path d="M 36 155.52 
L 259.2 155.52 
" style="fill: none; stroke: #000000; stroke-width: 0.8; stroke-linejoin: miter; stroke-linecap: square"/>
   </g>
  </g>
 </g>
 <defs>
  <clipPath id="p576972839f">
   <rect x="36" y="34.56" width="223.2" height="100.8"/>
  </clipPath>
  <clipPath id="p7a7009ecb8">
   <rect x="36" y="155.52" width="223.2" height="100.8"/>
  </clipPath>
 </defs>
</svg>
