<?xml version="1.0" encoding="utf-8" standalone="no"?>
<!DOCTYPE svg PUBLIC "-//W3C//DTD SVG 1.1//EN"
  "http://www.w3.org/Graphics/SVG/1.1/DTD/svg11.dtd">
<svg xmlns:xlink="http://www.w3.org/1999/xlink" width="288pt" height="288pt" viewBox="0 0 288 288" xmlns="http://www.w3.org/2000/svg" version="1.1">
 <metadata>
  <rdf:RDF xmlns:dc="http://purl.org/dc/elements/1.1/" xmlns:cc="http://creativecommons.org/ns#" xmlns:rdf="http://www.w3.org/1999/02/22-rdf-syntax-ns#">
   <cc:Work>
    <dc:type rdf:resource="http://purl.org/dc/dcmitype/StillImage"/>
    <dc:date>2026-05-25T23:04:10.290910</dc:date>
    <dc:format>image/svg+xml</dc:format>
    <dc:creator>
     <cc:Agent>
      <dc:title>Matplotlib v3.10.9, https://matplotlib.org/</dc:title>
     </cc:Agent>
    </dc:creator>
   </cc:Work>
  </rdf:RDF>
 </metadata>
 <defs>
  <style type="text/css">*{stroke-linejoin: round; stroke-linecap: butt}</style>
 </defs>
 <g id="figure_1">
  <g id="patch_1">
   <path d="M 0 288 
L 288 288 
L 288 0 
L 0 0 
z
" style="fill: #ffffff"/>
  </g>
  <g id="axes_1">
   <g id="patch_2">
    <path d="M 51.46 121.52 
L 277.2 121.52 
L 277.2 26.88 
L 51.46 26.88 
z
" style="fill: #ffffff"/>
   </g>
   <g id="matplotlib.axis_1">
    <g id="xtick_1">
     <g id="line2d_1">
      <defs>
       <path id="mef6ae2dbec" d="M 0 0 
L 0 3.5 
" style="stroke: #000000; stroke-width: 0.8"/>
      </defs>
      <g>
       <use xlink:href="#mef6ae2dbec" x="74.034" y="121.52" style="stroke: #000000; stroke-width: 0.8"/>
      </g>
     </g>
     <g id="text_1">
      <!-- −0.4 -->
      <g transform="translate(61.892594 136.118437) scale(0.1 -0.1)">
       <defs>
        <path id="DejaVuSans-2212" d="M 678 2272 
L 4684 2272 
L 4684 1741 
L 678 1741 
L 678 2272 
z
" transform="scale(0.015625)"/>
        <path id="DejaVuSans-30" d="M 2034 4250 
Q 1547 4250 1301 3770 
Q 1056 3291 1056 2328 
Q 1056 1369 1301 889 
Q 1547 409 2034 409 
Q 2525 409 2770 889 
Q 3016 1369 3016 2328 
Q 3016 3291 2770 3770 
Q 2525 4250 2034 4250 
z
M 2034 4750 
Q 2819 4750 3233 4129 
Q 3647 3509 3647 2328 
Q 3647 1150 3233 529 
Q 2819 -91 2034 -91 
Q 1250 -91 836 529 
Q 422 1150 422 2328 
Q 422 3509 836 4129 
Q 1250 4750 2034 4750 
z
" transform="scale(0.015625)"/>
        <path id="DejaVuSans-2e" d="M 684 794 
L 1344 794 
L 1344 0 
L 684 0 
L 684 794 
z
" transform="scale(0.015625)"/>
        <path id="DejaVuSans-34" d="M 2419 4116 
L 825 1625 
L 2419 1625 
L 2419 4116 
z
M 2253 4666 
L 3047 4666 
L 3047 1625 
L 3713 1625 
L 3713 1100 
L 3047 1100 
L 3047 0 
L 2419 0 
L 2419 1100 
L 313 1100 
L 313 1709 
L 2253 4666 
z
" transform="scale(0.015625)"/>
       </defs>
       <use xlink:href="#DejaVuSans-2212"/>
       <use xlink:href="#DejaVuSans-30" transform="translate(83.789062 0)"/>
       <use xlink:href="#DejaVuSans-2e" transform="translate(147.412109 0)"/>
       <use xlink:href="#DejaVuSans-34" transform="translate(179.199219 0)"/>
      </g>
     </g>
    </g>
    <g id="xtick_2">
     <g id="line2d_2">
      <g>
       <use xlink:href="#mef6ae2dbec" x="119.182" y="121.52" style="stroke: #000000; stroke-width: 0.8"/>
      </g>
     </g>
     <g id="text_2">
      <!-- −0.2 -->
      <g transform="translate(107.040594 136.118437) scale(0.1 -0.1)">
       <defs>
        <path id="DejaVuSans-32" d="M 1228 531 
L 3431 531 
L 3431 0 
L 469 0 
L 469 531 
Q 828 903 1448 1529 
Q 2069 2156 2228 2338 
Q 2531 2678 2651 2914 
Q 2772 3150 2772 3378 
Q 2772 3750 2511 3984 
Q 2250 4219 1831 4219 
Q 1534 4219 1204 4116 
Q 875 4013 500 3803 
L 500 4441 
Q 881 4594 1212 4672 
Q 1544 4750 1819 4750 
Q 2544 4750 2975 4387 
Q 3406 4025 3406 3419 
Q 3406 3131 3298 2873 
Q 3191 2616 2906 2266 
Q 2828 2175 2409 1742 
Q 1991 1309 1228 531 
z
" transform="scale(0.015625)"/>
       </defs>
       <use xlink:href="#DejaVuSans-2212"/>
       <use xlink:href="#DejaVuSans-30" transform="translate(83.789062 0)"/>
       <use xlink:href="#DejaVuSans-2e" transform="translate(147.412109 0)"/>
       <use xlink:href="#DejaVuSans-32" transform="translate(179.199219 0)"/>
      </g>
     </g>
    </g>
    <g id="xtick_3">
     <g id="line2d_3">
      <g>
       <use xlink:href="#mef6ae2dbec" x="164.33" y="121.52" style="stroke: #000000; stroke-width: 0.8"/>
      </g>
     </g>
     <g id="text_3">
      <!-- 0.0 -->
      <g transform="translate(156.378437 136.118437) scale(0.1 -0.1)">
       <use xlink:href="#DejaVuSans-30"/>
       <use xlink:href="#DejaVuSans-2e" transform="translate(63.623047 0)"/>
       <use xlink:href="#DejaVuSans-30" transform="translate(95.410156 0)"/>
      </g>
     </g>
    </g>
    <g id="xtick_4">
     <g id="line2d_4">
      <g>
       <use xlink:href="#mef6ae2dbec" x="209.478" y="121.52" style="stroke: #000000; stroke-width: 0.8"/>
      </g>
     </g>
     <g id="text_4">
      <!-- 0.2 -->
      <g transform="translate(201.526437 136.118437) scale(0.1 -0.1)">
       <use xlink:href="#DejaVuSans-30"/>
       <use xlink:href="#DejaVuSans-2e" transform="translate(63.623047 0)"/>
       <use xlink:href="#DejaVuSans-32" transform="translate(95.410156 0)"/>
      </g>
     </g>
    </g>
    <g id="xtick_5">
     <g id="line2d_5">
      <g>
       <use xlink:href="#mef6ae2dbec" x="254.626" y="121.52" style="stroke: #000000; stroke-width: 0.8"/>
      </g>
     </g>
     <g id="text_5">
      <!-- 0.4 -->
      <g transform="translate(246.674437 136.118437) scale(0.1 -0.1)">
       <use xlink:href="#DejaVuSans-30"/>
       <use xlink:href="#DejaVuSans-2e" transform="translate(63.623047 0)"/>
       <use xlink:href="#DejaVuSans-34" transform="translate(95.410156 0)"/>
      </g>
     </g>
    </g>
   </g>
   <g id="matplotlib.axis_2">
    <g id="ytick_1">
     <g id="line2d_6">
      <defs>
       <path id="ma70f27fc1c" d="M 0 0 
L -3.5 0 
" style="stroke: #000000; stroke-width: 0.8"/>
      </defs>
      <g>
       <use xlink:href="#ma70f27fc1c" x="51.46" y="113.413529" style="stroke: #000000; stroke-width: 0.8"/>
      </g>
     </g>
     <g id="text_6">
      <!-- 0 -->
      <g transform="translate(38.0975 117.212748) scale(0.1 -0.1)">
       <use xlink:href="#DejaVuSans-30"/>
      </g>
     </g>
    </g>
    <g id="ytick_2">
     <g id="line2d_7">
      <g>
       <use xlink:href="#ma70f27fc1c" x="51.46" y="74.253067" style="stroke: #000000; stroke-width: 0.8"/>
      </g>
     </g>
     <g id="text_7">
      <!-- 100 -->
      <g transform="translate(25.3725 78.052286) scale(0.1 -0.1)">
       <defs>
        <path id="DejaVuSans-31" d="M 794 531 
L 1825 531 
L 1825 4091 
L 703 3866 
L 703 4441 
L 1819 4666 
L 2450 4666 
L 2450 531 
L 3481 531 
L 3481 0 
L 794 0 
L 794 531 
z
" transform="scale(0.015625)"/>
       </defs>
       <use xlink:href="#DejaVuSans-31"/>
       <use xlink:href="#DejaVuSans-30" transform="translate(63.623047 0)"/>
       <use xlink:href="#DejaVuSans-30" transform="translate(127.246094 0)"/>
      </g>
     </g>
    </g>
    <g id="ytick_3">
     <g id="line2d_8">
      <g>
       <use xlink:href="#ma70f27fc1c" x="51.46" y="35.092606" style="stroke: #000000; stroke-width: 0.8"/>
      </g>
     </g>
     <g id="text_8">
      <!-- 200 -->
      <g transform="translate(25.3725 38.891825) scale(0.1 -0.1)">
       <use xlink:href="#DejaVuSans-32"/>
       <use xlink:href="#DejaVuSans-30" transform="translate(63.623047 0)"/>
       <use xlink:href="#DejaVuSans-30" transform="translate(127.246094 0)"/>
      </g>
     </g>
    </g>
   </g>
   <g id="line2d_9">
    <path d="M 51.46 113.413532 
L 135.603567 113.309394 
L 140.5798 113.086553 
L 143.746493 112.732955 
L 146.008417 112.262125 
L 147.817956 111.657785 
L 149.17511 111.002508 
L 150.532265 110.100643 
L 151.889419 108.858665 
L 152.794188 107.779746 
L 153.698958 106.443397 
L 154.603727 104.787756 
L 155.508497 102.735982 
L 156.413267 100.192598 
L 157.318036 97.038934 
L 158.222806 93.127428 
L 159.127575 88.274517 
L 160.032345 82.251732 
L 160.937114 74.774521 
L 161.841884 65.488199 
L 162.746653 53.950301 
L 163.651423 39.609681 
L 164.103808 31.181818 
L 164.556192 31.181818 
L 165.460962 47.169583 
L 166.365731 60.032342 
L 167.270501 70.382862 
L 168.175271 78.715266 
L 169.08004 85.42568 
L 169.98481 90.831756 
L 170.889579 95.188445 
L 171.794349 98.700521 
L 172.699118 101.532554 
L 173.603888 103.816867 
L 174.508657 105.659901 
L 175.413427 107.147303 
L 176.770581 108.858665 
L 178.127735 110.100643 
L 179.48489 111.002508 
L 180.842044 111.657785 
L 182.651583 112.262125 
L 184.913507 112.732955 
L 187.627816 113.050536 
L 191.699279 113.271396 
L 198.937435 113.386231 
L 222.461443 113.41342 
L 277.2 113.413532 
L 277.2 113.413532 
" clip-path="url(#p303552ea9f)" style="fill: none; stroke-dasharray: 5.55,2.4; stroke-dashoffset: 0; stroke: #1f77b4; stroke-width: 1.5"/>
   </g>
   <g id="line2d_10">
    <path d="M 51.46 113.413532 
L 135.603567 113.309394 
L 140.5798 113.086553 
L 143.746493 112.732955 
L 146.008417 112.262125 
L 147.817956 111.657785 
L 149.17511 111.002508 
L 150.532265 110.100643 
L 151.889419 108.858665 
L 152.794188 107.779746 
L 153.698958 106.443397 
L 154.603727 104.787756 
L 155.508497 102.735982 
L 156.413267 100.192598 
L 157.318036 97.038934 
L 158.222806 93.127428 
L 159.127575 88.274517 
L 160.032345 82.251732 
L 160.937114 74.774521 
L 161.841884 65.488199 
L 162.746653 53.950301 
L 163.651423 39.609685 
L 164.103808 31.182227 
L 164.556192 31.182227 
L 165.460962 47.169583 
L 166.365731 60.032342 
L 167.270501 70.382862 
L 168.175271 78.715266 
L 169.08004 85.42568 
L 169.98481 90.831756 
L 170.889579 95.188445 
L 171.794349 98.700521 
L 172.699118 101.532554 
L 173.603888 103.816867 
L 174.508657 105.659901 
L 175.413427 107.147303 
L 176.770581 108.858665 
L 178.127735 110.100643 
L 179.48489 111.002508 
L 180.842044 111.657785 
L 182.651583 112.262125 
L 184.913507 112.732955 
L 187.627816 113.050536 
L 191.699279 113.271396 
L 198.937435 113.386231 
L 222.461443 113.41342 
L 277.2 113.413532 
L 277.2 113.413532 
" clip-path="url(#p303552ea9f)" style="fill: none; stroke: #1f77b4; stroke-width: 1.5; stroke-linecap: square"/>
   </g>
   <g id="line2d_11">
    <path d="M 51.46 113.416073 
L 96.698477 113.533236 
L 109.817635 113.77072 
L 118.412946 114.127918 
L 125.198717 114.616948 
L 131.532104 115.303475 
L 138.770261 116.346039 
L 144.198878 117.071578 
L 146.913186 117.218182 
L 148.722725 117.133321 
L 150.532265 116.815572 
L 151.889419 116.362025 
L 153.246573 115.660195 
L 154.603727 114.636339 
L 155.508497 113.729921 
L 156.413267 112.606358 
L 157.318036 111.226907 
L 158.222806 109.546388 
L 159.127575 107.512107 
L 160.032345 105.062621 
L 160.937114 102.126336 
L 161.841884 98.620016 
L 162.746653 94.447195 
L 163.651423 89.495057 
L 164.103808 86.684147 
L 164.556192 86.684147 
L 165.913347 94.447195 
L 167.270501 100.450129 
L 168.627655 105.062621 
L 169.98481 108.577087 
L 171.341964 111.226907 
L 172.699118 113.197565 
L 174.056273 114.636339 
L 175.413427 115.660195 
L 176.770581 116.362025 
L 178.127735 116.815572 
L 179.937275 117.133321 
L 181.746814 117.218182 
L 184.008737 117.11218 
L 187.627816 116.682031 
L 201.199359 114.834428 
L 207.532745 114.296725 
L 214.770902 113.911227 
L 224.270982 113.641516 
L 238.747295 113.481059 
L 269.509459 113.418492 
L 277.2 113.416073 
L 277.2 113.416073 
" clip-path="url(#p303552ea9f)" style="fill: none; stroke-dasharray: 5.55,2.4; stroke-dashoffset: 0; stroke: #ff7f0e; stroke-width: 1.5"/>
   </g>
   <g id="line2d_12">
    <path d="M 51.46 113.416073 
L 96.698477 113.533236 
L 109.817635 113.77072 
L 118.412946 114.127918 
L 125.198717 114.616948 
L 131.532104 115.303475 
L 138.770261 116.346039 
L 144.198878 117.071578 
L 146.913186 117.218182 
L 148.722725 117.133321 
L 150.532265 116.815572 
L 151.889419 116.362025 
L 153.246573 115.660195 
L 154.603727 114.636339 
L 155.508497 113.729921 
L 156.413267 112.606358 
L 157.318036 111.226907 
L 158.222806 109.546388 
L 159.127575 107.512107 
L 160.032345 105.062621 
L 160.937114 102.126336 
L 161.841884 98.620016 
L 162.746653 94.447195 
L 163.651423 89.495051 
L 164.103808 86.683511 
L 164.556192 86.683511 
L 165.913347 94.447195 
L 167.270501 100.450129 
L 168.627655 105.062621 
L 169.98481 108.577087 
L 171.341964 111.226907 
L 172.699118 113.197565 
L 174.056273 114.636339 
L 175.413427 115.660195 
L 176.770581 116.362025 
L 178.127735 116.815572 
L 179.937275 117.133321 
L 181.746814 117.218182 
L 184.008737 117.11218 
L 187.627816 116.682031 
L 201.199359 114.834428 
L 207.532745 114.296725 
L 214.770902 113.911227 
L 224.270982 113.641516 
L 238.747295 113.481059 
L 269.509459 113.418492 
L 277.2 113.416073 
L 277.2 113.416073 
" clip-path="url(#p303552ea9f)" style="fill: none; stroke: #ff7f0e; stroke-width: 1.5; stroke-linecap: square"/>
   </g>
   <g id="line2d_13">
    <path d="M 51.46 113.210004 
L 81.76978 112.881474 
L 110.27002 112.579212 
L 119.317715 112.717528 
L 126.555872 113.049217 
L 132.889259 113.559144 
L 140.5798 114.423091 
L 146.460802 115.008733 
L 149.17511 115.079355 
L 151.437034 114.922485 
L 153.246573 114.576498 
L 154.603727 114.137813 
L 155.960882 113.498728 
L 157.318036 112.606463 
L 158.67519 111.395939 
L 160.032345 109.786877 
L 161.389499 107.680353 
L 162.746653 104.95514 
L 164.103808 101.46074 
L 164.556192 101.46074 
L 165.913347 104.95514 
L 167.270501 107.680353 
L 168.627655 109.786877 
L 169.98481 111.395939 
L 171.341964 112.606463 
L 172.699118 113.498728 
L 174.056273 114.137813 
L 175.865812 114.685842 
L 177.675351 114.974887 
L 179.937275 115.08354 
L 182.651583 114.978728 
L 187.175431 114.529587 
L 198.48505 113.313856 
L 204.818437 112.896061 
L 212.056593 112.649746 
L 221.104289 112.57739 
L 235.580601 112.716565 
L 277.2 113.210004 
L 277.2 113.210004 
" clip-path="url(#p303552ea9f)" style="fill: none; stroke-dasharray: 5.55,2.4; stroke-dashoffset: 0; stroke: #2ca02c; stroke-width: 1.5"/>
   </g>
   <g id="line2d_14">
    <path d="M 51.46 113.210004 
L 81.76978 112.881474 
L 110.27002 112.579212 
L 119.317715 112.717528 
L 126.555872 113.049217 
L 132.889259 113.559144 
L 140.5798 114.423091 
L 146.460802 115.008733 
L 149.17511 115.079355 
L 151.437034 114.922485 
L 153.246573 114.576498 
L 154.603727 114.137813 
L 155.960882 113.498728 
L 157.318036 112.606463 
L 158.67519 111.395939 
L 160.032345 109.786877 
L 161.389499 107.680353 
L 162.746653 104.95514 
L 164.103808 101.460379 
L 164.556192 101.460379 
L 165.913347 104.95514 
L 167.270501 107.680353 
L 168.627655 109.786877 
L 169.98481 111.395939 
L 171.341964 112.606463 
L 172.699118 113.498728 
L 174.056273 114.137813 
L 175.865812 114.685842 
L 177.675351 114.974887 
L 179.937275 115.08354 
L 182.651583 114.978728 
L 187.175431 114.529587 
L 198.48505 113.313856 
L 204.818437 112.896061 
L 212.056593 112.649746 
L 221.104289 112.57739 
L 235.580601 112.716565 
L 277.2 113.210004 
L 277.2 113.210004 
" clip-path="url(#p303552ea9f)" style="fill: none; stroke: #2ca02c; stroke-width: 1.5; stroke-linecap: square"/>
   </g>
   <g id="line2d_15">
    <path d="M 51.46 113.61293 
L 80.86501 113.392838 
L 118.865331 113.060993 
L 128.365411 113.243408 
L 137.413106 113.65047 
L 148.270341 114.169957 
L 151.437034 114.110687 
L 154.151343 113.835206 
L 156.413267 113.347721 
L 158.222806 112.710429 
L 159.57996 112.038627 
L 160.937114 111.155061 
L 162.294269 110.008857 
L 163.651423 108.538237 
L 164.103808 107.962223 
L 164.556192 107.962223 
L 165.913347 109.558161 
L 167.270501 110.804973 
L 168.627655 111.769946 
L 169.98481 112.507276 
L 171.794349 113.212186 
L 173.603888 113.674495 
L 175.865812 114.00668 
L 178.58012 114.162201 
L 182.199198 114.128534 
L 188.98497 113.78053 
L 199.842204 113.258213 
L 208.8899 113.068955 
L 220.651904 113.070417 
L 246.89022 113.382409 
L 275.842846 113.607684 
L 277.2 113.61293 
L 277.2 113.61293 
" clip-path="url(#p303552ea9f)" style="fill: none; stroke-dasharray: 5.55,2.4; stroke-dashoffset: 0; stroke: #d62728; stroke-width: 1.5"/>
   </g>
   <g id="line2d_16">
    <path d="M 51.46 113.61293 
L 80.86501 113.392838 
L 118.865331 113.060993 
L 128.365411 113.243408 
L 137.413106 113.65047 
L 148.270341 114.169957 
L 151.437034 114.110687 
L 154.151343 113.835206 
L 156.413267 113.347721 
L 158.222806 112.710429 
L 159.57996 112.038627 
L 160.937114 111.155061 
L 162.294269 110.008857 
L 163.651423 108.538235 
L 164.103808 107.961961 
L 164.556192 107.961961 
L 165.913347 109.558161 
L 167.270501 110.804973 
L 168.627655 111.769946 
L 169.98481 112.507276 
L 171.794349 113.212186 
L 173.603888 113.674495 
L 175.865812 114.00668 
L 178.58012 114.162201 
L 182.199198 114.128534 
L 188.98497 113.78053 
L 199.842204 113.258213 
L 208.8899 113.068955 
L 220.651904 113.070417 
L 246.89022 113.382409 
L 275.842846 113.607684 
L 277.2 113.61293 
L 277.2 113.61293 
" clip-path="url(#p303552ea9f)" style="fill: none; stroke: #d62728; stroke-width: 1.5; stroke-linecap: square"/>
   </g>
   <g id="line2d_17">
    <path d="M 51.46 113.489369 
L 97.603246 113.340219 
L 124.746333 113.316387 
L 139.67503 113.539426 
L 150.984649 113.667 
L 155.056112 113.506411 
L 158.222806 113.167416 
L 160.484729 112.733041 
L 162.746653 112.058215 
L 164.103808 111.496916 
L 164.556192 111.496916 
L 166.365731 112.216726 
L 168.627655 112.836477 
L 171.341964 113.29094 
L 174.508657 113.562841 
L 178.58012 113.677019 
L 185.365892 113.61304 
L 207.532745 113.29564 
L 227.89006 113.325222 
L 277.2 113.489369 
L 277.2 113.489369 
" clip-path="url(#p303552ea9f)" style="fill: none; stroke-dasharray: 5.55,2.4; stroke-dashoffset: 0; stroke: #9467bd; stroke-width: 1.5"/>
   </g>
   <g id="line2d_18">
    <path d="M 51.46 113.489369 
L 97.603246 113.340219 
L 124.746333 113.316387 
L 139.67503 113.539426 
L 150.984649 113.667 
L 155.056112 113.506411 
L 158.222806 113.167416 
L 160.484729 112.733041 
L 162.746653 112.058215 
L 164.103808 111.496742 
L 164.556192 111.496742 
L 166.365731 112.216726 
L 168.627655 112.836477 
L 171.341964 113.29094 
L 174.508657 113.562841 
L 178.58012 113.677019 
L 185.365892 113.61304 
L 207.532745 113.29564 
L 227.89006 113.325222 
L 277.2 113.489369 
L 277.2 113.489369 
" clip-path="url(#p303552ea9f)" style="fill: none; stroke: #9467bd; stroke-width: 1.5; stroke-linecap: square"/>
   </g>
   <g id="patch_3">
    <path d="M 51.46 121.52 
L 51.46 26.88 
" style="fill: none; stroke: #000000; stroke-width: 0.8; stroke-linejoin: miter; stroke-linecap: square"/>
   </g>
   <g id="patch_4">
    <path d="M 277.2 121.52 
L 277.2 26.88 
" style="fill: none; stroke: #000000; stroke-width: 0.8; stroke-linejoin: miter; stroke-linecap: square"/>
   </g>
   <g id="patch_5">
    <path d="M 51.46 121.52 
L 277.2 121.52 
" style="fill: none; stroke: #000000; stroke-width: 0.8; stroke-linejoin: miter; stroke-linecap: square"/>
   </g>
   <g id="patch_6">
    <path d="M 51.46 26.88 
L 277.2 26.88 
" style="fill: none; stroke: #000000; stroke-width: 0.8; stroke-linejoin: miter; stroke-linecap: square"/>
   </g>
   <g id="text_9">
    <!-- Atom 1 (Z=54): Wavefunction -->
    <g transform="translate(74.469687 20.88) scale(0.12 -0.12)">
     <defs>
      <path id="DejaVuSans-41" d="M 2188 4044 
L 1331 1722 
L 3047 1722 
L 2188 4044 
z
M 1831 4666 
L 2547 4666 
L 4325 0 
L 3669 0 
L 3244 1197 
L 1141 1197 
L 716 0 
L 50 0 
L 1831 4666 
z
" transform="scale(0.015625)"/>
      <path id="DejaVuSans-74" d="M 1172 4494 
L 1172 3500 
L 2356 3500 
L 2356 3053 
L 1172 3053 
L 1172 1153 
Q 1172 725 1289 603 
Q 1406 481 1766 481 
L 2356 481 
L 2356 0 
L 1766 0 
Q 1100 0 847 248 
Q 594 497 594 1153 
L 594 3053 
L 172 3053 
L 172 3500 
L 594 3500 
L 594 4494 
L 1172 4494 
z
" transform="scale(0.015625)"/>
      <path id="DejaVuSans-6f" d="M 1959 3097 
Q 1497 3097 1228 2736 
Q 959 2375 959 1747 
Q 959 1119 1226 758 
Q 1494 397 1959 397 
Q 2419 397 2687 759 
Q 2956 1122 2956 1747 
Q 2956 2369 2687 2733 
Q 2419 3097 1959 3097 
z
M 1959 3584 
Q 2709 3584 3137 3096 
Q 3566 2609 3566 1747 
Q 3566 888 3137 398 
Q 2709 -91 1959 -91 
Q 1206 -91 779 398 
Q 353 888 353 1747 
Q 353 2609 779 3096 
Q 1206 3584 1959 3584 
z
" transform="scale(0.015625)"/>
      <path id="DejaVuSans-6d" d="M 3328 2828 
Q 3544 3216 3844 3400 
Q 4144 3584 4550 3584 
Q 5097 3584 5394 3201 
Q 5691 2819 5691 2113 
L 5691 0 
L 5113 0 
L 5113 2094 
Q 5113 2597 4934 2840 
Q 4756 3084 4391 3084 
Q 3944 3084 3684 2787 
Q 3425 2491 3425 1978 
L 3425 0 
L 2847 0 
L 2847 2094 
Q 2847 2600 2669 2842 
Q 2491 3084 2119 3084 
Q 1678 3084 1418 2786 
Q 1159 2488 1159 1978 
L 1159 0 
L 581 0 
L 581 3500 
L 1159 3500 
L 1159 2956 
Q 1356 3278 1631 3431 
Q 1906 3584 2284 3584 
Q 2666 3584 2933 3390 
Q 3200 3197 3328 2828 
z
" transform="scale(0.015625)"/>
      <path id="DejaVuSans-20" transform="scale(0.015625)"/>
      <path id="DejaVuSans-28" d="M 1984 4856 
Q 1566 4138 1362 3434 
Q 1159 2731 1159 2009 
Q 1159 1288 1364 580 
Q 1569 -128 1984 -844 
L 1484 -844 
Q 1016 -109 783 600 
Q 550 1309 550 2009 
Q 550 2706 781 3412 
Q 1013 4119 1484 4856 
L 1984 4856 
z
" transform="scale(0.015625)"/>
      <path id="DejaVuSans-5a" d="M 359 4666 
L 4025 4666 
L 4025 4184 
L 1075 531 
L 4097 531 
L 4097 0 
L 288 0 
L 288 481 
L 3238 4134 
L 359 4134 
L 359 4666 
z
" transform="scale(0.015625)"/>
      <path id="DejaVuSans-3d" d="M 678 2906 
L 4684 2906 
L 4684 2381 
L 678 2381 
L 678 2906 
z
M 678 1631 
L 4684 1631 
L 4684 1100 
L 678 1100 
L 678 1631 
z
" transform="scale(0.015625)"/>
      <path id="DejaVuSans-35" d="M 691 4666 
L 3169 4666 
L 3169 4134 
L 1269 4134 
L 1269 2991 
Q 1406 3038 1543 3061 
Q 1681 3084 1819 3084 
Q 2600 3084 3056 2656 
Q 3513 2228 3513 1497 
Q 3513 744 3044 326 
Q 2575 -91 1722 -91 
Q 1428 -91 1123 -41 
Q 819 9 494 109 
L 494 744 
Q 775 591 1075 516 
Q 1375 441 1709 441 
Q 2250 441 2565 725 
Q 2881 1009 2881 1497 
Q 2881 1984 2565 2268 
Q 2250 2553 1709 2553 
Q 1456 2553 1204 2497 
Q 953 2441 691 2322 
L 691 4666 
z
" transform="scale(0.015625)"/>
      <path id="DejaVuSans-29" d="M 513 4856 
L 1013 4856 
Q 1481 4119 1714 3412 
Q 1947 2706 1947 2009 
Q 1947 1309 1714 600 
Q 1481 -109 1013 -844 
L 513 -844 
Q 928 -128 1133 580 
Q 1338 1288 1338 2009 
Q 1338 2731 1133 3434 
Q 928 4138 513 4856 
z
" transform="scale(0.015625)"/>
      <path id="DejaVuSans-3a" d="M 750 794 
L 1409 794 
L 1409 0 
L 750 0 
L 750 794 
z
M 750 3309 
L 1409 3309 
L 1409 2516 
L 750 2516 
L 750 3309 
z
" transform="scale(0.015625)"/>
      <path id="DejaVuSans-57" d="M 213 4666 
L 850 4666 
L 1831 722 
L 2809 4666 
L 3519 4666 
L 4500 722 
L 5478 4666 
L 6119 4666 
L 4947 0 
L 4153 0 
L 3169 4050 
L 2175 0 
L 1381 0 
L 213 4666 
z
" transform="scale(0.015625)"/>
      <path id="DejaVuSans-61" d="M 2194 1759 
Q 1497 1759 1228 1600 
Q 959 1441 959 1056 
Q 959 750 1161 570 
Q 1363 391 1709 391 
Q 2188 391 2477 730 
Q 2766 1069 2766 1631 
L 2766 1759 
L 2194 1759 
z
M 3341 1997 
L 3341 0 
L 2766 0 
L 2766 531 
Q 2569 213 2275 61 
Q 1981 -91 1556 -91 
Q 1019 -91 701 211 
Q 384 513 384 1019 
Q 384 1609 779 1909 
Q 1175 2209 1959 2209 
L 2766 2209 
L 2766 2266 
Q 2766 2663 2505 2880 
Q 2244 3097 1772 3097 
Q 1472 3097 1187 3025 
Q 903 2953 641 2809 
L 641 3341 
Q 956 3463 1253 3523 
Q 1550 3584 1831 3584 
Q 2591 3584 2966 3190 
Q 3341 2797 3341 1997 
z
" transform="scale(0.015625)"/>
      <path id="DejaVuSans-76" d="M 191 3500 
L 800 3500 
L 1894 563 
L 2988 3500 
L 3597 3500 
L 2284 0 
L 1503 0 
L 191 3500 
z
" transform="scale(0.015625)"/>
      <path id="DejaVuSans-65" d="M 3597 1894 
L 3597 1613 
L 953 1613 
Q 991 1019 1311 708 
Q 1631 397 2203 397 
Q 2534 397 2845 478 
Q 3156 559 3463 722 
L 3463 178 
Q 3153 47 2828 -22 
Q 2503 -91 2169 -91 
Q 1331 -91 842 396 
Q 353 884 353 1716 
Q 353 2575 817 3079 
Q 1281 3584 2069 3584 
Q 2775 3584 3186 3129 
Q 3597 2675 3597 1894 
z
M 3022 2063 
Q 3016 2534 2758 2815 
Q 2500 3097 2075 3097 
Q 1594 3097 1305 2825 
Q 1016 2553 972 2059 
L 3022 2063 
z
" transform="scale(0.015625)"/>
      <path id="DejaVuSans-66" d="M 2375 4863 
L 2375 4384 
L 1825 4384 
Q 1516 4384 1395 4259 
Q 1275 4134 1275 3809 
L 1275 3500 
L 2222 3500 
L 2222 3053 
L 1275 3053 
L 1275 0 
L 697 0 
L 697 3053 
L 147 3053 
L 147 3500 
L 697 3500 
L 697 3744 
Q 697 4328 969 4595 
Q 1241 4863 1831 4863 
L 2375 4863 
z
" transform="scale(0.015625)"/>
      <path id="DejaVuSans-75" d="M 544 1381 
L 544 3500 
L 1119 3500 
L 1119 1403 
Q 1119 906 1312 657 
Q 1506 409 1894 409 
Q 2359 409 2629 706 
Q 2900 1003 2900 1516 
L 2900 3500 
L 3475 3500 
L 3475 0 
L 2900 0 
L 2900 538 
Q 2691 219 2414 64 
Q 2138 -91 1772 -91 
Q 1169 -91 856 284 
Q 544 659 544 1381 
z
M 1991 3584 
L 1991 3584 
z
" transform="scale(0.015625)"/>
      <path id="DejaVuSans-6e" d="M 3513 2113 
L 3513 0 
L 2938 0 
L 2938 2094 
Q 2938 2591 2744 2837 
Q 2550 3084 2163 3084 
Q 1697 3084 1428 2787 
Q 1159 2491 1159 1978 
L 1159 0 
L 581 0 
L 581 3500 
L 1159 3500 
L 1159 2956 
Q 1366 3272 1645 3428 
Q 1925 3584 2291 3584 
Q 2894 3584 3203 3211 
Q 3513 2838 3513 2113 
z
" transform="scale(0.015625)"/>
      <path id="DejaVuSans-63" d="M 3122 3366 
L 3122 2828 
Q 2878 2963 2633 3030 
Q 2388 3097 2138 3097 
Q 1578 3097 1268 2742 
Q 959 2388 959 1747 
Q 959 1106 1268 751 
Q 1578 397 2138 397 
Q 2388 397 2633 464 
Q 2878 531 3122 666 
L 3122 134 
Q 2881 22 2623 -34 
Q 2366 -91 2075 -91 
Q 1284 -91 818 406 
Q 353 903 353 1747 
Q 353 2603 823 3093 
Q 1294 3584 2113 3584 
Q 2378 3584 2631 3529 
Q 2884 3475 3122 3366 
z
" transform="scale(0.015625)"/>
      <path id="DejaVuSans-69" d="M 603 3500 
L 1178 3500 
L 1178 0 
L 603 0 
L 603 3500 
z
M 603 4863 
L 1178 4863 
L 1178 4134 
L 603 4134 
L 603 4863 
z
" transform="scale(0.015625)"/>
     </defs>
     <use xlink:href="#DejaVuSans-41"/>
     <use xlink:href="#DejaVuSans-74" transform="translate(66.658203 0)"/>
     <use xlink:href="#DejaVuSans-6f" transform="translate(105.867188 0)"/>
     <use xlink:href="#DejaVuSans-6d" transform="translate(167.048828 0)"/>
     <use xlink:href="#DejaVuSans-20" transform="translate(264.460938 0)"/>
     <use xlink:href="#DejaVuSans-31" transform="translate(296.248047 0)"/>
     <use xlink:href="#DejaVuSans-20" transform="translate(359.871094 0)"/>
     <use xlink:href="#DejaVuSans-28" transform="translate(391.658203 0)"/>
     <use xlink:href="#DejaVuSans-5a" transform="translate(430.671875 0)"/>
     <use xlink:href="#DejaVuSans-3d" transform="translate(499.177734 0)"/>
     <use xlink:href="#DejaVuSans-35" transform="translate(582.966797 0)"/>
     <use xlink:href="#DejaVuSans-34" transform="translate(646.589844 0)"/>
     <use xlink:href="#DejaVuSans-29" transform="translate(710.212891 0)"/>
     <use xlink:href="#DejaVuSans-3a" transform="translate(749.226562 0)"/>
     <use xlink:href="#DejaVuSans-20" transform="translate(782.917969 0)"/>
     <use xlink:href="#DejaVuSans-57" transform="translate(814.705078 0)"/>
     <use xlink:href="#DejaVuSans-61" transform="translate(907.207031 0)"/>
     <use xlink:href="#DejaVuSans-76" transform="translate(968.486328 0)"/>
     <use xlink:href="#DejaVuSans-65" transform="translate(1027.666016 0)"/>
     <use xlink:href="#DejaVuSans-66" transform="translate(1089.189453 0)"/>
     <use xlink:href="#DejaVuSans-75" transform="translate(1124.394531 0)"/>
     <use xlink:href="#DejaVuSans-6e" transform="translate(1187.773438 0)"/>
     <use xlink:href="#DejaVuSans-63" transform="translate(1251.152344 0)"/>
     <use xlink:href="#DejaVuSans-74" transform="translate(1306.132812 0)"/>
     <use xlink:href="#DejaVuSans-69" transform="translate(1345.341797 0)"/>
     <use xlink:href="#DejaVuSans-6f" transform="translate(1373.125 0)"/>
     <use xlink:href="#DejaVuSans-6e" transform="translate(1434.306641 0)"/>
    </g>
   </g>
  </g>
  <g id="axes_2">
   <g id="patch_7">
    <path d="M 51.46 260.12 
L 277.2 260.12 
L 277.2 165.48 
L 51.46 165.48 
z
" style="fill: #ffffff"/>
   </g>
   <g id="matplotlib.axis_3">
    <g id="xtick_6">
     <g id="line2d_19">
      <g>
       <use xlink:href="#mef6ae2dbec" x="74.034" y="260.12" style="stroke: #000000; stroke-width: 0.8"/>
      </g>
     </g>
     <g id="text_10">
      <!-- −0.4 -->
      <g transform="translate(61.892594 274.718437) scale(0.1 -0.1)">
       <use xlink:href="#DejaVuSans-2212"/>
       <use xlink:href="#DejaVuSans-30" transform="translate(83.789062 0)"/>
       <use xlink:href="#DejaVuSans-2e" transform="translate(147.412109 0)"/>
       <use xlink:href="#DejaVuSans-34" transform="translate(179.199219 0)"/>
      </g>
     </g>
    </g>
    <g id="xtick_7">
     <g id="line2d_20">
      <g>
       <use xlink:href="#mef6ae2dbec" x="119.182" y="260.12" style="stroke: #000000; stroke-width: 0.8"/>
      </g>
     </g>
     <g id="text_11">
      <!-- −0.2 -->
      <g transform="translate(107.040594 274.718437) scale(0.1 -0.1)">
       <use xlink:href="#DejaVuSans-2212"/>
       <use xlink:href="#DejaVuSans-30" transform="translate(83.789062 0)"/>
       <use xlink:href="#DejaVuSans-2e" transform="translate(147.412109 0)"/>
       <use xlink:href="#DejaVuSans-32" transform="translate(179.199219 0)"/>
      </g>
     </g>
    </g>
    <g id="xtick_8">
     <g id="line2d_21">
      <g>
       <use xlink:href="#mef6ae2dbec" x="164.33" y="260.12" style="stroke: #000000; stroke-width: 0.8"/>
      </g>
     </g>
     <g id="text_12">
      <!-- 0.0 -->
      <g transform="translate(156.378437 274.718437) scale(0.1 -0.1)">
       <use xlink:href="#DejaVuSans-30"/>
       <use xlink:href="#DejaVuSans-2e" transform="translate(63.623047 0)"/>
       <use xlink:href="#DejaVuSans-30" transform="translate(95.410156 0)"/>
      </g>
     </g>
    </g>
    <g id="xtick_9">
     <g id="line2d_22">
      <g>
       <use xlink:href="#mef6ae2dbec" x="209.478" y="260.12" style="stroke: #000000; stroke-width: 0.8"/>
      </g>
     </g>
     <g id="text_13">
      <!-- 0.2 -->
      <g transform="translate(201.526437 274.718437) scale(0.1 -0.1)">
       <use xlink:href="#DejaVuSans-30"/>
       <use xlink:href="#DejaVuSans-2e" transform="translate(63.623047 0)"/>
       <use xlink:href="#DejaVuSans-32" transform="translate(95.410156 0)"/>
      </g>
     </g>
    </g>
    <g id="xtick_10">
     <g id="line2d_23">
      <g>
       <use xlink:href="#mef6ae2dbec" x="254.626" y="260.12" style="stroke: #000000; stroke-width: 0.8"/>
      </g>
     </g>
     <g id="text_14">
      <!-- 0.4 -->
      <g transform="translate(246.674437 274.718437) scale(0.1 -0.1)">
       <use xlink:href="#DejaVuSans-30"/>
       <use xlink:href="#DejaVuSans-2e" transform="translate(63.623047 0)"/>
       <use xlink:href="#DejaVuSans-34" transform="translate(95.410156 0)"/>
      </g>
     </g>
    </g>
   </g>
   <g id="matplotlib.axis_4">
    <g id="ytick_4">
     <g id="line2d_24">
      <g>
       <use xlink:href="#ma70f27fc1c" x="51.46" y="222.821289" style="stroke: #000000; stroke-width: 0.8"/>
      </g>
     </g>
     <g id="text_15">
      <!-- −1000 -->
      <g transform="translate(10.630313 226.620507) scale(0.1 -0.1)">
       <use xlink:href="#DejaVuSans-2212"/>
       <use xlink:href="#DejaVuSans-31" transform="translate(83.789062 0)"/>
       <use xlink:href="#DejaVuSans-30" transform="translate(147.412109 0)"/>
       <use xlink:href="#DejaVuSans-30" transform="translate(211.035156 0)"/>
       <use xlink:href="#DejaVuSans-30" transform="translate(274.658203 0)"/>
      </g>
     </g>
    </g>
    <g id="ytick_5">
     <g id="line2d_25">
      <g>
       <use xlink:href="#ma70f27fc1c" x="51.46" y="179.533092" style="stroke: #000000; stroke-width: 0.8"/>
      </g>
     </g>
     <g id="text_16">
      <!-- 0 -->
      <g transform="translate(38.0975 183.332311) scale(0.1 -0.1)">
       <use xlink:href="#DejaVuSans-30"/>
      </g>
     </g>
    </g>
   </g>
   <g id="line2d_26">
    <path d="M 51.46 185.039655 
L 62.769619 188.303294 
L 65.483928 188.757689 
L 67.745852 188.941757 
L 70.007776 188.9303 
L 72.269699 188.717335 
L 74.531623 188.302612 
L 76.793547 187.683986 
L 79.055471 186.847827 
L 81.317395 185.756679 
L 83.126934 184.648707 
L 84.936473 183.254789 
L 86.293627 181.950542 
L 87.650782 180.336616 
L 89.007936 178.288378 
L 89.912705 176.58842 
L 90.817475 174.522816 
L 91.722244 171.965748 
L 92.627014 168.729532 
L 93.531784 164.521876 
L 94.436553 158.861955 
L 95.341323 150.900114 
L 96.246092 138.981566 
L 96.698477 130.53534 
L 97.150862 119.398335 
L 97.603246 104.085245 
L 98.055631 81.775594 
L 98.508016 46.378621 
L 98.840214 -1 
M 100.07172 -1 
L 100.130985 289 
M 103.158842 289 
L 103.936633 273.169253 
L 104.841403 261.767535 
L 105.746172 254.255341 
L 106.650942 249.034055 
L 107.555711 245.276389 
L 108.460481 242.51051 
L 109.365251 240.447026 
L 110.27002 238.898079 
L 111.17479 237.735999 
L 112.079559 236.870679 
L 112.984329 236.236474 
L 114.341483 235.614312 
L 115.698637 235.283781 
L 117.055792 235.161121 
L 118.865331 235.21972 
L 121.127255 235.516909 
L 124.746333 236.241638 
L 137.413106 238.937847 
L 146.913186 240.634914 
L 159.127575 242.831229 
L 163.199038 243.682039 
L 163.651423 243.668796 
L 164.103808 244.433112 
L 164.556192 244.433112 
L 165.008577 243.668796 
L 165.913347 243.638059 
L 169.08004 242.927486 
L 174.508657 241.884249 
L 196.675511 237.846912 
L 208.8899 235.315739 
L 211.151824 235.155544 
L 212.961363 235.283781 
L 214.318517 235.614312 
L 215.675671 236.236474 
L 216.580441 236.870679 
L 217.48521 237.735999 
L 218.38998 238.898079 
L 219.294749 240.447026 
L 220.199519 242.51051 
L 221.104289 245.276389 
L 222.009058 249.034055 
L 222.913828 254.255341 
L 223.818597 261.767535 
L 224.270982 266.83007 
L 224.723367 273.169253 
L 225.501158 289 
M 228.529015 289 
L 228.58828 -1 
M 229.819786 -1 
L 230.151984 46.378621 
L 230.604369 81.775594 
L 231.056754 104.085245 
L 231.509138 119.398335 
L 232.413908 138.981566 
L 233.318677 150.900114 
L 234.223447 158.861955 
L 235.128216 164.521876 
L 236.032986 168.729532 
L 236.937756 171.965748 
L 237.842525 174.522816 
L 238.747295 176.58842 
L 240.104449 179.029613 
L 241.461603 180.915557 
L 242.818758 182.414986 
L 244.175912 183.63568 
L 245.985451 184.948995 
L 247.79499 185.998325 
L 250.056914 187.033794 
L 252.318838 187.824424 
L 254.580762 188.401702 
L 256.842685 188.776088 
L 259.104609 188.948645 
L 261.366533 188.920224 
L 263.628457 188.698671 
L 266.342766 188.205947 
L 269.509459 187.391757 
L 275.842846 185.445967 
L 277.2 185.039655 
L 277.2 185.039655 
" clip-path="url(#p571d266049)" style="fill: none; stroke-dasharray: 5.55,2.4; stroke-dashoffset: 0; stroke: #1f77b4; stroke-width: 1.5"/>
   </g>
   <g id="line2d_27">
    <path d="M 51.46 185.039655 
L 62.769619 188.303294 
L 65.483928 188.757689 
L 67.745852 188.941757 
L 70.007776 188.9303 
L 72.269699 188.717335 
L 74.531623 188.302612 
L 76.793547 187.683986 
L 79.055471 186.847827 
L 81.317395 185.756679 
L 83.126934 184.648707 
L 84.936473 183.254789 
L 86.293627 181.950542 
L 87.650782 180.336616 
L 89.007936 178.288378 
L 89.912705 176.58842 
L 90.817475 174.522816 
L 91.722244 171.965748 
L 92.627014 168.729532 
L 93.531784 164.521876 
L 94.436553 158.861955 
L 95.341323 150.900114 
L 96.246092 138.981566 
L 96.698477 130.53534 
L 97.150862 119.398335 
L 97.603246 104.085245 
L 98.055631 81.775594 
L 98.508016 46.378621 
L 98.840214 -1 
M 100.07172 -1 
L 100.130985 289 
M 103.158842 289 
L 103.936633 273.169253 
L 104.841403 261.767535 
L 105.746172 254.255341 
L 106.650942 249.034055 
L 107.555711 245.276389 
L 108.460481 242.51051 
L 109.365251 240.447026 
L 110.27002 238.898079 
L 111.17479 237.735999 
L 112.079559 236.870679 
L 112.984329 236.236474 
L 114.341483 235.614312 
L 115.698637 235.283781 
L 117.055792 235.161121 
L 118.865331 235.21972 
L 121.127255 235.516909 
L 124.746333 236.241638 
L 137.413106 238.937847 
L 146.913186 240.634914 
L 159.127575 242.831229 
L 163.199038 243.681981 
L 163.651423 243.66427 
L 164.103808 244.346667 
L 164.556192 244.346667 
L 165.008577 243.66427 
L 165.913347 243.638058 
L 169.08004 242.927486 
L 174.508657 241.884249 
L 196.675511 237.846912 
L 208.8899 235.315739 
L 211.151824 235.155544 
L 212.961363 235.283781 
L 214.318517 235.614312 
L 215.675671 236.236474 
L 216.580441 236.870679 
L 217.48521 237.735999 
L 218.38998 238.898079 
L 219.294749 240.447026 
L 220.199519 242.51051 
L 221.104289 245.276389 
L 222.009058 249.034055 
L 222.913828 254.255341 
L 223.818597 261.767535 
L 224.270982 266.83007 
L 224.723367 273.169253 
L 225.501158 289 
M 228.529015 289 
L 228.58828 -1 
M 229.819786 -1 
L 230.151984 46.378621 
L 230.604369 81.775594 
L 231.056754 104.085245 
L 231.509138 119.398335 
L 232.413908 138.981566 
L 233.318677 150.900114 
L 234.223447 158.861955 
L 235.128216 164.521876 
L 236.032986 168.729532 
L 236.937756 171.965748 
L 237.842525 174.522816 
L 238.747295 176.58842 
L 240.104449 179.029613 
L 241.461603 180.915557 
L 242.818758 182.414986 
L 244.175912 183.63568 
L 245.985451 184.948995 
L 247.79499 185.998325 
L 250.056914 187.033794 
L 252.318838 187.824424 
L 254.580762 188.401702 
L 256.842685 188.776088 
L 259.104609 188.948645 
L 261.366533 188.920224 
L 263.628457 188.698671 
L 266.342766 188.205947 
L 269.509459 187.391757 
L 275.842846 185.445967 
L 277.2 185.039655 
L 277.2 185.039655 
" clip-path="url(#p571d266049)" style="fill: none; stroke: #1f77b4; stroke-width: 1.5; stroke-linecap: square"/>
   </g>
   <g id="line2d_28">
    <path d="M 51.46 190.684598 
L 59.602926 190.721294 
L 69.555391 191.002663 
L 84.031703 191.664855 
L 116.151022 193.402293 
L 129.27018 194.325503 
L 139.67503 195.27799 
L 147.365571 196.189084 
L 152.341804 196.979537 
L 154.603727 197.48193 
L 155.056112 197.640631 
L 155.508497 198.010909 
L 155.960882 196.999842 
L 156.413267 197.588549 
L 157.770421 198.045803 
L 161.389499 198.93293 
L 162.746653 199.256585 
L 163.651423 199.877372 
L 164.103808 196.365115 
L 164.556192 196.365115 
L 165.008577 199.877372 
L 165.913347 199.256585 
L 167.270501 198.93293 
L 169.98481 198.290987 
L 172.246733 197.588549 
L 172.699118 196.999842 
L 173.151503 198.010909 
L 173.603888 197.640631 
L 174.961042 197.255547 
L 178.58012 196.589268 
L 184.008737 195.83805 
L 192.151663 194.961717 
L 202.556513 194.078941 
L 215.223287 193.237956 
L 237.39014 192.03697 
L 260.009379 190.969012 
L 270.414228 190.701139 
L 277.2 190.684598 
L 277.2 190.684598 
" clip-path="url(#p571d266049)" style="fill: none; stroke-dasharray: 5.55,2.4; stroke-dashoffset: 0; stroke: #ff7f0e; stroke-width: 1.5"/>
   </g>
   <g id="line2d_29">
    <path d="M 51.46 190.684598 
L 59.602926 190.721294 
L 69.555391 191.002663 
L 84.031703 191.664855 
L 116.151022 193.402293 
L 129.27018 194.325503 
L 139.67503 195.27799 
L 147.365571 196.189084 
L 152.341804 196.979537 
L 154.603727 197.48193 
L 155.056112 197.640631 
L 155.508497 198.010909 
L 155.960882 196.999842 
L 156.413267 197.588549 
L 157.770421 198.045803 
L 161.389499 198.93293 
L 162.746653 199.256588 
L 163.651423 199.899123 
L 164.103808 196.780296 
L 164.556192 196.780296 
L 165.008577 199.899123 
L 165.913347 199.256588 
L 167.270501 198.93293 
L 169.98481 198.290987 
L 172.246733 197.588549 
L 172.699118 196.999842 
L 173.151503 198.010909 
L 173.603888 197.640631 
L 174.961042 197.255547 
L 178.58012 196.589268 
L 184.008737 195.83805 
L 192.151663 194.961717 
L 202.556513 194.078941 
L 215.223287 193.237956 
L 237.39014 192.03697 
L 260.009379 190.969012 
L 270.414228 190.701139 
L 277.2 190.684598 
L 277.2 190.684598 
" clip-path="url(#p571d266049)" style="fill: none; stroke: #ff7f0e; stroke-width: 1.5; stroke-linecap: square"/>
   </g>
   <g id="line2d_30">
    <path d="M 51.46 184.710361 
L 77.698317 185.378328 
L 98.055631 186.109075 
L 113.889098 186.891365 
L 126.555872 187.734304 
L 136.508337 188.605487 
L 144.651263 189.515358 
L 150.532265 190.383933 
L 153.698958 191.031547 
L 155.056112 191.480689 
L 155.508497 191.80064 
L 155.960882 193.444821 
L 156.413267 190.479319 
L 156.865651 191.1994 
L 157.770421 191.645959 
L 160.032345 192.310324 
L 162.746653 192.932469 
L 163.651423 193.682572 
L 164.103808 189.216129 
L 164.556192 189.216129 
L 165.008577 193.682572 
L 165.913347 192.932469 
L 166.818116 192.68383 
L 169.08004 192.194293 
L 171.341964 191.463517 
L 171.794349 191.1994 
L 172.246733 190.479319 
L 172.699118 193.444821 
L 173.151503 191.80064 
L 174.056273 191.295257 
L 175.865812 190.820495 
L 179.48489 190.157725 
L 184.913507 189.401595 
L 192.604048 188.561222 
L 203.008898 187.665782 
L 215.223287 186.865396 
L 229.699599 186.14772 
L 248.247375 185.462649 
L 271.771383 184.830057 
L 277.2 184.710361 
L 277.2 184.710361 
" clip-path="url(#p571d266049)" style="fill: none; stroke-dasharray: 5.55,2.4; stroke-dashoffset: 0; stroke: #2ca02c; stroke-width: 1.5"/>
   </g>
   <g id="line2d_31">
    <path d="M 51.46 184.710361 
L 77.698317 185.378328 
L 98.055631 186.109075 
L 113.889098 186.891365 
L 126.555872 187.734304 
L 136.508337 188.605487 
L 144.651263 189.515358 
L 150.532265 190.383933 
L 153.698958 191.031547 
L 155.056112 191.480689 
L 155.508497 191.80064 
L 155.960882 193.444821 
L 156.413267 190.479319 
L 156.865651 191.1994 
L 157.770421 191.645959 
L 160.032345 192.310324 
L 162.746653 192.932473 
L 163.199038 193.242678 
L 163.651423 193.710191 
L 164.103808 189.743265 
L 164.556192 189.743265 
L 165.008577 193.710191 
L 165.913347 192.932473 
L 166.818116 192.68383 
L 169.08004 192.194293 
L 171.341964 191.463517 
L 171.794349 191.1994 
L 172.246733 190.479319 
L 172.699118 193.444821 
L 173.151503 191.80064 
L 174.056273 191.295257 
L 175.865812 190.820495 
L 179.48489 190.157725 
L 184.913507 189.401595 
L 192.604048 188.561222 
L 203.008898 187.665782 
L 215.223287 186.865396 
L 229.699599 186.14772 
L 248.247375 185.462649 
L 271.771383 184.830057 
L 277.2 184.710361 
L 277.2 184.710361 
" clip-path="url(#p571d266049)" style="fill: none; stroke: #2ca02c; stroke-width: 1.5; stroke-linecap: square"/>
   </g>
   <g id="line2d_32">
    <path d="M 51.46 183.356692 
L 72.269699 183.930703 
L 76.793547 184.206353 
L 77.698317 184.378091 
L 78.150701 184.576526 
L 78.603086 185.177534 
L 79.055471 171.926497 
L 79.507856 183.134729 
L 79.96024 183.604185 
L 80.86501 183.875336 
L 83.126934 184.089761 
L 91.26986 184.462026 
L 110.722405 185.391849 
L 123.841563 186.242968 
L 130.627335 186.853902 
L 131.984489 187.145462 
L 132.436874 187.557488 
L 132.889259 185.096205 
L 133.341643 186.609221 
L 134.246413 186.926054 
L 136.960721 187.281492 
L 147.365571 188.54502 
L 151.889419 189.316752 
L 154.151343 189.869518 
L 155.056112 190.228226 
L 155.508497 190.572843 
L 155.960882 191.933868 
L 156.413267 188.548624 
L 156.865651 189.743409 
L 157.770421 190.298836 
L 159.57996 190.880106 
L 161.389499 191.23437 
L 162.294269 191.375599 
L 162.746653 191.55776 
L 163.199038 191.997525 
L 163.651423 192.6618 
L 164.103808 185.548092 
L 164.556192 185.548092 
L 165.008577 192.6618 
L 165.460962 191.997525 
L 165.913347 191.55776 
L 166.818116 191.293441 
L 168.627655 190.991364 
L 170.437194 190.470021 
L 171.341964 190.084534 
L 171.794349 189.743409 
L 172.246733 188.548624 
L 172.699118 191.933868 
L 173.151503 190.572843 
L 173.603888 190.228226 
L 174.961042 189.738057 
L 177.675351 189.139558 
L 182.199198 188.415805 
L 188.98497 187.581359 
L 194.865972 186.819207 
L 195.318357 186.609221 
L 195.770741 185.096205 
L 196.223126 187.557488 
L 196.675511 187.145462 
L 197.580281 186.919579 
L 200.294589 186.614806 
L 208.437515 185.982051 
L 221.104289 185.219181 
L 238.29491 184.423998 
L 247.342605 183.93981 
L 248.247375 183.778862 
L 248.69976 183.604185 
L 249.152144 183.134729 
L 249.604529 171.926497 
L 250.056914 185.177534 
L 250.509299 184.576526 
L 251.414068 184.273842 
L 253.223607 184.085475 
L 258.652224 183.849023 
L 275.390461 183.397672 
L 277.2 183.356692 
L 277.2 183.356692 
" clip-path="url(#p571d266049)" style="fill: none; stroke-dasharray: 5.55,2.4; stroke-dashoffset: 0; stroke: #d62728; stroke-width: 1.5"/>
   </g>
   <g id="line2d_33">
    <path d="M 51.46 183.356692 
L 72.269699 183.930703 
L 76.793547 184.206353 
L 77.698317 184.378091 
L 78.150701 184.576526 
L 78.603086 185.177534 
L 79.055471 171.926497 
L 79.507856 183.134729 
L 79.96024 183.604185 
L 80.86501 183.875336 
L 83.126934 184.089761 
L 91.26986 184.462026 
L 110.722405 185.391849 
L 123.841563 186.242968 
L 130.627335 186.853902 
L 131.984489 187.145462 
L 132.436874 187.557488 
L 132.889259 185.096205 
L 133.341643 186.609221 
L 134.246413 186.926054 
L 136.960721 187.281492 
L 147.365571 188.54502 
L 151.889419 189.316752 
L 154.151343 189.869518 
L 155.056112 190.228226 
L 155.508497 190.572843 
L 155.960882 191.933868 
L 156.413267 188.548624 
L 156.865651 189.743409 
L 157.770421 190.298836 
L 159.57996 190.880106 
L 161.389499 191.23437 
L 162.294269 191.375599 
L 162.746653 191.557767 
L 163.199038 191.998093 
L 163.651423 192.705676 
L 164.103808 186.385554 
L 164.556192 186.385554 
L 165.008577 192.705676 
L 165.460962 191.998093 
L 165.913347 191.557767 
L 166.818116 191.293441 
L 168.627655 190.991364 
L 170.437194 190.470021 
L 171.341964 190.084534 
L 171.794349 189.743409 
L 172.246733 188.548624 
L 172.699118 191.933868 
L 173.151503 190.572843 
L 173.603888 190.228226 
L 174.961042 189.738057 
L 177.675351 189.139558 
L 182.199198 188.415805 
L 188.98497 187.581359 
L 194.865972 186.819207 
L 195.318357 186.609221 
L 195.770741 185.096205 
L 196.223126 187.557488 
L 196.675511 187.145462 
L 197.580281 186.919579 
L 200.294589 186.614806 
L 208.437515 185.982051 
L 221.104289 185.219181 
L 238.29491 184.423998 
L 247.342605 183.93981 
L 248.247375 183.778862 
L 248.69976 183.604185 
L 249.152144 183.134729 
L 249.604529 171.926497 
L 250.056914 185.177534 
L 250.509299 184.576526 
L 251.414068 184.273842 
L 253.223607 184.085475 
L 258.652224 183.849023 
L 275.390461 183.397672 
L 277.2 183.356692 
L 277.2 183.356692 
" clip-path="url(#p571d266049)" style="fill: none; stroke: #d62728; stroke-width: 1.5; stroke-linecap: square"/>
   </g>
   <g id="line2d_34">
    <path d="M 51.46 183.102523 
L 73.626854 183.705766 
L 79.507856 184.03233 
L 80.86501 184.309194 
L 81.317395 184.582122 
L 81.76978 185.570367 
L 82.222164 179.563644 
L 82.674549 182.978712 
L 83.126934 183.409271 
L 84.031703 183.688325 
L 85.841242 183.888107 
L 91.722244 184.19661 
L 112.984329 185.260959 
L 125.198717 186.097419 
L 131.079719 186.654049 
L 131.984489 186.828053 
L 132.436874 187.02526 
L 132.889259 188.229021 
L 133.341643 186.043121 
L 133.794028 186.497452 
L 134.698798 186.734114 
L 137.865491 187.121847 
L 147.365571 188.261283 
L 151.437034 188.961621 
L 153.698958 189.521228 
L 154.603727 189.848549 
L 155.056112 190.087184 
L 155.508497 190.498198 
L 155.960882 192.092526 
L 156.413267 187.793906 
L 156.865651 189.392438 
L 157.318036 189.813808 
L 158.222806 190.260893 
L 159.57996 190.686284 
L 160.937114 190.891268 
L 162.294269 190.951079 
L 162.746653 191.19726 
L 163.199038 191.948077 
L 163.651423 193.156942 
L 164.103808 179.667826 
L 164.556192 179.667826 
L 165.008577 193.156942 
L 165.460962 191.948077 
L 165.913347 191.19726 
L 166.365731 190.951079 
L 169.532425 190.566103 
L 170.889579 190.066564 
L 171.341964 189.813808 
L 171.794349 189.392438 
L 172.246733 187.793906 
L 172.699118 192.092526 
L 173.151503 190.498198 
L 173.603888 190.087184 
L 174.508657 189.6701 
L 176.318196 189.161141 
L 179.48489 188.542673 
L 184.461122 187.838063 
L 194.865972 186.497452 
L 195.318357 186.043121 
L 195.770741 188.229021 
L 196.223126 187.02526 
L 197.127896 186.72638 
L 199.38982 186.448914 
L 207.080361 185.824377 
L 219.747134 185.027243 
L 236.485371 184.21697 
L 243.723527 183.809736 
L 245.080681 183.58659 
L 245.533066 183.409271 
L 245.985451 182.978712 
L 246.437836 179.563644 
L 246.89022 185.570367 
L 247.342605 184.582122 
L 247.79499 184.309194 
L 248.69976 184.091618 
L 250.961683 183.888296 
L 257.747455 183.612342 
L 276.29523 183.122725 
L 277.2 183.102523 
L 277.2 183.102523 
" clip-path="url(#p571d266049)" style="fill: none; stroke-dasharray: 5.55,2.4; stroke-dashoffset: 0; stroke: #9467bd; stroke-width: 1.5"/>
   </g>
   <g id="line2d_35">
    <path d="M 51.46 183.102523 
L 73.626854 183.705766 
L 79.507856 184.03233 
L 80.86501 184.309194 
L 81.317395 184.582122 
L 81.76978 185.570367 
L 82.222164 179.563644 
L 82.674549 182.978712 
L 83.126934 183.409271 
L 84.031703 183.688325 
L 85.841242 183.888107 
L 91.722244 184.19661 
L 112.984329 185.260959 
L 125.198717 186.097419 
L 131.079719 186.654049 
L 131.984489 186.828053 
L 132.436874 187.02526 
L 132.889259 188.229021 
L 133.341643 186.043121 
L 133.794028 186.497452 
L 134.698798 186.734114 
L 137.865491 187.121847 
L 147.365571 188.261283 
L 151.437034 188.961621 
L 153.698958 189.521228 
L 154.603727 189.848549 
L 155.056112 190.087184 
L 155.508497 190.498198 
L 155.960882 192.092526 
L 156.413267 187.793906 
L 156.865651 189.392438 
L 157.318036 189.813808 
L 158.222806 190.260893 
L 159.57996 190.686284 
L 160.937114 190.891268 
L 162.294269 190.951079 
L 162.746653 191.197272 
L 163.199038 191.949151 
L 163.651423 193.239996 
L 164.103808 181.253333 
L 164.556192 181.253333 
L 165.008577 193.239996 
L 165.460962 191.949151 
L 165.913347 191.197272 
L 166.365731 190.951079 
L 169.532425 190.566103 
L 170.889579 190.066564 
L 171.341964 189.813808 
L 171.794349 189.392438 
L 172.246733 187.793906 
L 172.699118 192.092526 
L 173.151503 190.498198 
L 173.603888 190.087184 
L 174.508657 189.6701 
L 176.318196 189.161141 
L 179.48489 188.542673 
L 184.461122 187.838063 
L 194.865972 186.497452 
L 195.318357 186.043121 
L 195.770741 188.229021 
L 196.223126 187.02526 
L 197.127896 186.72638 
L 199.38982 186.448914 
L 207.080361 185.824377 
L 219.747134 185.027243 
L 236.485371 184.21697 
L 243.723527 183.809736 
L 245.080681 183.58659 
L 245.533066 183.409271 
L 245.985451 182.978712 
L 246.437836 179.563644 
L 246.89022 185.570367 
L 247.342605 184.582122 
L 247.79499 184.309194 
L 248.69976 184.091618 
L 250.961683 183.888296 
L 257.747455 183.612342 
L 276.29523 183.122725 
L 277.2 183.102523 
L 277.2 183.102523 
" clip-path="url(#p571d266049)" style="fill: none; stroke: #9467bd; stroke-width: 1.5; stroke-linecap: square"/>
   </g>
   <g id="patch_8">
    <path d="M 51.46 260.12 
L 51.46 165.48 
" style="fill: none; stroke: #000000; stroke-width: 0.8; stroke-linejoin: miter; stroke-linecap: square"/>
   </g>
   <g id="patch_9">
    <path d="M 277.2 260.12 
L 277.2 165.48 
" style="fill: none; stroke: #000000; stroke-width: 0.8; stroke-linejoin: miter; stroke-linecap: square"/>
   </g>
   <g id="patch_10">
    <path d="M 51.46 260.12 
L 277.2 260.12 
" style="fill: none; stroke: #000000; stroke-width: 0.8; stroke-linejoin: miter; stroke-linecap: square"/>
   </g>
   <g id="patch_11">
    <path d="M 51.46 165.48 
L 277.2 165.48 
" style="fill: none; stroke: #000000; stroke-width: 0.8; stroke-linejoin: miter; stroke-linecap: square"/>
   </g>
   <g id="text_17">
    <!-- Atom 1: Local Energy -->
    <g transform="translate(100.34375 159.48) scale(0.12 -0.12)">
     <defs>
      <path id="DejaVuSans-4c" d="M 628 4666 
L 1259 4666 
L 1259 531 
L 3531 531 
L 3531 0 
L 628 0 
L 628 4666 
z
" transform="scale(0.015625)"/>
      <path id="DejaVuSans-6c" d="M 603 4863 
L 1178 4863 
L 1178 0 
L 603 0 
L 603 4863 
z
" transform="scale(0.015625)"/>
      <path id="DejaVuSans-45" d="M 628 4666 
L 3578 4666 
L 3578 4134 
L 1259 4134 
L 1259 2753 
L 3481 2753 
L 3481 2222 
L 1259 2222 
L 1259 531 
L 3634 531 
L 3634 0 
L 628 0 
L 628 4666 
z
" transform="scale(0.015625)"/>
      <path id="DejaVuSans-72" d="M 2631 2963 
Q 2534 3019 2420 3045 
Q 2306 3072 2169 3072 
Q 1681 3072 1420 2755 
Q 1159 2438 1159 1844 
L 1159 0 
L 581 0 
L 581 3500 
L 1159 3500 
L 1159 2956 
Q 1341 3275 1631 3429 
Q 1922 3584 2338 3584 
Q 2397 3584 2469 3576 
Q 2541 3569 2628 3553 
L 2631 2963 
z
" transform="scale(0.015625)"/>
      <path id="DejaVuSans-67" d="M 2906 1791 
Q 2906 2416 2648 2759 
Q 2391 3103 1925 3103 
Q 1463 3103 1205 2759 
Q 947 2416 947 1791 
Q 947 1169 1205 825 
Q 1463 481 1925 481 
Q 2391 481 2648 825 
Q 2906 1169 2906 1791 
z
M 3481 434 
Q 3481 -459 3084 -895 
Q 2688 -1331 1869 -1331 
Q 1566 -1331 1297 -1286 
Q 1028 -1241 775 -1147 
L 775 -588 
Q 1028 -725 1275 -790 
Q 1522 -856 1778 -856 
Q 2344 -856 2625 -561 
Q 2906 -266 2906 331 
L 2906 616 
Q 2728 306 2450 153 
Q 2172 0 1784 0 
Q 1141 0 747 490 
Q 353 981 353 1791 
Q 353 2603 747 3093 
Q 1141 3584 1784 3584 
Q 2172 3584 2450 3431 
Q 2728 3278 2906 2969 
L 2906 3500 
L 3481 3500 
L 3481 434 
z
" transform="scale(0.015625)"/>
      <path id="DejaVuSans-79" d="M 2059 -325 
Q 1816 -950 1584 -1140 
Q 1353 -1331 966 -1331 
L 506 -1331 
L 506 -850 
L 844 -850 
Q 1081 -850 1212 -737 
Q 1344 -625 1503 -206 
L 1606 56 
L 191 3500 
L 800 3500 
L 1894 763 
L 2988 3500 
L 3597 3500 
L 2059 -325 
z
" transform="scale(0.015625)"/>
     </defs>
     <use xlink:href="#DejaVuSans-41"/>
     <use xlink:href="#DejaVuSans-74" transform="translate(66.658203 0)"/>
     <use xlink:href="#DejaVuSans-6f" transform="translate(105.867188 0)"/>
     <use xlink:href="#DejaVuSans-6d" transform="translate(167.048828 0)"/>
     <use xlink:href="#DejaVuSans-20" transform="translate(264.460938 0)"/>
     <use xlink:href="#DejaVuSans-31" transform="translate(296.248047 0)"/>
     <use xlink:href="#DejaVuSans-3a" transform="translate(359.871094 0)"/>
     <use xlink:href="#DejaVuSans-20" transform="translate(393.5625 0)"/>
     <use xlink:href="#DejaVuSans-4c" transform="translate(425.349609 0)"/>
     <use xlink:href="#DejaVuSans-6f" transform="translate(479.3125 0)"/>
     <use xlink:href="#DejaVuSans-63" transform="translate(540.494141 0)"/>
     <use xlink:href="#DejaVuSans-61" transform="translate(595.474609 0)"/>
     <use xlink:href="#DejaVuSans-6c" transform="translate(656.753906 0)"/>
     <use xlink:href="#DejaVuSans-20" transform="translate(684.537109 0)"/>
     <use xlink:href="#DejaVuSans-45" transform="translate(716.324219 0)"/>
     <use xlink:href="#DejaVuSans-6e" transform="translate(779.507812 0)"/>
     <use xlink:href="#DejaVuSans-65" transform="translate(842.886719 0)"/>
     <use xlink:href="#DejaVuSans-72" transform="translate(904.410156 0)"/>
     <use xlink:href="#DejaVuSans-67" transform="translate(943.773438 0)"/>
     <use xlink:href="#DejaVuSans-79" transform="translate(1007.25 0)"/>
    </g>
   </g>
  </g>
 </g>
 <defs>
  <clipPath id="p303552ea9f">
   <rect x="51.46" y="26.88" width="225.74" height="94.64"/>
  </clipPath>
  <clipPath id="p571d266049">
   <rect x="51.46" y="165.48" width="225.74" height="94.64"/>
  </clipPath>
 </defs>
</svg>
