<?xml version="1.0" encoding="utf-8" standalone="no"?>
<!DOCTYPE svg PUBLIC "-//W3C//DTD SVG 1.1//EN"
  "http://www.w3.org/Graphics/SVG/1.1/DTD/svg11.dtd">
<svg xmlns:xlink="http://www.w3.org/1999/xlink" width="288pt" height="288pt" viewBox="0 0 288 288" xmlns="http://www.w3.org/2000/svg" version="1.1">
 <metadata>
  <rdf:RDF xmlns:dc="http://purl.org/dc/elements/1.1/" xmlns:cc="http://creativecommons.org/ns#" xmlns:rdf="http://www.w3.org/1999/02/22-rdf-syntax-ns#">
   <cc:Work>
    <dc:type rdf:resource="http://purl.org/dc/dcmitype/StillImage"/>
    <dc:date>2026-05-25T10:38:54.303378</dc:date>
    <dc:format>image/svg+xml</dc:format>
    <dc:creator>
     <cc:Agent>
      <dc:title>Matplotlib v3.10.9, https://matplotlib.org/</dc:title>
     </cc:Agent>
    </dc:creator>
   </cc:Work>
  </rdf:RDF>
 </metadata>
 <defs>
  <style type="text/css">*{stroke-linejoin: round; stroke-linecap: butt}</style>
 </defs>
 <g id="figure_1">
  <g id="patch_1">
   <path d="M 0 288 
L 288 288 
L 288 0 
L 0 0 
z
" style="fill: #ffffff"/>
  </g>
  <g id="axes_1">
   <g id="patch_2">
    <path d="M 39.94 121.52 
L 277.2 121.52 
L 277.2 26.88 
L 39.94 26.88 
z
" style="fill: #ffffff"/>
   </g>
   <g id="matplotlib.axis_1">
    <g id="xtick_1">
     <g id="line2d_1">
      <defs>
       <path id="m818a5473ad" d="M 0 0 
L 0 3.5 
" style="stroke: #000000; stroke-width: 0.8"/>
      </defs>
      <g>
       <use xlink:href="#m818a5473ad" x="63.666" y="121.52" style="stroke: #000000; stroke-width: 0.8"/>
      </g>
     </g>
     <g id="text_1">
      <!-- −0.4 -->
      <g transform="translate(51.524594 136.118437) scale(0.1 -0.1)">
       <defs>
        <path id="DejaVuSans-2212" d="M 678 2272 
L 4684 2272 
L 4684 1741 
L 678 1741 
L 678 2272 
z
" transform="scale(0.015625)"/>
        <path id="DejaVuSans-30" d="M 2034 4250 
Q 1547 4250 1301 3770 
Q 1056 3291 1056 2328 
Q 1056 1369 1301 889 
Q 1547 409 2034 409 
Q 2525 409 2770 889 
Q 3016 1369 3016 2328 
Q 3016 3291 2770 3770 
Q 2525 4250 2034 4250 
z
M 2034 4750 
Q 2819 4750 3233 4129 
Q 3647 3509 3647 2328 
Q 3647 1150 3233 529 
Q 2819 -91 2034 -91 
Q 1250 -91 836 529 
Q 422 1150 422 2328 
Q 422 3509 836 4129 
Q 1250 4750 2034 4750 
z
" transform="scale(0.015625)"/>
        <path id="DejaVuSans-2e" d="M 684 794 
L 1344 794 
L 1344 0 
L 684 0 
L 684 794 
z
" transform="scale(0.015625)"/>
        <path id="DejaVuSans-34" d="M 2419 4116 
L 825 1625 
L 2419 1625 
L 2419 4116 
z
M 2253 4666 
L 3047 4666 
L 3047 1625 
L 3713 1625 
L 3713 1100 
L 3047 1100 
L 3047 0 
L 2419 0 
L 2419 1100 
L 313 1100 
L 313 1709 
L 2253 4666 
z
" transform="scale(0.015625)"/>
       </defs>
       <use xlink:href="#DejaVuSans-2212"/>
       <use xlink:href="#DejaVuSans-30" transform="translate(83.789062 0)"/>
       <use xlink:href="#DejaVuSans-2e" transform="translate(147.412109 0)"/>
       <use xlink:href="#DejaVuSans-34" transform="translate(179.199219 0)"/>
      </g>
     </g>
    </g>
    <g id="xtick_2">
     <g id="line2d_2">
      <g>
       <use xlink:href="#m818a5473ad" x="111.118" y="121.52" style="stroke: #000000; stroke-width: 0.8"/>
      </g>
     </g>
     <g id="text_2">
      <!-- −0.2 -->
      <g transform="translate(98.976594 136.118437) scale(0.1 -0.1)">
       <defs>
        <path id="DejaVuSans-32" d="M 1228 531 
L 3431 531 
L 3431 0 
L 469 0 
L 469 531 
Q 828 903 1448 1529 
Q 2069 2156 2228 2338 
Q 2531 2678 2651 2914 
Q 2772 3150 2772 3378 
Q 2772 3750 2511 3984 
Q 2250 4219 1831 4219 
Q 1534 4219 1204 4116 
Q 875 4013 500 3803 
L 500 4441 
Q 881 4594 1212 4672 
Q 1544 4750 1819 4750 
Q 2544 4750 2975 4387 
Q 3406 4025 3406 3419 
Q 3406 3131 3298 2873 
Q 3191 2616 2906 2266 
Q 2828 2175 2409 1742 
Q 1991 1309 1228 531 
z
" transform="scale(0.015625)"/>
       </defs>
       <use xlink:href="#DejaVuSans-2212"/>
       <use xlink:href="#DejaVuSans-30" transform="translate(83.789062 0)"/>
       <use xlink:href="#DejaVuSans-2e" transform="translate(147.412109 0)"/>
       <use xlink:href="#DejaVuSans-32" transform="translate(179.199219 0)"/>
      </g>
     </g>
    </g>
    <g id="xtick_3">
     <g id="line2d_3">
      <g>
       <use xlink:href="#m818a5473ad" x="158.57" y="121.52" style="stroke: #000000; stroke-width: 0.8"/>
      </g>
     </g>
     <g id="text_3">
      <!-- 0.0 -->
      <g transform="translate(150.618437 136.118437) scale(0.1 -0.1)">
       <use xlink:href="#DejaVuSans-30"/>
       <use xlink:href="#DejaVuSans-2e" transform="translate(63.623047 0)"/>
       <use xlink:href="#DejaVuSans-30" transform="translate(95.410156 0)"/>
      </g>
     </g>
    </g>
    <g id="xtick_4">
     <g id="line2d_4">
      <g>
       <use xlink:href="#m818a5473ad" x="206.022" y="121.52" style="stroke: #000000; stroke-width: 0.8"/>
      </g>
     </g>
     <g id="text_4">
      <!-- 0.2 -->
      <g transform="translate(198.070437 136.118437) scale(0.1 -0.1)">
       <use xlink:href="#DejaVuSans-30"/>
       <use xlink:href="#DejaVuSans-2e" transform="translate(63.623047 0)"/>
       <use xlink:href="#DejaVuSans-32" transform="translate(95.410156 0)"/>
      </g>
     </g>
    </g>
    <g id="xtick_5">
     <g id="line2d_5">
      <g>
       <use xlink:href="#m818a5473ad" x="253.474" y="121.52" style="stroke: #000000; stroke-width: 0.8"/>
      </g>
     </g>
     <g id="text_5">
      <!-- 0.4 -->
      <g transform="translate(245.522437 136.118437) scale(0.1 -0.1)">
       <use xlink:href="#DejaVuSans-30"/>
       <use xlink:href="#DejaVuSans-2e" transform="translate(63.623047 0)"/>
       <use xlink:href="#DejaVuSans-34" transform="translate(95.410156 0)"/>
      </g>
     </g>
    </g>
   </g>
   <g id="matplotlib.axis_2">
    <g id="ytick_1">
     <g id="line2d_6">
      <defs>
       <path id="m9053883e05" d="M 0 0 
L -3.5 0 
" style="stroke: #000000; stroke-width: 0.8"/>
      </defs>
      <g>
       <use xlink:href="#m9053883e05" x="39.94" y="115.073416" style="stroke: #000000; stroke-width: 0.8"/>
      </g>
     </g>
     <g id="text_6">
      <!-- 0 -->
      <g transform="translate(26.5775 118.872635) scale(0.1 -0.1)">
       <use xlink:href="#DejaVuSans-30"/>
      </g>
     </g>
    </g>
    <g id="ytick_2">
     <g id="line2d_7">
      <g>
       <use xlink:href="#m9053883e05" x="39.94" y="72.548212" style="stroke: #000000; stroke-width: 0.8"/>
      </g>
     </g>
     <g id="text_7">
      <!-- 5 -->
      <g transform="translate(26.5775 76.347431) scale(0.1 -0.1)">
       <defs>
        <path id="DejaVuSans-35" d="M 691 4666 
L 3169 4666 
L 3169 4134 
L 1269 4134 
L 1269 2991 
Q 1406 3038 1543 3061 
Q 1681 3084 1819 3084 
Q 2600 3084 3056 2656 
Q 3513 2228 3513 1497 
Q 3513 744 3044 326 
Q 2575 -91 1722 -91 
Q 1428 -91 1123 -41 
Q 819 9 494 109 
L 494 744 
Q 775 591 1075 516 
Q 1375 441 1709 441 
Q 2250 441 2565 725 
Q 2881 1009 2881 1497 
Q 2881 1984 2565 2268 
Q 2250 2553 1709 2553 
Q 1456 2553 1204 2497 
Q 953 2441 691 2322 
L 691 4666 
z
" transform="scale(0.015625)"/>
       </defs>
       <use xlink:href="#DejaVuSans-35"/>
      </g>
     </g>
    </g>
    <g id="ytick_3">
     <g id="line2d_8">
      <g>
       <use xlink:href="#m9053883e05" x="39.94" y="30.023009" style="stroke: #000000; stroke-width: 0.8"/>
      </g>
     </g>
     <g id="text_8">
      <!-- 10 -->
      <g transform="translate(20.215 33.822227) scale(0.1 -0.1)">
       <defs>
        <path id="DejaVuSans-31" d="M 794 531 
L 1825 531 
L 1825 4091 
L 703 3866 
L 703 4441 
L 1819 4666 
L 2450 4666 
L 2450 531 
L 3481 531 
L 3481 0 
L 794 0 
L 794 531 
z
" transform="scale(0.015625)"/>
       </defs>
       <use xlink:href="#DejaVuSans-31"/>
       <use xlink:href="#DejaVuSans-30" transform="translate(63.623047 0)"/>
      </g>
     </g>
    </g>
   </g>
   <g id="line2d_9">
    <path d="M 39.94 112.003806 
L 49.449419 111.10962 
L 58.007896 110.078619 
L 65.615431 108.933524 
L 72.272024 107.71284 
L 78.453146 106.357549 
L 84.158798 104.880306 
L 89.388978 103.301381 
L 94.143687 101.648931 
L 98.898397 99.757928 
L 103.177635 97.822636 
L 107.456874 95.635303 
L 111.260641 93.45188 
L 115.064409 91.015105 
L 118.868176 88.294235 
L 122.196473 85.653238 
L 125.52477 82.742127 
L 128.853066 79.531829 
L 132.181363 75.989911 
L 135.509659 72.080154 
L 138.362485 68.405596 
L 141.215311 64.402819 
L 144.068136 60.040632 
L 146.920962 55.284619 
L 149.773788 50.096775 
L 152.626613 44.435091 
L 155.479439 38.253084 
L 158.332265 31.499272 
L 158.807735 31.499272 
L 161.660561 38.253084 
L 164.513387 44.435091 
L 167.366212 50.096775 
L 170.219038 55.284619 
L 173.071864 60.040632 
L 175.924689 64.402819 
L 178.777515 68.405596 
L 182.105812 72.662697 
L 185.434108 76.517532 
L 188.762405 80.009951 
L 192.090701 83.175605 
L 195.418998 86.046422 
L 198.747295 88.651026 
L 202.551062 91.334572 
L 206.35483 93.738072 
L 210.158597 95.89181 
L 214.437836 98.049533 
L 218.717074 99.958741 
L 223.471784 101.824365 
L 228.226493 103.454733 
L 233.456673 105.012647 
L 239.162325 106.470317 
L 245.343447 107.807727 
L 252.00004 109.012378 
L 259.132104 110.078619 
L 267.21511 111.058491 
L 276.249058 111.924501 
L 277.2 112.003806 
L 277.2 112.003806 
" clip-path="url(#p45232e4628)" style="fill: none; stroke-dasharray: 5.55,2.4; stroke-dashoffset: 0; stroke: #1f77b4; stroke-width: 1.5"/>
   </g>
   <g id="line2d_10">
    <path d="M 39.94 112.004424 
L 49.449419 111.110654 
L 58.007896 110.080263 
L 65.615431 108.936007 
L 72.272024 107.7164 
L 78.453146 106.362526 
L 84.158798 104.887084 
L 89.388978 103.310379 
L 94.143687 101.660572 
L 98.898397 99.772989 
L 103.177635 97.841625 
L 107.456874 95.659245 
L 111.260641 93.481298 
L 115.064409 91.051254 
L 118.868176 88.338653 
L 122.196473 85.70643 
L 125.52477 82.805826 
L 128.853066 79.608111 
L 132.181363 76.081261 
L 135.509659 72.189548 
L 138.362485 68.533268 
L 141.215311 64.551823 
L 144.068136 60.214532 
L 146.920962 55.487575 
L 149.773788 50.333642 
L 152.626613 44.711535 
L 155.479439 38.575718 
L 158.332265 31.875812 
L 158.807735 31.875812 
L 161.660561 38.575718 
L 164.513387 44.711535 
L 167.366212 50.333642 
L 170.219038 55.487575 
L 173.071864 60.214532 
L 175.924689 64.551823 
L 178.777515 68.533268 
L 182.105812 72.76931 
L 185.434108 76.606559 
L 188.762405 80.084293 
L 192.090701 83.237684 
L 195.418998 86.098261 
L 198.747295 88.694315 
L 202.551062 91.369802 
L 206.35483 93.766743 
L 210.158597 95.915143 
L 214.437836 98.068039 
L 218.717074 99.973419 
L 223.471784 101.835711 
L 228.226493 103.463503 
L 233.456673 105.019253 
L 239.162325 106.475167 
L 245.343447 107.811198 
L 252.00004 109.014798 
L 259.132104 110.080263 
L 267.21511 111.059553 
L 276.249058 111.925152 
L 277.2 112.004424 
L 277.2 112.004424 
" clip-path="url(#p45232e4628)" style="fill: none; stroke: #1f77b4; stroke-width: 1.5; stroke-linecap: square"/>
   </g>
   <g id="line2d_11">
    <path d="M 39.94 117.217886 
L 55.15507 116.734963 
L 67.992786 116.114154 
L 79.404088 115.343013 
L 89.388978 114.449761 
L 98.422926 113.420423 
L 106.505932 112.280057 
L 114.113467 110.976932 
L 120.77006 109.617942 
L 126.951182 108.139766 
L 132.656834 106.559207 
L 137.887014 104.89911 
L 143.117194 103.005827 
L 147.871904 101.052304 
L 152.626613 98.844886 
L 156.905852 96.610512 
L 158.332265 95.808 
L 158.807735 95.808 
L 163.086974 98.127753 
L 167.366212 100.201752 
L 172.120922 102.252746 
L 176.875631 104.069446 
L 182.105812 105.831475 
L 187.811463 107.508288 
L 193.992585 109.075947 
L 200.649178 110.516957 
L 207.781242 111.819821 
L 215.388778 112.978425 
L 223.947255 114.044731 
L 232.981202 114.94628 
L 243.441563 115.758071 
L 254.852866 116.418339 
L 268.166052 116.959717 
L 277.2 117.217886 
L 277.2 117.217886 
" clip-path="url(#p45232e4628)" style="fill: none; stroke-dasharray: 5.55,2.4; stroke-dashoffset: 0; stroke: #ff7f0e; stroke-width: 1.5"/>
   </g>
   <g id="line2d_12">
    <path d="M 39.94 117.218182 
L 55.15507 116.735638 
L 67.992786 116.115508 
L 79.404088 115.345525 
L 89.388978 114.454074 
L 98.422926 113.427458 
L 106.505932 112.290957 
L 114.113467 110.993389 
L 120.77006 109.641543 
L 126.951182 108.17275 
L 132.656834 106.604135 
L 138.362485 104.798319 
L 143.592665 102.902192 
L 148.347375 100.948647 
L 153.102084 98.74476 
L 157.381323 96.517788 
L 158.332265 95.988481 
L 158.807735 95.988481 
L 163.086974 98.270898 
L 167.366212 100.315285 
L 172.120922 102.340504 
L 177.351102 104.305487 
L 182.581283 106.030299 
L 188.286934 107.674141 
L 194.468056 109.213065 
L 201.124649 110.629362 
L 208.256713 111.911195 
L 215.864248 113.052045 
L 224.422725 114.102683 
L 233.932144 115.032682 
L 244.392505 115.823062 
L 256.279279 116.48794 
L 269.592465 117.006167 
L 277.2 117.218182 
L 277.2 117.218182 
" clip-path="url(#p45232e4628)" style="fill: none; stroke: #ff7f0e; stroke-width: 1.5; stroke-linecap: square"/>
   </g>
   <g id="line2d_13">
    <path d="M 39.94 112.039103 
L 49.449419 111.143233 
L 58.007896 110.109271 
L 65.615431 108.960079 
L 72.272024 107.734424 
L 78.453146 106.37314 
L 84.158798 104.888997 
L 89.388978 103.302431 
L 94.143687 101.641806 
L 98.898397 99.741325 
L 103.177635 97.796275 
L 107.456874 95.597911 
L 111.260641 93.403521 
L 115.064409 90.954598 
L 118.868176 88.220307 
L 122.196473 85.566446 
L 125.52477 82.641356 
L 128.853066 79.415888 
L 132.181363 75.857531 
L 135.509659 71.92998 
L 138.362485 68.239022 
L 141.215311 64.218719 
L 144.068136 59.837807 
L 146.920962 55.061796 
L 149.773788 49.852593 
L 152.626613 44.168093 
L 155.479439 37.961705 
L 158.332265 31.181818 
L 158.807735 31.181818 
L 161.660561 37.961705 
L 164.513387 44.168093 
L 167.366212 49.852593 
L 170.219038 55.061796 
L 173.071864 59.837807 
L 175.924689 64.218719 
L 178.777515 68.239022 
L 182.105812 72.515151 
L 185.434108 76.387581 
L 188.762405 79.896253 
L 192.090701 83.076902 
L 195.418998 85.961534 
L 198.747295 88.578848 
L 202.551062 91.275651 
L 206.35483 93.691147 
L 210.158597 95.85571 
L 214.437836 98.024317 
L 218.717074 99.943148 
L 223.471784 101.818114 
L 228.226493 103.456535 
L 233.456673 105.021968 
L 239.162325 106.486421 
L 245.343447 107.829715 
L 252.00004 109.039236 
L 259.132104 110.109271 
L 267.21511 111.091979 
L 276.249058 111.959693 
L 277.2 112.039103 
L 277.2 112.039103 
" clip-path="url(#p45232e4628)" style="fill: none; stroke-dasharray: 5.55,2.4; stroke-dashoffset: 0; stroke: #2ca02c; stroke-width: 1.5"/>
   </g>
   <g id="line2d_14">
    <path d="M 39.94 112.039725 
L 49.449419 111.144275 
L 58.007896 110.110928 
L 65.615431 108.962582 
L 72.272024 107.738012 
L 78.453146 106.378156 
L 84.158798 104.895829 
L 89.388978 103.3115 
L 94.143687 101.653538 
L 98.898397 99.756503 
L 103.177635 97.815412 
L 107.456874 95.62204 
L 111.260641 93.433169 
L 115.064409 90.991029 
L 118.868176 88.265072 
L 122.196473 85.620054 
L 125.52477 82.705552 
L 128.853066 79.492765 
L 132.181363 75.949594 
L 135.509659 72.040229 
L 138.362485 68.367691 
L 141.215311 64.368887 
L 144.068136 60.013066 
L 146.920962 55.266337 
L 149.773788 50.091311 
L 152.626613 44.446697 
L 155.479439 38.286858 
L 158.332265 31.5613 
L 158.807735 31.5613 
L 161.660561 38.286858 
L 164.513387 44.446697 
L 167.366212 50.091311 
L 170.219038 55.266337 
L 173.071864 60.013066 
L 175.924689 64.368887 
L 178.777515 68.367691 
L 182.105812 72.622597 
L 185.434108 76.477304 
L 188.762405 79.971176 
L 192.090701 83.139466 
L 195.418998 86.013779 
L 198.747295 88.622475 
L 202.551062 91.311155 
L 206.35483 93.720041 
L 210.158597 95.879225 
L 214.437836 98.042967 
L 218.717074 99.95794 
L 223.471784 101.829549 
L 228.226493 103.465373 
L 233.456673 105.028626 
L 239.162325 106.491309 
L 245.343447 107.833212 
L 252.00004 109.041675 
L 259.132104 110.110928 
L 267.21511 111.093049 
L 276.249058 111.960349 
L 277.2 112.039725 
L 277.2 112.039725 
" clip-path="url(#p45232e4628)" style="fill: none; stroke: #2ca02c; stroke-width: 1.5; stroke-linecap: square"/>
   </g>
   <g id="line2d_15">
    <path d="M 39.94 117.083178 
L 55.630541 116.624113 
L 68.943727 116.024138 
L 80.830501 115.267553 
L 91.290862 114.37684 
L 100.32481 113.392782 
L 108.407816 112.303668 
L 116.015351 111.060008 
L 123.147415 109.662774 
L 129.328537 108.236803 
L 135.034188 106.712508 
L 140.73984 104.955681 
L 145.97002 103.108459 
L 150.724729 101.202445 
L 155.479439 99.048579 
L 158.332265 97.622383 
L 158.807735 97.622383 
L 163.086974 99.722816 
L 167.841683 101.798767 
L 172.596393 103.636694 
L 177.826573 105.41866 
L 183.532224 107.114033 
L 189.713347 108.698923 
L 196.36994 110.15598 
L 203.502004 111.473925 
L 211.109539 112.646894 
L 219.668016 113.727899 
L 228.701964 114.643862 
L 239.162325 115.471481 
L 250.573627 116.148435 
L 263.886814 116.708932 
L 277.2 117.083178 
L 277.2 117.083178 
" clip-path="url(#p45232e4628)" style="fill: none; stroke-dasharray: 5.55,2.4; stroke-dashoffset: 0; stroke: #d62728; stroke-width: 1.5"/>
   </g>
   <g id="line2d_16">
    <path d="M 39.94 117.083414 
L 55.630541 116.624666 
L 68.943727 116.025276 
L 80.830501 115.269721 
L 91.290862 114.38066 
L 100.32481 113.399013 
L 108.883287 112.242479 
L 116.490822 110.989238 
L 123.622886 109.582632 
L 129.804008 108.148598 
L 135.98513 106.479786 
L 141.690782 104.696237 
L 146.920962 102.823249 
L 151.675671 100.893133 
L 156.430381 98.715047 
L 158.332265 97.766581 
L 158.807735 97.766581 
L 163.086974 99.837184 
L 167.841683 101.88717 
L 172.596393 103.705027 
L 177.826573 105.470136 
L 183.532224 107.151826 
L 189.713347 108.725963 
L 196.36994 110.174835 
L 203.502004 111.486739 
L 211.109539 112.65538 
L 219.668016 113.733238 
L 228.701964 114.647135 
L 239.162325 115.473338 
L 250.573627 116.149436 
L 263.886814 116.709419 
L 277.2 117.083414 
L 277.2 117.083414 
" clip-path="url(#p45232e4628)" style="fill: none; stroke: #d62728; stroke-width: 1.5; stroke-linecap: square"/>
   </g>
   <g id="patch_3">
    <path d="M 39.94 121.52 
L 39.94 26.88 
" style="fill: none; stroke: #000000; stroke-width: 0.8; stroke-linejoin: miter; stroke-linecap: square"/>
   </g>
   <g id="patch_4">
    <path d="M 277.2 121.52 
L 277.2 26.88 
" style="fill: none; stroke: #000000; stroke-width: 0.8; stroke-linejoin: miter; stroke-linecap: square"/>
   </g>
   <g id="patch_5">
    <path d="M 39.94 121.52 
L 277.2 121.52 
" style="fill: none; stroke: #000000; stroke-width: 0.8; stroke-linejoin: miter; stroke-linecap: square"/>
   </g>
   <g id="patch_6">
    <path d="M 39.94 26.88 
L 277.2 26.88 
" style="fill: none; stroke: #000000; stroke-width: 0.8; stroke-linejoin: miter; stroke-linecap: square"/>
   </g>
   <g id="text_9">
    <!-- Atom 1 (Z=7): Wavefunction -->
    <g transform="translate(72.527187 20.88) scale(0.12 -0.12)">
     <defs>
      <path id="DejaVuSans-41" d="M 2188 4044 
L 1331 1722 
L 3047 1722 
L 2188 4044 
z
M 1831 4666 
L 2547 4666 
L 4325 0 
L 3669 0 
L 3244 1197 
L 1141 1197 
L 716 0 
L 50 0 
L 1831 4666 
z
" transform="scale(0.015625)"/>
      <path id="DejaVuSans-74" d="M 1172 4494 
L 1172 3500 
L 2356 3500 
L 2356 3053 
L 1172 3053 
L 1172 1153 
Q 1172 725 1289 603 
Q 1406 481 1766 481 
L 2356 481 
L 2356 0 
L 1766 0 
Q 1100 0 847 248 
Q 594 497 594 1153 
L 594 3053 
L 172 3053 
L 172 3500 
L 594 3500 
L 594 4494 
L 1172 4494 
z
" transform="scale(0.015625)"/>
      <path id="DejaVuSans-6f" d="M 1959 3097 
Q 1497 3097 1228 2736 
Q 959 2375 959 1747 
Q 959 1119 1226 758 
Q 1494 397 1959 397 
Q 2419 397 2687 759 
Q 2956 1122 2956 1747 
Q 2956 2369 2687 2733 
Q 2419 3097 1959 3097 
z
M 1959 3584 
Q 2709 3584 3137 3096 
Q 3566 2609 3566 1747 
Q 3566 888 3137 398 
Q 2709 -91 1959 -91 
Q 1206 -91 779 398 
Q 353 888 353 1747 
Q 353 2609 779 3096 
Q 1206 3584 1959 3584 
z
" transform="scale(0.015625)"/>
      <path id="DejaVuSans-6d" d="M 3328 2828 
Q 3544 3216 3844 3400 
Q 4144 3584 4550 3584 
Q 5097 3584 5394 3201 
Q 5691 2819 5691 2113 
L 5691 0 
L 5113 0 
L 5113 2094 
Q 5113 2597 4934 2840 
Q 4756 3084 4391 3084 
Q 3944 3084 3684 2787 
Q 3425 2491 3425 1978 
L 3425 0 
L 2847 0 
L 2847 2094 
Q 2847 2600 2669 2842 
Q 2491 3084 2119 3084 
Q 1678 3084 1418 2786 
Q 1159 2488 1159 1978 
L 1159 0 
L 581 0 
L 581 3500 
L 1159 3500 
L 1159 2956 
Q 1356 3278 1631 3431 
Q 1906 3584 2284 3584 
Q 2666 3584 2933 3390 
Q 3200 3197 3328 2828 
z
" transform="scale(0.015625)"/>
      <path id="DejaVuSans-20" transform="scale(0.015625)"/>
      <path id="DejaVuSans-28" d="M 1984 4856 
Q 1566 4138 1362 3434 
Q 1159 2731 1159 2009 
Q 1159 1288 1364 580 
Q 1569 -128 1984 -844 
L 1484 -844 
Q 1016 -109 783 600 
Q 550 1309 550 2009 
Q 550 2706 781 3412 
Q 1013 4119 1484 4856 
L 1984 4856 
z
" transform="scale(0.015625)"/>
      <path id="DejaVuSans-5a" d="M 359 4666 
L 4025 4666 
L 4025 4184 
L 1075 531 
L 4097 531 
L 4097 0 
L 288 0 
L 288 481 
L 3238 4134 
L 359 4134 
L 359 4666 
z
" transform="scale(0.015625)"/>
      <path id="DejaVuSans-3d" d="M 678 2906 
L 4684 2906 
L 4684 2381 
L 678 2381 
L 678 2906 
z
M 678 1631 
L 4684 1631 
L 4684 1100 
L 678 1100 
L 678 1631 
z
" transform="scale(0.015625)"/>
      <path id="DejaVuSans-37" d="M 525 4666 
L 3525 4666 
L 3525 4397 
L 1831 0 
L 1172 0 
L 2766 4134 
L 525 4134 
L 525 4666 
z
" transform="scale(0.015625)"/>
      <path id="DejaVuSans-29" d="M 513 4856 
L 1013 4856 
Q 1481 4119 1714 3412 
Q 1947 2706 1947 2009 
Q 1947 1309 1714 600 
Q 1481 -109 1013 -844 
L 513 -844 
Q 928 -128 1133 580 
Q 1338 1288 1338 2009 
Q 1338 2731 1133 3434 
Q 928 4138 513 4856 
z
" transform="scale(0.015625)"/>
      <path id="DejaVuSans-3a" d="M 750 794 
L 1409 794 
L 1409 0 
L 750 0 
L 750 794 
z
M 750 3309 
L 1409 3309 
L 1409 2516 
L 750 2516 
L 750 3309 
z
" transform="scale(0.015625)"/>
      <path id="DejaVuSans-57" d="M 213 4666 
L 850 4666 
L 1831 722 
L 2809 4666 
L 3519 4666 
L 4500 722 
L 5478 4666 
L 6119 4666 
L 4947 0 
L 4153 0 
L 3169 4050 
L 2175 0 
L 1381 0 
L 213 4666 
z
" transform="scale(0.015625)"/>
      <path id="DejaVuSans-61" d="M 2194 1759 
Q 1497 1759 1228 1600 
Q 959 1441 959 1056 
Q 959 750 1161 570 
Q 1363 391 1709 391 
Q 2188 391 2477 730 
Q 2766 1069 2766 1631 
L 2766 1759 
L 2194 1759 
z
M 3341 1997 
L 3341 0 
L 2766 0 
L 2766 531 
Q 2569 213 2275 61 
Q 1981 -91 1556 -91 
Q 1019 -91 701 211 
Q 384 513 384 1019 
Q 384 1609 779 1909 
Q 1175 2209 1959 2209 
L 2766 2209 
L 2766 2266 
Q 2766 2663 2505 2880 
Q 2244 3097 1772 3097 
Q 1472 3097 1187 3025 
Q 903 2953 641 2809 
L 641 3341 
Q 956 3463 1253 3523 
Q 1550 3584 1831 3584 
Q 2591 3584 2966 3190 
Q 3341 2797 3341 1997 
z
" transform="scale(0.015625)"/>
      <path id="DejaVuSans-76" d="M 191 3500 
L 800 3500 
L 1894 563 
L 2988 3500 
L 3597 3500 
L 2284 0 
L 1503 0 
L 191 3500 
z
" transform="scale(0.015625)"/>
      <path id="DejaVuSans-65" d="M 3597 1894 
L 3597 1613 
L 953 1613 
Q 991 1019 1311 708 
Q 1631 397 2203 397 
Q 2534 397 2845 478 
Q 3156 559 3463 722 
L 3463 178 
Q 3153 47 2828 -22 
Q 2503 -91 2169 -91 
Q 1331 -91 842 396 
Q 353 884 353 1716 
Q 353 2575 817 3079 
Q 1281 3584 2069 3584 
Q 2775 3584 3186 3129 
Q 3597 2675 3597 1894 
z
M 3022 2063 
Q 3016 2534 2758 2815 
Q 2500 3097 2075 3097 
Q 1594 3097 1305 2825 
Q 1016 2553 972 2059 
L 3022 2063 
z
" transform="scale(0.015625)"/>
      <path id="DejaVuSans-66" d="M 2375 4863 
L 2375 4384 
L 1825 4384 
Q 1516 4384 1395 4259 
Q 1275 4134 1275 3809 
L 1275 3500 
L 2222 3500 
L 2222 3053 
L 1275 3053 
L 1275 0 
L 697 0 
L 697 3053 
L 147 3053 
L 147 3500 
L 697 3500 
L 697 3744 
Q 697 4328 969 4595 
Q 1241 4863 1831 4863 
L 2375 4863 
z
" transform="scale(0.015625)"/>
      <path id="DejaVuSans-75" d="M 544 1381 
L 544 3500 
L 1119 3500 
L 1119 1403 
Q 1119 906 1312 657 
Q 1506 409 1894 409 
Q 2359 409 2629 706 
Q 2900 1003 2900 1516 
L 2900 3500 
L 3475 3500 
L 3475 0 
L 2900 0 
L 2900 538 
Q 2691 219 2414 64 
Q 2138 -91 1772 -91 
Q 1169 -91 856 284 
Q 544 659 544 1381 
z
M 1991 3584 
L 1991 3584 
z
" transform="scale(0.015625)"/>
      <path id="DejaVuSans-6e" d="M 3513 2113 
L 3513 0 
L 2938 0 
L 2938 2094 
Q 2938 2591 2744 2837 
Q 2550 3084 2163 3084 
Q 1697 3084 1428 2787 
Q 1159 2491 1159 1978 
L 1159 0 
L 581 0 
L 581 3500 
L 1159 3500 
L 1159 2956 
Q 1366 3272 1645 3428 
Q 1925 3584 2291 3584 
Q 2894 3584 3203 3211 
Q 3513 2838 3513 2113 
z
" transform="scale(0.015625)"/>
      <path id="DejaVuSans-63" d="M 3122 3366 
L 3122 2828 
Q 2878 2963 2633 3030 
Q 2388 3097 2138 3097 
Q 1578 3097 1268 2742 
Q 959 2388 959 1747 
Q 959 1106 1268 751 
Q 1578 397 2138 397 
Q 2388 397 2633 464 
Q 2878 531 3122 666 
L 3122 134 
Q 2881 22 2623 -34 
Q 2366 -91 2075 -91 
Q 1284 -91 818 406 
Q 353 903 353 1747 
Q 353 2603 823 3093 
Q 1294 3584 2113 3584 
Q 2378 3584 2631 3529 
Q 2884 3475 3122 3366 
z
" transform="scale(0.015625)"/>
      <path id="DejaVuSans-69" d="M 603 3500 
L 1178 3500 
L 1178 0 
L 603 0 
L 603 3500 
z
M 603 4863 
L 1178 4863 
L 1178 4134 
L 603 4134 
L 603 4863 
z
" transform="scale(0.015625)"/>
     </defs>
     <use xlink:href="#DejaVuSans-41"/>
     <use xlink:href="#DejaVuSans-74" transform="translate(66.658203 0)"/>
     <use xlink:href="#DejaVuSans-6f" transform="translate(105.867188 0)"/>
     <use xlink:href="#DejaVuSans-6d" transform="translate(167.048828 0)"/>
     <use xlink:href="#DejaVuSans-20" transform="translate(264.460938 0)"/>
     <use xlink:href="#DejaVuSans-31" transform="translate(296.248047 0)"/>
     <use xlink:href="#DejaVuSans-20" transform="translate(359.871094 0)"/>
     <use xlink:href="#DejaVuSans-28" transform="translate(391.658203 0)"/>
     <use xlink:href="#DejaVuSans-5a" transform="translate(430.671875 0)"/>
     <use xlink:href="#DejaVuSans-3d" transform="translate(499.177734 0)"/>
     <use xlink:href="#DejaVuSans-37" transform="translate(582.966797 0)"/>
     <use xlink:href="#DejaVuSans-29" transform="translate(646.589844 0)"/>
     <use xlink:href="#DejaVuSans-3a" transform="translate(685.603516 0)"/>
     <use xlink:href="#DejaVuSans-20" transform="translate(719.294922 0)"/>
     <use xlink:href="#DejaVuSans-57" transform="translate(751.082031 0)"/>
     <use xlink:href="#DejaVuSans-61" transform="translate(843.583984 0)"/>
     <use xlink:href="#DejaVuSans-76" transform="translate(904.863281 0)"/>
     <use xlink:href="#DejaVuSans-65" transform="translate(964.042969 0)"/>
     <use xlink:href="#DejaVuSans-66" transform="translate(1025.566406 0)"/>
     <use xlink:href="#DejaVuSans-75" transform="translate(1060.771484 0)"/>
     <use xlink:href="#DejaVuSans-6e" transform="translate(1124.150391 0)"/>
     <use xlink:href="#DejaVuSans-63" transform="translate(1187.529297 0)"/>
     <use xlink:href="#DejaVuSans-74" transform="translate(1242.509766 0)"/>
     <use xlink:href="#DejaVuSans-69" transform="translate(1281.71875 0)"/>
     <use xlink:href="#DejaVuSans-6f" transform="translate(1309.501953 0)"/>
     <use xlink:href="#DejaVuSans-6e" transform="translate(1370.683594 0)"/>
    </g>
   </g>
  </g>
  <g id="axes_2">
   <g id="patch_7">
    <path d="M 39.94 260.12 
L 277.2 260.12 
L 277.2 165.48 
L 39.94 165.48 
z
" style="fill: #ffffff"/>
   </g>
   <g id="matplotlib.axis_3">
    <g id="xtick_6">
     <g id="line2d_17">
      <g>
       <use xlink:href="#m818a5473ad" x="63.666" y="260.12" style="stroke: #000000; stroke-width: 0.8"/>
      </g>
     </g>
     <g id="text_10">
      <!-- −0.4 -->
      <g transform="translate(51.524594 274.718437) scale(0.1 -0.1)">
       <use xlink:href="#DejaVuSans-2212"/>
       <use xlink:href="#DejaVuSans-30" transform="translate(83.789062 0)"/>
       <use xlink:href="#DejaVuSans-2e" transform="translate(147.412109 0)"/>
       <use xlink:href="#DejaVuSans-34" transform="translate(179.199219 0)"/>
      </g>
     </g>
    </g>
    <g id="xtick_7">
     <g id="line2d_18">
      <g>
       <use xlink:href="#m818a5473ad" x="111.118" y="260.12" style="stroke: #000000; stroke-width: 0.8"/>
      </g>
     </g>
     <g id="text_11">
      <!-- −0.2 -->
      <g transform="translate(98.976594 274.718437) scale(0.1 -0.1)">
       <use xlink:href="#DejaVuSans-2212"/>
       <use xlink:href="#DejaVuSans-30" transform="translate(83.789062 0)"/>
       <use xlink:href="#DejaVuSans-2e" transform="translate(147.412109 0)"/>
       <use xlink:href="#DejaVuSans-32" transform="translate(179.199219 0)"/>
      </g>
     </g>
    </g>
    <g id="xtick_8">
     <g id="line2d_19">
      <g>
       <use xlink:href="#m818a5473ad" x="158.57" y="260.12" style="stroke: #000000; stroke-width: 0.8"/>
      </g>
     </g>
     <g id="text_12">
      <!-- 0.0 -->
      <g transform="translate(150.618437 274.718437) scale(0.1 -0.1)">
       <use xlink:href="#DejaVuSans-30"/>
       <use xlink:href="#DejaVuSans-2e" transform="translate(63.623047 0)"/>
       <use xlink:href="#DejaVuSans-30" transform="translate(95.410156 0)"/>
      </g>
     </g>
    </g>
    <g id="xtick_9">
     <g id="line2d_20">
      <g>
       <use xlink:href="#m818a5473ad" x="206.022" y="260.12" style="stroke: #000000; stroke-width: 0.8"/>
      </g>
     </g>
     <g id="text_13">
      <!-- 0.2 -->
      <g transform="translate(198.070437 274.718437) scale(0.1 -0.1)">
       <use xlink:href="#DejaVuSans-30"/>
       <use xlink:href="#DejaVuSans-2e" transform="translate(63.623047 0)"/>
       <use xlink:href="#DejaVuSans-32" transform="translate(95.410156 0)"/>
      </g>
     </g>
    </g>
    <g id="xtick_10">
     <g id="line2d_21">
      <g>
       <use xlink:href="#m818a5473ad" x="253.474" y="260.12" style="stroke: #000000; stroke-width: 0.8"/>
      </g>
     </g>
     <g id="text_14">
      <!-- 0.4 -->
      <g transform="translate(245.522437 274.718437) scale(0.1 -0.1)">
       <use xlink:href="#DejaVuSans-30"/>
       <use xlink:href="#DejaVuSans-2e" transform="translate(63.623047 0)"/>
       <use xlink:href="#DejaVuSans-34" transform="translate(95.410156 0)"/>
      </g>
     </g>
    </g>
   </g>
   <g id="matplotlib.axis_4">
    <g id="ytick_4">
     <g id="line2d_22">
      <g>
       <use xlink:href="#m9053883e05" x="39.94" y="249.821472" style="stroke: #000000; stroke-width: 0.8"/>
      </g>
     </g>
     <g id="text_15">
      <!-- −30 -->
      <g transform="translate(11.835312 253.620691) scale(0.1 -0.1)">
       <defs>
        <path id="DejaVuSans-33" d="M 2597 2516 
Q 3050 2419 3304 2112 
Q 3559 1806 3559 1356 
Q 3559 666 3084 287 
Q 2609 -91 1734 -91 
Q 1441 -91 1130 -33 
Q 819 25 488 141 
L 488 750 
Q 750 597 1062 519 
Q 1375 441 1716 441 
Q 2309 441 2620 675 
Q 2931 909 2931 1356 
Q 2931 1769 2642 2001 
Q 2353 2234 1838 2234 
L 1294 2234 
L 1294 2753 
L 1863 2753 
Q 2328 2753 2575 2939 
Q 2822 3125 2822 3475 
Q 2822 3834 2567 4026 
Q 2313 4219 1838 4219 
Q 1578 4219 1281 4162 
Q 984 4106 628 3988 
L 628 4550 
Q 988 4650 1302 4700 
Q 1616 4750 1894 4750 
Q 2613 4750 3031 4423 
Q 3450 4097 3450 3541 
Q 3450 3153 3228 2886 
Q 3006 2619 2597 2516 
z
" transform="scale(0.015625)"/>
       </defs>
       <use xlink:href="#DejaVuSans-2212"/>
       <use xlink:href="#DejaVuSans-33" transform="translate(83.789062 0)"/>
       <use xlink:href="#DejaVuSans-30" transform="translate(147.412109 0)"/>
      </g>
     </g>
    </g>
    <g id="ytick_5">
     <g id="line2d_23">
      <g>
       <use xlink:href="#m9053883e05" x="39.94" y="218.010666" style="stroke: #000000; stroke-width: 0.8"/>
      </g>
     </g>
     <g id="text_16">
      <!-- −20 -->
      <g transform="translate(11.835312 221.809884) scale(0.1 -0.1)">
       <use xlink:href="#DejaVuSans-2212"/>
       <use xlink:href="#DejaVuSans-32" transform="translate(83.789062 0)"/>
       <use xlink:href="#DejaVuSans-30" transform="translate(147.412109 0)"/>
      </g>
     </g>
    </g>
    <g id="ytick_6">
     <g id="line2d_24">
      <g>
       <use xlink:href="#m9053883e05" x="39.94" y="186.199859" style="stroke: #000000; stroke-width: 0.8"/>
      </g>
     </g>
     <g id="text_17">
      <!-- −10 -->
      <g transform="translate(11.835312 189.999078) scale(0.1 -0.1)">
       <use xlink:href="#DejaVuSans-2212"/>
       <use xlink:href="#DejaVuSans-31" transform="translate(83.789062 0)"/>
       <use xlink:href="#DejaVuSans-30" transform="translate(147.412109 0)"/>
      </g>
     </g>
    </g>
   </g>
   <g id="line2d_25">
    <path d="M 39.94 224.098081 
L 58.958838 225.75559 
L 74.173908 227.293675 
L 87.487094 228.860578 
L 98.898397 230.419879 
L 109.358758 232.068283 
L 118.868176 233.782514 
L 128.377595 235.723881 
L 139.788898 238.306714 
L 146.445491 239.742469 
L 149.298317 240.172154 
L 151.2002 240.26569 
L 152.626613 240.115799 
L 153.577555 239.81578 
L 154.528497 239.219508 
L 155.003968 238.734863 
L 155.479439 238.048515 
L 155.95491 237.049686 
L 156.430381 235.529118 
L 156.905852 233.038386 
L 157.381323 228.411569 
L 157.856794 217.373591 
L 158.332265 161.44868 
L 158.807735 161.44868 
L 159.283206 217.373591 
L 159.758677 228.411569 
L 160.234148 233.038386 
L 160.709619 235.529118 
L 161.18509 237.049686 
L 161.660561 238.048515 
L 162.136032 238.734863 
L 163.086974 239.566582 
L 164.037916 239.992987 
L 164.988858 240.196598 
L 166.415271 240.265661 
L 168.317154 240.11804 
L 171.16998 239.652823 
L 176.40016 238.524992 
L 193.041643 234.821813 
L 202.551062 232.983845 
L 212.535952 231.29035 
L 222.996313 229.742614 
L 234.883086 228.216137 
L 248.196273 226.738537 
L 263.886814 225.232497 
L 277.2 224.098081 
L 277.2 224.098081 
" clip-path="url(#p0f7b9c0fdc)" style="fill: none; stroke-dasharray: 5.55,2.4; stroke-dashoffset: 0; stroke: #1f77b4; stroke-width: 1.5"/>
   </g>
   <g id="line2d_26">
    <path d="M 39.94 224.066721 
L 59.434309 225.750139 
L 75.12485 227.326514 
L 88.438036 228.888872 
L 99.849339 230.448118 
L 109.834228 232.025117 
L 118.868176 233.662839 
L 127.426653 235.437123 
L 135.034188 237.229304 
L 142.166253 239.123201 
L 148.822846 241.104352 
L 155.479439 243.318978 
L 158.332265 244.346667 
L 158.807735 244.346667 
L 164.988858 242.180723 
L 171.645451 240.086316 
L 178.777515 238.085559 
L 186.38505 236.194326 
L 194.468056 234.422306 
L 203.026533 232.773413 
L 212.535952 231.171456 
L 222.996313 229.639548 
L 234.883086 228.133309 
L 248.196273 226.676128 
L 263.886814 225.18911 
L 277.2 224.066721 
L 277.2 224.066721 
" clip-path="url(#p0f7b9c0fdc)" style="fill: none; stroke: #1f77b4; stroke-width: 1.5; stroke-linecap: square"/>
   </g>
   <g id="line2d_27">
    <path d="M 39.94 180.544629 
L 49.92489 181.81443 
L 57.532425 182.993322 
L 63.238076 184.097303 
L 67.041844 185.030274 
L 69.894669 185.921799 
L 72.272024 186.8918 
L 74.173908 187.93584 
L 75.600321 188.998011 
L 76.551263 189.93034 
L 77.502204 191.155994 
L 78.453146 192.871084 
L 78.928617 194.027557 
L 79.404088 195.498148 
L 79.879559 197.441625 
L 80.35503 200.145617 
L 80.830501 204.190658 
L 81.305972 210.950348 
L 81.781443 224.64807 
L 82.256914 267.711342 
L 82.367898 -1 
M 83.153368 -1 
L 83.207856 113.219074 
L 83.683327 147.922833 
L 84.158798 160.081554 
L 84.634269 166.305385 
L 85.109739 170.104979 
L 85.58521 172.678306 
L 86.536152 175.969838 
L 87.487094 178.016711 
L 88.438036 179.43849 
L 89.388978 180.502533 
L 90.815391 181.704407 
L 92.241804 182.623623 
L 94.143687 183.595292 
L 96.996513 184.751021 
L 100.800281 186.010441 
L 106.981403 187.778867 
L 129.804008 194.115694 
L 143.592665 198.091583 
L 146.445491 198.695322 
L 148.347375 198.930524 
L 149.773788 198.945265 
L 151.2002 198.721886 
L 152.151142 198.35686 
L 153.102084 197.709083 
L 154.053026 196.595011 
L 154.528497 195.758476 
L 155.003968 194.635133 
L 155.479439 193.091641 
L 155.95491 190.897667 
L 156.430381 187.618118 
L 156.905852 182.320628 
L 157.381323 172.581005 
L 157.856794 149.510486 
L 158.332265 33.11002 
L 158.807735 33.11002 
L 159.283206 149.510486 
L 159.758677 172.581005 
L 160.234148 182.320628 
L 160.709619 187.618118 
L 161.18509 190.897667 
L 161.660561 193.091641 
L 162.136032 194.635133 
L 162.611503 195.758476 
L 163.562445 197.227273 
L 164.513387 198.077031 
L 165.464329 198.567205 
L 166.415271 198.83137 
L 167.841683 198.961015 
L 169.743567 198.836442 
L 172.120922 198.420105 
L 175.924689 197.470218 
L 183.056754 195.388178 
L 196.36994 191.523413 
L 219.192545 185.087619 
L 222.045371 184.010991 
L 224.422725 182.888431 
L 226.324609 181.704407 
L 227.751022 180.502533 
L 228.701964 179.43849 
L 229.652906 178.016711 
L 230.603848 175.969838 
L 231.079319 174.545753 
L 231.55479 172.678306 
L 232.030261 170.104979 
L 232.505731 166.305385 
L 232.981202 160.081554 
L 233.456673 147.922833 
L 233.932144 113.219074 
L 233.986632 -1 
M 234.772102 -1 
L 234.883086 267.711342 
L 235.358557 224.64807 
L 235.834028 210.950348 
L 236.309499 204.190658 
L 236.78497 200.145617 
L 237.260441 197.441625 
L 237.735912 195.498148 
L 238.686854 192.871084 
L 239.637796 191.155994 
L 240.588737 189.93034 
L 241.539679 188.998011 
L 242.966092 187.93584 
L 244.867976 186.8918 
L 247.245331 185.921799 
L 250.098156 185.030274 
L 253.901924 184.097303 
L 259.132104 183.076201 
L 265.788697 182.017921 
L 274.822645 180.82623 
L 277.2 180.544629 
L 277.2 180.544629 
" clip-path="url(#p0f7b9c0fdc)" style="fill: none; stroke-dasharray: 5.55,2.4; stroke-dashoffset: 0; stroke: #ff7f0e; stroke-width: 1.5"/>
   </g>
   <g id="line2d_28">
    <path d="M 39.94 180.572154 
L 49.449419 181.799696 
L 56.581483 182.918292 
L 62.287134 184.032071 
L 66.090902 184.971631 
L 68.943727 185.862429 
L 71.321082 186.816779 
L 73.222966 187.818924 
L 74.649379 188.805603 
L 76.075792 190.135484 
L 77.026733 191.338659 
L 77.977675 192.971343 
L 78.928617 195.35447 
L 79.404088 197.027997 
L 79.879559 199.236709 
L 80.35503 202.301351 
L 80.830501 206.863248 
L 81.305972 214.418235 
L 81.781443 229.450767 
L 82.256914 274.346599 
L 82.257072 289 
M 83.205764 289 
L 83.207856 94.641295 
L 83.683327 139.813462 
L 84.158798 154.899047 
L 84.634269 162.474822 
L 85.109739 167.048776 
L 85.58521 170.122554 
L 86.060681 172.339468 
L 87.011623 175.346062 
L 87.962565 177.315675 
L 88.913507 178.72787 
L 89.864449 179.806426 
L 91.290862 181.043457 
L 92.717275 181.999398 
L 94.619158 183.014658 
L 96.996513 184.038744 
L 100.32481 185.223772 
L 105.55499 186.811542 
L 131.705892 194.377113 
L 138.837956 196.81755 
L 145.019078 199.159109 
L 150.724729 201.542509 
L 156.430381 204.17255 
L 158.332265 205.110061 
L 158.807735 205.110061 
L 164.037916 202.606422 
L 169.743567 200.124371 
L 175.924689 197.690958 
L 182.581283 195.323068 
L 189.713347 193.024553 
L 198.271824 190.510199 
L 217.766132 184.905448 
L 221.094429 183.653172 
L 223.471784 182.535781 
L 225.373667 181.386649 
L 226.80008 180.259927 
L 227.751022 179.299862 
L 228.701964 178.073967 
L 229.652906 176.421525 
L 230.603848 174.021096 
L 231.079319 172.339468 
L 231.55479 170.122554 
L 232.030261 167.048776 
L 232.505731 162.474822 
L 232.981202 154.899047 
L 233.456673 139.813462 
L 233.932144 94.641295 
L 233.934236 289 
M 234.882928 289 
L 234.883086 274.346599 
L 235.358557 229.450767 
L 235.834028 214.418235 
L 236.309499 206.863248 
L 236.78497 202.301351 
L 237.260441 199.236709 
L 237.735912 197.027997 
L 238.686854 194.037902 
L 239.637796 192.086723 
L 240.588737 190.695729 
L 241.539679 189.641464 
L 242.966092 188.446973 
L 244.392505 187.541107 
L 246.294389 186.604567 
L 248.671743 185.698393 
L 252.00004 184.715536 
L 256.279279 183.727504 
L 261.98493 182.675493 
L 269.116994 181.599871 
L 277.2 180.572154 
L 277.2 180.572154 
" clip-path="url(#p0f7b9c0fdc)" style="fill: none; stroke: #ff7f0e; stroke-width: 1.5; stroke-linecap: square"/>
   </g>
   <g id="line2d_29">
    <path d="M 39.94 224.753967 
L 57.056954 225.980983 
L 71.796553 227.25895 
L 84.634269 228.592561 
L 96.045571 229.997274 
L 106.505932 231.50789 
L 116.015351 233.100577 
L 125.049299 234.831625 
L 134.558717 236.882586 
L 146.920962 239.588848 
L 149.773788 239.974353 
L 151.675671 240.00075 
L 153.102084 239.747366 
L 154.053026 239.31877 
L 154.528497 238.970124 
L 155.003968 238.483394 
L 155.479439 237.794196 
L 155.95491 236.791306 
L 156.430381 235.264631 
L 156.905852 232.763953 
L 157.381323 228.118688 
L 157.856794 217.036669 
L 158.332265 160.888282 
L 158.807735 160.888282 
L 159.283206 217.036669 
L 159.758677 228.118688 
L 160.234148 232.763953 
L 160.709619 235.264631 
L 161.18509 236.791306 
L 161.660561 237.794196 
L 162.136032 238.483394 
L 163.086974 239.31877 
L 164.037916 239.747366 
L 164.988858 239.952433 
L 166.415271 240.023022 
L 168.317154 239.877006 
L 171.16998 239.414338 
L 176.40016 238.293454 
L 192.090701 234.831625 
L 201.124649 233.100577 
L 210.634068 231.50789 
L 220.618958 230.060992 
L 231.55479 228.701069 
L 243.917034 227.395956 
L 257.705691 226.171532 
L 273.396232 225.006727 
L 277.2 224.753967 
L 277.2 224.753967 
" clip-path="url(#p0f7b9c0fdc)" style="fill: none; stroke-dasharray: 5.55,2.4; stroke-dashoffset: 0; stroke: #2ca02c; stroke-width: 1.5"/>
   </g>
   <g id="line2d_30">
    <path d="M 39.94 224.722129 
L 57.056954 225.932946 
L 71.796553 227.191862 
L 84.634269 228.505066 
L 96.045571 229.890267 
L 106.505932 231.386033 
L 116.015351 232.976266 
L 124.573828 234.633588 
L 132.656834 236.431829 
L 139.788898 238.237217 
L 146.445491 240.134244 
L 153.102084 242.262966 
L 158.807735 244.116696 
L 164.988858 241.943614 
L 171.645451 239.849697 
L 178.302044 237.983557 
L 185.434108 236.207299 
L 193.041643 234.535224 
L 201.60012 232.890844 
L 210.634068 231.386033 
L 220.618958 229.953199 
L 231.55479 228.611957 
L 243.917034 227.326761 
L 257.705691 226.120759 
L 273.871703 224.940023 
L 277.2 224.722129 
L 277.2 224.722129 
" clip-path="url(#p0f7b9c0fdc)" style="fill: none; stroke: #2ca02c; stroke-width: 1.5; stroke-linecap: square"/>
   </g>
   <g id="line2d_31">
    <path d="M 39.94 181.229948 
L 48.498477 182.433145 
L 55.15507 183.575539 
L 60.385251 184.688873 
L 64.189018 185.701492 
L 67.041844 186.647171 
L 69.419198 187.631353 
L 71.321082 188.620033 
L 73.222966 189.893819 
L 74.649379 191.146574 
L 75.600321 192.200544 
L 76.551263 193.514426 
L 77.502204 195.214075 
L 78.453146 197.52284 
L 79.404088 200.878685 
L 79.879559 203.216914 
L 80.35503 206.273505 
L 80.830501 210.452969 
L 81.305972 216.533938 
L 81.781443 226.231798 
L 82.256914 244.213352 
L 82.729895 289 
M 83.450432 289 
L 83.668873 -1 
M 83.757816 -1 
L 84.158798 102.293329 
L 84.634269 133.259836 
L 85.109739 147.414105 
L 85.58521 155.544599 
L 86.060681 160.835822 
L 86.536152 164.564014 
L 87.487094 169.493991 
L 88.438036 172.634019 
L 89.388978 174.832271 
L 90.33992 176.474566 
L 91.290862 177.761639 
L 92.717275 179.26449 
L 94.143687 180.43674 
L 96.045571 181.681013 
L 98.422926 182.922822 
L 101.275752 184.143737 
L 105.079519 185.518868 
L 110.78517 187.319221 
L 125.52477 191.620701 
L 145.019078 197.261873 
L 147.871904 197.788282 
L 149.773788 197.912882 
L 151.2002 197.773899 
L 152.151142 197.491142 
L 153.102084 196.959427 
L 154.053026 196.016887 
L 154.528497 195.299269 
L 155.003968 194.3288 
L 155.479439 192.98787 
L 155.95491 191.073321 
L 156.430381 188.201385 
L 156.905852 183.54968 
L 157.381323 174.979974 
L 157.856794 154.65202 
L 158.332265 52.003405 
L 158.807735 52.003405 
L 159.283206 154.65202 
L 159.758677 174.979974 
L 160.234148 183.54968 
L 160.709619 188.201385 
L 161.18509 191.073321 
L 161.660561 192.98787 
L 162.136032 194.3288 
L 162.611503 195.299269 
L 163.562445 196.55445 
L 164.513387 197.26409 
L 165.464329 197.657015 
L 166.890741 197.89549 
L 168.317154 197.883257 
L 170.219038 197.645505 
L 173.071864 197.036144 
L 177.826573 195.73355 
L 209.207655 186.444438 
L 214.437836 184.684734 
L 217.766132 183.355158 
L 220.143487 182.210443 
L 222.045371 181.094965 
L 223.471784 180.07413 
L 224.898196 178.80825 
L 226.324609 177.15396 
L 227.275551 175.707615 
L 228.226493 173.820557 
L 229.177435 171.218302 
L 229.652906 169.493991 
L 230.128377 167.34029 
L 230.603848 164.564014 
L 231.079319 160.835822 
L 231.55479 155.544599 
L 232.030261 147.414105 
L 232.505731 133.259836 
L 232.981202 102.293329 
L 233.382184 -1 
M 233.471127 -1 
L 233.689568 289 
M 234.410105 289 
L 234.883086 244.213352 
L 235.358557 226.231798 
L 235.834028 216.533938 
L 236.309499 210.452969 
L 236.78497 206.273505 
L 237.735912 200.878685 
L 238.686854 197.52284 
L 239.637796 195.214075 
L 240.588737 193.514426 
L 241.539679 192.200544 
L 242.966092 190.691971 
L 244.392505 189.540411 
L 246.294389 188.351123 
L 248.196273 187.415737 
L 250.573627 186.474639 
L 253.901924 185.426469 
L 257.705691 184.466769 
L 262.935872 183.396966 
L 269.592465 182.287219 
L 277.2 181.229948 
L 277.2 181.229948 
" clip-path="url(#p0f7b9c0fdc)" style="fill: none; stroke-dasharray: 5.55,2.4; stroke-dashoffset: 0; stroke: #d62728; stroke-width: 1.5"/>
   </g>
   <g id="line2d_32">
    <path d="M 39.94 181.253333 
L 48.498477 182.47407 
L 55.15507 183.641157 
L 60.385251 184.787359 
L 64.189018 185.837731 
L 67.041844 186.825053 
L 69.419198 187.858297 
L 71.321082 188.901088 
L 72.747495 189.875236 
L 74.173908 191.097479 
L 75.600321 192.702473 
L 76.551263 194.102406 
L 77.502204 195.914641 
L 78.453146 198.376451 
L 79.404088 201.951309 
L 79.879559 204.438132 
L 80.35503 207.682816 
L 80.830501 212.106897 
L 81.305972 218.515914 
L 81.781443 228.665638 
L 82.256914 247.249237 
L 82.69603 289 
M 83.418749 289 
L 83.637483 -1 
M 83.871921 -1 
L 84.158798 91.453012 
L 84.634269 127.27885 
L 85.109739 143.290924 
L 85.58521 152.386051 
L 86.060681 158.263962 
L 86.536152 162.385214 
L 87.487094 167.806916 
L 88.438036 171.240961 
L 89.388978 173.634038 
L 90.33992 175.414446 
L 91.290862 176.804202 
L 92.717275 178.419161 
L 94.143687 179.671559 
L 96.045571 180.992168 
L 98.422926 182.299451 
L 101.275752 183.573066 
L 105.079519 184.993768 
L 110.309699 186.690276 
L 123.147415 190.521013 
L 132.656834 193.496818 
L 139.788898 195.947175 
L 146.445491 198.468245 
L 152.626613 201.058594 
L 158.807735 203.701834 
L 164.513387 201.058594 
L 170.219038 198.658394 
L 176.40016 196.292204 
L 183.532224 193.810769 
L 191.61523 191.241778 
L 213.962365 184.312253 
L 217.290661 182.966566 
L 219.668016 181.811102 
L 221.5699 180.690477 
L 223.471784 179.284936 
L 224.898196 177.929896 
L 225.849138 176.804202 
L 226.80008 175.414446 
L 227.751022 173.634038 
L 228.701964 171.240961 
L 229.652906 167.806916 
L 230.128377 165.442569 
L 230.603848 162.385214 
L 231.079319 158.263962 
L 231.55479 152.386051 
L 232.030261 143.290924 
L 232.505731 127.27885 
L 232.981202 91.453012 
L 233.268079 -1 
M 233.502517 -1 
L 233.721251 289 
M 234.44397 289 
L 234.883086 247.249237 
L 235.358557 228.665638 
L 235.834028 218.515914 
L 236.309499 212.106897 
L 236.78497 207.682816 
L 237.735912 201.951309 
L 238.686854 198.376451 
L 239.637796 195.914641 
L 240.588737 194.102406 
L 241.539679 192.702473 
L 242.966092 191.097479 
L 244.392505 189.875236 
L 246.294389 188.617045 
L 248.196273 187.631485 
L 250.573627 186.644494 
L 253.426453 185.692469 
L 257.23022 184.671286 
L 261.98493 183.641157 
L 268.166052 182.549763 
L 275.773587 181.440847 
L 277.2 181.253333 
L 277.2 181.253333 
" clip-path="url(#p0f7b9c0fdc)" style="fill: none; stroke: #d62728; stroke-width: 1.5; stroke-linecap: square"/>
   </g>
   <g id="patch_8">
    <path d="M 39.94 260.12 
L 39.94 165.48 
" style="fill: none; stroke: #000000; stroke-width: 0.8; stroke-linejoin: miter; stroke-linecap: square"/>
   </g>
   <g id="patch_9">
    <path d="M 277.2 260.12 
L 277.2 165.48 
" style="fill: none; stroke: #000000; stroke-width: 0.8; stroke-linejoin: miter; stroke-linecap: square"/>
   </g>
   <g id="patch_10">
    <path d="M 39.94 260.12 
L 277.2 260.12 
" style="fill: none; stroke: #000000; stroke-width: 0.8; stroke-linejoin: miter; stroke-linecap: square"/>
   </g>
   <g id="patch_11">
    <path d="M 39.94 165.48 
L 277.2 165.48 
" style="fill: none; stroke: #000000; stroke-width: 0.8; stroke-linejoin: miter; stroke-linecap: square"/>
   </g>
   <g id="text_18">
    <!-- Atom 1: Local Energy -->
    <g transform="translate(94.58375 159.48) scale(0.12 -0.12)">
     <defs>
      <path id="DejaVuSans-4c" d="M 628 4666 
L 1259 4666 
L 1259 531 
L 3531 531 
L 3531 0 
L 628 0 
L 628 4666 
z
" transform="scale(0.015625)"/>
      <path id="DejaVuSans-6c" d="M 603 4863 
L 1178 4863 
L 1178 0 
L 603 0 
L 603 4863 
z
" transform="scale(0.015625)"/>
      <path id="DejaVuSans-45" d="M 628 4666 
L 3578 4666 
L 3578 4134 
L 1259 4134 
L 1259 2753 
L 3481 2753 
L 3481 2222 
L 1259 2222 
L 1259 531 
L 3634 531 
L 3634 0 
L 628 0 
L 628 4666 
z
" transform="scale(0.015625)"/>
      <path id="DejaVuSans-72" d="M 2631 2963 
Q 2534 3019 2420 3045 
Q 2306 3072 2169 3072 
Q 1681 3072 1420 2755 
Q 1159 2438 1159 1844 
L 1159 0 
L 581 0 
L 581 3500 
L 1159 3500 
L 1159 2956 
Q 1341 3275 1631 3429 
Q 1922 3584 2338 3584 
Q 2397 3584 2469 3576 
Q 2541 3569 2628 3553 
L 2631 2963 
z
" transform="scale(0.015625)"/>
      <path id="DejaVuSans-67" d="M 2906 1791 
Q 2906 2416 2648 2759 
Q 2391 3103 1925 3103 
Q 1463 3103 1205 2759 
Q 947 2416 947 1791 
Q 947 1169 1205 825 
Q 1463 481 1925 481 
Q 2391 481 2648 825 
Q 2906 1169 2906 1791 
z
M 3481 434 
Q 3481 -459 3084 -895 
Q 2688 -1331 1869 -1331 
Q 1566 -1331 1297 -1286 
Q 1028 -1241 775 -1147 
L 775 -588 
Q 1028 -725 1275 -790 
Q 1522 -856 1778 -856 
Q 2344 -856 2625 -561 
Q 2906 -266 2906 331 
L 2906 616 
Q 2728 306 2450 153 
Q 2172 0 1784 0 
Q 1141 0 747 490 
Q 353 981 353 1791 
Q 353 2603 747 3093 
Q 1141 3584 1784 3584 
Q 2172 3584 2450 3431 
Q 2728 3278 2906 2969 
L 2906 3500 
L 3481 3500 
L 3481 434 
z
" transform="scale(0.015625)"/>
      <path id="DejaVuSans-79" d="M 2059 -325 
Q 1816 -950 1584 -1140 
Q 1353 -1331 966 -1331 
L 506 -1331 
L 506 -850 
L 844 -850 
Q 1081 -850 1212 -737 
Q 1344 -625 1503 -206 
L 1606 56 
L 191 3500 
L 800 3500 
L 1894 763 
L 2988 3500 
L 3597 3500 
L 2059 -325 
z
" transform="scale(0.015625)"/>
     </defs>
     <use xlink:href="#DejaVuSans-41"/>
     <use xlink:href="#DejaVuSans-74" transform="translate(66.658203 0)"/>
     <use xlink:href="#DejaVuSans-6f" transform="translate(105.867188 0)"/>
     <use xlink:href="#DejaVuSans-6d" transform="translate(167.048828 0)"/>
     <use xlink:href="#DejaVuSans-20" transform="translate(264.460938 0)"/>
     <use xlink:href="#DejaVuSans-31" transform="translate(296.248047 0)"/>
     <use xlink:href="#DejaVuSans-3a" transform="translate(359.871094 0)"/>
     <use xlink:href="#DejaVuSans-20" transform="translate(393.5625 0)"/>
     <use xlink:href="#DejaVuSans-4c" transform="translate(425.349609 0)"/>
     <use xlink:href="#DejaVuSans-6f" transform="translate(479.3125 0)"/>
     <use xlink:href="#DejaVuSans-63" transform="translate(540.494141 0)"/>
     <use xlink:href="#DejaVuSans-61" transform="translate(595.474609 0)"/>
     <use xlink:href="#DejaVuSans-6c" transform="translate(656.753906 0)"/>
     <use xlink:href="#DejaVuSans-20" transform="translate(684.537109 0)"/>
     <use xlink:href="#DejaVuSans-45" transform="translate(716.324219 0)"/>
     <use xlink:href="#DejaVuSans-6e" transform="translate(779.507812 0)"/>
     <use xlink:href="#DejaVuSans-65" transform="translate(842.886719 0)"/>
     <use xlink:href="#DejaVuSans-72" transform="translate(904.410156 0)"/>
     <use xlink:href="#DejaVuSans-67" transform="translate(943.773438 0)"/>
     <use xlink:href="#DejaVuSans-79" transform="translate(1007.25 0)"/>
    </g>
   </g>
  </g>
 </g>
 <defs>
  <clipPath id="p45232e4628">
   <rect x="39.94" y="26.88" width="237.26" height="94.64"/>
  </clipPath>
  <clipPath id="p0f7b9c0fdc">
   <rect x="39.94" y="165.48" width="237.26" height="94.64"/>
  </clipPath>
 </defs>
</svg>
