<?xml version="1.0" encoding="utf-8" standalone="no"?>
<!DOCTYPE svg PUBLIC "-//W3C//DTD SVG 1.1//EN"
  "http://www.w3.org/Graphics/SVG/1.1/DTD/svg11.dtd">
<svg xmlns:xlink="http://www.w3.org/1999/xlink" width="288pt" height="288pt" viewBox="0 0 288 288" xmlns="http://www.w3.org/2000/svg" version="1.1">
 <metadata>
  <rdf:RDF xmlns:dc="http://purl.org/dc/elements/1.1/" xmlns:cc="http://creativecommons.org/ns#" xmlns:rdf="http://www.w3.org/1999/02/22-rdf-syntax-ns#">
   <cc:Work>
    <dc:type rdf:resource="http://purl.org/dc/dcmitype/StillImage"/>
    <dc:date>2025-09-10T16:41:36.556749</dc:date>
    <dc:format>image/svg+xml</dc:format>
    <dc:creator>
     <cc:Agent>
      <dc:title>Matplotlib v3.9.4, https://matplotlib.org/</dc:title>
     </cc:Agent>
    </dc:creator>
   </cc:Work>
  </rdf:RDF>
 </metadata>
 <defs>
  <style type="text/css">*{stroke-linejoin: round; stroke-linecap: butt}</style>
 </defs>
 <g id="figure_1">
  <g id="patch_1">
   <path d="M 0 288 
L 288 288 
L 288 0 
L 0 0 
z
" style="fill: #ffffff"/>
  </g>
  <g id="axes_1">
   <g id="patch_2">
    <path d="M 36 135.36 
L 259.2 135.36 
L 259.2 34.56 
L 36 34.56 
z
" style="fill: #ffffff"/>
   </g>
   <g id="matplotlib.axis_1">
    <g id="xtick_1">
     <g id="line2d_1">
      <defs>
       <path id="mdb6b901234" d="M 0 0 
L 0 3.5 
" style="stroke: #000000; stroke-width: 0.8"/>
      </defs>
      <g>
       <use xlink:href="#mdb6b901234" x="58.32" y="135.36" style="stroke: #000000; stroke-width: 0.8"/>
      </g>
     </g>
     <g id="text_1">
      <!-- −0.4 -->
      <g transform="translate(46.178594 149.958437) scale(0.1 -0.1)">
       <defs>
        <path id="DejaVuSans-2212" d="M 678 2272 
L 4684 2272 
L 4684 1741 
L 678 1741 
L 678 2272 
z
" transform="scale(0.015625)"/>
        <path id="DejaVuSans-30" d="M 2034 4250 
Q 1547 4250 1301 3770 
Q 1056 3291 1056 2328 
Q 1056 1369 1301 889 
Q 1547 409 2034 409 
Q 2525 409 2770 889 
Q 3016 1369 3016 2328 
Q 3016 3291 2770 3770 
Q 2525 4250 2034 4250 
z
M 2034 4750 
Q 2819 4750 3233 4129 
Q 3647 3509 3647 2328 
Q 3647 1150 3233 529 
Q 2819 -91 2034 -91 
Q 1250 -91 836 529 
Q 422 1150 422 2328 
Q 422 3509 836 4129 
Q 1250 4750 2034 4750 
z
" transform="scale(0.015625)"/>
        <path id="DejaVuSans-2e" d="M 684 794 
L 1344 794 
L 1344 0 
L 684 0 
L 684 794 
z
" transform="scale(0.015625)"/>
        <path id="DejaVuSans-34" d="M 2419 4116 
L 825 1625 
L 2419 1625 
L 2419 4116 
z
M 2253 4666 
L 3047 4666 
L 3047 1625 
L 3713 1625 
L 3713 1100 
L 3047 1100 
L 3047 0 
L 2419 0 
L 2419 1100 
L 313 1100 
L 313 1709 
L 2253 4666 
z
" transform="scale(0.015625)"/>
       </defs>
       <use xlink:href="#DejaVuSans-2212"/>
       <use xlink:href="#DejaVuSans-30" x="83.789062"/>
       <use xlink:href="#DejaVuSans-2e" x="147.412109"/>
       <use xlink:href="#DejaVuSans-34" x="179.199219"/>
      </g>
     </g>
    </g>
    <g id="xtick_2">
     <g id="line2d_2">
      <g>
       <use xlink:href="#mdb6b901234" x="102.96" y="135.36" style="stroke: #000000; stroke-width: 0.8"/>
      </g>
     </g>
     <g id="text_2">
      <!-- −0.2 -->
      <g transform="translate(90.818594 149.958437) scale(0.1 -0.1)">
       <defs>
        <path id="DejaVuSans-32" d="M 1228 531 
L 3431 531 
L 3431 0 
L 469 0 
L 469 531 
Q 828 903 1448 1529 
Q 2069 2156 2228 2338 
Q 2531 2678 2651 2914 
Q 2772 3150 2772 3378 
Q 2772 3750 2511 3984 
Q 2250 4219 1831 4219 
Q 1534 4219 1204 4116 
Q 875 4013 500 3803 
L 500 4441 
Q 881 4594 1212 4672 
Q 1544 4750 1819 4750 
Q 2544 4750 2975 4387 
Q 3406 4025 3406 3419 
Q 3406 3131 3298 2873 
Q 3191 2616 2906 2266 
Q 2828 2175 2409 1742 
Q 1991 1309 1228 531 
z
" transform="scale(0.015625)"/>
       </defs>
       <use xlink:href="#DejaVuSans-2212"/>
       <use xlink:href="#DejaVuSans-30" x="83.789062"/>
       <use xlink:href="#DejaVuSans-2e" x="147.412109"/>
       <use xlink:href="#DejaVuSans-32" x="179.199219"/>
      </g>
     </g>
    </g>
    <g id="xtick_3">
     <g id="line2d_3">
      <g>
       <use xlink:href="#mdb6b901234" x="147.6" y="135.36" style="stroke: #000000; stroke-width: 0.8"/>
      </g>
     </g>
     <g id="text_3">
      <!-- 0.0 -->
      <g transform="translate(139.648438 149.958437) scale(0.1 -0.1)">
       <use xlink:href="#DejaVuSans-30"/>
       <use xlink:href="#DejaVuSans-2e" x="63.623047"/>
       <use xlink:href="#DejaVuSans-30" x="95.410156"/>
      </g>
     </g>
    </g>
    <g id="xtick_4">
     <g id="line2d_4">
      <g>
       <use xlink:href="#mdb6b901234" x="192.24" y="135.36" style="stroke: #000000; stroke-width: 0.8"/>
      </g>
     </g>
     <g id="text_4">
      <!-- 0.2 -->
      <g transform="translate(184.288437 149.958437) scale(0.1 -0.1)">
       <use xlink:href="#DejaVuSans-30"/>
       <use xlink:href="#DejaVuSans-2e" x="63.623047"/>
       <use xlink:href="#DejaVuSans-32" x="95.410156"/>
      </g>
     </g>
    </g>
    <g id="xtick_5">
     <g id="line2d_5">
      <g>
       <use xlink:href="#mdb6b901234" x="236.88" y="135.36" style="stroke: #000000; stroke-width: 0.8"/>
      </g>
     </g>
     <g id="text_5">
      <!-- 0.4 -->
      <g transform="translate(228.928437 149.958437) scale(0.1 -0.1)">
       <use xlink:href="#DejaVuSans-30"/>
       <use xlink:href="#DejaVuSans-2e" x="63.623047"/>
       <use xlink:href="#DejaVuSans-34" x="95.410156"/>
      </g>
     </g>
    </g>
   </g>
   <g id="matplotlib.axis_2">
    <g id="ytick_1">
     <g id="line2d_6">
      <defs>
       <path id="mce5ad1f660" d="M 0 0 
L -3.5 0 
" style="stroke: #000000; stroke-width: 0.8"/>
      </defs>
      <g>
       <use xlink:href="#mce5ad1f660" x="36" y="128.50909" style="stroke: #000000; stroke-width: 0.8"/>
      </g>
     </g>
     <g id="text_6">
      <!-- 0.0 -->
      <g transform="translate(13.096875 132.308308) scale(0.1 -0.1)">
       <use xlink:href="#DejaVuSans-30"/>
       <use xlink:href="#DejaVuSans-2e" x="63.623047"/>
       <use xlink:href="#DejaVuSans-30" x="95.410156"/>
      </g>
     </g>
    </g>
    <g id="ytick_2">
     <g id="line2d_7">
      <g>
       <use xlink:href="#mce5ad1f660" x="36" y="106.017516" style="stroke: #000000; stroke-width: 0.8"/>
      </g>
     </g>
     <g id="text_7">
      <!-- 2.5 -->
      <g transform="translate(13.096875 109.816735) scale(0.1 -0.1)">
       <defs>
        <path id="DejaVuSans-35" d="M 691 4666 
L 3169 4666 
L 3169 4134 
L 1269 4134 
L 1269 2991 
Q 1406 3038 1543 3061 
Q 1681 3084 1819 3084 
Q 2600 3084 3056 2656 
Q 3513 2228 3513 1497 
Q 3513 744 3044 326 
Q 2575 -91 1722 -91 
Q 1428 -91 1123 -41 
Q 819 9 494 109 
L 494 744 
Q 775 591 1075 516 
Q 1375 441 1709 441 
Q 2250 441 2565 725 
Q 2881 1009 2881 1497 
Q 2881 1984 2565 2268 
Q 2250 2553 1709 2553 
Q 1456 2553 1204 2497 
Q 953 2441 691 2322 
L 691 4666 
z
" transform="scale(0.015625)"/>
       </defs>
       <use xlink:href="#DejaVuSans-32"/>
       <use xlink:href="#DejaVuSans-2e" x="63.623047"/>
       <use xlink:href="#DejaVuSans-35" x="95.410156"/>
      </g>
     </g>
    </g>
    <g id="ytick_3">
     <g id="line2d_8">
      <g>
       <use xlink:href="#mce5ad1f660" x="36" y="83.525942" style="stroke: #000000; stroke-width: 0.8"/>
      </g>
     </g>
     <g id="text_8">
      <!-- 5.0 -->
      <g transform="translate(13.096875 87.325161) scale(0.1 -0.1)">
       <use xlink:href="#DejaVuSans-35"/>
       <use xlink:href="#DejaVuSans-2e" x="63.623047"/>
       <use xlink:href="#DejaVuSans-30" x="95.410156"/>
      </g>
     </g>
    </g>
    <g id="ytick_4">
     <g id="line2d_9">
      <g>
       <use xlink:href="#mce5ad1f660" x="36" y="61.034368" style="stroke: #000000; stroke-width: 0.8"/>
      </g>
     </g>
     <g id="text_9">
      <!-- 7.5 -->
      <g transform="translate(13.096875 64.833587) scale(0.1 -0.1)">
       <defs>
        <path id="DejaVuSans-37" d="M 525 4666 
L 3525 4666 
L 3525 4397 
L 1831 0 
L 1172 0 
L 2766 4134 
L 525 4134 
L 525 4666 
z
" transform="scale(0.015625)"/>
       </defs>
       <use xlink:href="#DejaVuSans-37"/>
       <use xlink:href="#DejaVuSans-2e" x="63.623047"/>
       <use xlink:href="#DejaVuSans-35" x="95.410156"/>
      </g>
     </g>
    </g>
    <g id="ytick_5">
     <g id="line2d_10">
      <g>
       <use xlink:href="#mce5ad1f660" x="36" y="38.542794" style="stroke: #000000; stroke-width: 0.8"/>
      </g>
     </g>
     <g id="text_10">
      <!-- 10.0 -->
      <g transform="translate(6.734375 42.342013) scale(0.1 -0.1)">
       <defs>
        <path id="DejaVuSans-31" d="M 794 531 
L 1825 531 
L 1825 4091 
L 703 3866 
L 703 4441 
L 1819 4666 
L 2450 4666 
L 2450 531 
L 3481 531 
L 3481 0 
L 794 0 
L 794 531 
z
" transform="scale(0.015625)"/>
       </defs>
       <use xlink:href="#DejaVuSans-31"/>
       <use xlink:href="#DejaVuSans-30" x="63.623047"/>
       <use xlink:href="#DejaVuSans-2e" x="127.246094"/>
       <use xlink:href="#DejaVuSans-30" x="159.033203"/>
      </g>
     </g>
    </g>
   </g>
   <g id="line2d_11">
    <path d="M 36 125.262104 
L 44.4816 124.371633 
L 52.0704 123.36468 
L 59.2128 122.188593 
L 65.4624 120.93552 
L 71.2656 119.544936 
L 76.6224 118.029914 
L 81.5328 116.411309 
L 85.9968 114.718018 
L 90.4608 112.781046 
L 94.4784 110.799475 
L 98.496 108.560685 
L 102.0672 106.326716 
L 105.6384 103.83442 
L 109.2096 101.052577 
L 112.3344 98.353351 
L 115.4592 95.379069 
L 118.584 92.100259 
L 121.7088 88.484061 
L 124.8336 84.493797 
L 127.9584 80.088492 
L 130.6368 75.947576 
L 133.3152 71.4361 
L 135.9936 66.518722 
L 138.672 61.15643 
L 141.3504 55.30612 
L 144.0288 48.920122 
L 146.7072 41.94566 
L 147.6 39.480139 
L 150.2784 46.663451 
L 152.9568 53.23947 
L 155.6352 59.262806 
L 158.3136 64.782766 
L 160.992 69.843921 
L 163.6704 74.486598 
L 166.7952 79.422674 
L 169.92 83.890892 
L 173.0448 87.937832 
L 176.1696 91.605128 
L 179.2944 94.93004 
L 182.4192 97.945947 
L 185.544 100.68278 
L 189.1152 103.503206 
L 192.6864 106.029911 
L 196.2576 108.294588 
L 200.2752 110.564019 
L 204.2928 112.572593 
L 208.7568 114.535845 
L 213.2208 116.252014 
L 218.1312 117.892395 
L 223.488 119.427711 
L 229.2912 120.83684 
L 235.5408 122.106552 
L 242.2368 123.230812 
L 249.8256 124.264439 
L 258.3072 125.178386 
L 259.2 125.262104 
L 259.2 125.262104 
" clip-path="url(#pfb605f30bb)" style="fill: none; stroke-dasharray: 5.55,2.4; stroke-dashoffset: 0; stroke: #1f77b4; stroke-width: 1.5"/>
   </g>
   <g id="line2d_12">
    <path d="M 36 125.262755 
L 44.4816 124.372693 
L 52.0704 123.36632 
L 59.2128 122.191068 
L 65.4624 120.939067 
L 71.2656 119.54989 
L 76.6224 118.036658 
L 81.5328 116.420256 
L 85.9968 114.729586 
L 90.4608 112.796005 
L 94.4784 110.818327 
L 98.496 108.584443 
L 102.0672 106.355896 
L 105.6384 103.870261 
L 109.2096 101.096599 
L 112.3344 98.40605 
L 115.4592 95.442155 
L 118.584 92.17578 
L 121.7088 88.574466 
L 124.8336 84.602021 
L 127.9584 80.218046 
L 130.6368 76.09873 
L 133.3152 71.612455 
L 135.9936 66.724479 
L 138.672 61.396492 
L 141.3504 55.586206 
L 144.0288 49.246905 
L 146.7072 42.326927 
L 147.6 39.881515 
L 150.2784 47.00747 
L 152.9568 53.53433 
L 155.6352 59.51553 
L 158.3136 64.999376 
L 160.992 70.029578 
L 163.6704 74.645725 
L 166.7952 79.555601 
L 169.92 84.001933 
L 173.0448 88.03059 
L 176.1696 91.682614 
L 179.2944 94.994768 
L 182.4192 98.000018 
L 185.544 100.727948 
L 189.1152 103.53998 
L 192.6864 106.059851 
L 196.2576 108.318964 
L 200.2752 110.583362 
L 204.2928 112.587941 
L 208.7568 114.547715 
L 213.2208 116.261193 
L 218.1312 117.899314 
L 223.488 119.432794 
L 229.2912 120.840479 
L 235.5408 122.109092 
L 242.2368 123.232539 
L 249.8256 124.265555 
L 258.3072 125.17907 
L 259.2 125.262755 
L 259.2 125.262755 
" clip-path="url(#pfb605f30bb)" style="fill: none; stroke: #1f77b4; stroke-width: 1.5; stroke-linecap: square"/>
   </g>
   <g id="line2d_13">
    <path d="M 36 130.77787 
L 49.8384 130.288147 
L 61.8912 129.642373 
L 72.1584 128.878512 
L 81.5328 127.960375 
L 90.0144 126.902174 
L 97.6032 125.729884 
L 104.2992 124.481802 
L 110.5488 123.101695 
L 116.352 121.601139 
L 121.7088 119.997435 
L 126.6192 118.313971 
L 131.5296 116.39527 
L 135.9936 114.416926 
L 140.4576 112.183193 
L 144.4752 109.924045 
L 147.6 107.983296 
L 151.6176 110.448073 
L 155.6352 112.652059 
L 160.0992 114.831945 
L 164.5632 116.763151 
L 169.4736 118.636598 
L 174.384 120.28069 
L 179.7408 121.847125 
L 185.544 123.312951 
L 191.7936 124.661153 
L 198.4896 125.880307 
L 206.0784 127.025216 
L 214.1136 128.00965 
L 223.0416 128.878512 
L 233.3088 129.642373 
L 244.9152 130.26828 
L 257.8608 130.74012 
L 259.2 130.77787 
L 259.2 130.77787 
" clip-path="url(#pfb605f30bb)" style="fill: none; stroke-dasharray: 5.55,2.4; stroke-dashoffset: 0; stroke: #ff7f0e; stroke-width: 1.5"/>
   </g>
   <g id="line2d_14">
    <path d="M 36 130.778182 
L 49.8384 130.288838 
L 61.8912 129.643757 
L 72.1584 128.881012 
L 81.5328 127.964664 
L 90.0144 126.909163 
L 97.6032 125.740702 
L 104.2992 124.497708 
L 110.5488 123.12449 
L 116.352 121.632976 
L 121.7088 120.040773 
L 127.0656 118.208752 
L 131.976 116.286258 
L 136.44 114.306812 
L 140.904 112.075262 
L 144.9216 109.822009 
L 147.6 108.175706 
L 151.6176 110.60075 
L 155.6352 112.773208 
L 160.0992 114.925639 
L 164.5632 116.835611 
L 169.4736 118.691214 
L 174.8304 120.459956 
L 180.1872 121.997446 
L 185.9904 123.437844 
L 192.24 124.763993 
L 198.936 125.964217 
L 206.5248 127.092119 
L 214.56 128.062405 
L 223.488 128.919003 
L 233.7552 129.672063 
L 245.3616 130.288838 
L 258.7536 130.765812 
L 259.2 130.778182 
L 259.2 130.778182 
" clip-path="url(#pfb605f30bb)" style="fill: none; stroke: #ff7f0e; stroke-width: 1.5; stroke-linecap: square"/>
   </g>
   <g id="line2d_15">
    <path d="M 36 125.299456 
L 44.4816 124.407336 
L 52.0704 123.397565 
L 58.7664 122.298634 
L 65.016 121.057054 
L 70.8192 119.678797 
L 76.176 118.176895 
L 81.0864 116.572102 
L 85.5504 114.893151 
L 90.0144 112.972548 
L 94.032 111.007757 
L 98.0496 108.788031 
L 101.6208 106.573242 
L 105.192 104.102564 
L 108.7632 101.345148 
L 111.888 98.669941 
L 115.0128 95.722493 
L 118.1376 92.473708 
L 121.2624 88.891154 
L 124.3872 84.938643 
L 127.512 80.57575 
L 130.1904 76.475373 
L 132.8688 72.008764 
L 135.5472 67.141078 
L 138.2256 61.833856 
L 140.904 56.044613 
L 143.5824 49.726364 
L 146.2608 42.827102 
L 147.6 39.141818 
L 150.2784 46.352822 
L 152.9568 52.954741 
L 155.6352 59.002313 
L 158.3136 64.544965 
L 160.992 69.62737 
L 163.6704 74.289945 
L 166.7952 79.247636 
L 169.92 83.73586 
L 173.0448 87.8013 
L 176.1696 91.485687 
L 179.2944 94.826369 
L 182.4192 97.856807 
L 185.544 100.607008 
L 189.1152 103.44138 
L 192.6864 105.980704 
L 196.2576 108.256772 
L 200.2752 110.537655 
L 204.2928 112.556355 
L 208.7568 114.52944 
L 213.2208 116.254085 
L 218.1312 117.902383 
L 223.488 119.44484 
L 228.8448 120.759748 
L 234.648 121.967006 
L 241.344 123.12539 
L 248.4864 124.133332 
L 256.5216 125.041262 
L 259.2 125.299456 
L 259.2 125.299456 
" clip-path="url(#pfb605f30bb)" style="fill: none; stroke-dasharray: 5.55,2.4; stroke-dashoffset: 0; stroke: #2ca02c; stroke-width: 1.5"/>
   </g>
   <g id="line2d_16">
    <path d="M 36 125.300111 
L 44.4816 124.408405 
L 52.0704 123.399218 
L 58.7664 122.301066 
L 65.016 121.060538 
L 70.8192 119.683663 
L 76.176 118.183518 
L 81.0864 116.58089 
L 85.5504 114.904514 
L 90.0144 112.987241 
L 94.032 111.026274 
L 98.0496 108.811367 
L 101.6208 106.601904 
L 105.192 104.137768 
L 108.7632 101.388389 
L 111.888 98.721704 
L 115.0128 95.784458 
L 118.1376 92.547886 
L 121.2624 88.979953 
L 124.3872 85.044944 
L 127.512 80.703003 
L 130.1904 76.623841 
L 132.8688 72.181985 
L 135.5472 67.34318 
L 138.2256 62.069654 
L 140.904 56.319723 
L 143.5824 50.047342 
L 146.2608 43.201594 
L 147.6 39.546326 
L 150.2784 46.699527 
L 152.9568 53.251901 
L 155.6352 59.257009 
L 158.3136 64.763265 
L 160.992 69.814475 
L 163.6704 74.450313 
L 166.7952 79.381601 
L 169.92 83.847768 
L 173.0448 87.894782 
L 176.1696 91.563778 
L 179.2944 94.891603 
L 182.4192 97.9113 
L 185.544 100.652529 
L 189.1152 103.478441 
L 192.6864 106.010878 
L 196.2576 108.281338 
L 200.2752 110.557149 
L 204.2928 112.571823 
L 208.7568 114.541403 
L 213.2208 116.263336 
L 218.1312 117.909356 
L 223.488 119.449963 
L 228.8448 120.763512 
L 235.0944 122.054188 
L 241.7904 123.196568 
L 248.9328 124.190762 
L 256.968 125.086456 
L 259.2 125.300111 
L 259.2 125.300111 
" clip-path="url(#pfb605f30bb)" style="fill: none; stroke: #2ca02c; stroke-width: 1.5; stroke-linecap: square"/>
   </g>
   <g id="line2d_17">
    <path d="M 36 130.635311 
L 50.7312 130.150912 
L 63.2304 129.518292 
L 73.944 128.757929 
L 83.3184 127.87882 
L 91.8 126.867143 
L 99.3888 125.747545 
L 106.5312 124.46935 
L 112.7808 123.137503 
L 118.584 121.690018 
L 123.9408 120.143511 
L 129.2976 118.362163 
L 134.208 116.490451 
L 138.672 114.560582 
L 143.136 112.381493 
L 147.1536 110.177432 
L 147.6 109.916976 
L 151.6176 112.148535 
L 156.0816 114.35444 
L 160.5456 116.307762 
L 165.456 118.201968 
L 170.3664 119.863878 
L 175.7232 121.447146 
L 181.5264 122.928862 
L 187.776 124.292134 
L 194.472 125.525723 
L 202.0608 126.685489 
L 210.096 127.684479 
L 219.024 128.568622 
L 228.8448 129.319948 
L 240.0048 129.951973 
L 252.9504 130.458871 
L 259.2 130.635311 
L 259.2 130.635311 
" clip-path="url(#pfb605f30bb)" style="fill: none; stroke-dasharray: 5.55,2.4; stroke-dashoffset: 0; stroke: #d62728; stroke-width: 1.5"/>
   </g>
   <g id="line2d_18">
    <path d="M 36 130.63556 
L 50.7312 130.151493 
L 63.2304 129.519485 
L 73.944 128.76014 
L 83.3184 127.882611 
L 91.8 126.873322 
L 99.3888 125.757109 
L 106.5312 124.483779 
L 113.2272 123.055006 
L 119.0304 121.598924 
L 124.3872 120.044854 
L 129.744 118.256874 
L 134.6544 116.380606 
L 139.1184 114.448631 
L 143.5824 112.270328 
L 147.6 110.070464 
L 151.6176 112.270328 
L 156.0816 114.448631 
L 160.5456 116.380606 
L 165.456 118.256874 
L 170.8128 120.044854 
L 176.1696 121.598924 
L 181.9728 123.055006 
L 188.2224 124.396063 
L 194.9184 125.610599 
L 202.5072 126.753261 
L 210.5424 127.738038 
L 219.4704 128.609873 
L 229.7376 129.379812 
L 241.344 130.01527 
L 254.736 130.513625 
L 259.2 130.63556 
L 259.2 130.63556 
" clip-path="url(#pfb605f30bb)" style="fill: none; stroke: #d62728; stroke-width: 1.5; stroke-linecap: square"/>
   </g>
   <g id="patch_3">
    <path d="M 36 135.36 
L 36 34.56 
" style="fill: none; stroke: #000000; stroke-width: 0.8; stroke-linejoin: miter; stroke-linecap: square"/>
   </g>
   <g id="patch_4">
    <path d="M 259.2 135.36 
L 259.2 34.56 
" style="fill: none; stroke: #000000; stroke-width: 0.8; stroke-linejoin: miter; stroke-linecap: square"/>
   </g>
   <g id="patch_5">
    <path d="M 36 135.36 
L 259.2 135.36 
" style="fill: none; stroke: #000000; stroke-width: 0.8; stroke-linejoin: miter; stroke-linecap: square"/>
   </g>
   <g id="patch_6">
    <path d="M 36 34.56 
L 259.2 34.56 
" style="fill: none; stroke: #000000; stroke-width: 0.8; stroke-linejoin: miter; stroke-linecap: square"/>
   </g>
  </g>
  <g id="axes_2">
   <g id="patch_7">
    <path d="M 36 256.32 
L 259.2 256.32 
L 259.2 155.52 
L 36 155.52 
z
" style="fill: #ffffff"/>
   </g>
   <g id="matplotlib.axis_3">
    <g id="xtick_6">
     <g id="line2d_19">
      <g>
       <use xlink:href="#mdb6b901234" x="58.32" y="256.32" style="stroke: #000000; stroke-width: 0.8"/>
      </g>
     </g>
     <g id="text_11">
      <!-- −0.4 -->
      <g transform="translate(46.178594 270.918437) scale(0.1 -0.1)">
       <use xlink:href="#DejaVuSans-2212"/>
       <use xlink:href="#DejaVuSans-30" x="83.789062"/>
       <use xlink:href="#DejaVuSans-2e" x="147.412109"/>
       <use xlink:href="#DejaVuSans-34" x="179.199219"/>
      </g>
     </g>
    </g>
    <g id="xtick_7">
     <g id="line2d_20">
      <g>
       <use xlink:href="#mdb6b901234" x="102.96" y="256.32" style="stroke: #000000; stroke-width: 0.8"/>
      </g>
     </g>
     <g id="text_12">
      <!-- −0.2 -->
      <g transform="translate(90.818594 270.918437) scale(0.1 -0.1)">
       <use xlink:href="#DejaVuSans-2212"/>
       <use xlink:href="#DejaVuSans-30" x="83.789062"/>
       <use xlink:href="#DejaVuSans-2e" x="147.412109"/>
       <use xlink:href="#DejaVuSans-32" x="179.199219"/>
      </g>
     </g>
    </g>
    <g id="xtick_8">
     <g id="line2d_21">
      <g>
       <use xlink:href="#mdb6b901234" x="147.6" y="256.32" style="stroke: #000000; stroke-width: 0.8"/>
      </g>
     </g>
     <g id="text_13">
      <!-- 0.0 -->
      <g transform="translate(139.648438 270.918437) scale(0.1 -0.1)">
       <use xlink:href="#DejaVuSans-30"/>
       <use xlink:href="#DejaVuSans-2e" x="63.623047"/>
       <use xlink:href="#DejaVuSans-30" x="95.410156"/>
      </g>
     </g>
    </g>
    <g id="xtick_9">
     <g id="line2d_22">
      <g>
       <use xlink:href="#mdb6b901234" x="192.24" y="256.32" style="stroke: #000000; stroke-width: 0.8"/>
      </g>
     </g>
     <g id="text_14">
      <!-- 0.2 -->
      <g transform="translate(184.288437 270.918437) scale(0.1 -0.1)">
       <use xlink:href="#DejaVuSans-30"/>
       <use xlink:href="#DejaVuSans-2e" x="63.623047"/>
       <use xlink:href="#DejaVuSans-32" x="95.410156"/>
      </g>
     </g>
    </g>
    <g id="xtick_10">
     <g id="line2d_23">
      <g>
       <use xlink:href="#mdb6b901234" x="236.88" y="256.32" style="stroke: #000000; stroke-width: 0.8"/>
      </g>
     </g>
     <g id="text_15">
      <!-- 0.4 -->
      <g transform="translate(228.928437 270.918437) scale(0.1 -0.1)">
       <use xlink:href="#DejaVuSans-30"/>
       <use xlink:href="#DejaVuSans-2e" x="63.623047"/>
       <use xlink:href="#DejaVuSans-34" x="95.410156"/>
      </g>
     </g>
    </g>
   </g>
   <g id="matplotlib.axis_4">
    <g id="ytick_6">
     <g id="line2d_24">
      <g>
       <use xlink:href="#mce5ad1f660" x="36" y="245.456493" style="stroke: #000000; stroke-width: 0.8"/>
      </g>
     </g>
     <g id="text_16">
      <!-- −30 -->
      <g transform="translate(7.895312 249.255712) scale(0.1 -0.1)">
       <defs>
        <path id="DejaVuSans-33" d="M 2597 2516 
Q 3050 2419 3304 2112 
Q 3559 1806 3559 1356 
Q 3559 666 3084 287 
Q 2609 -91 1734 -91 
Q 1441 -91 1130 -33 
Q 819 25 488 141 
L 488 750 
Q 750 597 1062 519 
Q 1375 441 1716 441 
Q 2309 441 2620 675 
Q 2931 909 2931 1356 
Q 2931 1769 2642 2001 
Q 2353 2234 1838 2234 
L 1294 2234 
L 1294 2753 
L 1863 2753 
Q 2328 2753 2575 2939 
Q 2822 3125 2822 3475 
Q 2822 3834 2567 4026 
Q 2313 4219 1838 4219 
Q 1578 4219 1281 4162 
Q 984 4106 628 3988 
L 628 4550 
Q 988 4650 1302 4700 
Q 1616 4750 1894 4750 
Q 2613 4750 3031 4423 
Q 3450 4097 3450 3541 
Q 3450 3153 3228 2886 
Q 3006 2619 2597 2516 
z
" transform="scale(0.015625)"/>
       </defs>
       <use xlink:href="#DejaVuSans-2212"/>
       <use xlink:href="#DejaVuSans-33" x="83.789062"/>
       <use xlink:href="#DejaVuSans-30" x="147.412109"/>
      </g>
     </g>
    </g>
    <g id="ytick_7">
     <g id="line2d_25">
      <g>
       <use xlink:href="#mce5ad1f660" x="36" y="211.526983" style="stroke: #000000; stroke-width: 0.8"/>
      </g>
     </g>
     <g id="text_17">
      <!-- −20 -->
      <g transform="translate(7.895312 215.326202) scale(0.1 -0.1)">
       <use xlink:href="#DejaVuSans-2212"/>
       <use xlink:href="#DejaVuSans-32" x="83.789062"/>
       <use xlink:href="#DejaVuSans-30" x="147.412109"/>
      </g>
     </g>
    </g>
    <g id="ytick_8">
     <g id="line2d_26">
      <g>
       <use xlink:href="#mce5ad1f660" x="36" y="177.597473" style="stroke: #000000; stroke-width: 0.8"/>
      </g>
     </g>
     <g id="text_18">
      <!-- −10 -->
      <g transform="translate(7.895312 181.396692) scale(0.1 -0.1)">
       <use xlink:href="#DejaVuSans-2212"/>
       <use xlink:href="#DejaVuSans-31" x="83.789062"/>
       <use xlink:href="#DejaVuSans-30" x="147.412109"/>
      </g>
     </g>
    </g>
   </g>
   <g id="line2d_27">
    <path d="M 36 218.020816 
L 53.4096 219.737407 
L 67.6944 221.366008 
L 79.7472 222.959328 
L 90.4608 224.596818 
L 100.2816 226.326017 
L 109.2096 228.123512 
L 117.6912 230.053324 
L 127.0656 232.422814 
L 135.9936 234.664746 
L 138.672 235.142133 
L 140.4576 235.272228 
L 141.7968 235.158597 
L 142.6896 234.894445 
L 143.5824 234.358005 
L 144.0288 233.922522 
L 144.4752 233.310982 
L 144.9216 232.434622 
L 145.368 231.133658 
L 145.8144 229.08851 
L 146.2608 225.553476 
L 146.7072 218.291428 
L 147.1536 196.116671 
M 148.0464 196.116671 
L 148.4928 218.291428 
L 148.9392 225.553476 
L 149.3856 229.08851 
L 149.832 231.133658 
L 150.2784 232.434622 
L 150.7248 233.310982 
L 151.6176 234.358005 
L 152.5104 234.894445 
L 153.4032 235.158597 
L 154.7424 235.272228 
L 156.528 235.142133 
L 159.2064 234.664746 
L 163.6704 233.588587 
L 180.6336 229.316546 
L 189.1152 227.468004 
L 198.0432 225.749454 
L 207.864 224.09462 
L 218.5776 222.52341 
L 230.6304 220.988448 
L 244.4688 219.45689 
L 259.2 218.020816 
L 259.2 218.020816 
" clip-path="url(#p346918695d)" style="fill: none; stroke-dasharray: 5.55,2.4; stroke-dashoffset: 0; stroke: #1f77b4; stroke-width: 1.5"/>
   </g>
   <g id="line2d_28">
    <path d="M 36 217.987541 
L 53.856 219.732192 
L 68.1408 221.346875 
L 80.1936 222.926801 
L 90.9072 224.553716 
L 100.2816 226.195874 
L 108.7632 227.898487 
L 116.7984 229.740574 
L 123.9408 231.599212 
L 130.6368 233.561672 
L 136.8864 235.613215 
L 143.136 237.905435 
L 147.1536 239.52 
M 148.0464 239.52 
L 153.8496 237.224244 
L 160.0992 235.003759 
L 166.3488 233.015781 
L 173.0448 231.113153 
L 180.1872 229.309864 
L 188.2224 227.520844 
L 196.704 225.865122 
L 206.0784 224.265582 
L 216.3456 222.739358 
L 227.952 221.238604 
L 241.344 219.732192 
L 257.8608 218.110481 
L 259.2 217.987541 
L 259.2 217.987541 
" clip-path="url(#p346918695d)" style="fill: none; stroke: #1f77b4; stroke-width: 1.5; stroke-linecap: square"/>
   </g>
   <g id="line2d_29">
    <path d="M 36 171.563801 
L 44.928 172.844141 
L 52.0704 174.081462 
L 57.4272 175.231434 
L 60.9984 176.192929 
L 63.6768 177.099426 
L 65.9088 178.068709 
L 67.6944 179.089141 
L 69.0336 180.101015 
L 69.9264 180.966687 
L 70.8192 182.072694 
L 71.712 183.560714 
L 72.6048 185.712136 
L 73.0512 187.211111 
L 73.4976 189.176687 
L 73.944 191.882497 
L 74.3904 195.86841 
L 74.8368 202.368443 
L 75.2832 214.954869 
L 75.7296 250.061539 
L 75.755687 289 
M 76.512404 289 
L 76.6224 83.859791 
L 77.0688 132.85865 
L 77.5152 147.991532 
L 77.9616 155.38317 
L 78.408 159.784046 
L 78.8544 162.71797 
L 79.7472 166.417088 
L 80.64 168.687617 
L 81.5328 170.251539 
L 82.4256 171.414997 
L 83.7648 172.722173 
L 85.104 173.717122 
L 86.8896 174.76463 
L 89.1216 175.817248 
L 92.2464 177.036771 
L 97.1568 178.679768 
L 127.0656 188.238721 
L 133.3152 190.225015 
L 135.9936 190.88664 
L 137.7792 191.161774 
L 139.1184 191.208957 
L 140.4576 191.024075 
L 141.3504 190.692709 
L 142.2432 190.093061 
L 143.136 189.059188 
L 143.5824 188.287183 
L 144.0288 187.259023 
L 144.4752 185.863981 
L 144.9216 183.917494 
L 145.368 181.087331 
L 145.8144 176.709006 
L 146.2608 169.232017 
L 146.7072 154.004813 
L 147.1536 107.769542 
M 148.0464 107.769542 
L 148.4928 154.004813 
L 148.9392 169.232017 
L 149.3856 176.709006 
L 149.832 181.087331 
L 150.2784 183.917494 
L 150.7248 185.863981 
L 151.1712 187.259023 
L 152.064 189.059188 
L 152.9568 190.093061 
L 153.8496 190.692709 
L 154.7424 191.024075 
L 156.0816 191.208957 
L 157.4208 191.161774 
L 159.2064 190.88664 
L 161.8848 190.225015 
L 166.3488 188.834573 
L 188.2224 181.697339 
L 202.0608 177.353001 
L 205.632 176.005596 
L 208.3104 174.76463 
L 210.096 173.717122 
L 211.4352 172.722173 
L 212.7744 171.414997 
L 213.6672 170.251539 
L 214.56 168.687617 
L 215.4528 166.417088 
L 215.8992 164.823976 
L 216.3456 162.71797 
L 216.792 159.784046 
L 217.2384 155.38317 
L 217.6848 147.991532 
L 218.1312 132.85865 
L 218.5776 83.859791 
L 218.687596 289 
M 219.444313 289 
L 219.4704 250.061539 
L 219.9168 214.954869 
L 220.3632 202.368443 
L 220.8096 195.86841 
L 221.256 191.882497 
L 221.7024 189.176687 
L 222.5952 185.712136 
L 223.488 183.560714 
L 224.3808 182.072694 
L 225.2736 180.966687 
L 226.6128 179.73214 
L 227.952 178.805707 
L 229.7376 177.853128 
L 231.9696 176.932736 
L 235.0944 175.931526 
L 239.112 174.918145 
L 244.4688 173.829187 
L 251.1648 172.705163 
L 259.2 171.563801 
L 259.2 171.563801 
" clip-path="url(#p346918695d)" style="fill: none; stroke-dasharray: 5.55,2.4; stroke-dashoffset: 0; stroke: #ff7f0e; stroke-width: 1.5"/>
   </g>
   <g id="line2d_30">
    <path d="M 36 171.593006 
L 44.928 172.89885 
L 51.624 174.088008 
L 56.5344 175.160579 
L 60.552 176.267196 
L 63.2304 177.210174 
L 65.4624 178.218137 
L 67.248 179.273578 
L 68.5872 180.309372 
L 69.9264 181.699776 
L 70.8192 182.951838 
L 71.712 184.641715 
L 72.6048 187.089197 
L 73.0512 188.794332 
L 73.4976 191.027692 
L 73.944 194.094675 
L 74.3904 198.592589 
L 74.8368 205.86894 
L 75.2832 219.738289 
L 75.7296 256.893609 
L 75.762287 289 
M 76.460743 289 
L 76.6224 58.295561 
L 77.0688 123.234904 
L 77.5152 142.094672 
L 77.9616 151.108822 
L 78.408 156.41172 
L 78.8544 159.918202 
L 79.7472 164.300994 
L 80.64 166.964346 
L 81.5328 168.782437 
L 82.4256 170.123256 
L 83.7648 171.613771 
L 85.104 172.733671 
L 86.8896 173.895739 
L 89.1216 175.04329 
L 92.2464 176.346555 
L 96.7104 177.916974 
L 105.192 180.599418 
L 115.9056 184.051016 
L 123.048 186.583019 
L 129.2976 189.025113 
L 135.1008 191.527693 
L 140.4576 194.075126 
L 145.368 196.640902 
L 147.1536 197.634376 
M 148.0464 197.634376 
L 152.9568 194.981044 
L 158.3136 192.349753 
L 163.6704 189.95855 
L 169.4736 187.600554 
L 176.1696 185.129191 
L 183.7584 182.576075 
L 203.8464 175.998659 
L 206.5248 174.832745 
L 208.7568 173.631142 
L 210.5424 172.39046 
L 211.8816 171.168666 
L 212.7744 170.123256 
L 213.6672 168.782437 
L 214.56 166.964346 
L 215.4528 164.300994 
L 215.8992 162.419247 
L 216.3456 159.918202 
L 216.792 156.41172 
L 217.2384 151.108822 
L 217.6848 142.094672 
L 218.1312 123.234904 
L 218.5776 58.295561 
L 218.739257 289 
M 219.437713 289 
L 219.4704 256.893609 
L 219.9168 219.738289 
L 220.3632 205.86894 
L 220.8096 198.592589 
L 221.256 194.094675 
L 221.7024 191.027692 
L 222.5952 187.089197 
L 223.488 184.641715 
L 224.3808 182.951838 
L 225.2736 181.699776 
L 226.6128 180.309372 
L 227.952 179.273578 
L 229.7376 178.218137 
L 231.9696 177.210174 
L 234.648 176.267196 
L 238.2192 175.27083 
L 242.6832 174.267061 
L 248.4864 173.193657 
L 256.0752 172.022886 
L 259.2 171.593006 
L 259.2 171.593006 
" clip-path="url(#p346918695d)" style="fill: none; stroke: #ff7f0e; stroke-width: 1.5; stroke-linecap: square"/>
   </g>
   <g id="line2d_31">
    <path d="M 36 218.72069 
L 51.624 219.986529 
L 65.016 221.290044 
L 76.6224 222.633317 
L 87.336 224.095886 
L 96.7104 225.590274 
L 105.6384 227.234589 
L 114.12 229.02377 
L 122.6016 231.0435 
L 137.7792 234.752374 
L 140.0112 235.003583 
L 141.3504 234.965527 
L 142.2432 234.790199 
L 143.136 234.406933 
L 144.0288 233.655394 
L 144.4752 233.041281 
L 144.9216 232.161334 
L 145.368 230.855131 
L 145.8144 228.801818 
L 146.2608 225.252719 
L 146.7072 217.961783 
L 147.1536 195.698701 
M 148.0464 195.698701 
L 148.4928 217.961783 
L 148.9392 225.252719 
L 149.3856 228.801818 
L 149.832 230.855131 
L 150.2784 232.161334 
L 150.7248 233.041281 
L 151.6176 234.09279 
L 152.5104 234.631844 
L 153.4032 234.89769 
L 154.7424 235.013041 
L 156.528 234.88468 
L 159.2064 234.409955 
L 163.6704 233.340192 
L 179.7408 229.327613 
L 188.2224 227.501811 
L 196.704 225.900816 
L 206.0784 224.363875 
L 216.3456 222.918783 
L 227.5056 221.580519 
L 240.0048 220.311833 
L 254.2896 219.093467 
L 259.2 218.72069 
L 259.2 218.72069 
" clip-path="url(#p346918695d)" style="fill: none; stroke-dasharray: 5.55,2.4; stroke-dashoffset: 0; stroke: #2ca02c; stroke-width: 1.5"/>
   </g>
   <g id="line2d_32">
    <path d="M 36 218.686908 
L 51.624 219.936163 
L 65.016 221.220417 
L 77.0688 222.598676 
L 87.7824 224.050529 
L 97.1568 225.539626 
L 105.6384 227.101532 
L 113.6736 228.806456 
L 120.816 230.538558 
L 127.512 232.377306 
L 133.7616 234.308067 
L 140.0112 236.473642 
L 145.8144 238.720536 
L 147.1536 239.274059 
M 148.0464 239.274059 
L 153.8496 236.971032 
L 159.6528 234.901597 
L 165.9024 232.906615 
L 172.5984 231.007318 
L 179.7408 229.219065 
L 187.3296 227.551485 
L 195.3648 226.008949 
L 204.2928 224.521981 
L 214.1136 223.115262 
L 224.8272 221.803519 
L 236.88 220.549802 
L 250.7184 219.336254 
L 259.2 218.686908 
L 259.2 218.686908 
" clip-path="url(#p346918695d)" style="fill: none; stroke: #2ca02c; stroke-width: 1.5; stroke-linecap: square"/>
   </g>
   <g id="line2d_33">
    <path d="M 36 172.295226 
L 44.0352 173.575358 
L 50.2848 174.79009 
L 55.1952 175.972941 
L 58.7664 177.047606 
L 61.4448 178.049911 
L 63.6768 179.091387 
L 65.4624 180.135691 
L 67.248 181.477968 
L 68.5872 182.794324 
L 69.48 183.898773 
L 70.3728 185.271588 
L 71.2656 187.040765 
L 72.1584 189.431705 
L 73.0512 192.881656 
L 73.4976 195.26774 
L 73.944 198.365093 
L 74.3904 202.560699 
L 74.8368 208.584706 
L 75.2832 217.999148 
L 75.7296 234.85458 
L 76.176 273.925964 
L 76.21109 289 
M 76.75566 289 
L 76.974374 -1 
M 77.34397 -1 
L 77.5152 76.909637 
L 77.9616 116.889879 
L 78.408 133.997851 
L 78.8544 143.518645 
L 79.3008 149.599101 
L 79.7472 153.829918 
L 80.64 159.357872 
L 81.5328 162.839733 
L 82.4256 165.259411 
L 83.3184 167.057585 
L 84.2112 168.461146 
L 85.5504 170.093749 
L 86.8896 171.362585 
L 88.6752 172.705059 
L 90.9072 174.040653 
L 93.5856 175.350019 
L 97.1568 176.820954 
L 102.5136 178.742049 
L 114.5664 182.727885 
L 135.5472 189.568558 
L 137.7792 189.99453 
L 139.5648 190.092162 
L 140.904 189.895776 
L 141.7968 189.541324 
L 142.6896 188.889436 
L 143.5824 187.736589 
L 144.0288 186.853003 
L 144.4752 185.646446 
L 144.9216 183.954382 
L 145.368 181.484224 
L 145.8144 177.650773 
L 146.2608 171.088533 
L 146.7072 157.700968 
L 147.1536 117.005296 
M 148.0464 117.005296 
L 148.4928 157.700968 
L 148.9392 171.088533 
L 149.3856 177.650773 
L 149.832 181.484224 
L 150.2784 183.954382 
L 150.7248 185.646446 
L 151.1712 186.853003 
L 152.064 188.394719 
L 152.9568 189.262097 
L 153.8496 189.747556 
L 154.7424 189.997214 
L 156.0816 190.097605 
L 157.8672 189.929764 
L 160.0992 189.459035 
L 163.6704 188.42511 
L 170.3664 186.189475 
L 185.9904 180.966837 
L 196.2576 177.487365 
L 200.7216 175.740435 
L 203.8464 174.276713 
L 206.0784 172.99687 
L 207.864 171.729111 
L 209.2032 170.549115 
L 210.5424 169.057476 
L 211.4352 167.799088 
L 212.328 166.218852 
L 213.2208 164.147611 
L 214.1136 161.273629 
L 214.56 159.357872 
L 215.0064 156.952204 
L 215.4528 153.829918 
L 215.8992 149.599101 
L 216.3456 143.518645 
L 216.792 133.997851 
L 217.2384 116.889879 
L 217.6848 76.909637 
L 217.85603 -1 
M 218.225626 -1 
L 218.44434 289 
M 218.98891 289 
L 219.024 273.925964 
L 219.4704 234.85458 
L 219.9168 217.999148 
L 220.3632 208.584706 
L 220.8096 202.560699 
L 221.256 198.365093 
L 222.1488 192.881656 
L 223.0416 189.431705 
L 223.9344 187.040765 
L 224.8272 185.271588 
L 225.72 183.898773 
L 227.0592 182.317086 
L 228.3984 181.105932 
L 230.184 179.851856 
L 231.9696 178.863375 
L 234.2016 177.867155 
L 236.88 176.899509 
L 240.4512 175.853637 
L 244.9152 174.79009 
L 250.7184 173.654432 
L 257.8608 172.492412 
L 259.2 172.295226 
L 259.2 172.295226 
" clip-path="url(#p346918695d)" style="fill: none; stroke-dasharray: 5.55,2.4; stroke-dashoffset: 0; stroke: #d62728; stroke-width: 1.5"/>
   </g>
   <g id="line2d_34">
    <path d="M 36 172.32 
L 43.5888 173.539201 
L 49.8384 174.761346 
L 54.7488 175.953698 
L 58.32 177.037281 
L 60.9984 178.046174 
L 63.2304 179.090538 
L 65.016 180.131567 
L 66.8016 181.457663 
L 68.1408 182.742525 
L 69.48 184.424493 
L 70.3728 185.886544 
L 71.2656 187.772112 
L 72.1584 190.320624 
L 73.0512 193.994811 
L 73.4976 196.532229 
L 73.944 199.820259 
L 74.3904 204.262492 
L 74.8368 210.615263 
L 75.2832 220.480782 
L 75.7296 237.948613 
L 76.205138 289 
M 76.73453 289 
L 76.931713 -1 
M 77.407114 -1 
L 77.5152 63.41265 
L 77.9616 109.956544 
L 78.408 129.353228 
L 78.8544 140.014383 
L 79.3008 146.772354 
L 79.7472 151.450297 
L 80.64 157.52996 
L 81.5328 161.337652 
L 82.4256 163.971575 
L 83.3184 165.920829 
L 84.2112 167.436286 
L 85.5504 169.190645 
L 86.8896 170.546264 
L 88.6752 171.971195 
L 90.4608 173.120377 
L 92.6928 174.316467 
L 95.8176 175.72189 
L 100.2816 177.439013 
L 107.424 179.899299 
L 120.816 184.494526 
L 127.9584 187.195208 
L 134.208 189.795256 
L 140.0112 192.45838 
L 145.368 195.169856 
L 147.1536 196.134464 
M 148.0464 196.134464 
L 152.9568 193.556358 
L 158.3136 190.991764 
L 164.1168 188.463804 
L 170.3664 185.982598 
L 177.9552 183.227141 
L 190.008 179.147792 
L 197.1504 176.609994 
L 201.168 174.948379 
L 203.8464 173.624581 
L 206.0784 172.279465 
L 207.864 170.936339 
L 209.2032 169.678038 
L 210.5424 168.078247 
L 211.4352 166.722184 
L 212.328 165.012602 
L 213.2208 162.762739 
L 214.1136 159.627314 
L 214.56 157.52996 
L 215.0064 154.888991 
L 215.4528 151.450297 
L 215.8992 146.772354 
L 216.3456 140.014383 
L 216.792 129.353228 
L 217.2384 109.956544 
L 217.6848 63.41265 
L 217.792886 -1 
M 218.268287 -1 
L 218.46547 289 
M 218.994862 289 
L 219.024 277.484236 
L 219.4704 237.948613 
L 219.9168 220.480782 
L 220.3632 210.615263 
L 220.8096 204.262492 
L 221.256 199.820259 
L 222.1488 193.994811 
L 223.0416 190.320624 
L 223.9344 187.772112 
L 224.8272 185.886544 
L 225.72 184.424493 
L 227.0592 182.742525 
L 228.3984 181.457663 
L 230.184 180.131567 
L 231.9696 179.090538 
L 234.2016 178.046174 
L 236.88 177.037281 
L 240.4512 175.953698 
L 244.9152 174.859449 
L 250.272 173.780737 
L 257.4144 172.587353 
L 259.2 172.32 
L 259.2 172.32 
" clip-path="url(#p346918695d)" style="fill: none; stroke: #d62728; stroke-width: 1.5; stroke-linecap: square"/>
   </g>
   <g id="patch_8">
    <path d="M 36 256.32 
L 36 155.52 
" style="fill: none; stroke: #000000; stroke-width: 0.8; stroke-linejoin: miter; stroke-linecap: square"/>
   </g>
   <g id="patch_9">
    <path d="M 259.2 256.32 
L 259.2 155.52 
" style="fill: none; stroke: #000000; stroke-width: 0.8; stroke-linejoin: miter; stroke-linecap: square"/>
   </g>
   <g id="patch_10">
    <path d="M 36 256.32 
L 259.2 256.32 
" style="fill: none; stroke: #000000; stroke-width: 0.8; stroke-linejoin: miter; stroke-linecap: square"/>
   </g>
   <g id="patch_11">
    <path d="M 36 155.52 
L 259.2 155.52 
" style="fill: none; stroke: #000000; stroke-width: 0.8; stroke-linejoin: miter; stroke-linecap: square"/>
   </g>
  </g>
 </g>
 <defs>
  <clipPath id="pfb605f30bb">
   <rect x="36" y="34.56" width="223.2" height="100.8"/>
  </clipPath>
  <clipPath id="p346918695d">
   <rect x="36" y="155.52" width="223.2" height="100.8"/>
  </clipPath>
 </defs>
</svg>
