<?xml version="1.0" encoding="utf-8" standalone="no"?>
<!DOCTYPE svg PUBLIC "-//W3C//DTD SVG 1.1//EN"
  "http://www.w3.org/Graphics/SVG/1.1/DTD/svg11.dtd">
<svg xmlns:xlink="http://www.w3.org/1999/xlink" width="576pt" height="288pt" viewBox="0 0 576 288" xmlns="http://www.w3.org/2000/svg" version="1.1">
 <metadata>
  <rdf:RDF xmlns:dc="http://purl.org/dc/elements/1.1/" xmlns:cc="http://creativecommons.org/ns#" xmlns:rdf="http://www.w3.org/1999/02/22-rdf-syntax-ns#">
   <cc:Work>
    <dc:type rdf:resource="http://purl.org/dc/dcmitype/StillImage"/>
    <dc:date>2025-09-21T17:36:06.581733</dc:date>
    <dc:format>image/svg+xml</dc:format>
    <dc:creator>
     <cc:Agent>
      <dc:title>Matplotlib v3.9.4, https://matplotlib.org/</dc:title>
     </cc:Agent>
    </dc:creator>
   </cc:Work>
  </rdf:RDF>
 </metadata>
 <defs>
  <style type="text/css">*{stroke-linejoin: round; stroke-linecap: butt}</style>
 </defs>
 <g id="figure_1">
  <g id="patch_1">
   <path d="M 0 288 
L 576 288 
L 576 0 
L 0 0 
z
" style="fill: #ffffff"/>
  </g>
  <g id="axes_1">
   <g id="patch_2">
    <path d="M 42.01 120.670449 
L 282.6 120.670449 
L 282.6 10.8 
L 42.01 10.8 
z
" style="fill: #ffffff"/>
   </g>
   <g id="matplotlib.axis_1">
    <g id="xtick_1">
     <g id="line2d_1">
      <defs>
       <path id="m4b702b6ebe" d="M 0 0 
L 0 3.5 
" style="stroke: #000000; stroke-width: 0.8"/>
      </defs>
      <g>
       <use xlink:href="#m4b702b6ebe" x="66.069" y="120.670449" style="stroke: #000000; stroke-width: 0.8"/>
      </g>
     </g>
     <g id="text_1">
      <!-- −0.4 -->
      <g transform="translate(53.927594 135.268886) scale(0.1 -0.1)">
       <defs>
        <path id="DejaVuSans-2212" d="M 678 2272 
L 4684 2272 
L 4684 1741 
L 678 1741 
L 678 2272 
z
" transform="scale(0.015625)"/>
        <path id="DejaVuSans-30" d="M 2034 4250 
Q 1547 4250 1301 3770 
Q 1056 3291 1056 2328 
Q 1056 1369 1301 889 
Q 1547 409 2034 409 
Q 2525 409 2770 889 
Q 3016 1369 3016 2328 
Q 3016 3291 2770 3770 
Q 2525 4250 2034 4250 
z
M 2034 4750 
Q 2819 4750 3233 4129 
Q 3647 3509 3647 2328 
Q 3647 1150 3233 529 
Q 2819 -91 2034 -91 
Q 1250 -91 836 529 
Q 422 1150 422 2328 
Q 422 3509 836 4129 
Q 1250 4750 2034 4750 
z
" transform="scale(0.015625)"/>
        <path id="DejaVuSans-2e" d="M 684 794 
L 1344 794 
L 1344 0 
L 684 0 
L 684 794 
z
" transform="scale(0.015625)"/>
        <path id="DejaVuSans-34" d="M 2419 4116 
L 825 1625 
L 2419 1625 
L 2419 4116 
z
M 2253 4666 
L 3047 4666 
L 3047 1625 
L 3713 1625 
L 3713 1100 
L 3047 1100 
L 3047 0 
L 2419 0 
L 2419 1100 
L 313 1100 
L 313 1709 
L 2253 4666 
z
" transform="scale(0.015625)"/>
       </defs>
       <use xlink:href="#DejaVuSans-2212"/>
       <use xlink:href="#DejaVuSans-30" x="83.789062"/>
       <use xlink:href="#DejaVuSans-2e" x="147.412109"/>
       <use xlink:href="#DejaVuSans-34" x="179.199219"/>
      </g>
     </g>
    </g>
    <g id="xtick_2">
     <g id="line2d_2">
      <g>
       <use xlink:href="#m4b702b6ebe" x="114.187" y="120.670449" style="stroke: #000000; stroke-width: 0.8"/>
      </g>
     </g>
     <g id="text_2">
      <!-- −0.2 -->
      <g transform="translate(102.045594 135.268886) scale(0.1 -0.1)">
       <defs>
        <path id="DejaVuSans-32" d="M 1228 531 
L 3431 531 
L 3431 0 
L 469 0 
L 469 531 
Q 828 903 1448 1529 
Q 2069 2156 2228 2338 
Q 2531 2678 2651 2914 
Q 2772 3150 2772 3378 
Q 2772 3750 2511 3984 
Q 2250 4219 1831 4219 
Q 1534 4219 1204 4116 
Q 875 4013 500 3803 
L 500 4441 
Q 881 4594 1212 4672 
Q 1544 4750 1819 4750 
Q 2544 4750 2975 4387 
Q 3406 4025 3406 3419 
Q 3406 3131 3298 2873 
Q 3191 2616 2906 2266 
Q 2828 2175 2409 1742 
Q 1991 1309 1228 531 
z
" transform="scale(0.015625)"/>
       </defs>
       <use xlink:href="#DejaVuSans-2212"/>
       <use xlink:href="#DejaVuSans-30" x="83.789062"/>
       <use xlink:href="#DejaVuSans-2e" x="147.412109"/>
       <use xlink:href="#DejaVuSans-32" x="179.199219"/>
      </g>
     </g>
    </g>
    <g id="xtick_3">
     <g id="line2d_3">
      <g>
       <use xlink:href="#m4b702b6ebe" x="162.305" y="120.670449" style="stroke: #000000; stroke-width: 0.8"/>
      </g>
     </g>
     <g id="text_3">
      <!-- 0.0 -->
      <g transform="translate(154.353438 135.268886) scale(0.1 -0.1)">
       <use xlink:href="#DejaVuSans-30"/>
       <use xlink:href="#DejaVuSans-2e" x="63.623047"/>
       <use xlink:href="#DejaVuSans-30" x="95.410156"/>
      </g>
     </g>
    </g>
    <g id="xtick_4">
     <g id="line2d_4">
      <g>
       <use xlink:href="#m4b702b6ebe" x="210.423" y="120.670449" style="stroke: #000000; stroke-width: 0.8"/>
      </g>
     </g>
     <g id="text_4">
      <!-- 0.2 -->
      <g transform="translate(202.471438 135.268886) scale(0.1 -0.1)">
       <use xlink:href="#DejaVuSans-30"/>
       <use xlink:href="#DejaVuSans-2e" x="63.623047"/>
       <use xlink:href="#DejaVuSans-32" x="95.410156"/>
      </g>
     </g>
    </g>
    <g id="xtick_5">
     <g id="line2d_5">
      <g>
       <use xlink:href="#m4b702b6ebe" x="258.541" y="120.670449" style="stroke: #000000; stroke-width: 0.8"/>
      </g>
     </g>
     <g id="text_5">
      <!-- 0.4 -->
      <g transform="translate(250.589437 135.268886) scale(0.1 -0.1)">
       <use xlink:href="#DejaVuSans-30"/>
       <use xlink:href="#DejaVuSans-2e" x="63.623047"/>
       <use xlink:href="#DejaVuSans-34" x="95.410156"/>
      </g>
     </g>
    </g>
   </g>
   <g id="matplotlib.axis_2">
    <g id="ytick_1">
     <g id="line2d_6">
      <defs>
       <path id="md3f5d220c4" d="M 0 0 
L -3.5 0 
" style="stroke: #000000; stroke-width: 0.8"/>
      </defs>
      <g>
       <use xlink:href="#md3f5d220c4" x="42.01" y="92.128551" style="stroke: #000000; stroke-width: 0.8"/>
      </g>
     </g>
     <g id="text_6">
      <!-- 0.3 -->
      <g transform="translate(19.106875 95.92777) scale(0.1 -0.1)">
       <defs>
        <path id="DejaVuSans-33" d="M 2597 2516 
Q 3050 2419 3304 2112 
Q 3559 1806 3559 1356 
Q 3559 666 3084 287 
Q 2609 -91 1734 -91 
Q 1441 -91 1130 -33 
Q 819 25 488 141 
L 488 750 
Q 750 597 1062 519 
Q 1375 441 1716 441 
Q 2309 441 2620 675 
Q 2931 909 2931 1356 
Q 2931 1769 2642 2001 
Q 2353 2234 1838 2234 
L 1294 2234 
L 1294 2753 
L 1863 2753 
Q 2328 2753 2575 2939 
Q 2822 3125 2822 3475 
Q 2822 3834 2567 4026 
Q 2313 4219 1838 4219 
Q 1578 4219 1281 4162 
Q 984 4106 628 3988 
L 628 4550 
Q 988 4650 1302 4700 
Q 1616 4750 1894 4750 
Q 2613 4750 3031 4423 
Q 3450 4097 3450 3541 
Q 3450 3153 3228 2886 
Q 3006 2619 2597 2516 
z
" transform="scale(0.015625)"/>
       </defs>
       <use xlink:href="#DejaVuSans-30"/>
       <use xlink:href="#DejaVuSans-2e" x="63.623047"/>
       <use xlink:href="#DejaVuSans-33" x="95.410156"/>
      </g>
     </g>
    </g>
    <g id="ytick_2">
     <g id="line2d_7">
      <g>
       <use xlink:href="#md3f5d220c4" x="42.01" y="48.25397" style="stroke: #000000; stroke-width: 0.8"/>
      </g>
     </g>
     <g id="text_7">
      <!-- 0.4 -->
      <g transform="translate(19.106875 52.053188) scale(0.1 -0.1)">
       <use xlink:href="#DejaVuSans-30"/>
       <use xlink:href="#DejaVuSans-2e" x="63.623047"/>
       <use xlink:href="#DejaVuSans-34" x="95.410156"/>
      </g>
     </g>
    </g>
   </g>
   <g id="line2d_8">
    <path d="M 42.01 115.676338 
L 50.67124 110.624161 
L 59.33248 105.314888 
L 67.99372 99.733665 
L 76.17378 94.198524 
L 84.35384 88.392424 
L 92.5339 82.300188 
L 100.23278 76.290459 
L 107.93166 69.998586 
L 115.63054 63.409305 
L 122.84824 56.947322 
L 130.06594 50.195471 
L 137.28364 43.138676 
L 144.50134 35.760937 
L 151.71904 28.045265 
L 158.45556 20.523172 
L 162.305 16.079655 
L 171.44742 20.999471 
L 180.10866 25.414867 
L 188.7699 29.58919 
L 197.43114 33.520676 
L 206.09238 37.207914 
L 214.75362 40.649808 
L 223.41486 43.845523 
L 232.0761 46.794451 
L 240.73734 49.496166 
L 248.9174 51.820546 
L 257.09746 53.924042 
L 265.27752 55.806598 
L 273.45758 57.468213 
L 281.63764 58.908923 
L 282.6 59.063898 
L 282.6 59.063898 
" clip-path="url(#p4ea3e6dcee)" style="fill: none; stroke-dasharray: 5.55,2.4; stroke-dashoffset: 0; stroke: #1f77b4; stroke-width: 1.5"/>
   </g>
   <g id="line2d_9">
    <path d="M 42.01 115.621499 
L 50.67124 110.562404 
L 59.33248 105.245341 
L 67.51254 99.973328 
L 75.6926 94.444435 
L 83.87266 88.64435 
L 91.57154 82.924067 
L 99.27042 76.936525 
L 106.9693 70.66734 
L 114.66818 64.101214 
L 121.88588 57.661328 
L 129.10358 50.931908 
L 136.32128 43.897831 
L 143.53898 36.543037 
L 150.75668 28.85047 
L 157.4932 21.350015 
L 162.305 15.794111 
L 170.96624 20.492926 
L 179.62748 24.949389 
L 188.28872 29.161689 
L 196.94996 33.128385 
L 205.6112 36.848357 
L 214.27244 40.320761 
L 222.93368 43.544988 
L 231.59492 46.520626 
L 239.77498 49.102468 
L 247.95504 51.462247 
L 256.1351 53.599939 
L 264.31516 55.515585 
L 272.49522 57.209267 
L 280.67528 58.681094 
L 282.6 58.995178 
L 282.6 58.995178 
" clip-path="url(#p4ea3e6dcee)" style="fill: none; stroke: #1f77b4; stroke-width: 1.5; stroke-linecap: square"/>
   </g>
   <g id="line2d_10">
    <path d="M 42.01 115.676338 
L 50.67124 110.624161 
L 59.33248 105.314888 
L 67.99372 99.733665 
L 76.17378 94.198524 
L 84.35384 88.392424 
L 92.5339 82.300188 
L 100.23278 76.290459 
L 107.93166 69.998586 
L 115.63054 63.409305 
L 122.84824 56.947322 
L 130.06594 50.195471 
L 137.28364 43.138676 
L 144.50134 35.760937 
L 151.71904 28.045265 
L 158.45556 20.523172 
L 162.305 16.079655 
L 171.44742 20.999471 
L 180.10866 25.414867 
L 188.7699 29.58919 
L 197.43114 33.520676 
L 206.09238 37.207914 
L 214.75362 40.649808 
L 223.41486 43.845523 
L 232.0761 46.794451 
L 240.73734 49.496166 
L 248.9174 51.820546 
L 257.09746 53.924042 
L 265.27752 55.806598 
L 273.45758 57.468213 
L 281.63764 58.908923 
L 282.6 59.063898 
L 282.6 59.063898 
" clip-path="url(#p4ea3e6dcee)" style="fill: none; stroke-dasharray: 5.55,2.4; stroke-dashoffset: 0; stroke: #ff7f0e; stroke-width: 1.5"/>
   </g>
   <g id="line2d_11">
    <path d="M 42.01 115.621499 
L 50.67124 110.562404 
L 59.33248 105.245341 
L 67.51254 99.973328 
L 75.6926 94.444435 
L 83.87266 88.64435 
L 91.57154 82.924067 
L 99.27042 76.936525 
L 106.9693 70.66734 
L 114.66818 64.101214 
L 121.88588 57.661328 
L 129.10358 50.931908 
L 136.32128 43.897831 
L 143.53898 36.543037 
L 150.75668 28.85047 
L 157.4932 21.350015 
L 162.305 15.794111 
L 170.96624 20.492926 
L 179.62748 24.949389 
L 188.28872 29.161689 
L 196.94996 33.128385 
L 205.6112 36.848357 
L 214.27244 40.320761 
L 222.93368 43.544988 
L 231.59492 46.520626 
L 239.77498 49.102468 
L 247.95504 51.462247 
L 256.1351 53.599939 
L 264.31516 55.515585 
L 272.49522 57.209267 
L 280.67528 58.681094 
L 282.6 58.995178 
L 282.6 58.995178 
" clip-path="url(#p4ea3e6dcee)" style="fill: none; stroke: #ff7f0e; stroke-width: 1.5; stroke-linecap: square"/>
   </g>
   <g id="patch_3">
    <path d="M 42.01 120.670449 
L 42.01 10.8 
" style="fill: none; stroke: #000000; stroke-width: 0.8; stroke-linejoin: miter; stroke-linecap: square"/>
   </g>
   <g id="patch_4">
    <path d="M 282.6 120.670449 
L 282.6 10.8 
" style="fill: none; stroke: #000000; stroke-width: 0.8; stroke-linejoin: miter; stroke-linecap: square"/>
   </g>
   <g id="patch_5">
    <path d="M 42.01 120.670449 
L 282.6 120.670449 
" style="fill: none; stroke: #000000; stroke-width: 0.8; stroke-linejoin: miter; stroke-linecap: square"/>
   </g>
   <g id="patch_6">
    <path d="M 42.01 10.8 
L 282.6 10.8 
" style="fill: none; stroke: #000000; stroke-width: 0.8; stroke-linejoin: miter; stroke-linecap: square"/>
   </g>
  </g>
  <g id="axes_2">
   <g id="patch_7">
    <path d="M 324.61 120.670449 
L 565.2 120.670449 
L 565.2 10.8 
L 324.61 10.8 
z
" style="fill: #ffffff"/>
   </g>
   <g id="matplotlib.axis_3">
    <g id="xtick_6">
     <g id="line2d_12">
      <g>
       <use xlink:href="#m4b702b6ebe" x="348.669" y="120.670449" style="stroke: #000000; stroke-width: 0.8"/>
      </g>
     </g>
     <g id="text_8">
      <!-- −0.4 -->
      <g transform="translate(336.527594 135.268886) scale(0.1 -0.1)">
       <use xlink:href="#DejaVuSans-2212"/>
       <use xlink:href="#DejaVuSans-30" x="83.789062"/>
       <use xlink:href="#DejaVuSans-2e" x="147.412109"/>
       <use xlink:href="#DejaVuSans-34" x="179.199219"/>
      </g>
     </g>
    </g>
    <g id="xtick_7">
     <g id="line2d_13">
      <g>
       <use xlink:href="#m4b702b6ebe" x="396.787" y="120.670449" style="stroke: #000000; stroke-width: 0.8"/>
      </g>
     </g>
     <g id="text_9">
      <!-- −0.2 -->
      <g transform="translate(384.645594 135.268886) scale(0.1 -0.1)">
       <use xlink:href="#DejaVuSans-2212"/>
       <use xlink:href="#DejaVuSans-30" x="83.789062"/>
       <use xlink:href="#DejaVuSans-2e" x="147.412109"/>
       <use xlink:href="#DejaVuSans-32" x="179.199219"/>
      </g>
     </g>
    </g>
    <g id="xtick_8">
     <g id="line2d_14">
      <g>
       <use xlink:href="#m4b702b6ebe" x="444.905" y="120.670449" style="stroke: #000000; stroke-width: 0.8"/>
      </g>
     </g>
     <g id="text_10">
      <!-- 0.0 -->
      <g transform="translate(436.953437 135.268886) scale(0.1 -0.1)">
       <use xlink:href="#DejaVuSans-30"/>
       <use xlink:href="#DejaVuSans-2e" x="63.623047"/>
       <use xlink:href="#DejaVuSans-30" x="95.410156"/>
      </g>
     </g>
    </g>
    <g id="xtick_9">
     <g id="line2d_15">
      <g>
       <use xlink:href="#m4b702b6ebe" x="493.023" y="120.670449" style="stroke: #000000; stroke-width: 0.8"/>
      </g>
     </g>
     <g id="text_11">
      <!-- 0.2 -->
      <g transform="translate(485.071437 135.268886) scale(0.1 -0.1)">
       <use xlink:href="#DejaVuSans-30"/>
       <use xlink:href="#DejaVuSans-2e" x="63.623047"/>
       <use xlink:href="#DejaVuSans-32" x="95.410156"/>
      </g>
     </g>
    </g>
    <g id="xtick_10">
     <g id="line2d_16">
      <g>
       <use xlink:href="#m4b702b6ebe" x="541.141" y="120.670449" style="stroke: #000000; stroke-width: 0.8"/>
      </g>
     </g>
     <g id="text_12">
      <!-- 0.4 -->
      <g transform="translate(533.189437 135.268886) scale(0.1 -0.1)">
       <use xlink:href="#DejaVuSans-30"/>
       <use xlink:href="#DejaVuSans-2e" x="63.623047"/>
       <use xlink:href="#DejaVuSans-34" x="95.410156"/>
      </g>
     </g>
    </g>
   </g>
   <g id="matplotlib.axis_4">
    <g id="ytick_3">
     <g id="line2d_17">
      <g>
       <use xlink:href="#md3f5d220c4" x="324.61" y="92.128551" style="stroke: #000000; stroke-width: 0.8"/>
      </g>
     </g>
     <g id="text_13">
      <!-- 0.3 -->
      <g transform="translate(301.706875 95.92777) scale(0.1 -0.1)">
       <use xlink:href="#DejaVuSans-30"/>
       <use xlink:href="#DejaVuSans-2e" x="63.623047"/>
       <use xlink:href="#DejaVuSans-33" x="95.410156"/>
      </g>
     </g>
    </g>
    <g id="ytick_4">
     <g id="line2d_18">
      <g>
       <use xlink:href="#md3f5d220c4" x="324.61" y="48.25397" style="stroke: #000000; stroke-width: 0.8"/>
      </g>
     </g>
     <g id="text_14">
      <!-- 0.4 -->
      <g transform="translate(301.706875 52.053188) scale(0.1 -0.1)">
       <use xlink:href="#DejaVuSans-30"/>
       <use xlink:href="#DejaVuSans-2e" x="63.623047"/>
       <use xlink:href="#DejaVuSans-34" x="95.410156"/>
      </g>
     </g>
    </g>
   </g>
   <g id="line2d_19">
    <path d="M 324.61 59.063898 
L 332.79006 57.649173 
L 340.97012 56.013549 
L 349.15018 54.156987 
L 357.33024 52.079482 
L 365.5103 49.781084 
L 373.69036 47.261914 
L 382.3516 44.354163 
L 391.01284 41.199542 
L 399.67408 37.798626 
L 408.33532 34.15221 
L 416.99656 30.261344 
L 425.6578 26.127381 
L 434.31904 21.752024 
L 442.98028 17.13738 
L 444.905 16.079655 
L 451.64152 23.785874 
L 458.37804 31.173216 
L 465.59574 38.751611 
L 472.81344 45.99899 
L 480.03114 52.931941 
L 487.24884 59.566085 
L 494.94772 66.329728 
L 502.6466 72.786954 
L 510.34548 78.953565 
L 518.04436 84.844423 
L 526.22442 90.816938 
L 534.40448 96.509683 
L 542.58454 101.937444 
L 551.24578 107.411081 
L 559.90702 112.61866 
L 565.2 115.676338 
L 565.2 115.676338 
" clip-path="url(#p9e609b37f9)" style="fill: none; stroke-dasharray: 5.55,2.4; stroke-dashoffset: 0; stroke: #1f77b4; stroke-width: 1.5"/>
   </g>
   <g id="line2d_20">
    <path d="M 324.61 58.995178 
L 332.79006 57.575534 
L 340.97012 55.934064 
L 349.15018 54.070654 
L 357.33024 51.985213 
L 365.5103 49.67769 
L 373.69036 47.148093 
L 381.87042 44.396503 
L 390.53166 41.241295 
L 399.1929 37.837777 
L 407.85414 34.1865 
L 416.51538 30.288238 
L 425.17662 26.144032 
L 433.83786 21.755227 
L 442.4991 17.123527 
L 444.905 15.794111 
L 451.64152 23.525532 
L 458.37804 30.935852 
L 465.59574 38.53662 
L 472.81344 45.804264 
L 480.03114 52.755569 
L 487.24884 59.406337 
L 494.94772 66.18599 
L 502.6466 72.65762 
L 510.34548 78.837193 
L 518.04436 84.739713 
L 526.22442 90.723341 
L 534.40448 96.42602 
L 542.58454 101.862661 
L 551.24578 107.344675 
L 559.90702 112.559692 
L 565.2 115.621499 
L 565.2 115.621499 
" clip-path="url(#p9e609b37f9)" style="fill: none; stroke: #1f77b4; stroke-width: 1.5; stroke-linecap: square"/>
   </g>
   <g id="line2d_21">
    <path d="M 324.61 59.063898 
L 332.79006 57.649173 
L 340.97012 56.013549 
L 349.15018 54.156987 
L 357.33024 52.079482 
L 365.5103 49.781084 
L 373.69036 47.261914 
L 382.3516 44.354163 
L 391.01284 41.199542 
L 399.67408 37.798626 
L 408.33532 34.15221 
L 416.99656 30.261344 
L 425.6578 26.127381 
L 434.31904 21.752024 
L 442.98028 17.13738 
L 444.905 16.079655 
L 451.64152 23.785874 
L 458.37804 31.173216 
L 465.59574 38.751611 
L 472.81344 45.99899 
L 480.03114 52.931941 
L 487.24884 59.566085 
L 494.94772 66.329728 
L 502.6466 72.786954 
L 510.34548 78.953565 
L 518.04436 84.844423 
L 526.22442 90.816938 
L 534.40448 96.509683 
L 542.58454 101.937444 
L 551.24578 107.411081 
L 559.90702 112.61866 
L 565.2 115.676338 
L 565.2 115.676338 
" clip-path="url(#p9e609b37f9)" style="fill: none; stroke-dasharray: 5.55,2.4; stroke-dashoffset: 0; stroke: #ff7f0e; stroke-width: 1.5"/>
   </g>
   <g id="line2d_22">
    <path d="M 324.61 58.995178 
L 332.79006 57.575534 
L 340.97012 55.934064 
L 349.15018 54.070654 
L 357.33024 51.985213 
L 365.5103 49.67769 
L 373.69036 47.148093 
L 381.87042 44.396503 
L 390.53166 41.241295 
L 399.1929 37.837777 
L 407.85414 34.1865 
L 416.51538 30.288238 
L 425.17662 26.144032 
L 433.83786 21.755227 
L 442.4991 17.123527 
L 444.905 15.794111 
L 451.64152 23.525532 
L 458.37804 30.935852 
L 465.59574 38.53662 
L 472.81344 45.804264 
L 480.03114 52.755569 
L 487.24884 59.406337 
L 494.94772 66.18599 
L 502.6466 72.65762 
L 510.34548 78.837193 
L 518.04436 84.739713 
L 526.22442 90.723341 
L 534.40448 96.42602 
L 542.58454 101.862661 
L 551.24578 107.344675 
L 559.90702 112.559692 
L 565.2 115.621499 
L 565.2 115.621499 
" clip-path="url(#p9e609b37f9)" style="fill: none; stroke: #ff7f0e; stroke-width: 1.5; stroke-linecap: square"/>
   </g>
   <g id="patch_8">
    <path d="M 324.61 120.670449 
L 324.61 10.8 
" style="fill: none; stroke: #000000; stroke-width: 0.8; stroke-linejoin: miter; stroke-linecap: square"/>
   </g>
   <g id="patch_9">
    <path d="M 565.2 120.670449 
L 565.2 10.8 
" style="fill: none; stroke: #000000; stroke-width: 0.8; stroke-linejoin: miter; stroke-linecap: square"/>
   </g>
   <g id="patch_10">
    <path d="M 324.61 120.670449 
L 565.2 120.670449 
" style="fill: none; stroke: #000000; stroke-width: 0.8; stroke-linejoin: miter; stroke-linecap: square"/>
   </g>
   <g id="patch_11">
    <path d="M 324.61 10.8 
L 565.2 10.8 
" style="fill: none; stroke: #000000; stroke-width: 0.8; stroke-linejoin: miter; stroke-linecap: square"/>
   </g>
  </g>
  <g id="axes_3">
   <g id="patch_12">
    <path d="M 42.01 260.12 
L 282.6 260.12 
L 282.6 150.249551 
L 42.01 150.249551 
z
" style="fill: #ffffff"/>
   </g>
   <g id="matplotlib.axis_5">
    <g id="xtick_11">
     <g id="line2d_23">
      <g>
       <use xlink:href="#m4b702b6ebe" x="66.069" y="260.12" style="stroke: #000000; stroke-width: 0.8"/>
      </g>
     </g>
     <g id="text_15">
      <!-- −0.4 -->
      <g transform="translate(53.927594 274.718437) scale(0.1 -0.1)">
       <use xlink:href="#DejaVuSans-2212"/>
       <use xlink:href="#DejaVuSans-30" x="83.789062"/>
       <use xlink:href="#DejaVuSans-2e" x="147.412109"/>
       <use xlink:href="#DejaVuSans-34" x="179.199219"/>
      </g>
     </g>
    </g>
    <g id="xtick_12">
     <g id="line2d_24">
      <g>
       <use xlink:href="#m4b702b6ebe" x="114.187" y="260.12" style="stroke: #000000; stroke-width: 0.8"/>
      </g>
     </g>
     <g id="text_16">
      <!-- −0.2 -->
      <g transform="translate(102.045594 274.718437) scale(0.1 -0.1)">
       <use xlink:href="#DejaVuSans-2212"/>
       <use xlink:href="#DejaVuSans-30" x="83.789062"/>
       <use xlink:href="#DejaVuSans-2e" x="147.412109"/>
       <use xlink:href="#DejaVuSans-32" x="179.199219"/>
      </g>
     </g>
    </g>
    <g id="xtick_13">
     <g id="line2d_25">
      <g>
       <use xlink:href="#m4b702b6ebe" x="162.305" y="260.12" style="stroke: #000000; stroke-width: 0.8"/>
      </g>
     </g>
     <g id="text_17">
      <!-- 0.0 -->
      <g transform="translate(154.353438 274.718437) scale(0.1 -0.1)">
       <use xlink:href="#DejaVuSans-30"/>
       <use xlink:href="#DejaVuSans-2e" x="63.623047"/>
       <use xlink:href="#DejaVuSans-30" x="95.410156"/>
      </g>
     </g>
    </g>
    <g id="xtick_14">
     <g id="line2d_26">
      <g>
       <use xlink:href="#m4b702b6ebe" x="210.423" y="260.12" style="stroke: #000000; stroke-width: 0.8"/>
      </g>
     </g>
     <g id="text_18">
      <!-- 0.2 -->
      <g transform="translate(202.471438 274.718437) scale(0.1 -0.1)">
       <use xlink:href="#DejaVuSans-30"/>
       <use xlink:href="#DejaVuSans-2e" x="63.623047"/>
       <use xlink:href="#DejaVuSans-32" x="95.410156"/>
      </g>
     </g>
    </g>
    <g id="xtick_15">
     <g id="line2d_27">
      <g>
       <use xlink:href="#m4b702b6ebe" x="258.541" y="260.12" style="stroke: #000000; stroke-width: 0.8"/>
      </g>
     </g>
     <g id="text_19">
      <!-- 0.4 -->
      <g transform="translate(250.589437 274.718437) scale(0.1 -0.1)">
       <use xlink:href="#DejaVuSans-30"/>
       <use xlink:href="#DejaVuSans-2e" x="63.623047"/>
       <use xlink:href="#DejaVuSans-34" x="95.410156"/>
      </g>
     </g>
    </g>
   </g>
   <g id="matplotlib.axis_6">
    <g id="ytick_5">
     <g id="line2d_28">
      <g>
       <use xlink:href="#md3f5d220c4" x="42.01" y="241.496079" style="stroke: #000000; stroke-width: 0.8"/>
      </g>
     </g>
     <g id="text_20">
      <!-- −1.0 -->
      <g transform="translate(10.727188 245.295298) scale(0.1 -0.1)">
       <defs>
        <path id="DejaVuSans-31" d="M 794 531 
L 1825 531 
L 1825 4091 
L 703 3866 
L 703 4441 
L 1819 4666 
L 2450 4666 
L 2450 531 
L 3481 531 
L 3481 0 
L 794 0 
L 794 531 
z
" transform="scale(0.015625)"/>
       </defs>
       <use xlink:href="#DejaVuSans-2212"/>
       <use xlink:href="#DejaVuSans-31" x="83.789062"/>
       <use xlink:href="#DejaVuSans-2e" x="147.412109"/>
       <use xlink:href="#DejaVuSans-30" x="179.199219"/>
      </g>
     </g>
    </g>
    <g id="ytick_6">
     <g id="line2d_29">
      <g>
       <use xlink:href="#md3f5d220c4" x="42.01" y="211.902018" style="stroke: #000000; stroke-width: 0.8"/>
      </g>
     </g>
     <g id="text_21">
      <!-- −0.8 -->
      <g transform="translate(10.727188 215.701237) scale(0.1 -0.1)">
       <defs>
        <path id="DejaVuSans-38" d="M 2034 2216 
Q 1584 2216 1326 1975 
Q 1069 1734 1069 1313 
Q 1069 891 1326 650 
Q 1584 409 2034 409 
Q 2484 409 2743 651 
Q 3003 894 3003 1313 
Q 3003 1734 2745 1975 
Q 2488 2216 2034 2216 
z
M 1403 2484 
Q 997 2584 770 2862 
Q 544 3141 544 3541 
Q 544 4100 942 4425 
Q 1341 4750 2034 4750 
Q 2731 4750 3128 4425 
Q 3525 4100 3525 3541 
Q 3525 3141 3298 2862 
Q 3072 2584 2669 2484 
Q 3125 2378 3379 2068 
Q 3634 1759 3634 1313 
Q 3634 634 3220 271 
Q 2806 -91 2034 -91 
Q 1263 -91 848 271 
Q 434 634 434 1313 
Q 434 1759 690 2068 
Q 947 2378 1403 2484 
z
M 1172 3481 
Q 1172 3119 1398 2916 
Q 1625 2713 2034 2713 
Q 2441 2713 2670 2916 
Q 2900 3119 2900 3481 
Q 2900 3844 2670 4047 
Q 2441 4250 2034 4250 
Q 1625 4250 1398 4047 
Q 1172 3844 1172 3481 
z
" transform="scale(0.015625)"/>
       </defs>
       <use xlink:href="#DejaVuSans-2212"/>
       <use xlink:href="#DejaVuSans-30" x="83.789062"/>
       <use xlink:href="#DejaVuSans-2e" x="147.412109"/>
       <use xlink:href="#DejaVuSans-38" x="179.199219"/>
      </g>
     </g>
    </g>
    <g id="ytick_7">
     <g id="line2d_30">
      <g>
       <use xlink:href="#md3f5d220c4" x="42.01" y="182.307956" style="stroke: #000000; stroke-width: 0.8"/>
      </g>
     </g>
     <g id="text_22">
      <!-- −0.6 -->
      <g transform="translate(10.727188 186.107175) scale(0.1 -0.1)">
       <defs>
        <path id="DejaVuSans-36" d="M 2113 2584 
Q 1688 2584 1439 2293 
Q 1191 2003 1191 1497 
Q 1191 994 1439 701 
Q 1688 409 2113 409 
Q 2538 409 2786 701 
Q 3034 994 3034 1497 
Q 3034 2003 2786 2293 
Q 2538 2584 2113 2584 
z
M 3366 4563 
L 3366 3988 
Q 3128 4100 2886 4159 
Q 2644 4219 2406 4219 
Q 1781 4219 1451 3797 
Q 1122 3375 1075 2522 
Q 1259 2794 1537 2939 
Q 1816 3084 2150 3084 
Q 2853 3084 3261 2657 
Q 3669 2231 3669 1497 
Q 3669 778 3244 343 
Q 2819 -91 2113 -91 
Q 1303 -91 875 529 
Q 447 1150 447 2328 
Q 447 3434 972 4092 
Q 1497 4750 2381 4750 
Q 2619 4750 2861 4703 
Q 3103 4656 3366 4563 
z
" transform="scale(0.015625)"/>
       </defs>
       <use xlink:href="#DejaVuSans-2212"/>
       <use xlink:href="#DejaVuSans-30" x="83.789062"/>
       <use xlink:href="#DejaVuSans-2e" x="147.412109"/>
       <use xlink:href="#DejaVuSans-36" x="179.199219"/>
      </g>
     </g>
    </g>
    <g id="ytick_8">
     <g id="line2d_31">
      <g>
       <use xlink:href="#md3f5d220c4" x="42.01" y="152.713895" style="stroke: #000000; stroke-width: 0.8"/>
      </g>
     </g>
     <g id="text_23">
      <!-- −0.4 -->
      <g transform="translate(10.727188 156.513114) scale(0.1 -0.1)">
       <use xlink:href="#DejaVuSans-2212"/>
       <use xlink:href="#DejaVuSans-30" x="83.789062"/>
       <use xlink:href="#DejaVuSans-2e" x="147.412109"/>
       <use xlink:href="#DejaVuSans-34" x="179.199219"/>
      </g>
     </g>
    </g>
   </g>
   <g id="line2d_32">
    <path d="M 42.01 218.955033 
L 58.37012 221.412203 
L 73.76788 223.948065 
L 87.7221 226.468975 
L 100.23278 228.953431 
L 110.81874 231.274387 
L 119.47998 233.383254 
L 126.69768 235.355878 
L 132.47184 237.152827 
L 137.28364 238.887876 
L 141.13308 240.526662 
L 144.02016 241.988439 
L 146.42606 243.44304 
L 148.35078 244.839388 
L 150.2755 246.548147 
L 151.71904 248.136007 
L 153.16258 250.123451 
L 154.12494 251.774309 
L 155.0873 253.807099 
L 156.04966 256.397654 
L 157.01202 259.849678 
L 157.97438 264.736834 
L 158.45556 268.054717 
L 158.93674 272.288397 
L 159.41792 277.895651 
L 160.035376 289 
M 163.256991 289 
L 163.26736 286.517597 
L 163.74854 248.22142 
L 164.22972 229.150805 
L 164.7109 217.769804 
L 165.19208 210.2331 
L 165.67326 204.892698 
L 166.63562 197.871023 
L 167.59798 193.508648 
L 168.56034 190.576276 
L 169.5227 188.50022 
L 170.48506 186.976754 
L 171.44742 185.830021 
L 172.40978 184.951149 
L 173.85332 183.986208 
L 175.29686 183.316726 
L 177.22158 182.73038 
L 179.1463 182.378365 
L 181.5522 182.152327 
L 184.92046 182.082425 
L 189.73226 182.248979 
L 199.35586 182.885889 
L 208.97946 183.435915 
L 216.19716 183.627475 
L 222.4525 183.585731 
L 228.70784 183.320278 
L 234.482 182.855543 
L 240.25616 182.162019 
L 245.54914 181.311184 
L 250.84212 180.241696 
L 256.1351 178.940978 
L 261.42808 177.396196 
L 266.23988 175.768921 
L 271.05168 173.918652 
L 275.86348 171.834578 
L 280.67528 169.505342 
L 282.6 168.502338 
L 282.6 168.502338 
" clip-path="url(#pbf5a356285)" style="fill: none; stroke-dasharray: 5.55,2.4; stroke-dashoffset: 0; stroke: #1f77b4; stroke-width: 1.5"/>
   </g>
   <g id="line2d_33">
    <path d="M 42.01 218.958372 
L 59.81366 221.573731 
L 76.65496 224.26718 
L 93.01508 227.104864 
L 108.89402 230.083414 
L 124.29178 233.197552 
L 139.20836 236.440005 
L 153.64376 239.801466 
L 161.82382 241.808259 
M 162.78618 173.22589 
L 170.00388 175.366229 
L 177.22158 177.277849 
L 183.9581 178.84471 
L 190.69462 180.190508 
L 197.43114 181.303367 
L 203.68648 182.116993 
L 209.94182 182.707767 
L 216.19716 183.063964 
L 221.97132 183.173757 
L 227.74548 183.062576 
L 233.51964 182.71934 
L 238.81262 182.190833 
L 244.1056 181.447899 
L 249.39858 180.480429 
L 254.69156 179.277735 
L 259.98454 177.828501 
L 264.79634 176.286993 
L 269.60814 174.522271 
L 274.41994 172.524217 
L 279.23174 170.282092 
L 282.6 168.561293 
L 282.6 168.561293 
" clip-path="url(#pbf5a356285)" style="fill: none; stroke: #1f77b4; stroke-width: 1.5; stroke-linecap: square"/>
   </g>
   <g id="line2d_34">
    <path d="M 42.01 218.955033 
L 58.37012 221.412203 
L 73.76788 223.948065 
L 87.7221 226.468975 
L 100.23278 228.953431 
L 110.81874 231.274387 
L 119.47998 233.383254 
L 126.69768 235.355878 
L 132.47184 237.152827 
L 137.28364 238.887876 
L 141.13308 240.526662 
L 144.02016 241.988439 
L 146.42606 243.44304 
L 148.35078 244.839388 
L 150.2755 246.548147 
L 151.71904 248.136007 
L 153.16258 250.123451 
L 154.12494 251.774309 
L 155.0873 253.807099 
L 156.04966 256.397654 
L 157.01202 259.849678 
L 157.97438 264.736834 
L 158.45556 268.054717 
L 158.93674 272.288397 
L 159.41792 277.895651 
L 160.035376 289 
M 163.256991 289 
L 163.26736 286.517597 
L 163.74854 248.22142 
L 164.22972 229.150805 
L 164.7109 217.769804 
L 165.19208 210.2331 
L 165.67326 204.892698 
L 166.63562 197.871023 
L 167.59798 193.508648 
L 168.56034 190.576276 
L 169.5227 188.50022 
L 170.48506 186.976754 
L 171.44742 185.830021 
L 172.40978 184.951149 
L 173.85332 183.986208 
L 175.29686 183.316726 
L 177.22158 182.73038 
L 179.1463 182.378365 
L 181.5522 182.152327 
L 184.92046 182.082425 
L 189.73226 182.248979 
L 199.35586 182.885889 
L 208.97946 183.435915 
L 216.19716 183.627475 
L 222.4525 183.585731 
L 228.70784 183.320278 
L 234.482 182.855543 
L 240.25616 182.162019 
L 245.54914 181.311184 
L 250.84212 180.241696 
L 256.1351 178.940978 
L 261.42808 177.396196 
L 266.23988 175.768921 
L 271.05168 173.918652 
L 275.86348 171.834578 
L 280.67528 169.505342 
L 282.6 168.502338 
L 282.6 168.502338 
" clip-path="url(#pbf5a356285)" style="fill: none; stroke-dasharray: 5.55,2.4; stroke-dashoffset: 0; stroke: #ff7f0e; stroke-width: 1.5"/>
   </g>
   <g id="line2d_35">
    <path d="M 42.01 218.958372 
L 59.81366 221.573731 
L 76.65496 224.26718 
L 93.01508 227.104864 
L 108.89402 230.083414 
L 124.29178 233.197552 
L 139.20836 236.440005 
L 153.64376 239.801466 
L 161.82382 241.808259 
M 162.78618 173.22589 
L 170.00388 175.366229 
L 177.22158 177.277849 
L 183.9581 178.84471 
L 190.69462 180.190508 
L 197.43114 181.303367 
L 203.68648 182.116993 
L 209.94182 182.707767 
L 216.19716 183.063964 
L 221.97132 183.173757 
L 227.74548 183.062576 
L 233.51964 182.71934 
L 238.81262 182.190833 
L 244.1056 181.447899 
L 249.39858 180.480429 
L 254.69156 179.277735 
L 259.98454 177.828501 
L 264.79634 176.286993 
L 269.60814 174.522271 
L 274.41994 172.524217 
L 279.23174 170.282092 
L 282.6 168.561293 
L 282.6 168.561293 
" clip-path="url(#pbf5a356285)" style="fill: none; stroke: #ff7f0e; stroke-width: 1.5; stroke-linecap: square"/>
   </g>
   <g id="patch_13">
    <path d="M 42.01 260.12 
L 42.01 150.249551 
" style="fill: none; stroke: #000000; stroke-width: 0.8; stroke-linejoin: miter; stroke-linecap: square"/>
   </g>
   <g id="patch_14">
    <path d="M 282.6 260.12 
L 282.6 150.249551 
" style="fill: none; stroke: #000000; stroke-width: 0.8; stroke-linejoin: miter; stroke-linecap: square"/>
   </g>
   <g id="patch_15">
    <path d="M 42.01 260.12 
L 282.6 260.12 
" style="fill: none; stroke: #000000; stroke-width: 0.8; stroke-linejoin: miter; stroke-linecap: square"/>
   </g>
   <g id="patch_16">
    <path d="M 42.01 150.249551 
L 282.6 150.249551 
" style="fill: none; stroke: #000000; stroke-width: 0.8; stroke-linejoin: miter; stroke-linecap: square"/>
   </g>
  </g>
  <g id="axes_4">
   <g id="patch_17">
    <path d="M 324.61 260.12 
L 565.2 260.12 
L 565.2 150.249551 
L 324.61 150.249551 
z
" style="fill: #ffffff"/>
   </g>
   <g id="matplotlib.axis_7">
    <g id="xtick_16">
     <g id="line2d_36">
      <g>
       <use xlink:href="#m4b702b6ebe" x="348.669" y="260.12" style="stroke: #000000; stroke-width: 0.8"/>
      </g>
     </g>
     <g id="text_24">
      <!-- −0.4 -->
      <g transform="translate(336.527594 274.718437) scale(0.1 -0.1)">
       <use xlink:href="#DejaVuSans-2212"/>
       <use xlink:href="#DejaVuSans-30" x="83.789062"/>
       <use xlink:href="#DejaVuSans-2e" x="147.412109"/>
       <use xlink:href="#DejaVuSans-34" x="179.199219"/>
      </g>
     </g>
    </g>
    <g id="xtick_17">
     <g id="line2d_37">
      <g>
       <use xlink:href="#m4b702b6ebe" x="396.787" y="260.12" style="stroke: #000000; stroke-width: 0.8"/>
      </g>
     </g>
     <g id="text_25">
      <!-- −0.2 -->
      <g transform="translate(384.645594 274.718437) scale(0.1 -0.1)">
       <use xlink:href="#DejaVuSans-2212"/>
       <use xlink:href="#DejaVuSans-30" x="83.789062"/>
       <use xlink:href="#DejaVuSans-2e" x="147.412109"/>
       <use xlink:href="#DejaVuSans-32" x="179.199219"/>
      </g>
     </g>
    </g>
    <g id="xtick_18">
     <g id="line2d_38">
      <g>
       <use xlink:href="#m4b702b6ebe" x="444.905" y="260.12" style="stroke: #000000; stroke-width: 0.8"/>
      </g>
     </g>
     <g id="text_26">
      <!-- 0.0 -->
      <g transform="translate(436.953437 274.718437) scale(0.1 -0.1)">
       <use xlink:href="#DejaVuSans-30"/>
       <use xlink:href="#DejaVuSans-2e" x="63.623047"/>
       <use xlink:href="#DejaVuSans-30" x="95.410156"/>
      </g>
     </g>
    </g>
    <g id="xtick_19">
     <g id="line2d_39">
      <g>
       <use xlink:href="#m4b702b6ebe" x="493.023" y="260.12" style="stroke: #000000; stroke-width: 0.8"/>
      </g>
     </g>
     <g id="text_27">
      <!-- 0.2 -->
      <g transform="translate(485.071437 274.718437) scale(0.1 -0.1)">
       <use xlink:href="#DejaVuSans-30"/>
       <use xlink:href="#DejaVuSans-2e" x="63.623047"/>
       <use xlink:href="#DejaVuSans-32" x="95.410156"/>
      </g>
     </g>
    </g>
    <g id="xtick_20">
     <g id="line2d_40">
      <g>
       <use xlink:href="#m4b702b6ebe" x="541.141" y="260.12" style="stroke: #000000; stroke-width: 0.8"/>
      </g>
     </g>
     <g id="text_28">
      <!-- 0.4 -->
      <g transform="translate(533.189437 274.718437) scale(0.1 -0.1)">
       <use xlink:href="#DejaVuSans-30"/>
       <use xlink:href="#DejaVuSans-2e" x="63.623047"/>
       <use xlink:href="#DejaVuSans-34" x="95.410156"/>
      </g>
     </g>
    </g>
   </g>
   <g id="matplotlib.axis_8">
    <g id="ytick_9">
     <g id="line2d_41">
      <g>
       <use xlink:href="#md3f5d220c4" x="324.61" y="241.496079" style="stroke: #000000; stroke-width: 0.8"/>
      </g>
     </g>
     <g id="text_29">
      <!-- −1.0 -->
      <g transform="translate(293.327188 245.295298) scale(0.1 -0.1)">
       <use xlink:href="#DejaVuSans-2212"/>
       <use xlink:href="#DejaVuSans-31" x="83.789062"/>
       <use xlink:href="#DejaVuSans-2e" x="147.412109"/>
       <use xlink:href="#DejaVuSans-30" x="179.199219"/>
      </g>
     </g>
    </g>
    <g id="ytick_10">
     <g id="line2d_42">
      <g>
       <use xlink:href="#md3f5d220c4" x="324.61" y="211.902018" style="stroke: #000000; stroke-width: 0.8"/>
      </g>
     </g>
     <g id="text_30">
      <!-- −0.8 -->
      <g transform="translate(293.327188 215.701237) scale(0.1 -0.1)">
       <use xlink:href="#DejaVuSans-2212"/>
       <use xlink:href="#DejaVuSans-30" x="83.789062"/>
       <use xlink:href="#DejaVuSans-2e" x="147.412109"/>
       <use xlink:href="#DejaVuSans-38" x="179.199219"/>
      </g>
     </g>
    </g>
    <g id="ytick_11">
     <g id="line2d_43">
      <g>
       <use xlink:href="#md3f5d220c4" x="324.61" y="182.307956" style="stroke: #000000; stroke-width: 0.8"/>
      </g>
     </g>
     <g id="text_31">
      <!-- −0.6 -->
      <g transform="translate(293.327188 186.107175) scale(0.1 -0.1)">
       <use xlink:href="#DejaVuSans-2212"/>
       <use xlink:href="#DejaVuSans-30" x="83.789062"/>
       <use xlink:href="#DejaVuSans-2e" x="147.412109"/>
       <use xlink:href="#DejaVuSans-36" x="179.199219"/>
      </g>
     </g>
    </g>
    <g id="ytick_12">
     <g id="line2d_44">
      <g>
       <use xlink:href="#md3f5d220c4" x="324.61" y="152.713895" style="stroke: #000000; stroke-width: 0.8"/>
      </g>
     </g>
     <g id="text_32">
      <!-- −0.4 -->
      <g transform="translate(293.327188 156.513114) scale(0.1 -0.1)">
       <use xlink:href="#DejaVuSans-2212"/>
       <use xlink:href="#DejaVuSans-30" x="83.789062"/>
       <use xlink:href="#DejaVuSans-2e" x="147.412109"/>
       <use xlink:href="#DejaVuSans-34" x="179.199219"/>
      </g>
     </g>
    </g>
   </g>
   <g id="line2d_45">
    <path d="M 324.61 168.502338 
L 329.4218 170.93296 
L 334.2336 173.113702 
L 339.0454 175.056167 
L 343.8572 176.771374 
L 349.15018 178.408164 
L 354.44316 179.796129 
L 359.73614 180.948236 
L 365.02912 181.877135 
L 370.80328 182.650616 
L 376.57744 183.18974 
L 382.3516 183.511512 
L 388.60694 183.636184 
L 395.34346 183.540276 
L 403.04234 183.192883 
L 423.73308 182.085838 
L 426.62016 182.220113 
L 429.02606 182.530824 
L 430.95078 182.98773 
L 432.39432 183.513585 
L 433.83786 184.269124 
L 434.80022 184.951149 
L 435.76258 185.830021 
L 436.72494 186.976754 
L 437.6873 188.50022 
L 438.64966 190.576276 
L 439.61202 193.508648 
L 440.0932 195.457303 
L 440.57438 197.871023 
L 441.05556 200.924598 
L 441.53674 204.892698 
L 442.01792 210.2331 
L 442.4991 217.769804 
L 442.98028 229.150805 
L 443.46146 248.22142 
L 443.953009 289 
M 447.174624 289 
L 447.3109 285.700475 
L 447.79208 277.895651 
L 448.27326 272.288397 
L 449.23562 264.736834 
L 450.19798 259.849678 
L 451.16034 256.397654 
L 452.1227 253.807099 
L 453.08506 251.774309 
L 454.5286 249.405532 
L 455.97214 247.570002 
L 457.41568 246.083878 
L 459.3404 244.465835 
L 461.26512 243.130001 
L 463.67102 241.726532 
L 466.5581 240.305316 
L 469.92636 238.887876 
L 474.25698 237.31475 
L 479.54996 235.63917 
L 486.28648 233.759196 
L 494.46654 231.723946 
L 504.09014 229.563636 
L 515.63846 227.208208 
L 528.63032 224.791183 
L 543.06572 222.335839 
L 558.94466 219.867994 
L 565.2 218.955033 
L 565.2 218.955033 
" clip-path="url(#p8a420240b1)" style="fill: none; stroke-dasharray: 5.55,2.4; stroke-dashoffset: 0; stroke: #1f77b4; stroke-width: 1.5"/>
   </g>
   <g id="line2d_46">
    <path d="M 324.61 168.561293 
L 329.4218 170.981023 
L 334.2336 173.148759 
L 339.0454 175.075715 
L 343.8572 176.772438 
L 348.669 178.248869 
L 353.96198 179.629704 
L 359.25496 180.767152 
L 364.54794 181.67235 
L 369.84092 182.355824 
L 375.1339 182.827535 
L 380.90806 183.111683 
L 386.68222 183.166607 
L 392.45638 183.003227 
L 398.71172 182.591816 
L 404.96706 181.948602 
L 411.2224 181.085134 
L 417.95892 179.921314 
L 424.69544 178.527176 
L 431.43196 176.914404 
L 438.64966 174.95608 
L 444.42382 173.22589 
M 445.38618 241.808259 
L 459.82158 238.317083 
L 474.25698 235.052389 
L 489.17356 231.904684 
L 504.57132 228.882661 
L 520.45026 225.993062 
L 536.81038 223.240719 
L 554.13286 220.557137 
L 565.2 218.958372 
L 565.2 218.958372 
" clip-path="url(#p8a420240b1)" style="fill: none; stroke: #1f77b4; stroke-width: 1.5; stroke-linecap: square"/>
   </g>
   <g id="line2d_47">
    <path d="M 324.61 168.502338 
L 329.4218 170.93296 
L 334.2336 173.113702 
L 339.0454 175.056167 
L 343.8572 176.771374 
L 349.15018 178.408164 
L 354.44316 179.796129 
L 359.73614 180.948236 
L 365.02912 181.877135 
L 370.80328 182.650616 
L 376.57744 183.18974 
L 382.3516 183.511512 
L 388.60694 183.636184 
L 395.34346 183.540276 
L 403.04234 183.192883 
L 423.73308 182.085838 
L 426.62016 182.220113 
L 429.02606 182.530824 
L 430.95078 182.98773 
L 432.39432 183.513585 
L 433.83786 184.269124 
L 434.80022 184.951149 
L 435.76258 185.830021 
L 436.72494 186.976754 
L 437.6873 188.50022 
L 438.64966 190.576276 
L 439.61202 193.508648 
L 440.0932 195.457303 
L 440.57438 197.871023 
L 441.05556 200.924598 
L 441.53674 204.892698 
L 442.01792 210.2331 
L 442.4991 217.769804 
L 442.98028 229.150805 
L 443.46146 248.22142 
L 443.953009 289 
M 447.174624 289 
L 447.3109 285.700475 
L 447.79208 277.895651 
L 448.27326 272.288397 
L 449.23562 264.736834 
L 450.19798 259.849678 
L 451.16034 256.397654 
L 452.1227 253.807099 
L 453.08506 251.774309 
L 454.5286 249.405532 
L 455.97214 247.570002 
L 457.41568 246.083878 
L 459.3404 244.465835 
L 461.26512 243.130001 
L 463.67102 241.726532 
L 466.5581 240.305316 
L 469.92636 238.887876 
L 474.25698 237.31475 
L 479.54996 235.63917 
L 486.28648 233.759196 
L 494.46654 231.723946 
L 504.09014 229.563636 
L 515.63846 227.208208 
L 528.63032 224.791183 
L 543.06572 222.335839 
L 558.94466 219.867994 
L 565.2 218.955033 
L 565.2 218.955033 
" clip-path="url(#p8a420240b1)" style="fill: none; stroke-dasharray: 5.55,2.4; stroke-dashoffset: 0; stroke: #ff7f0e; stroke-width: 1.5"/>
   </g>
   <g id="line2d_48">
    <path d="M 324.61 168.561293 
L 329.4218 170.981023 
L 334.2336 173.148759 
L 339.0454 175.075715 
L 343.8572 176.772438 
L 348.669 178.248869 
L 353.96198 179.629704 
L 359.25496 180.767152 
L 364.54794 181.67235 
L 369.84092 182.355824 
L 375.1339 182.827535 
L 380.90806 183.111683 
L 386.68222 183.166607 
L 392.45638 183.003227 
L 398.71172 182.591816 
L 404.96706 181.948602 
L 411.2224 181.085134 
L 417.95892 179.921314 
L 424.69544 178.527176 
L 431.43196 176.914404 
L 438.64966 174.95608 
L 444.42382 173.22589 
M 445.38618 241.808259 
L 459.82158 238.317083 
L 474.25698 235.052389 
L 489.17356 231.904684 
L 504.57132 228.882661 
L 520.45026 225.993062 
L 536.81038 223.240719 
L 554.13286 220.557137 
L 565.2 218.958372 
L 565.2 218.958372 
" clip-path="url(#p8a420240b1)" style="fill: none; stroke: #ff7f0e; stroke-width: 1.5; stroke-linecap: square"/>
   </g>
   <g id="patch_18">
    <path d="M 324.61 260.12 
L 324.61 150.249551 
" style="fill: none; stroke: #000000; stroke-width: 0.8; stroke-linejoin: miter; stroke-linecap: square"/>
   </g>
   <g id="patch_19">
    <path d="M 565.2 260.12 
L 565.2 150.249551 
" style="fill: none; stroke: #000000; stroke-width: 0.8; stroke-linejoin: miter; stroke-linecap: square"/>
   </g>
   <g id="patch_20">
    <path d="M 324.61 260.12 
L 565.2 260.12 
" style="fill: none; stroke: #000000; stroke-width: 0.8; stroke-linejoin: miter; stroke-linecap: square"/>
   </g>
   <g id="patch_21">
    <path d="M 324.61 150.249551 
L 565.2 150.249551 
" style="fill: none; stroke: #000000; stroke-width: 0.8; stroke-linejoin: miter; stroke-linecap: square"/>
   </g>
  </g>
 </g>
 <defs>
  <clipPath id="p4ea3e6dcee">
   <rect x="42.01" y="10.8" width="240.59" height="109.870449"/>
  </clipPath>
  <clipPath id="p9e609b37f9">
   <rect x="324.61" y="10.8" width="240.59" height="109.870449"/>
  </clipPath>
  <clipPath id="pbf5a356285">
   <rect x="42.01" y="150.249551" width="240.59" height="109.870449"/>
  </clipPath>
  <clipPath id="p8a420240b1">
   <rect x="324.61" y="150.249551" width="240.59" height="109.870449"/>
  </clipPath>
 </defs>
</svg>
