<?xml version="1.0" encoding="utf-8" standalone="no"?>
<!DOCTYPE svg PUBLIC "-//W3C//DTD SVG 1.1//EN"
  "http://www.w3.org/Graphics/SVG/1.1/DTD/svg11.dtd">
<svg xmlns:xlink="http://www.w3.org/1999/xlink" width="576pt" height="288pt" viewBox="0 0 576 288" xmlns="http://www.w3.org/2000/svg" version="1.1">
 <metadata>
  <rdf:RDF xmlns:dc="http://purl.org/dc/elements/1.1/" xmlns:cc="http://creativecommons.org/ns#" xmlns:rdf="http://www.w3.org/1999/02/22-rdf-syntax-ns#">
   <cc:Work>
    <dc:type rdf:resource="http://purl.org/dc/dcmitype/StillImage"/>
    <dc:date>2026-05-25T13:28:01.399786</dc:date>
    <dc:format>image/svg+xml</dc:format>
    <dc:creator>
     <cc:Agent>
      <dc:title>Matplotlib v3.10.9, https://matplotlib.org/</dc:title>
     </cc:Agent>
    </dc:creator>
   </cc:Work>
  </rdf:RDF>
 </metadata>
 <defs>
  <style type="text/css">*{stroke-linejoin: round; stroke-linecap: butt}</style>
 </defs>
 <g id="figure_1">
  <g id="patch_1">
   <path d="M 0 288 
L 576 288 
L 576 0 
L 0 0 
z
" style="fill: #ffffff"/>
  </g>
  <g id="axes_1">
   <g id="patch_2">
    <path d="M 42.01 121.52 
L 282.6 121.52 
L 282.6 26.88 
L 42.01 26.88 
z
" style="fill: #ffffff"/>
   </g>
   <g id="matplotlib.axis_1">
    <g id="xtick_1">
     <g id="line2d_1">
      <defs>
       <path id="mac1dc1884a" d="M 0 0 
L 0 3.5 
" style="stroke: #000000; stroke-width: 0.8"/>
      </defs>
      <g>
       <use xlink:href="#mac1dc1884a" x="66.069" y="121.52" style="stroke: #000000; stroke-width: 0.8"/>
      </g>
     </g>
     <g id="text_1">
      <!-- −0.4 -->
      <g transform="translate(53.927594 136.118437) scale(0.1 -0.1)">
       <defs>
        <path id="DejaVuSans-2212" d="M 678 2272 
L 4684 2272 
L 4684 1741 
L 678 1741 
L 678 2272 
z
" transform="scale(0.015625)"/>
        <path id="DejaVuSans-30" d="M 2034 4250 
Q 1547 4250 1301 3770 
Q 1056 3291 1056 2328 
Q 1056 1369 1301 889 
Q 1547 409 2034 409 
Q 2525 409 2770 889 
Q 3016 1369 3016 2328 
Q 3016 3291 2770 3770 
Q 2525 4250 2034 4250 
z
M 2034 4750 
Q 2819 4750 3233 4129 
Q 3647 3509 3647 2328 
Q 3647 1150 3233 529 
Q 2819 -91 2034 -91 
Q 1250 -91 836 529 
Q 422 1150 422 2328 
Q 422 3509 836 4129 
Q 1250 4750 2034 4750 
z
" transform="scale(0.015625)"/>
        <path id="DejaVuSans-2e" d="M 684 794 
L 1344 794 
L 1344 0 
L 684 0 
L 684 794 
z
" transform="scale(0.015625)"/>
        <path id="DejaVuSans-34" d="M 2419 4116 
L 825 1625 
L 2419 1625 
L 2419 4116 
z
M 2253 4666 
L 3047 4666 
L 3047 1625 
L 3713 1625 
L 3713 1100 
L 3047 1100 
L 3047 0 
L 2419 0 
L 2419 1100 
L 313 1100 
L 313 1709 
L 2253 4666 
z
" transform="scale(0.015625)"/>
       </defs>
       <use xlink:href="#DejaVuSans-2212"/>
       <use xlink:href="#DejaVuSans-30" transform="translate(83.789062 0)"/>
       <use xlink:href="#DejaVuSans-2e" transform="translate(147.412109 0)"/>
       <use xlink:href="#DejaVuSans-34" transform="translate(179.199219 0)"/>
      </g>
     </g>
    </g>
    <g id="xtick_2">
     <g id="line2d_2">
      <g>
       <use xlink:href="#mac1dc1884a" x="114.187" y="121.52" style="stroke: #000000; stroke-width: 0.8"/>
      </g>
     </g>
     <g id="text_2">
      <!-- −0.2 -->
      <g transform="translate(102.045594 136.118437) scale(0.1 -0.1)">
       <defs>
        <path id="DejaVuSans-32" d="M 1228 531 
L 3431 531 
L 3431 0 
L 469 0 
L 469 531 
Q 828 903 1448 1529 
Q 2069 2156 2228 2338 
Q 2531 2678 2651 2914 
Q 2772 3150 2772 3378 
Q 2772 3750 2511 3984 
Q 2250 4219 1831 4219 
Q 1534 4219 1204 4116 
Q 875 4013 500 3803 
L 500 4441 
Q 881 4594 1212 4672 
Q 1544 4750 1819 4750 
Q 2544 4750 2975 4387 
Q 3406 4025 3406 3419 
Q 3406 3131 3298 2873 
Q 3191 2616 2906 2266 
Q 2828 2175 2409 1742 
Q 1991 1309 1228 531 
z
" transform="scale(0.015625)"/>
       </defs>
       <use xlink:href="#DejaVuSans-2212"/>
       <use xlink:href="#DejaVuSans-30" transform="translate(83.789062 0)"/>
       <use xlink:href="#DejaVuSans-2e" transform="translate(147.412109 0)"/>
       <use xlink:href="#DejaVuSans-32" transform="translate(179.199219 0)"/>
      </g>
     </g>
    </g>
    <g id="xtick_3">
     <g id="line2d_3">
      <g>
       <use xlink:href="#mac1dc1884a" x="162.305" y="121.52" style="stroke: #000000; stroke-width: 0.8"/>
      </g>
     </g>
     <g id="text_3">
      <!-- 0.0 -->
      <g transform="translate(154.353438 136.118437) scale(0.1 -0.1)">
       <use xlink:href="#DejaVuSans-30"/>
       <use xlink:href="#DejaVuSans-2e" transform="translate(63.623047 0)"/>
       <use xlink:href="#DejaVuSans-30" transform="translate(95.410156 0)"/>
      </g>
     </g>
    </g>
    <g id="xtick_4">
     <g id="line2d_4">
      <g>
       <use xlink:href="#mac1dc1884a" x="210.423" y="121.52" style="stroke: #000000; stroke-width: 0.8"/>
      </g>
     </g>
     <g id="text_4">
      <!-- 0.2 -->
      <g transform="translate(202.471438 136.118437) scale(0.1 -0.1)">
       <use xlink:href="#DejaVuSans-30"/>
       <use xlink:href="#DejaVuSans-2e" transform="translate(63.623047 0)"/>
       <use xlink:href="#DejaVuSans-32" transform="translate(95.410156 0)"/>
      </g>
     </g>
    </g>
    <g id="xtick_5">
     <g id="line2d_5">
      <g>
       <use xlink:href="#mac1dc1884a" x="258.541" y="121.52" style="stroke: #000000; stroke-width: 0.8"/>
      </g>
     </g>
     <g id="text_5">
      <!-- 0.4 -->
      <g transform="translate(250.589437 136.118437) scale(0.1 -0.1)">
       <use xlink:href="#DejaVuSans-30"/>
       <use xlink:href="#DejaVuSans-2e" transform="translate(63.623047 0)"/>
       <use xlink:href="#DejaVuSans-34" transform="translate(95.410156 0)"/>
      </g>
     </g>
    </g>
   </g>
   <g id="matplotlib.axis_2">
    <g id="ytick_1">
     <g id="line2d_6">
      <defs>
       <path id="m1b013f3add" d="M 0 0 
L -3.5 0 
" style="stroke: #000000; stroke-width: 0.8"/>
      </defs>
      <g>
       <use xlink:href="#m1b013f3add" x="42.01" y="96.901751" style="stroke: #000000; stroke-width: 0.8"/>
      </g>
     </g>
     <g id="text_6">
      <!-- 0.3 -->
      <g transform="translate(19.106875 100.70097) scale(0.1 -0.1)">
       <defs>
        <path id="DejaVuSans-33" d="M 2597 2516 
Q 3050 2419 3304 2112 
Q 3559 1806 3559 1356 
Q 3559 666 3084 287 
Q 2609 -91 1734 -91 
Q 1441 -91 1130 -33 
Q 819 25 488 141 
L 488 750 
Q 750 597 1062 519 
Q 1375 441 1716 441 
Q 2309 441 2620 675 
Q 2931 909 2931 1356 
Q 2931 1769 2642 2001 
Q 2353 2234 1838 2234 
L 1294 2234 
L 1294 2753 
L 1863 2753 
Q 2328 2753 2575 2939 
Q 2822 3125 2822 3475 
Q 2822 3834 2567 4026 
Q 2313 4219 1838 4219 
Q 1578 4219 1281 4162 
Q 984 4106 628 3988 
L 628 4550 
Q 988 4650 1302 4700 
Q 1616 4750 1894 4750 
Q 2613 4750 3031 4423 
Q 3450 4097 3450 3541 
Q 3450 3153 3228 2886 
Q 3006 2619 2597 2516 
z
" transform="scale(0.015625)"/>
       </defs>
       <use xlink:href="#DejaVuSans-30"/>
       <use xlink:href="#DejaVuSans-2e" transform="translate(63.623047 0)"/>
       <use xlink:href="#DejaVuSans-33" transform="translate(95.410156 0)"/>
      </g>
     </g>
    </g>
    <g id="ytick_2">
     <g id="line2d_7">
      <g>
       <use xlink:href="#m1b013f3add" x="42.01" y="59.054825" style="stroke: #000000; stroke-width: 0.8"/>
      </g>
     </g>
     <g id="text_7">
      <!-- 0.4 -->
      <g transform="translate(19.106875 62.854043) scale(0.1 -0.1)">
       <use xlink:href="#DejaVuSans-30"/>
       <use xlink:href="#DejaVuSans-2e" transform="translate(63.623047 0)"/>
       <use xlink:href="#DejaVuSans-34" transform="translate(95.410156 0)"/>
      </g>
     </g>
    </g>
   </g>
   <g id="line2d_8">
    <path d="M 42.01 117.218182 
L 51.170741 112.602074 
L 60.331483 107.737021 
L 69.01008 102.884574 
L 77.688677 97.781139 
L 86.367275 92.411883 
L 94.563727 87.082561 
L 102.76018 81.487724 
L 110.956633 75.612144 
L 118.670942 69.811184 
L 126.385251 63.732697 
L 134.099559 57.361297 
L 141.331723 51.107523 
L 148.563888 44.567541 
L 155.796052 37.726087 
L 162.063928 31.540456 
L 162.546072 31.412501 
L 172.188958 35.877092 
L 181.349699 39.881464 
L 190.510441 43.65274 
L 199.671182 47.189214 
L 208.831924 50.48955 
L 217.992665 53.552735 
L 227.153407 56.378022 
L 236.314148 58.964886 
L 245.47489 61.312987 
L 254.635631 63.422126 
L 263.796373 65.292218 
L 272.47497 66.84337 
L 281.153567 68.18001 
L 282.6 68.381933 
L 282.6 68.381933 
" clip-path="url(#p0b5e226737)" style="fill: none; stroke-dasharray: 5.55,2.4; stroke-dashoffset: 0; stroke: #1f77b4; stroke-width: 1.5"/>
   </g>
   <g id="line2d_9">
    <path d="M 42.01 117.173735 
L 51.170741 112.551677 
L 60.331483 107.679876 
L 69.01008 102.820206 
L 77.688677 97.708633 
L 86.367275 92.330212 
L 94.563727 86.991172 
L 102.76018 81.385461 
L 110.956633 75.497712 
L 118.670942 69.68398 
L 126.385251 63.591296 
L 134.099559 57.204114 
L 141.331723 50.933949 
L 148.563888 44.375865 
L 155.796052 37.514422 
L 162.063928 31.309789 
L 162.546072 31.181818 
L 172.188958 35.674392 
L 181.349699 39.702051 
L 190.510441 43.493778 
L 199.671182 47.048189 
L 208.831924 50.364234 
L 217.992665 53.441145 
L 227.153407 56.278395 
L 236.314148 58.875647 
L 245.47489 61.232725 
L 254.635631 63.349573 
L 263.314228 65.133441 
L 271.992826 66.701814 
L 280.671423 68.054807 
L 282.6 68.326236 
L 282.6 68.326236 
" clip-path="url(#p0b5e226737)" style="fill: none; stroke: #1f77b4; stroke-width: 1.5; stroke-linecap: square"/>
   </g>
   <g id="line2d_10">
    <path d="M 42.01 117.218182 
L 51.170741 112.602074 
L 60.331483 107.737021 
L 69.01008 102.884574 
L 77.688677 97.781139 
L 86.367275 92.411883 
L 94.563727 87.082561 
L 102.76018 81.487724 
L 110.956633 75.612144 
L 118.670942 69.811184 
L 126.385251 63.732697 
L 134.099559 57.361297 
L 141.331723 51.107523 
L 148.563888 44.567541 
L 155.796052 37.726087 
L 162.063928 31.540456 
L 162.546072 31.412501 
L 172.188958 35.877092 
L 181.349699 39.881464 
L 190.510441 43.65274 
L 199.671182 47.189214 
L 208.831924 50.48955 
L 217.992665 53.552735 
L 227.153407 56.378022 
L 236.314148 58.964886 
L 245.47489 61.312987 
L 254.635631 63.422126 
L 263.796373 65.292218 
L 272.47497 66.84337 
L 281.153567 68.18001 
L 282.6 68.381933 
L 282.6 68.381933 
" clip-path="url(#p0b5e226737)" style="fill: none; stroke-dasharray: 5.55,2.4; stroke-dashoffset: 0; stroke: #ff7f0e; stroke-width: 1.5"/>
   </g>
   <g id="line2d_11">
    <path d="M 42.01 117.173735 
L 51.170741 112.551677 
L 60.331483 107.679876 
L 69.01008 102.820206 
L 77.688677 97.708633 
L 86.367275 92.330212 
L 94.563727 86.991172 
L 102.76018 81.385461 
L 110.956633 75.497712 
L 118.670942 69.68398 
L 126.385251 63.591296 
L 134.099559 57.204114 
L 141.331723 50.933949 
L 148.563888 44.375865 
L 155.796052 37.514422 
L 162.063928 31.309789 
L 162.546072 31.181818 
L 172.188958 35.674392 
L 181.349699 39.702051 
L 190.510441 43.493778 
L 199.671182 47.048189 
L 208.831924 50.364234 
L 217.992665 53.441145 
L 227.153407 56.278395 
L 236.314148 58.875647 
L 245.47489 61.232725 
L 254.635631 63.349573 
L 263.314228 65.133441 
L 271.992826 66.701814 
L 280.671423 68.054807 
L 282.6 68.326236 
L 282.6 68.326236 
" clip-path="url(#p0b5e226737)" style="fill: none; stroke: #ff7f0e; stroke-width: 1.5; stroke-linecap: square"/>
   </g>
   <g id="patch_3">
    <path d="M 42.01 121.52 
L 42.01 26.88 
" style="fill: none; stroke: #000000; stroke-width: 0.8; stroke-linejoin: miter; stroke-linecap: square"/>
   </g>
   <g id="patch_4">
    <path d="M 282.6 121.52 
L 282.6 26.88 
" style="fill: none; stroke: #000000; stroke-width: 0.8; stroke-linejoin: miter; stroke-linecap: square"/>
   </g>
   <g id="patch_5">
    <path d="M 42.01 121.52 
L 282.6 121.52 
" style="fill: none; stroke: #000000; stroke-width: 0.8; stroke-linejoin: miter; stroke-linecap: square"/>
   </g>
   <g id="patch_6">
    <path d="M 42.01 26.88 
L 282.6 26.88 
" style="fill: none; stroke: #000000; stroke-width: 0.8; stroke-linejoin: miter; stroke-linecap: square"/>
   </g>
   <g id="text_8">
    <!-- Atom 1 (Z=1): Wavefunction -->
    <g transform="translate(76.262188 20.88) scale(0.12 -0.12)">
     <defs>
      <path id="DejaVuSans-41" d="M 2188 4044 
L 1331 1722 
L 3047 1722 
L 2188 4044 
z
M 1831 4666 
L 2547 4666 
L 4325 0 
L 3669 0 
L 3244 1197 
L 1141 1197 
L 716 0 
L 50 0 
L 1831 4666 
z
" transform="scale(0.015625)"/>
      <path id="DejaVuSans-74" d="M 1172 4494 
L 1172 3500 
L 2356 3500 
L 2356 3053 
L 1172 3053 
L 1172 1153 
Q 1172 725 1289 603 
Q 1406 481 1766 481 
L 2356 481 
L 2356 0 
L 1766 0 
Q 1100 0 847 248 
Q 594 497 594 1153 
L 594 3053 
L 172 3053 
L 172 3500 
L 594 3500 
L 594 4494 
L 1172 4494 
z
" transform="scale(0.015625)"/>
      <path id="DejaVuSans-6f" d="M 1959 3097 
Q 1497 3097 1228 2736 
Q 959 2375 959 1747 
Q 959 1119 1226 758 
Q 1494 397 1959 397 
Q 2419 397 2687 759 
Q 2956 1122 2956 1747 
Q 2956 2369 2687 2733 
Q 2419 3097 1959 3097 
z
M 1959 3584 
Q 2709 3584 3137 3096 
Q 3566 2609 3566 1747 
Q 3566 888 3137 398 
Q 2709 -91 1959 -91 
Q 1206 -91 779 398 
Q 353 888 353 1747 
Q 353 2609 779 3096 
Q 1206 3584 1959 3584 
z
" transform="scale(0.015625)"/>
      <path id="DejaVuSans-6d" d="M 3328 2828 
Q 3544 3216 3844 3400 
Q 4144 3584 4550 3584 
Q 5097 3584 5394 3201 
Q 5691 2819 5691 2113 
L 5691 0 
L 5113 0 
L 5113 2094 
Q 5113 2597 4934 2840 
Q 4756 3084 4391 3084 
Q 3944 3084 3684 2787 
Q 3425 2491 3425 1978 
L 3425 0 
L 2847 0 
L 2847 2094 
Q 2847 2600 2669 2842 
Q 2491 3084 2119 3084 
Q 1678 3084 1418 2786 
Q 1159 2488 1159 1978 
L 1159 0 
L 581 0 
L 581 3500 
L 1159 3500 
L 1159 2956 
Q 1356 3278 1631 3431 
Q 1906 3584 2284 3584 
Q 2666 3584 2933 3390 
Q 3200 3197 3328 2828 
z
" transform="scale(0.015625)"/>
      <path id="DejaVuSans-20" transform="scale(0.015625)"/>
      <path id="DejaVuSans-31" d="M 794 531 
L 1825 531 
L 1825 4091 
L 703 3866 
L 703 4441 
L 1819 4666 
L 2450 4666 
L 2450 531 
L 3481 531 
L 3481 0 
L 794 0 
L 794 531 
z
" transform="scale(0.015625)"/>
      <path id="DejaVuSans-28" d="M 1984 4856 
Q 1566 4138 1362 3434 
Q 1159 2731 1159 2009 
Q 1159 1288 1364 580 
Q 1569 -128 1984 -844 
L 1484 -844 
Q 1016 -109 783 600 
Q 550 1309 550 2009 
Q 550 2706 781 3412 
Q 1013 4119 1484 4856 
L 1984 4856 
z
" transform="scale(0.015625)"/>
      <path id="DejaVuSans-5a" d="M 359 4666 
L 4025 4666 
L 4025 4184 
L 1075 531 
L 4097 531 
L 4097 0 
L 288 0 
L 288 481 
L 3238 4134 
L 359 4134 
L 359 4666 
z
" transform="scale(0.015625)"/>
      <path id="DejaVuSans-3d" d="M 678 2906 
L 4684 2906 
L 4684 2381 
L 678 2381 
L 678 2906 
z
M 678 1631 
L 4684 1631 
L 4684 1100 
L 678 1100 
L 678 1631 
z
" transform="scale(0.015625)"/>
      <path id="DejaVuSans-29" d="M 513 4856 
L 1013 4856 
Q 1481 4119 1714 3412 
Q 1947 2706 1947 2009 
Q 1947 1309 1714 600 
Q 1481 -109 1013 -844 
L 513 -844 
Q 928 -128 1133 580 
Q 1338 1288 1338 2009 
Q 1338 2731 1133 3434 
Q 928 4138 513 4856 
z
" transform="scale(0.015625)"/>
      <path id="DejaVuSans-3a" d="M 750 794 
L 1409 794 
L 1409 0 
L 750 0 
L 750 794 
z
M 750 3309 
L 1409 3309 
L 1409 2516 
L 750 2516 
L 750 3309 
z
" transform="scale(0.015625)"/>
      <path id="DejaVuSans-57" d="M 213 4666 
L 850 4666 
L 1831 722 
L 2809 4666 
L 3519 4666 
L 4500 722 
L 5478 4666 
L 6119 4666 
L 4947 0 
L 4153 0 
L 3169 4050 
L 2175 0 
L 1381 0 
L 213 4666 
z
" transform="scale(0.015625)"/>
      <path id="DejaVuSans-61" d="M 2194 1759 
Q 1497 1759 1228 1600 
Q 959 1441 959 1056 
Q 959 750 1161 570 
Q 1363 391 1709 391 
Q 2188 391 2477 730 
Q 2766 1069 2766 1631 
L 2766 1759 
L 2194 1759 
z
M 3341 1997 
L 3341 0 
L 2766 0 
L 2766 531 
Q 2569 213 2275 61 
Q 1981 -91 1556 -91 
Q 1019 -91 701 211 
Q 384 513 384 1019 
Q 384 1609 779 1909 
Q 1175 2209 1959 2209 
L 2766 2209 
L 2766 2266 
Q 2766 2663 2505 2880 
Q 2244 3097 1772 3097 
Q 1472 3097 1187 3025 
Q 903 2953 641 2809 
L 641 3341 
Q 956 3463 1253 3523 
Q 1550 3584 1831 3584 
Q 2591 3584 2966 3190 
Q 3341 2797 3341 1997 
z
" transform="scale(0.015625)"/>
      <path id="DejaVuSans-76" d="M 191 3500 
L 800 3500 
L 1894 563 
L 2988 3500 
L 3597 3500 
L 2284 0 
L 1503 0 
L 191 3500 
z
" transform="scale(0.015625)"/>
      <path id="DejaVuSans-65" d="M 3597 1894 
L 3597 1613 
L 953 1613 
Q 991 1019 1311 708 
Q 1631 397 2203 397 
Q 2534 397 2845 478 
Q 3156 559 3463 722 
L 3463 178 
Q 3153 47 2828 -22 
Q 2503 -91 2169 -91 
Q 1331 -91 842 396 
Q 353 884 353 1716 
Q 353 2575 817 3079 
Q 1281 3584 2069 3584 
Q 2775 3584 3186 3129 
Q 3597 2675 3597 1894 
z
M 3022 2063 
Q 3016 2534 2758 2815 
Q 2500 3097 2075 3097 
Q 1594 3097 1305 2825 
Q 1016 2553 972 2059 
L 3022 2063 
z
" transform="scale(0.015625)"/>
      <path id="DejaVuSans-66" d="M 2375 4863 
L 2375 4384 
L 1825 4384 
Q 1516 4384 1395 4259 
Q 1275 4134 1275 3809 
L 1275 3500 
L 2222 3500 
L 2222 3053 
L 1275 3053 
L 1275 0 
L 697 0 
L 697 3053 
L 147 3053 
L 147 3500 
L 697 3500 
L 697 3744 
Q 697 4328 969 4595 
Q 1241 4863 1831 4863 
L 2375 4863 
z
" transform="scale(0.015625)"/>
      <path id="DejaVuSans-75" d="M 544 1381 
L 544 3500 
L 1119 3500 
L 1119 1403 
Q 1119 906 1312 657 
Q 1506 409 1894 409 
Q 2359 409 2629 706 
Q 2900 1003 2900 1516 
L 2900 3500 
L 3475 3500 
L 3475 0 
L 2900 0 
L 2900 538 
Q 2691 219 2414 64 
Q 2138 -91 1772 -91 
Q 1169 -91 856 284 
Q 544 659 544 1381 
z
M 1991 3584 
L 1991 3584 
z
" transform="scale(0.015625)"/>
      <path id="DejaVuSans-6e" d="M 3513 2113 
L 3513 0 
L 2938 0 
L 2938 2094 
Q 2938 2591 2744 2837 
Q 2550 3084 2163 3084 
Q 1697 3084 1428 2787 
Q 1159 2491 1159 1978 
L 1159 0 
L 581 0 
L 581 3500 
L 1159 3500 
L 1159 2956 
Q 1366 3272 1645 3428 
Q 1925 3584 2291 3584 
Q 2894 3584 3203 3211 
Q 3513 2838 3513 2113 
z
" transform="scale(0.015625)"/>
      <path id="DejaVuSans-63" d="M 3122 3366 
L 3122 2828 
Q 2878 2963 2633 3030 
Q 2388 3097 2138 3097 
Q 1578 3097 1268 2742 
Q 959 2388 959 1747 
Q 959 1106 1268 751 
Q 1578 397 2138 397 
Q 2388 397 2633 464 
Q 2878 531 3122 666 
L 3122 134 
Q 2881 22 2623 -34 
Q 2366 -91 2075 -91 
Q 1284 -91 818 406 
Q 353 903 353 1747 
Q 353 2603 823 3093 
Q 1294 3584 2113 3584 
Q 2378 3584 2631 3529 
Q 2884 3475 3122 3366 
z
" transform="scale(0.015625)"/>
      <path id="DejaVuSans-69" d="M 603 3500 
L 1178 3500 
L 1178 0 
L 603 0 
L 603 3500 
z
M 603 4863 
L 1178 4863 
L 1178 4134 
L 603 4134 
L 603 4863 
z
" transform="scale(0.015625)"/>
     </defs>
     <use xlink:href="#DejaVuSans-41"/>
     <use xlink:href="#DejaVuSans-74" transform="translate(66.658203 0)"/>
     <use xlink:href="#DejaVuSans-6f" transform="translate(105.867188 0)"/>
     <use xlink:href="#DejaVuSans-6d" transform="translate(167.048828 0)"/>
     <use xlink:href="#DejaVuSans-20" transform="translate(264.460938 0)"/>
     <use xlink:href="#DejaVuSans-31" transform="translate(296.248047 0)"/>
     <use xlink:href="#DejaVuSans-20" transform="translate(359.871094 0)"/>
     <use xlink:href="#DejaVuSans-28" transform="translate(391.658203 0)"/>
     <use xlink:href="#DejaVuSans-5a" transform="translate(430.671875 0)"/>
     <use xlink:href="#DejaVuSans-3d" transform="translate(499.177734 0)"/>
     <use xlink:href="#DejaVuSans-31" transform="translate(582.966797 0)"/>
     <use xlink:href="#DejaVuSans-29" transform="translate(646.589844 0)"/>
     <use xlink:href="#DejaVuSans-3a" transform="translate(685.603516 0)"/>
     <use xlink:href="#DejaVuSans-20" transform="translate(719.294922 0)"/>
     <use xlink:href="#DejaVuSans-57" transform="translate(751.082031 0)"/>
     <use xlink:href="#DejaVuSans-61" transform="translate(843.583984 0)"/>
     <use xlink:href="#DejaVuSans-76" transform="translate(904.863281 0)"/>
     <use xlink:href="#DejaVuSans-65" transform="translate(964.042969 0)"/>
     <use xlink:href="#DejaVuSans-66" transform="translate(1025.566406 0)"/>
     <use xlink:href="#DejaVuSans-75" transform="translate(1060.771484 0)"/>
     <use xlink:href="#DejaVuSans-6e" transform="translate(1124.150391 0)"/>
     <use xlink:href="#DejaVuSans-63" transform="translate(1187.529297 0)"/>
     <use xlink:href="#DejaVuSans-74" transform="translate(1242.509766 0)"/>
     <use xlink:href="#DejaVuSans-69" transform="translate(1281.71875 0)"/>
     <use xlink:href="#DejaVuSans-6f" transform="translate(1309.501953 0)"/>
     <use xlink:href="#DejaVuSans-6e" transform="translate(1370.683594 0)"/>
    </g>
   </g>
  </g>
  <g id="axes_2">
   <g id="patch_7">
    <path d="M 324.61 121.52 
L 565.2 121.52 
L 565.2 26.88 
L 324.61 26.88 
z
" style="fill: #ffffff"/>
   </g>
   <g id="matplotlib.axis_3">
    <g id="xtick_6">
     <g id="line2d_12">
      <g>
       <use xlink:href="#mac1dc1884a" x="348.669" y="121.52" style="stroke: #000000; stroke-width: 0.8"/>
      </g>
     </g>
     <g id="text_9">
      <!-- −0.4 -->
      <g transform="translate(336.527594 136.118437) scale(0.1 -0.1)">
       <use xlink:href="#DejaVuSans-2212"/>
       <use xlink:href="#DejaVuSans-30" transform="translate(83.789062 0)"/>
       <use xlink:href="#DejaVuSans-2e" transform="translate(147.412109 0)"/>
       <use xlink:href="#DejaVuSans-34" transform="translate(179.199219 0)"/>
      </g>
     </g>
    </g>
    <g id="xtick_7">
     <g id="line2d_13">
      <g>
       <use xlink:href="#mac1dc1884a" x="396.787" y="121.52" style="stroke: #000000; stroke-width: 0.8"/>
      </g>
     </g>
     <g id="text_10">
      <!-- −0.2 -->
      <g transform="translate(384.645594 136.118437) scale(0.1 -0.1)">
       <use xlink:href="#DejaVuSans-2212"/>
       <use xlink:href="#DejaVuSans-30" transform="translate(83.789062 0)"/>
       <use xlink:href="#DejaVuSans-2e" transform="translate(147.412109 0)"/>
       <use xlink:href="#DejaVuSans-32" transform="translate(179.199219 0)"/>
      </g>
     </g>
    </g>
    <g id="xtick_8">
     <g id="line2d_14">
      <g>
       <use xlink:href="#mac1dc1884a" x="444.905" y="121.52" style="stroke: #000000; stroke-width: 0.8"/>
      </g>
     </g>
     <g id="text_11">
      <!-- 0.0 -->
      <g transform="translate(436.953437 136.118437) scale(0.1 -0.1)">
       <use xlink:href="#DejaVuSans-30"/>
       <use xlink:href="#DejaVuSans-2e" transform="translate(63.623047 0)"/>
       <use xlink:href="#DejaVuSans-30" transform="translate(95.410156 0)"/>
      </g>
     </g>
    </g>
    <g id="xtick_9">
     <g id="line2d_15">
      <g>
       <use xlink:href="#mac1dc1884a" x="493.023" y="121.52" style="stroke: #000000; stroke-width: 0.8"/>
      </g>
     </g>
     <g id="text_12">
      <!-- 0.2 -->
      <g transform="translate(485.071437 136.118437) scale(0.1 -0.1)">
       <use xlink:href="#DejaVuSans-30"/>
       <use xlink:href="#DejaVuSans-2e" transform="translate(63.623047 0)"/>
       <use xlink:href="#DejaVuSans-32" transform="translate(95.410156 0)"/>
      </g>
     </g>
    </g>
    <g id="xtick_10">
     <g id="line2d_16">
      <g>
       <use xlink:href="#mac1dc1884a" x="541.141" y="121.52" style="stroke: #000000; stroke-width: 0.8"/>
      </g>
     </g>
     <g id="text_13">
      <!-- 0.4 -->
      <g transform="translate(533.189437 136.118437) scale(0.1 -0.1)">
       <use xlink:href="#DejaVuSans-30"/>
       <use xlink:href="#DejaVuSans-2e" transform="translate(63.623047 0)"/>
       <use xlink:href="#DejaVuSans-34" transform="translate(95.410156 0)"/>
      </g>
     </g>
    </g>
   </g>
   <g id="matplotlib.axis_4">
    <g id="ytick_3">
     <g id="line2d_17">
      <g>
       <use xlink:href="#m1b013f3add" x="324.61" y="96.901751" style="stroke: #000000; stroke-width: 0.8"/>
      </g>
     </g>
     <g id="text_14">
      <!-- 0.3 -->
      <g transform="translate(301.706875 100.70097) scale(0.1 -0.1)">
       <use xlink:href="#DejaVuSans-30"/>
       <use xlink:href="#DejaVuSans-2e" transform="translate(63.623047 0)"/>
       <use xlink:href="#DejaVuSans-33" transform="translate(95.410156 0)"/>
      </g>
     </g>
    </g>
    <g id="ytick_4">
     <g id="line2d_18">
      <g>
       <use xlink:href="#m1b013f3add" x="324.61" y="59.054825" style="stroke: #000000; stroke-width: 0.8"/>
      </g>
     </g>
     <g id="text_15">
      <!-- 0.4 -->
      <g transform="translate(301.706875 62.854043) scale(0.1 -0.1)">
       <use xlink:href="#DejaVuSans-30"/>
       <use xlink:href="#DejaVuSans-2e" transform="translate(63.623047 0)"/>
       <use xlink:href="#DejaVuSans-34" transform="translate(95.410156 0)"/>
      </g>
     </g>
    </g>
   </g>
   <g id="line2d_19">
    <path d="M 324.61 68.381933 
L 333.288597 67.081039 
L 341.967194 65.565642 
L 350.645792 63.835697 
L 359.806533 61.776879 
L 368.967275 59.479074 
L 378.128016 56.942452 
L 387.288758 54.167323 
L 396.449499 51.154168 
L 405.61024 47.903683 
L 414.770982 44.416824 
L 423.931723 40.694851 
L 433.092465 36.73939 
L 442.735351 32.325752 
L 444.663928 31.412501 
L 445.146072 31.540456 
L 452.378236 38.656272 
L 459.610401 45.456615 
L 466.842565 51.957574 
L 474.074729 58.174291 
L 481.789038 64.508201 
L 489.503347 70.551176 
L 497.217655 76.318479 
L 505.414108 82.160208 
L 513.610561 87.723037 
L 521.807014 93.022078 
L 530.485611 98.361034 
L 539.164208 103.435868 
L 547.842806 108.2613 
L 557.003547 113.099449 
L 565.2 117.218182 
L 565.2 117.218182 
" clip-path="url(#p13fddfe782)" style="fill: none; stroke-dasharray: 5.55,2.4; stroke-dashoffset: 0; stroke: #1f77b4; stroke-width: 1.5"/>
   </g>
   <g id="line2d_20">
    <path d="M 324.61 68.326236 
L 333.288597 67.021088 
L 341.967194 65.500588 
L 350.645792 63.764616 
L 359.324389 61.813081 
L 368.48513 59.519221 
L 377.645872 56.98516 
L 386.806613 54.211043 
L 395.967355 51.197157 
L 405.128096 47.943978 
L 414.288838 44.452206 
L 423.449579 40.722811 
L 432.610321 36.757085 
L 441.771062 32.55669 
L 444.663928 31.181818 
L 445.146072 31.309789 
L 452.378236 38.447388 
L 459.610401 45.267457 
L 466.842565 51.78628 
L 474.074729 58.019173 
L 481.789038 64.368658 
L 489.503347 70.425644 
L 497.217655 76.205552 
L 505.414108 82.059288 
L 513.610561 87.632849 
L 521.807014 92.94148 
L 530.485611 98.289481 
L 539.164208 103.372345 
L 547.842806 108.204906 
L 557.003547 113.049713 
L 565.2 117.173735 
L 565.2 117.173735 
" clip-path="url(#p13fddfe782)" style="fill: none; stroke: #1f77b4; stroke-width: 1.5; stroke-linecap: square"/>
   </g>
   <g id="line2d_21">
    <path d="M 324.61 68.381933 
L 333.288597 67.081039 
L 341.967194 65.565642 
L 350.645792 63.835697 
L 359.806533 61.776879 
L 368.967275 59.479074 
L 378.128016 56.942452 
L 387.288758 54.167323 
L 396.449499 51.154168 
L 405.61024 47.903683 
L 414.770982 44.416824 
L 423.931723 40.694851 
L 433.092465 36.73939 
L 442.735351 32.325752 
L 444.663928 31.412501 
L 445.146072 31.540456 
L 452.378236 38.656272 
L 459.610401 45.456615 
L 466.842565 51.957574 
L 474.074729 58.174291 
L 481.789038 64.508201 
L 489.503347 70.551176 
L 497.217655 76.318479 
L 505.414108 82.160208 
L 513.610561 87.723037 
L 521.807014 93.022078 
L 530.485611 98.361034 
L 539.164208 103.435868 
L 547.842806 108.2613 
L 557.003547 113.099449 
L 565.2 117.218182 
L 565.2 117.218182 
" clip-path="url(#p13fddfe782)" style="fill: none; stroke-dasharray: 5.55,2.4; stroke-dashoffset: 0; stroke: #ff7f0e; stroke-width: 1.5"/>
   </g>
   <g id="line2d_22">
    <path d="M 324.61 68.326236 
L 333.288597 67.021088 
L 341.967194 65.500588 
L 350.645792 63.764616 
L 359.324389 61.813081 
L 368.48513 59.519221 
L 377.645872 56.98516 
L 386.806613 54.211043 
L 395.967355 51.197157 
L 405.128096 47.943978 
L 414.288838 44.452206 
L 423.449579 40.722811 
L 432.610321 36.757085 
L 441.771062 32.55669 
L 444.663928 31.181818 
L 445.146072 31.309789 
L 452.378236 38.447388 
L 459.610401 45.267457 
L 466.842565 51.78628 
L 474.074729 58.019173 
L 481.789038 64.368658 
L 489.503347 70.425644 
L 497.217655 76.205552 
L 505.414108 82.059288 
L 513.610561 87.632849 
L 521.807014 92.94148 
L 530.485611 98.289481 
L 539.164208 103.372345 
L 547.842806 108.204906 
L 557.003547 113.049713 
L 565.2 117.173735 
L 565.2 117.173735 
" clip-path="url(#p13fddfe782)" style="fill: none; stroke: #ff7f0e; stroke-width: 1.5; stroke-linecap: square"/>
   </g>
   <g id="patch_8">
    <path d="M 324.61 121.52 
L 324.61 26.88 
" style="fill: none; stroke: #000000; stroke-width: 0.8; stroke-linejoin: miter; stroke-linecap: square"/>
   </g>
   <g id="patch_9">
    <path d="M 565.2 121.52 
L 565.2 26.88 
" style="fill: none; stroke: #000000; stroke-width: 0.8; stroke-linejoin: miter; stroke-linecap: square"/>
   </g>
   <g id="patch_10">
    <path d="M 324.61 121.52 
L 565.2 121.52 
" style="fill: none; stroke: #000000; stroke-width: 0.8; stroke-linejoin: miter; stroke-linecap: square"/>
   </g>
   <g id="patch_11">
    <path d="M 324.61 26.88 
L 565.2 26.88 
" style="fill: none; stroke: #000000; stroke-width: 0.8; stroke-linejoin: miter; stroke-linecap: square"/>
   </g>
   <g id="text_16">
    <!-- Atom 2 (Z=1): Wavefunction -->
    <g transform="translate(358.862188 20.88) scale(0.12 -0.12)">
     <use xlink:href="#DejaVuSans-41"/>
     <use xlink:href="#DejaVuSans-74" transform="translate(66.658203 0)"/>
     <use xlink:href="#DejaVuSans-6f" transform="translate(105.867188 0)"/>
     <use xlink:href="#DejaVuSans-6d" transform="translate(167.048828 0)"/>
     <use xlink:href="#DejaVuSans-20" transform="translate(264.460938 0)"/>
     <use xlink:href="#DejaVuSans-32" transform="translate(296.248047 0)"/>
     <use xlink:href="#DejaVuSans-20" transform="translate(359.871094 0)"/>
     <use xlink:href="#DejaVuSans-28" transform="translate(391.658203 0)"/>
     <use xlink:href="#DejaVuSans-5a" transform="translate(430.671875 0)"/>
     <use xlink:href="#DejaVuSans-3d" transform="translate(499.177734 0)"/>
     <use xlink:href="#DejaVuSans-31" transform="translate(582.966797 0)"/>
     <use xlink:href="#DejaVuSans-29" transform="translate(646.589844 0)"/>
     <use xlink:href="#DejaVuSans-3a" transform="translate(685.603516 0)"/>
     <use xlink:href="#DejaVuSans-20" transform="translate(719.294922 0)"/>
     <use xlink:href="#DejaVuSans-57" transform="translate(751.082031 0)"/>
     <use xlink:href="#DejaVuSans-61" transform="translate(843.583984 0)"/>
     <use xlink:href="#DejaVuSans-76" transform="translate(904.863281 0)"/>
     <use xlink:href="#DejaVuSans-65" transform="translate(964.042969 0)"/>
     <use xlink:href="#DejaVuSans-66" transform="translate(1025.566406 0)"/>
     <use xlink:href="#DejaVuSans-75" transform="translate(1060.771484 0)"/>
     <use xlink:href="#DejaVuSans-6e" transform="translate(1124.150391 0)"/>
     <use xlink:href="#DejaVuSans-63" transform="translate(1187.529297 0)"/>
     <use xlink:href="#DejaVuSans-74" transform="translate(1242.509766 0)"/>
     <use xlink:href="#DejaVuSans-69" transform="translate(1281.71875 0)"/>
     <use xlink:href="#DejaVuSans-6f" transform="translate(1309.501953 0)"/>
     <use xlink:href="#DejaVuSans-6e" transform="translate(1370.683594 0)"/>
    </g>
   </g>
  </g>
  <g id="axes_3">
   <g id="patch_12">
    <path d="M 42.01 260.12 
L 282.6 260.12 
L 282.6 165.48 
L 42.01 165.48 
z
" style="fill: #ffffff"/>
   </g>
   <g id="matplotlib.axis_5">
    <g id="xtick_11">
     <g id="line2d_23">
      <g>
       <use xlink:href="#mac1dc1884a" x="66.069" y="260.12" style="stroke: #000000; stroke-width: 0.8"/>
      </g>
     </g>
     <g id="text_17">
      <!-- −0.4 -->
      <g transform="translate(53.927594 274.718437) scale(0.1 -0.1)">
       <use xlink:href="#DejaVuSans-2212"/>
       <use xlink:href="#DejaVuSans-30" transform="translate(83.789062 0)"/>
       <use xlink:href="#DejaVuSans-2e" transform="translate(147.412109 0)"/>
       <use xlink:href="#DejaVuSans-34" transform="translate(179.199219 0)"/>
      </g>
     </g>
    </g>
    <g id="xtick_12">
     <g id="line2d_24">
      <g>
       <use xlink:href="#mac1dc1884a" x="114.187" y="260.12" style="stroke: #000000; stroke-width: 0.8"/>
      </g>
     </g>
     <g id="text_18">
      <!-- −0.2 -->
      <g transform="translate(102.045594 274.718437) scale(0.1 -0.1)">
       <use xlink:href="#DejaVuSans-2212"/>
       <use xlink:href="#DejaVuSans-30" transform="translate(83.789062 0)"/>
       <use xlink:href="#DejaVuSans-2e" transform="translate(147.412109 0)"/>
       <use xlink:href="#DejaVuSans-32" transform="translate(179.199219 0)"/>
      </g>
     </g>
    </g>
    <g id="xtick_13">
     <g id="line2d_25">
      <g>
       <use xlink:href="#mac1dc1884a" x="162.305" y="260.12" style="stroke: #000000; stroke-width: 0.8"/>
      </g>
     </g>
     <g id="text_19">
      <!-- 0.0 -->
      <g transform="translate(154.353438 274.718437) scale(0.1 -0.1)">
       <use xlink:href="#DejaVuSans-30"/>
       <use xlink:href="#DejaVuSans-2e" transform="translate(63.623047 0)"/>
       <use xlink:href="#DejaVuSans-30" transform="translate(95.410156 0)"/>
      </g>
     </g>
    </g>
    <g id="xtick_14">
     <g id="line2d_26">
      <g>
       <use xlink:href="#mac1dc1884a" x="210.423" y="260.12" style="stroke: #000000; stroke-width: 0.8"/>
      </g>
     </g>
     <g id="text_20">
      <!-- 0.2 -->
      <g transform="translate(202.471438 274.718437) scale(0.1 -0.1)">
       <use xlink:href="#DejaVuSans-30"/>
       <use xlink:href="#DejaVuSans-2e" transform="translate(63.623047 0)"/>
       <use xlink:href="#DejaVuSans-32" transform="translate(95.410156 0)"/>
      </g>
     </g>
    </g>
    <g id="xtick_15">
     <g id="line2d_27">
      <g>
       <use xlink:href="#mac1dc1884a" x="258.541" y="260.12" style="stroke: #000000; stroke-width: 0.8"/>
      </g>
     </g>
     <g id="text_21">
      <!-- 0.4 -->
      <g transform="translate(250.589437 274.718437) scale(0.1 -0.1)">
       <use xlink:href="#DejaVuSans-30"/>
       <use xlink:href="#DejaVuSans-2e" transform="translate(63.623047 0)"/>
       <use xlink:href="#DejaVuSans-34" transform="translate(95.410156 0)"/>
      </g>
     </g>
    </g>
   </g>
   <g id="matplotlib.axis_6">
    <g id="ytick_5">
     <g id="line2d_28">
      <g>
       <use xlink:href="#m1b013f3add" x="42.01" y="244.020164" style="stroke: #000000; stroke-width: 0.8"/>
      </g>
     </g>
     <g id="text_22">
      <!-- −1.0 -->
      <g transform="translate(10.727188 247.819383) scale(0.1 -0.1)">
       <use xlink:href="#DejaVuSans-2212"/>
       <use xlink:href="#DejaVuSans-31" transform="translate(83.789062 0)"/>
       <use xlink:href="#DejaVuSans-2e" transform="translate(147.412109 0)"/>
       <use xlink:href="#DejaVuSans-30" transform="translate(179.199219 0)"/>
      </g>
     </g>
    </g>
    <g id="ytick_6">
     <g id="line2d_29">
      <g>
       <use xlink:href="#m1b013f3add" x="42.01" y="218.553325" style="stroke: #000000; stroke-width: 0.8"/>
      </g>
     </g>
     <g id="text_23">
      <!-- −0.8 -->
      <g transform="translate(10.727188 222.352544) scale(0.1 -0.1)">
       <defs>
        <path id="DejaVuSans-38" d="M 2034 2216 
Q 1584 2216 1326 1975 
Q 1069 1734 1069 1313 
Q 1069 891 1326 650 
Q 1584 409 2034 409 
Q 2484 409 2743 651 
Q 3003 894 3003 1313 
Q 3003 1734 2745 1975 
Q 2488 2216 2034 2216 
z
M 1403 2484 
Q 997 2584 770 2862 
Q 544 3141 544 3541 
Q 544 4100 942 4425 
Q 1341 4750 2034 4750 
Q 2731 4750 3128 4425 
Q 3525 4100 3525 3541 
Q 3525 3141 3298 2862 
Q 3072 2584 2669 2484 
Q 3125 2378 3379 2068 
Q 3634 1759 3634 1313 
Q 3634 634 3220 271 
Q 2806 -91 2034 -91 
Q 1263 -91 848 271 
Q 434 634 434 1313 
Q 434 1759 690 2068 
Q 947 2378 1403 2484 
z
M 1172 3481 
Q 1172 3119 1398 2916 
Q 1625 2713 2034 2713 
Q 2441 2713 2670 2916 
Q 2900 3119 2900 3481 
Q 2900 3844 2670 4047 
Q 2441 4250 2034 4250 
Q 1625 4250 1398 4047 
Q 1172 3844 1172 3481 
z
" transform="scale(0.015625)"/>
       </defs>
       <use xlink:href="#DejaVuSans-2212"/>
       <use xlink:href="#DejaVuSans-30" transform="translate(83.789062 0)"/>
       <use xlink:href="#DejaVuSans-2e" transform="translate(147.412109 0)"/>
       <use xlink:href="#DejaVuSans-38" transform="translate(179.199219 0)"/>
      </g>
     </g>
    </g>
    <g id="ytick_7">
     <g id="line2d_30">
      <g>
       <use xlink:href="#m1b013f3add" x="42.01" y="193.086486" style="stroke: #000000; stroke-width: 0.8"/>
      </g>
     </g>
     <g id="text_24">
      <!-- −0.6 -->
      <g transform="translate(10.727188 196.885705) scale(0.1 -0.1)">
       <defs>
        <path id="DejaVuSans-36" d="M 2113 2584 
Q 1688 2584 1439 2293 
Q 1191 2003 1191 1497 
Q 1191 994 1439 701 
Q 1688 409 2113 409 
Q 2538 409 2786 701 
Q 3034 994 3034 1497 
Q 3034 2003 2786 2293 
Q 2538 2584 2113 2584 
z
M 3366 4563 
L 3366 3988 
Q 3128 4100 2886 4159 
Q 2644 4219 2406 4219 
Q 1781 4219 1451 3797 
Q 1122 3375 1075 2522 
Q 1259 2794 1537 2939 
Q 1816 3084 2150 3084 
Q 2853 3084 3261 2657 
Q 3669 2231 3669 1497 
Q 3669 778 3244 343 
Q 2819 -91 2113 -91 
Q 1303 -91 875 529 
Q 447 1150 447 2328 
Q 447 3434 972 4092 
Q 1497 4750 2381 4750 
Q 2619 4750 2861 4703 
Q 3103 4656 3366 4563 
z
" transform="scale(0.015625)"/>
       </defs>
       <use xlink:href="#DejaVuSans-2212"/>
       <use xlink:href="#DejaVuSans-30" transform="translate(83.789062 0)"/>
       <use xlink:href="#DejaVuSans-2e" transform="translate(147.412109 0)"/>
       <use xlink:href="#DejaVuSans-36" transform="translate(179.199219 0)"/>
      </g>
     </g>
    </g>
    <g id="ytick_8">
     <g id="line2d_31">
      <g>
       <use xlink:href="#m1b013f3add" x="42.01" y="167.619647" style="stroke: #000000; stroke-width: 0.8"/>
      </g>
     </g>
     <g id="text_25">
      <!-- −0.4 -->
      <g transform="translate(10.727188 171.418866) scale(0.1 -0.1)">
       <use xlink:href="#DejaVuSans-2212"/>
       <use xlink:href="#DejaVuSans-30" transform="translate(83.789062 0)"/>
       <use xlink:href="#DejaVuSans-2e" transform="translate(147.412109 0)"/>
       <use xlink:href="#DejaVuSans-34" transform="translate(179.199219 0)"/>
      </g>
     </g>
    </g>
   </g>
   <g id="line2d_32">
    <path d="M 42.01 224.631637 
L 59.849339 226.944184 
L 76.242244 229.290107 
L 91.188717 231.652128 
L 104.206613 233.930716 
L 115.295932 236.095727 
L 123.974529 238.004566 
L 130.724549 239.695832 
L 136.028136 241.231755 
L 140.367435 242.712541 
L 143.742445 244.093918 
L 146.635311 245.54095 
L 148.563888 246.718566 
L 150.492465 248.162012 
L 151.938898 249.507204 
L 153.385331 251.198154 
L 154.349619 252.610175 
L 155.313908 254.359531 
L 156.278196 256.607741 
L 157.242485 259.639382 
L 158.206774 264.006872 
L 158.688918 267.025309 
L 159.171062 270.942516 
L 159.653206 276.248614 
L 160.135351 283.869388 
L 160.342888 289 
M 163.210164 289 
L 163.510361 258.173599 
L 163.992505 237.031389 
L 164.474649 225.344536 
L 164.956794 217.955093 
L 165.438938 212.879234 
L 165.921082 209.19117 
L 166.885371 204.224301 
L 167.849659 201.071546 
L 168.813948 198.925029 
L 169.778236 197.39383 
L 170.742525 196.265724 
L 171.706814 195.415542 
L 173.153246 194.497076 
L 174.599679 193.869783 
L 176.528257 193.328246 
L 178.938978 192.952754 
L 181.831844 192.768375 
L 185.688998 192.774937 
L 191.474729 193.038653 
L 211.242645 194.107307 
L 218.47481 194.215888 
L 225.22483 194.101524 
L 231.492705 193.783465 
L 237.760581 193.241259 
L 243.546313 192.526034 
L 249.332044 191.590328 
L 255.117776 190.420183 
L 260.421363 189.129447 
L 265.72495 187.618427 
L 271.028537 185.875324 
L 276.332124 183.88775 
L 281.635711 181.642615 
L 282.6 181.205664 
L 282.6 181.205664 
" clip-path="url(#p7ed20faa08)" style="fill: none; stroke-dasharray: 5.55,2.4; stroke-dashoffset: 0; stroke: #1f77b4; stroke-width: 1.5"/>
   </g>
   <g id="line2d_33">
    <path d="M 42.01 224.634333 
L 61.295772 227.082005 
L 79.617255 229.631637 
L 96.974449 232.266588 
L 113.849499 235.049631 
L 130.242405 237.977386 
L 146.153166 241.044395 
L 161.581784 244.243019 
L 162.063928 244.346667 
L 162.546072 185.237398 
L 170.260381 187.203058 
L 177.974689 188.943444 
L 185.206854 190.358791 
L 192.439018 191.552771 
L 199.671182 192.512536 
L 206.421202 193.184748 
L 213.171222 193.628647 
L 219.439098 193.825 
L 225.706974 193.802056 
L 231.97485 193.547902 
L 237.760581 193.097122 
L 243.546313 192.427918 
L 249.332044 191.529027 
L 255.117776 190.388481 
L 260.421363 189.119826 
L 265.72495 187.626984 
L 271.028537 185.898858 
L 276.332124 183.923624 
L 281.153567 181.902906 
L 282.6 181.253333 
L 282.6 181.253333 
" clip-path="url(#p7ed20faa08)" style="fill: none; stroke: #1f77b4; stroke-width: 1.5; stroke-linecap: square"/>
   </g>
   <g id="line2d_34">
    <path d="M 42.01 224.631637 
L 59.849339 226.944184 
L 76.242244 229.290107 
L 91.188717 231.652128 
L 104.206613 233.930716 
L 115.295932 236.095727 
L 123.974529 238.004566 
L 130.724549 239.695832 
L 136.028136 241.231755 
L 140.367435 242.712541 
L 143.742445 244.093918 
L 146.635311 245.54095 
L 148.563888 246.718566 
L 150.492465 248.162012 
L 151.938898 249.507204 
L 153.385331 251.198154 
L 154.349619 252.610175 
L 155.313908 254.359531 
L 156.278196 256.607741 
L 157.242485 259.639382 
L 158.206774 264.006872 
L 158.688918 267.025309 
L 159.171062 270.942516 
L 159.653206 276.248614 
L 160.135351 283.869388 
L 160.342888 289 
M 163.210164 289 
L 163.510361 258.173599 
L 163.992505 237.031389 
L 164.474649 225.344536 
L 164.956794 217.955093 
L 165.438938 212.879234 
L 165.921082 209.19117 
L 166.885371 204.224301 
L 167.849659 201.071546 
L 168.813948 198.925029 
L 169.778236 197.39383 
L 170.742525 196.265724 
L 171.706814 195.415542 
L 173.153246 194.497076 
L 174.599679 193.869783 
L 176.528257 193.328246 
L 178.938978 192.952754 
L 181.831844 192.768375 
L 185.688998 192.774937 
L 191.474729 193.038653 
L 211.242645 194.107307 
L 218.47481 194.215888 
L 225.22483 194.101524 
L 231.492705 193.783465 
L 237.760581 193.241259 
L 243.546313 192.526034 
L 249.332044 191.590328 
L 255.117776 190.420183 
L 260.421363 189.129447 
L 265.72495 187.618427 
L 271.028537 185.875324 
L 276.332124 183.88775 
L 281.635711 181.642615 
L 282.6 181.205664 
L 282.6 181.205664 
" clip-path="url(#p7ed20faa08)" style="fill: none; stroke-dasharray: 5.55,2.4; stroke-dashoffset: 0; stroke: #ff7f0e; stroke-width: 1.5"/>
   </g>
   <g id="line2d_35">
    <path d="M 42.01 224.634333 
L 61.295772 227.082005 
L 79.617255 229.631637 
L 96.974449 232.266588 
L 113.849499 235.049631 
L 130.242405 237.977386 
L 146.153166 241.044395 
L 161.581784 244.243019 
L 162.063928 244.346667 
L 162.546072 185.237398 
L 170.260381 187.203058 
L 177.974689 188.943444 
L 185.206854 190.358791 
L 192.439018 191.552771 
L 199.671182 192.512536 
L 206.421202 193.184748 
L 213.171222 193.628647 
L 219.439098 193.825 
L 225.706974 193.802056 
L 231.97485 193.547902 
L 237.760581 193.097122 
L 243.546313 192.427918 
L 249.332044 191.529027 
L 255.117776 190.388481 
L 260.421363 189.119826 
L 265.72495 187.626984 
L 271.028537 185.898858 
L 276.332124 183.923624 
L 281.153567 181.902906 
L 282.6 181.253333 
L 282.6 181.253333 
" clip-path="url(#p7ed20faa08)" style="fill: none; stroke: #ff7f0e; stroke-width: 1.5; stroke-linecap: square"/>
   </g>
   <g id="patch_13">
    <path d="M 42.01 260.12 
L 42.01 165.48 
" style="fill: none; stroke: #000000; stroke-width: 0.8; stroke-linejoin: miter; stroke-linecap: square"/>
   </g>
   <g id="patch_14">
    <path d="M 282.6 260.12 
L 282.6 165.48 
" style="fill: none; stroke: #000000; stroke-width: 0.8; stroke-linejoin: miter; stroke-linecap: square"/>
   </g>
   <g id="patch_15">
    <path d="M 42.01 260.12 
L 282.6 260.12 
" style="fill: none; stroke: #000000; stroke-width: 0.8; stroke-linejoin: miter; stroke-linecap: square"/>
   </g>
   <g id="patch_16">
    <path d="M 42.01 165.48 
L 282.6 165.48 
" style="fill: none; stroke: #000000; stroke-width: 0.8; stroke-linejoin: miter; stroke-linecap: square"/>
   </g>
   <g id="text_26">
    <!-- Atom 1: Local Energy -->
    <g transform="translate(98.31875 159.48) scale(0.12 -0.12)">
     <defs>
      <path id="DejaVuSans-4c" d="M 628 4666 
L 1259 4666 
L 1259 531 
L 3531 531 
L 3531 0 
L 628 0 
L 628 4666 
z
" transform="scale(0.015625)"/>
      <path id="DejaVuSans-6c" d="M 603 4863 
L 1178 4863 
L 1178 0 
L 603 0 
L 603 4863 
z
" transform="scale(0.015625)"/>
      <path id="DejaVuSans-45" d="M 628 4666 
L 3578 4666 
L 3578 4134 
L 1259 4134 
L 1259 2753 
L 3481 2753 
L 3481 2222 
L 1259 2222 
L 1259 531 
L 3634 531 
L 3634 0 
L 628 0 
L 628 4666 
z
" transform="scale(0.015625)"/>
      <path id="DejaVuSans-72" d="M 2631 2963 
Q 2534 3019 2420 3045 
Q 2306 3072 2169 3072 
Q 1681 3072 1420 2755 
Q 1159 2438 1159 1844 
L 1159 0 
L 581 0 
L 581 3500 
L 1159 3500 
L 1159 2956 
Q 1341 3275 1631 3429 
Q 1922 3584 2338 3584 
Q 2397 3584 2469 3576 
Q 2541 3569 2628 3553 
L 2631 2963 
z
" transform="scale(0.015625)"/>
      <path id="DejaVuSans-67" d="M 2906 1791 
Q 2906 2416 2648 2759 
Q 2391 3103 1925 3103 
Q 1463 3103 1205 2759 
Q 947 2416 947 1791 
Q 947 1169 1205 825 
Q 1463 481 1925 481 
Q 2391 481 2648 825 
Q 2906 1169 2906 1791 
z
M 3481 434 
Q 3481 -459 3084 -895 
Q 2688 -1331 1869 -1331 
Q 1566 -1331 1297 -1286 
Q 1028 -1241 775 -1147 
L 775 -588 
Q 1028 -725 1275 -790 
Q 1522 -856 1778 -856 
Q 2344 -856 2625 -561 
Q 2906 -266 2906 331 
L 2906 616 
Q 2728 306 2450 153 
Q 2172 0 1784 0 
Q 1141 0 747 490 
Q 353 981 353 1791 
Q 353 2603 747 3093 
Q 1141 3584 1784 3584 
Q 2172 3584 2450 3431 
Q 2728 3278 2906 2969 
L 2906 3500 
L 3481 3500 
L 3481 434 
z
" transform="scale(0.015625)"/>
      <path id="DejaVuSans-79" d="M 2059 -325 
Q 1816 -950 1584 -1140 
Q 1353 -1331 966 -1331 
L 506 -1331 
L 506 -850 
L 844 -850 
Q 1081 -850 1212 -737 
Q 1344 -625 1503 -206 
L 1606 56 
L 191 3500 
L 800 3500 
L 1894 763 
L 2988 3500 
L 3597 3500 
L 2059 -325 
z
" transform="scale(0.015625)"/>
     </defs>
     <use xlink:href="#DejaVuSans-41"/>
     <use xlink:href="#DejaVuSans-74" transform="translate(66.658203 0)"/>
     <use xlink:href="#DejaVuSans-6f" transform="translate(105.867188 0)"/>
     <use xlink:href="#DejaVuSans-6d" transform="translate(167.048828 0)"/>
     <use xlink:href="#DejaVuSans-20" transform="translate(264.460938 0)"/>
     <use xlink:href="#DejaVuSans-31" transform="translate(296.248047 0)"/>
     <use xlink:href="#DejaVuSans-3a" transform="translate(359.871094 0)"/>
     <use xlink:href="#DejaVuSans-20" transform="translate(393.5625 0)"/>
     <use xlink:href="#DejaVuSans-4c" transform="translate(425.349609 0)"/>
     <use xlink:href="#DejaVuSans-6f" transform="translate(479.3125 0)"/>
     <use xlink:href="#DejaVuSans-63" transform="translate(540.494141 0)"/>
     <use xlink:href="#DejaVuSans-61" transform="translate(595.474609 0)"/>
     <use xlink:href="#DejaVuSans-6c" transform="translate(656.753906 0)"/>
     <use xlink:href="#DejaVuSans-20" transform="translate(684.537109 0)"/>
     <use xlink:href="#DejaVuSans-45" transform="translate(716.324219 0)"/>
     <use xlink:href="#DejaVuSans-6e" transform="translate(779.507812 0)"/>
     <use xlink:href="#DejaVuSans-65" transform="translate(842.886719 0)"/>
     <use xlink:href="#DejaVuSans-72" transform="translate(904.410156 0)"/>
     <use xlink:href="#DejaVuSans-67" transform="translate(943.773438 0)"/>
     <use xlink:href="#DejaVuSans-79" transform="translate(1007.25 0)"/>
    </g>
   </g>
  </g>
  <g id="axes_4">
   <g id="patch_17">
    <path d="M 324.61 260.12 
L 565.2 260.12 
L 565.2 165.48 
L 324.61 165.48 
z
" style="fill: #ffffff"/>
   </g>
   <g id="matplotlib.axis_7">
    <g id="xtick_16">
     <g id="line2d_36">
      <g>
       <use xlink:href="#mac1dc1884a" x="348.669" y="260.12" style="stroke: #000000; stroke-width: 0.8"/>
      </g>
     </g>
     <g id="text_27">
      <!-- −0.4 -->
      <g transform="translate(336.527594 274.718437) scale(0.1 -0.1)">
       <use xlink:href="#DejaVuSans-2212"/>
       <use xlink:href="#DejaVuSans-30" transform="translate(83.789062 0)"/>
       <use xlink:href="#DejaVuSans-2e" transform="translate(147.412109 0)"/>
       <use xlink:href="#DejaVuSans-34" transform="translate(179.199219 0)"/>
      </g>
     </g>
    </g>
    <g id="xtick_17">
     <g id="line2d_37">
      <g>
       <use xlink:href="#mac1dc1884a" x="396.787" y="260.12" style="stroke: #000000; stroke-width: 0.8"/>
      </g>
     </g>
     <g id="text_28">
      <!-- −0.2 -->
      <g transform="translate(384.645594 274.718437) scale(0.1 -0.1)">
       <use xlink:href="#DejaVuSans-2212"/>
       <use xlink:href="#DejaVuSans-30" transform="translate(83.789062 0)"/>
       <use xlink:href="#DejaVuSans-2e" transform="translate(147.412109 0)"/>
       <use xlink:href="#DejaVuSans-32" transform="translate(179.199219 0)"/>
      </g>
     </g>
    </g>
    <g id="xtick_18">
     <g id="line2d_38">
      <g>
       <use xlink:href="#mac1dc1884a" x="444.905" y="260.12" style="stroke: #000000; stroke-width: 0.8"/>
      </g>
     </g>
     <g id="text_29">
      <!-- 0.0 -->
      <g transform="translate(436.953437 274.718437) scale(0.1 -0.1)">
       <use xlink:href="#DejaVuSans-30"/>
       <use xlink:href="#DejaVuSans-2e" transform="translate(63.623047 0)"/>
       <use xlink:href="#DejaVuSans-30" transform="translate(95.410156 0)"/>
      </g>
     </g>
    </g>
    <g id="xtick_19">
     <g id="line2d_39">
      <g>
       <use xlink:href="#mac1dc1884a" x="493.023" y="260.12" style="stroke: #000000; stroke-width: 0.8"/>
      </g>
     </g>
     <g id="text_30">
      <!-- 0.2 -->
      <g transform="translate(485.071437 274.718437) scale(0.1 -0.1)">
       <use xlink:href="#DejaVuSans-30"/>
       <use xlink:href="#DejaVuSans-2e" transform="translate(63.623047 0)"/>
       <use xlink:href="#DejaVuSans-32" transform="translate(95.410156 0)"/>
      </g>
     </g>
    </g>
    <g id="xtick_20">
     <g id="line2d_40">
      <g>
       <use xlink:href="#mac1dc1884a" x="541.141" y="260.12" style="stroke: #000000; stroke-width: 0.8"/>
      </g>
     </g>
     <g id="text_31">
      <!-- 0.4 -->
      <g transform="translate(533.189437 274.718437) scale(0.1 -0.1)">
       <use xlink:href="#DejaVuSans-30"/>
       <use xlink:href="#DejaVuSans-2e" transform="translate(63.623047 0)"/>
       <use xlink:href="#DejaVuSans-34" transform="translate(95.410156 0)"/>
      </g>
     </g>
    </g>
   </g>
   <g id="matplotlib.axis_8">
    <g id="ytick_9">
     <g id="line2d_41">
      <g>
       <use xlink:href="#m1b013f3add" x="324.61" y="244.123446" style="stroke: #000000; stroke-width: 0.8"/>
      </g>
     </g>
     <g id="text_32">
      <!-- −1.0 -->
      <g transform="translate(293.327188 247.922664) scale(0.1 -0.1)">
       <use xlink:href="#DejaVuSans-2212"/>
       <use xlink:href="#DejaVuSans-31" transform="translate(83.789062 0)"/>
       <use xlink:href="#DejaVuSans-2e" transform="translate(147.412109 0)"/>
       <use xlink:href="#DejaVuSans-30" transform="translate(179.199219 0)"/>
      </g>
     </g>
    </g>
    <g id="ytick_10">
     <g id="line2d_42">
      <g>
       <use xlink:href="#m1b013f3add" x="324.61" y="218.614701" style="stroke: #000000; stroke-width: 0.8"/>
      </g>
     </g>
     <g id="text_33">
      <!-- −0.8 -->
      <g transform="translate(293.327188 222.41392) scale(0.1 -0.1)">
       <use xlink:href="#DejaVuSans-2212"/>
       <use xlink:href="#DejaVuSans-30" transform="translate(83.789062 0)"/>
       <use xlink:href="#DejaVuSans-2e" transform="translate(147.412109 0)"/>
       <use xlink:href="#DejaVuSans-38" transform="translate(179.199219 0)"/>
      </g>
     </g>
    </g>
    <g id="ytick_11">
     <g id="line2d_43">
      <g>
       <use xlink:href="#m1b013f3add" x="324.61" y="193.105957" style="stroke: #000000; stroke-width: 0.8"/>
      </g>
     </g>
     <g id="text_34">
      <!-- −0.6 -->
      <g transform="translate(293.327188 196.905176) scale(0.1 -0.1)">
       <use xlink:href="#DejaVuSans-2212"/>
       <use xlink:href="#DejaVuSans-30" transform="translate(83.789062 0)"/>
       <use xlink:href="#DejaVuSans-2e" transform="translate(147.412109 0)"/>
       <use xlink:href="#DejaVuSans-36" transform="translate(179.199219 0)"/>
      </g>
     </g>
    </g>
    <g id="ytick_12">
     <g id="line2d_44">
      <g>
       <use xlink:href="#m1b013f3add" x="324.61" y="167.597213" style="stroke: #000000; stroke-width: 0.8"/>
      </g>
     </g>
     <g id="text_35">
      <!-- −0.4 -->
      <g transform="translate(293.327188 171.396432) scale(0.1 -0.1)">
       <use xlink:href="#DejaVuSans-2212"/>
       <use xlink:href="#DejaVuSans-30" transform="translate(83.789062 0)"/>
       <use xlink:href="#DejaVuSans-2e" transform="translate(147.412109 0)"/>
       <use xlink:href="#DejaVuSans-34" transform="translate(179.199219 0)"/>
      </g>
     </g>
    </g>
   </g>
   <g id="line2d_45">
    <path d="M 324.61 181.205586 
L 329.431443 183.304923 
L 334.73503 185.364794 
L 340.038617 187.176292 
L 345.342204 188.752002 
L 350.645792 190.103895 
L 356.431523 191.336885 
L 362.217255 192.331519 
L 368.002986 193.101827 
L 374.270862 193.69936 
L 380.538737 194.068079 
L 387.288758 194.231341 
L 394.520922 194.1675 
L 402.23523 193.873946 
L 413.806693 193.175601 
L 421.521002 192.793896 
L 425.378156 192.787323 
L 428.271022 192.972005 
L 430.681743 193.348115 
L 432.610321 193.890543 
L 434.056754 194.518869 
L 435.503186 195.438846 
L 436.467475 196.290426 
L 437.431764 197.420389 
L 438.396052 198.954108 
L 439.360341 201.104157 
L 440.324629 204.262099 
L 440.806774 206.442158 
L 441.288918 209.237141 
L 441.771062 212.931273 
L 442.253206 218.015485 
L 442.735351 225.417087 
L 443.217495 237.12317 
L 443.699639 258.30017 
L 443.998113 289 
M 446.874272 289 
L 447.074649 284.03824 
L 447.556794 276.404926 
L 448.038938 271.090097 
L 449.003226 264.14304 
L 449.967515 259.768365 
L 450.931804 256.731734 
L 451.896092 254.479826 
L 452.860381 252.727591 
L 454.306814 250.700374 
L 455.753246 249.138702 
L 457.199679 247.878923 
L 459.128257 246.510616 
L 461.538978 245.128218 
L 464.431844 243.774694 
L 467.806854 242.4605 
L 472.146152 241.032315 
L 477.449739 239.534944 
L 484.19976 237.873061 
L 492.878357 235.986906 
L 503.485531 233.92838 
L 516.021283 231.735058 
L 530.485611 229.441887 
L 546.396373 227.151356 
L 563.753567 224.882405 
L 565.2 224.703015 
L 565.2 224.703015 
" clip-path="url(#p2e3f47ae22)" style="fill: none; stroke-dasharray: 5.55,2.4; stroke-dashoffset: 0; stroke: #1f77b4; stroke-width: 1.5"/>
   </g>
   <g id="line2d_46">
    <path d="M 324.61 181.253333 
L 329.431443 183.343831 
L 334.73503 185.391979 
L 340.038617 187.189245 
L 345.342204 188.747687 
L 350.645792 190.078608 
L 355.949379 191.192636 
L 361.73511 192.172322 
L 367.520842 192.918028 
L 373.306573 193.441266 
L 379.092305 193.752876 
L 385.36018 193.863477 
L 391.628056 193.749921 
L 397.895932 193.423681 
L 404.645952 192.846828 
L 411.395972 192.048363 
L 418.628136 190.960233 
L 425.860301 189.644496 
L 433.574609 188.004033 
L 441.288918 186.132317 
L 444.663928 185.243954 
L 445.146072 244.450485 
L 460.574689 241.239486 
L 476.485451 238.16048 
L 492.878357 235.22117 
L 509.753407 232.427065 
L 527.110601 229.781585 
L 544.94994 227.286194 
L 563.753567 224.881652 
L 565.2 224.705715 
L 565.2 224.705715 
" clip-path="url(#p2e3f47ae22)" style="fill: none; stroke: #1f77b4; stroke-width: 1.5; stroke-linecap: square"/>
   </g>
   <g id="line2d_47">
    <path d="M 324.61 181.205586 
L 329.431443 183.304923 
L 334.73503 185.364794 
L 340.038617 187.176292 
L 345.342204 188.752002 
L 350.645792 190.103895 
L 356.431523 191.336885 
L 362.217255 192.331519 
L 368.002986 193.101827 
L 374.270862 193.69936 
L 380.538737 194.068079 
L 387.288758 194.231341 
L 394.520922 194.1675 
L 402.23523 193.873946 
L 413.806693 193.175601 
L 421.521002 192.793896 
L 425.378156 192.787323 
L 428.271022 192.972005 
L 430.681743 193.348115 
L 432.610321 193.890543 
L 434.056754 194.518869 
L 435.503186 195.438846 
L 436.467475 196.290426 
L 437.431764 197.420389 
L 438.396052 198.954108 
L 439.360341 201.104157 
L 440.324629 204.262099 
L 440.806774 206.442158 
L 441.288918 209.237141 
L 441.771062 212.931273 
L 442.253206 218.015485 
L 442.735351 225.417087 
L 443.217495 237.12317 
L 443.699639 258.30017 
L 443.998113 289 
M 446.874272 289 
L 447.074649 284.03824 
L 447.556794 276.404926 
L 448.038938 271.090097 
L 449.003226 264.14304 
L 449.967515 259.768365 
L 450.931804 256.731734 
L 451.896092 254.479826 
L 452.860381 252.727591 
L 454.306814 250.700374 
L 455.753246 249.138702 
L 457.199679 247.878923 
L 459.128257 246.510616 
L 461.538978 245.128218 
L 464.431844 243.774694 
L 467.806854 242.4605 
L 472.146152 241.032315 
L 477.449739 239.534944 
L 484.19976 237.873061 
L 492.878357 235.986906 
L 503.485531 233.92838 
L 516.021283 231.735058 
L 530.485611 229.441887 
L 546.396373 227.151356 
L 563.753567 224.882405 
L 565.2 224.703015 
L 565.2 224.703015 
" clip-path="url(#p2e3f47ae22)" style="fill: none; stroke-dasharray: 5.55,2.4; stroke-dashoffset: 0; stroke: #ff7f0e; stroke-width: 1.5"/>
   </g>
   <g id="line2d_48">
    <path d="M 324.61 181.253333 
L 329.431443 183.343831 
L 334.73503 185.391979 
L 340.038617 187.189245 
L 345.342204 188.747687 
L 350.645792 190.078608 
L 355.949379 191.192636 
L 361.73511 192.172322 
L 367.520842 192.918028 
L 373.306573 193.441266 
L 379.092305 193.752876 
L 385.36018 193.863477 
L 391.628056 193.749921 
L 397.895932 193.423681 
L 404.645952 192.846828 
L 411.395972 192.048363 
L 418.628136 190.960233 
L 425.860301 189.644496 
L 433.574609 188.004033 
L 441.288918 186.132317 
L 444.663928 185.243954 
L 445.146072 244.450485 
L 460.574689 241.239486 
L 476.485451 238.16048 
L 492.878357 235.22117 
L 509.753407 232.427065 
L 527.110601 229.781585 
L 544.94994 227.286194 
L 563.753567 224.881652 
L 565.2 224.705715 
L 565.2 224.705715 
" clip-path="url(#p2e3f47ae22)" style="fill: none; stroke: #ff7f0e; stroke-width: 1.5; stroke-linecap: square"/>
   </g>
   <g id="patch_18">
    <path d="M 324.61 260.12 
L 324.61 165.48 
" style="fill: none; stroke: #000000; stroke-width: 0.8; stroke-linejoin: miter; stroke-linecap: square"/>
   </g>
   <g id="patch_19">
    <path d="M 565.2 260.12 
L 565.2 165.48 
" style="fill: none; stroke: #000000; stroke-width: 0.8; stroke-linejoin: miter; stroke-linecap: square"/>
   </g>
   <g id="patch_20">
    <path d="M 324.61 260.12 
L 565.2 260.12 
" style="fill: none; stroke: #000000; stroke-width: 0.8; stroke-linejoin: miter; stroke-linecap: square"/>
   </g>
   <g id="patch_21">
    <path d="M 324.61 165.48 
L 565.2 165.48 
" style="fill: none; stroke: #000000; stroke-width: 0.8; stroke-linejoin: miter; stroke-linecap: square"/>
   </g>
   <g id="text_36">
    <!-- Atom 2: Local Energy -->
    <g transform="translate(380.91875 159.48) scale(0.12 -0.12)">
     <use xlink:href="#DejaVuSans-41"/>
     <use xlink:href="#DejaVuSans-74" transform="translate(66.658203 0)"/>
     <use xlink:href="#DejaVuSans-6f" transform="translate(105.867188 0)"/>
     <use xlink:href="#DejaVuSans-6d" transform="translate(167.048828 0)"/>
     <use xlink:href="#DejaVuSans-20" transform="translate(264.460938 0)"/>
     <use xlink:href="#DejaVuSans-32" transform="translate(296.248047 0)"/>
     <use xlink:href="#DejaVuSans-3a" transform="translate(359.871094 0)"/>
     <use xlink:href="#DejaVuSans-20" transform="translate(393.5625 0)"/>
     <use xlink:href="#DejaVuSans-4c" transform="translate(425.349609 0)"/>
     <use xlink:href="#DejaVuSans-6f" transform="translate(479.3125 0)"/>
     <use xlink:href="#DejaVuSans-63" transform="translate(540.494141 0)"/>
     <use xlink:href="#DejaVuSans-61" transform="translate(595.474609 0)"/>
     <use xlink:href="#DejaVuSans-6c" transform="translate(656.753906 0)"/>
     <use xlink:href="#DejaVuSans-20" transform="translate(684.537109 0)"/>
     <use xlink:href="#DejaVuSans-45" transform="translate(716.324219 0)"/>
     <use xlink:href="#DejaVuSans-6e" transform="translate(779.507812 0)"/>
     <use xlink:href="#DejaVuSans-65" transform="translate(842.886719 0)"/>
     <use xlink:href="#DejaVuSans-72" transform="translate(904.410156 0)"/>
     <use xlink:href="#DejaVuSans-67" transform="translate(943.773438 0)"/>
     <use xlink:href="#DejaVuSans-79" transform="translate(1007.25 0)"/>
    </g>
   </g>
  </g>
 </g>
 <defs>
  <clipPath id="p0b5e226737">
   <rect x="42.01" y="26.88" width="240.59" height="94.64"/>
  </clipPath>
  <clipPath id="p13fddfe782">
   <rect x="324.61" y="26.88" width="240.59" height="94.64"/>
  </clipPath>
  <clipPath id="p7ed20faa08">
   <rect x="42.01" y="165.48" width="240.59" height="94.64"/>
  </clipPath>
  <clipPath id="p2e3f47ae22">
   <rect x="324.61" y="165.48" width="240.59" height="94.64"/>
  </clipPath>
 </defs>
</svg>
