<?xml version="1.0" encoding="utf-8" standalone="no"?>
<!DOCTYPE svg PUBLIC "-//W3C//DTD SVG 1.1//EN"
  "http://www.w3.org/Graphics/SVG/1.1/DTD/svg11.dtd">
<svg xmlns:xlink="http://www.w3.org/1999/xlink" width="288pt" height="288pt" viewBox="0 0 288 288" xmlns="http://www.w3.org/2000/svg" version="1.1">
 <metadata>
  <rdf:RDF xmlns:dc="http://purl.org/dc/elements/1.1/" xmlns:cc="http://creativecommons.org/ns#" xmlns:rdf="http://www.w3.org/1999/02/22-rdf-syntax-ns#">
   <cc:Work>
    <dc:type rdf:resource="http://purl.org/dc/dcmitype/StillImage"/>
    <dc:date>2026-05-25T21:04:52.168914</dc:date>
    <dc:format>image/svg+xml</dc:format>
    <dc:creator>
     <cc:Agent>
      <dc:title>Matplotlib v3.10.9, https://matplotlib.org/</dc:title>
     </cc:Agent>
    </dc:creator>
   </cc:Work>
  </rdf:RDF>
 </metadata>
 <defs>
  <style type="text/css">*{stroke-linejoin: round; stroke-linecap: butt}</style>
 </defs>
 <g id="figure_1">
  <g id="patch_1">
   <path d="M 0 288 
L 288 288 
L 288 0 
L 0 0 
z
" style="fill: #ffffff"/>
  </g>
  <g id="axes_1">
   <g id="patch_2">
    <path d="M 45.16 121.52 
L 277.2 121.52 
L 277.2 26.88 
L 45.16 26.88 
z
" style="fill: #ffffff"/>
   </g>
   <g id="matplotlib.axis_1">
    <g id="xtick_1">
     <g id="line2d_1">
      <defs>
       <path id="m132887787e" d="M 0 0 
L 0 3.5 
" style="stroke: #000000; stroke-width: 0.8"/>
      </defs>
      <g>
       <use xlink:href="#m132887787e" x="68.364" y="121.52" style="stroke: #000000; stroke-width: 0.8"/>
      </g>
     </g>
     <g id="text_1">
      <!-- −0.4 -->
      <g transform="translate(56.222594 136.118437) scale(0.1 -0.1)">
       <defs>
        <path id="DejaVuSans-2212" d="M 678 2272 
L 4684 2272 
L 4684 1741 
L 678 1741 
L 678 2272 
z
" transform="scale(0.015625)"/>
        <path id="DejaVuSans-30" d="M 2034 4250 
Q 1547 4250 1301 3770 
Q 1056 3291 1056 2328 
Q 1056 1369 1301 889 
Q 1547 409 2034 409 
Q 2525 409 2770 889 
Q 3016 1369 3016 2328 
Q 3016 3291 2770 3770 
Q 2525 4250 2034 4250 
z
M 2034 4750 
Q 2819 4750 3233 4129 
Q 3647 3509 3647 2328 
Q 3647 1150 3233 529 
Q 2819 -91 2034 -91 
Q 1250 -91 836 529 
Q 422 1150 422 2328 
Q 422 3509 836 4129 
Q 1250 4750 2034 4750 
z
" transform="scale(0.015625)"/>
        <path id="DejaVuSans-2e" d="M 684 794 
L 1344 794 
L 1344 0 
L 684 0 
L 684 794 
z
" transform="scale(0.015625)"/>
        <path id="DejaVuSans-34" d="M 2419 4116 
L 825 1625 
L 2419 1625 
L 2419 4116 
z
M 2253 4666 
L 3047 4666 
L 3047 1625 
L 3713 1625 
L 3713 1100 
L 3047 1100 
L 3047 0 
L 2419 0 
L 2419 1100 
L 313 1100 
L 313 1709 
L 2253 4666 
z
" transform="scale(0.015625)"/>
       </defs>
       <use xlink:href="#DejaVuSans-2212"/>
       <use xlink:href="#DejaVuSans-30" transform="translate(83.789062 0)"/>
       <use xlink:href="#DejaVuSans-2e" transform="translate(147.412109 0)"/>
       <use xlink:href="#DejaVuSans-34" transform="translate(179.199219 0)"/>
      </g>
     </g>
    </g>
    <g id="xtick_2">
     <g id="line2d_2">
      <g>
       <use xlink:href="#m132887787e" x="114.772" y="121.52" style="stroke: #000000; stroke-width: 0.8"/>
      </g>
     </g>
     <g id="text_2">
      <!-- −0.2 -->
      <g transform="translate(102.630594 136.118437) scale(0.1 -0.1)">
       <defs>
        <path id="DejaVuSans-32" d="M 1228 531 
L 3431 531 
L 3431 0 
L 469 0 
L 469 531 
Q 828 903 1448 1529 
Q 2069 2156 2228 2338 
Q 2531 2678 2651 2914 
Q 2772 3150 2772 3378 
Q 2772 3750 2511 3984 
Q 2250 4219 1831 4219 
Q 1534 4219 1204 4116 
Q 875 4013 500 3803 
L 500 4441 
Q 881 4594 1212 4672 
Q 1544 4750 1819 4750 
Q 2544 4750 2975 4387 
Q 3406 4025 3406 3419 
Q 3406 3131 3298 2873 
Q 3191 2616 2906 2266 
Q 2828 2175 2409 1742 
Q 1991 1309 1228 531 
z
" transform="scale(0.015625)"/>
       </defs>
       <use xlink:href="#DejaVuSans-2212"/>
       <use xlink:href="#DejaVuSans-30" transform="translate(83.789062 0)"/>
       <use xlink:href="#DejaVuSans-2e" transform="translate(147.412109 0)"/>
       <use xlink:href="#DejaVuSans-32" transform="translate(179.199219 0)"/>
      </g>
     </g>
    </g>
    <g id="xtick_3">
     <g id="line2d_3">
      <g>
       <use xlink:href="#m132887787e" x="161.18" y="121.52" style="stroke: #000000; stroke-width: 0.8"/>
      </g>
     </g>
     <g id="text_3">
      <!-- 0.0 -->
      <g transform="translate(153.228438 136.118437) scale(0.1 -0.1)">
       <use xlink:href="#DejaVuSans-30"/>
       <use xlink:href="#DejaVuSans-2e" transform="translate(63.623047 0)"/>
       <use xlink:href="#DejaVuSans-30" transform="translate(95.410156 0)"/>
      </g>
     </g>
    </g>
    <g id="xtick_4">
     <g id="line2d_4">
      <g>
       <use xlink:href="#m132887787e" x="207.588" y="121.52" style="stroke: #000000; stroke-width: 0.8"/>
      </g>
     </g>
     <g id="text_4">
      <!-- 0.2 -->
      <g transform="translate(199.636437 136.118437) scale(0.1 -0.1)">
       <use xlink:href="#DejaVuSans-30"/>
       <use xlink:href="#DejaVuSans-2e" transform="translate(63.623047 0)"/>
       <use xlink:href="#DejaVuSans-32" transform="translate(95.410156 0)"/>
      </g>
     </g>
    </g>
    <g id="xtick_5">
     <g id="line2d_5">
      <g>
       <use xlink:href="#m132887787e" x="253.996" y="121.52" style="stroke: #000000; stroke-width: 0.8"/>
      </g>
     </g>
     <g id="text_5">
      <!-- 0.4 -->
      <g transform="translate(246.044437 136.118437) scale(0.1 -0.1)">
       <use xlink:href="#DejaVuSans-30"/>
       <use xlink:href="#DejaVuSans-2e" transform="translate(63.623047 0)"/>
       <use xlink:href="#DejaVuSans-34" transform="translate(95.410156 0)"/>
      </g>
     </g>
    </g>
   </g>
   <g id="matplotlib.axis_2">
    <g id="ytick_1">
     <g id="line2d_6">
      <defs>
       <path id="m1e055960a2" d="M 0 0 
L -3.5 0 
" style="stroke: #000000; stroke-width: 0.8"/>
      </defs>
      <g>
       <use xlink:href="#m1e055960a2" x="45.16" y="114.003714" style="stroke: #000000; stroke-width: 0.8"/>
      </g>
     </g>
     <g id="text_6">
      <!-- 0 -->
      <g transform="translate(31.7975 117.802932) scale(0.1 -0.1)">
       <use xlink:href="#DejaVuSans-30"/>
      </g>
     </g>
    </g>
    <g id="ytick_2">
     <g id="line2d_7">
      <g>
       <use xlink:href="#m1e055960a2" x="45.16" y="73.860701" style="stroke: #000000; stroke-width: 0.8"/>
      </g>
     </g>
     <g id="text_7">
      <!-- 20 -->
      <g transform="translate(25.435 77.659919) scale(0.1 -0.1)">
       <use xlink:href="#DejaVuSans-32"/>
       <use xlink:href="#DejaVuSans-30" transform="translate(63.623047 0)"/>
      </g>
     </g>
    </g>
    <g id="ytick_3">
     <g id="line2d_8">
      <g>
       <use xlink:href="#m1e055960a2" x="45.16" y="33.717688" style="stroke: #000000; stroke-width: 0.8"/>
      </g>
     </g>
     <g id="text_8">
      <!-- 40 -->
      <g transform="translate(25.435 37.516906) scale(0.1 -0.1)">
       <use xlink:href="#DejaVuSans-34"/>
       <use xlink:href="#DejaVuSans-30" transform="translate(63.623047 0)"/>
      </g>
     </g>
    </g>
   </g>
   <g id="line2d_9">
    <path d="M 45.16 113.98495 
L 76.780681 113.837728 
L 90.265972 113.572777 
L 99.101162 113.191147 
L 105.611303 112.701188 
L 110.726413 112.111695 
L 114.911503 111.431575 
L 118.631583 110.620221 
L 121.886653 109.698986 
L 124.676713 108.708624 
L 127.466774 107.486481 
L 129.791824 106.251595 
L 132.116874 104.778897 
L 134.441924 103.021872 
L 136.301964 101.374418 
L 138.162004 99.475934 
L 140.022044 97.287558 
L 141.882084 94.764298 
L 143.742124 91.854032 
L 145.602164 88.496343 
L 147.462204 84.621135 
L 149.322244 80.146992 
L 151.182285 74.9792 
L 153.042325 69.00734 
L 154.902365 62.102279 
L 156.762405 54.112313 
L 158.622445 44.858037 
L 160.482485 34.12524 
L 160.947495 31.181818 
L 161.412505 31.181818 
L 163.272545 42.322711 
L 165.132585 51.92498 
L 166.992625 60.212986 
L 168.852665 67.374069 
L 170.712705 73.566314 
L 172.572745 78.924097 
L 174.432786 83.562205 
L 176.292826 87.579032 
L 178.152866 91.059117 
L 180.012906 94.075221 
L 181.872946 96.690044 
L 183.732986 98.957663 
L 185.593026 100.924752 
L 187.918076 103.021872 
L 190.243126 104.778897 
L 192.568176 106.251595 
L 194.893226 107.486481 
L 197.683287 108.708624 
L 200.473347 109.698986 
L 203.728417 110.620221 
L 207.448497 111.431575 
L 211.633587 112.111695 
L 216.748697 112.701188 
L 222.793828 113.163399 
L 230.698998 113.527616 
L 241.394228 113.780932 
L 258.599599 113.936634 
L 277.2 113.98495 
L 277.2 113.98495 
" clip-path="url(#p71e6047d8c)" style="fill: none; stroke-dasharray: 5.55,2.4; stroke-dashoffset: 0; stroke: #1f77b4; stroke-width: 1.5"/>
   </g>
   <g id="line2d_10">
    <path d="M 45.16 113.98495 
L 76.780681 113.837728 
L 90.265972 113.572777 
L 99.101162 113.191147 
L 105.611303 112.701188 
L 110.726413 112.111695 
L 114.911503 111.431575 
L 118.631583 110.620221 
L 121.886653 109.698987 
L 124.676713 108.708625 
L 127.466774 107.486484 
L 129.791824 106.251602 
L 132.116874 104.778911 
L 134.441924 103.021901 
L 136.301964 101.37447 
L 138.162004 99.476028 
L 140.022044 97.287726 
L 141.882084 94.764599 
L 143.742124 91.854571 
L 145.602164 88.497309 
L 147.462204 84.622866 
L 149.322244 80.150091 
L 151.182285 74.98475 
L 153.042325 69.017281 
L 154.902365 62.120083 
L 156.762405 54.144198 
L 158.622445 44.915143 
L 160.482485 34.227517 
L 160.947495 31.300135 
L 161.412505 31.300135 
L 163.272545 42.388773 
L 165.132585 51.961867 
L 166.992625 60.233582 
L 168.852665 67.385568 
L 170.712705 73.572735 
L 172.572745 78.927682 
L 174.432786 83.564207 
L 176.292826 87.580149 
L 178.152866 91.059741 
L 180.012906 94.07557 
L 181.872946 96.690239 
L 183.732986 98.957772 
L 185.593026 100.924813 
L 187.918076 103.021901 
L 190.243126 104.778911 
L 192.568176 106.251602 
L 194.893226 107.486484 
L 197.683287 108.708625 
L 200.473347 109.698987 
L 203.728417 110.620221 
L 207.448497 111.431575 
L 211.633587 112.111695 
L 216.748697 112.701188 
L 222.793828 113.163399 
L 230.698998 113.527616 
L 241.394228 113.780932 
L 258.599599 113.936634 
L 277.2 113.98495 
L 277.2 113.98495 
" clip-path="url(#p71e6047d8c)" style="fill: none; stroke: #1f77b4; stroke-width: 1.5; stroke-linecap: square"/>
   </g>
   <g id="line2d_11">
    <path d="M 45.16 115.475702 
L 70.270541 116.292367 
L 96.776112 117.139195 
L 106.076313 117.212217 
L 113.051463 117.055296 
L 118.631583 116.717356 
L 123.281683 116.227905 
L 127.466774 115.569724 
L 131.186854 114.761231 
L 134.441924 113.838041 
L 137.696994 112.668039 
L 140.487054 111.429141 
L 143.277114 109.931048 
L 145.602164 108.451434 
L 147.927214 106.728557 
L 150.252265 104.726334 
L 152.577315 102.402649 
L 154.902365 99.707463 
L 156.762405 97.243195 
L 158.622445 94.463444 
L 160.482485 91.318942 
L 160.947495 90.468612 
L 161.412505 90.468612 
L 163.272545 93.713738 
L 165.132585 96.579546 
L 167.457635 99.707463 
L 169.782685 102.402649 
L 172.107735 104.726334 
L 174.432786 106.728557 
L 176.757836 108.451434 
L 179.082886 109.931048 
L 181.872946 111.429141 
L 184.663006 112.668039 
L 187.918076 113.838041 
L 191.173146 114.761231 
L 194.893226 115.569724 
L 199.078317 116.227905 
L 203.728417 116.717356 
L 209.308537 117.055296 
L 215.818677 117.20871 
L 224.188858 117.164258 
L 236.279118 116.850036 
L 277.2 115.475702 
L 277.2 115.475702 
" clip-path="url(#p71e6047d8c)" style="fill: none; stroke-dasharray: 5.55,2.4; stroke-dashoffset: 0; stroke: #ff7f0e; stroke-width: 1.5"/>
   </g>
   <g id="line2d_12">
    <path d="M 45.16 115.475702 
L 70.270541 116.292367 
L 96.776112 117.139195 
L 106.076313 117.212217 
L 113.051463 117.055296 
L 118.631583 116.717356 
L 123.281683 116.227906 
L 127.466774 115.569727 
L 131.186854 114.761241 
L 134.441924 113.83807 
L 137.696994 112.668118 
L 140.487054 111.429331 
L 143.277114 109.931503 
L 145.602164 108.452377 
L 147.927214 106.73051 
L 150.252265 104.730381 
L 152.577315 102.411034 
L 154.902365 99.724836 
L 156.762405 97.274311 
L 158.622445 94.519171 
L 160.482485 91.418749 
L 160.947495 90.584072 
L 161.412505 90.584072 
L 163.272545 93.778206 
L 165.597595 97.274311 
L 167.922645 100.293978 
L 170.247695 102.902618 
L 172.572745 105.154547 
L 174.897796 107.095936 
L 177.222846 108.76657 
L 179.547896 110.200995 
L 182.337956 111.652645 
L 185.128016 112.852248 
L 188.383086 113.983954 
L 191.638156 114.87562 
L 195.358236 115.654895 
L 199.543327 116.287218 
L 204.193427 116.754795 
L 209.773547 117.073725 
L 216.283687 117.212217 
L 224.653868 117.156345 
L 236.744128 116.834832 
L 277.2 115.475702 
L 277.2 115.475702 
" clip-path="url(#p71e6047d8c)" style="fill: none; stroke: #ff7f0e; stroke-width: 1.5; stroke-linecap: square"/>
   </g>
   <g id="line2d_13">
    <path d="M 45.16 114.054162 
L 82.825812 114.684335 
L 106.076313 114.988135 
L 117.236553 114.923944 
L 125.606733 114.658976 
L 132.116874 114.237891 
L 137.696994 113.655208 
L 142.347094 112.955295 
L 146.532184 112.107458 
L 150.252265 111.134841 
L 153.507335 110.074734 
L 156.762405 108.774232 
L 159.552465 107.421647 
L 160.947495 106.644033 
L 161.412505 106.644033 
L 164.202565 108.128862 
L 166.992625 109.364432 
L 170.247695 110.555664 
L 173.967776 111.649928 
L 177.687856 112.513192 
L 181.872946 113.26248 
L 186.523046 113.876877 
L 192.103166 114.382671 
L 198.613307 114.740393 
L 206.518477 114.946435 
L 217.213707 114.983988 
L 233.489058 114.788464 
L 277.2 114.054162 
L 277.2 114.054162 
" clip-path="url(#p71e6047d8c)" style="fill: none; stroke-dasharray: 5.55,2.4; stroke-dashoffset: 0; stroke: #2ca02c; stroke-width: 1.5"/>
   </g>
   <g id="line2d_14">
    <path d="M 45.16 114.054162 
L 82.825812 114.684335 
L 106.076313 114.988135 
L 117.236553 114.923944 
L 125.606733 114.658977 
L 132.116874 114.237897 
L 137.696994 113.655245 
L 142.347094 112.955452 
L 146.532184 112.108038 
L 150.252265 111.136701 
L 153.507335 110.07989 
L 156.762405 108.788529 
L 159.552465 107.455914 
L 160.947495 106.697085 
L 161.412505 106.697085 
L 164.202565 108.150996 
L 166.992625 109.373667 
L 170.247695 110.558995 
L 173.967776 111.650966 
L 177.687856 112.513515 
L 181.872946 113.262567 
L 186.523046 113.876898 
L 192.103166 114.382675 
L 198.613307 114.740394 
L 206.518477 114.946435 
L 217.213707 114.983988 
L 233.489058 114.788464 
L 277.2 114.054162 
L 277.2 114.054162 
" clip-path="url(#p71e6047d8c)" style="fill: none; stroke: #2ca02c; stroke-width: 1.5; stroke-linecap: square"/>
   </g>
   <g id="patch_3">
    <path d="M 45.16 121.52 
L 45.16 26.88 
" style="fill: none; stroke: #000000; stroke-width: 0.8; stroke-linejoin: miter; stroke-linecap: square"/>
   </g>
   <g id="patch_4">
    <path d="M 277.2 121.52 
L 277.2 26.88 
" style="fill: none; stroke: #000000; stroke-width: 0.8; stroke-linejoin: miter; stroke-linecap: square"/>
   </g>
   <g id="patch_5">
    <path d="M 45.16 121.52 
L 277.2 121.52 
" style="fill: none; stroke: #000000; stroke-width: 0.8; stroke-linejoin: miter; stroke-linecap: square"/>
   </g>
   <g id="patch_6">
    <path d="M 45.16 26.88 
L 277.2 26.88 
" style="fill: none; stroke: #000000; stroke-width: 0.8; stroke-linejoin: miter; stroke-linecap: square"/>
   </g>
   <g id="text_9">
    <!-- Atom 1 (Z=18): Wavefunction -->
    <g transform="translate(71.319688 20.88) scale(0.12 -0.12)">
     <defs>
      <path id="DejaVuSans-41" d="M 2188 4044 
L 1331 1722 
L 3047 1722 
L 2188 4044 
z
M 1831 4666 
L 2547 4666 
L 4325 0 
L 3669 0 
L 3244 1197 
L 1141 1197 
L 716 0 
L 50 0 
L 1831 4666 
z
" transform="scale(0.015625)"/>
      <path id="DejaVuSans-74" d="M 1172 4494 
L 1172 3500 
L 2356 3500 
L 2356 3053 
L 1172 3053 
L 1172 1153 
Q 1172 725 1289 603 
Q 1406 481 1766 481 
L 2356 481 
L 2356 0 
L 1766 0 
Q 1100 0 847 248 
Q 594 497 594 1153 
L 594 3053 
L 172 3053 
L 172 3500 
L 594 3500 
L 594 4494 
L 1172 4494 
z
" transform="scale(0.015625)"/>
      <path id="DejaVuSans-6f" d="M 1959 3097 
Q 1497 3097 1228 2736 
Q 959 2375 959 1747 
Q 959 1119 1226 758 
Q 1494 397 1959 397 
Q 2419 397 2687 759 
Q 2956 1122 2956 1747 
Q 2956 2369 2687 2733 
Q 2419 3097 1959 3097 
z
M 1959 3584 
Q 2709 3584 3137 3096 
Q 3566 2609 3566 1747 
Q 3566 888 3137 398 
Q 2709 -91 1959 -91 
Q 1206 -91 779 398 
Q 353 888 353 1747 
Q 353 2609 779 3096 
Q 1206 3584 1959 3584 
z
" transform="scale(0.015625)"/>
      <path id="DejaVuSans-6d" d="M 3328 2828 
Q 3544 3216 3844 3400 
Q 4144 3584 4550 3584 
Q 5097 3584 5394 3201 
Q 5691 2819 5691 2113 
L 5691 0 
L 5113 0 
L 5113 2094 
Q 5113 2597 4934 2840 
Q 4756 3084 4391 3084 
Q 3944 3084 3684 2787 
Q 3425 2491 3425 1978 
L 3425 0 
L 2847 0 
L 2847 2094 
Q 2847 2600 2669 2842 
Q 2491 3084 2119 3084 
Q 1678 3084 1418 2786 
Q 1159 2488 1159 1978 
L 1159 0 
L 581 0 
L 581 3500 
L 1159 3500 
L 1159 2956 
Q 1356 3278 1631 3431 
Q 1906 3584 2284 3584 
Q 2666 3584 2933 3390 
Q 3200 3197 3328 2828 
z
" transform="scale(0.015625)"/>
      <path id="DejaVuSans-20" transform="scale(0.015625)"/>
      <path id="DejaVuSans-31" d="M 794 531 
L 1825 531 
L 1825 4091 
L 703 3866 
L 703 4441 
L 1819 4666 
L 2450 4666 
L 2450 531 
L 3481 531 
L 3481 0 
L 794 0 
L 794 531 
z
" transform="scale(0.015625)"/>
      <path id="DejaVuSans-28" d="M 1984 4856 
Q 1566 4138 1362 3434 
Q 1159 2731 1159 2009 
Q 1159 1288 1364 580 
Q 1569 -128 1984 -844 
L 1484 -844 
Q 1016 -109 783 600 
Q 550 1309 550 2009 
Q 550 2706 781 3412 
Q 1013 4119 1484 4856 
L 1984 4856 
z
" transform="scale(0.015625)"/>
      <path id="DejaVuSans-5a" d="M 359 4666 
L 4025 4666 
L 4025 4184 
L 1075 531 
L 4097 531 
L 4097 0 
L 288 0 
L 288 481 
L 3238 4134 
L 359 4134 
L 359 4666 
z
" transform="scale(0.015625)"/>
      <path id="DejaVuSans-3d" d="M 678 2906 
L 4684 2906 
L 4684 2381 
L 678 2381 
L 678 2906 
z
M 678 1631 
L 4684 1631 
L 4684 1100 
L 678 1100 
L 678 1631 
z
" transform="scale(0.015625)"/>
      <path id="DejaVuSans-38" d="M 2034 2216 
Q 1584 2216 1326 1975 
Q 1069 1734 1069 1313 
Q 1069 891 1326 650 
Q 1584 409 2034 409 
Q 2484 409 2743 651 
Q 3003 894 3003 1313 
Q 3003 1734 2745 1975 
Q 2488 2216 2034 2216 
z
M 1403 2484 
Q 997 2584 770 2862 
Q 544 3141 544 3541 
Q 544 4100 942 4425 
Q 1341 4750 2034 4750 
Q 2731 4750 3128 4425 
Q 3525 4100 3525 3541 
Q 3525 3141 3298 2862 
Q 3072 2584 2669 2484 
Q 3125 2378 3379 2068 
Q 3634 1759 3634 1313 
Q 3634 634 3220 271 
Q 2806 -91 2034 -91 
Q 1263 -91 848 271 
Q 434 634 434 1313 
Q 434 1759 690 2068 
Q 947 2378 1403 2484 
z
M 1172 3481 
Q 1172 3119 1398 2916 
Q 1625 2713 2034 2713 
Q 2441 2713 2670 2916 
Q 2900 3119 2900 3481 
Q 2900 3844 2670 4047 
Q 2441 4250 2034 4250 
Q 1625 4250 1398 4047 
Q 1172 3844 1172 3481 
z
" transform="scale(0.015625)"/>
      <path id="DejaVuSans-29" d="M 513 4856 
L 1013 4856 
Q 1481 4119 1714 3412 
Q 1947 2706 1947 2009 
Q 1947 1309 1714 600 
Q 1481 -109 1013 -844 
L 513 -844 
Q 928 -128 1133 580 
Q 1338 1288 1338 2009 
Q 1338 2731 1133 3434 
Q 928 4138 513 4856 
z
" transform="scale(0.015625)"/>
      <path id="DejaVuSans-3a" d="M 750 794 
L 1409 794 
L 1409 0 
L 750 0 
L 750 794 
z
M 750 3309 
L 1409 3309 
L 1409 2516 
L 750 2516 
L 750 3309 
z
" transform="scale(0.015625)"/>
      <path id="DejaVuSans-57" d="M 213 4666 
L 850 4666 
L 1831 722 
L 2809 4666 
L 3519 4666 
L 4500 722 
L 5478 4666 
L 6119 4666 
L 4947 0 
L 4153 0 
L 3169 4050 
L 2175 0 
L 1381 0 
L 213 4666 
z
" transform="scale(0.015625)"/>
      <path id="DejaVuSans-61" d="M 2194 1759 
Q 1497 1759 1228 1600 
Q 959 1441 959 1056 
Q 959 750 1161 570 
Q 1363 391 1709 391 
Q 2188 391 2477 730 
Q 2766 1069 2766 1631 
L 2766 1759 
L 2194 1759 
z
M 3341 1997 
L 3341 0 
L 2766 0 
L 2766 531 
Q 2569 213 2275 61 
Q 1981 -91 1556 -91 
Q 1019 -91 701 211 
Q 384 513 384 1019 
Q 384 1609 779 1909 
Q 1175 2209 1959 2209 
L 2766 2209 
L 2766 2266 
Q 2766 2663 2505 2880 
Q 2244 3097 1772 3097 
Q 1472 3097 1187 3025 
Q 903 2953 641 2809 
L 641 3341 
Q 956 3463 1253 3523 
Q 1550 3584 1831 3584 
Q 2591 3584 2966 3190 
Q 3341 2797 3341 1997 
z
" transform="scale(0.015625)"/>
      <path id="DejaVuSans-76" d="M 191 3500 
L 800 3500 
L 1894 563 
L 2988 3500 
L 3597 3500 
L 2284 0 
L 1503 0 
L 191 3500 
z
" transform="scale(0.015625)"/>
      <path id="DejaVuSans-65" d="M 3597 1894 
L 3597 1613 
L 953 1613 
Q 991 1019 1311 708 
Q 1631 397 2203 397 
Q 2534 397 2845 478 
Q 3156 559 3463 722 
L 3463 178 
Q 3153 47 2828 -22 
Q 2503 -91 2169 -91 
Q 1331 -91 842 396 
Q 353 884 353 1716 
Q 353 2575 817 3079 
Q 1281 3584 2069 3584 
Q 2775 3584 3186 3129 
Q 3597 2675 3597 1894 
z
M 3022 2063 
Q 3016 2534 2758 2815 
Q 2500 3097 2075 3097 
Q 1594 3097 1305 2825 
Q 1016 2553 972 2059 
L 3022 2063 
z
" transform="scale(0.015625)"/>
      <path id="DejaVuSans-66" d="M 2375 4863 
L 2375 4384 
L 1825 4384 
Q 1516 4384 1395 4259 
Q 1275 4134 1275 3809 
L 1275 3500 
L 2222 3500 
L 2222 3053 
L 1275 3053 
L 1275 0 
L 697 0 
L 697 3053 
L 147 3053 
L 147 3500 
L 697 3500 
L 697 3744 
Q 697 4328 969 4595 
Q 1241 4863 1831 4863 
L 2375 4863 
z
" transform="scale(0.015625)"/>
      <path id="DejaVuSans-75" d="M 544 1381 
L 544 3500 
L 1119 3500 
L 1119 1403 
Q 1119 906 1312 657 
Q 1506 409 1894 409 
Q 2359 409 2629 706 
Q 2900 1003 2900 1516 
L 2900 3500 
L 3475 3500 
L 3475 0 
L 2900 0 
L 2900 538 
Q 2691 219 2414 64 
Q 2138 -91 1772 -91 
Q 1169 -91 856 284 
Q 544 659 544 1381 
z
M 1991 3584 
L 1991 3584 
z
" transform="scale(0.015625)"/>
      <path id="DejaVuSans-6e" d="M 3513 2113 
L 3513 0 
L 2938 0 
L 2938 2094 
Q 2938 2591 2744 2837 
Q 2550 3084 2163 3084 
Q 1697 3084 1428 2787 
Q 1159 2491 1159 1978 
L 1159 0 
L 581 0 
L 581 3500 
L 1159 3500 
L 1159 2956 
Q 1366 3272 1645 3428 
Q 1925 3584 2291 3584 
Q 2894 3584 3203 3211 
Q 3513 2838 3513 2113 
z
" transform="scale(0.015625)"/>
      <path id="DejaVuSans-63" d="M 3122 3366 
L 3122 2828 
Q 2878 2963 2633 3030 
Q 2388 3097 2138 3097 
Q 1578 3097 1268 2742 
Q 959 2388 959 1747 
Q 959 1106 1268 751 
Q 1578 397 2138 397 
Q 2388 397 2633 464 
Q 2878 531 3122 666 
L 3122 134 
Q 2881 22 2623 -34 
Q 2366 -91 2075 -91 
Q 1284 -91 818 406 
Q 353 903 353 1747 
Q 353 2603 823 3093 
Q 1294 3584 2113 3584 
Q 2378 3584 2631 3529 
Q 2884 3475 3122 3366 
z
" transform="scale(0.015625)"/>
      <path id="DejaVuSans-69" d="M 603 3500 
L 1178 3500 
L 1178 0 
L 603 0 
L 603 3500 
z
M 603 4863 
L 1178 4863 
L 1178 4134 
L 603 4134 
L 603 4863 
z
" transform="scale(0.015625)"/>
     </defs>
     <use xlink:href="#DejaVuSans-41"/>
     <use xlink:href="#DejaVuSans-74" transform="translate(66.658203 0)"/>
     <use xlink:href="#DejaVuSans-6f" transform="translate(105.867188 0)"/>
     <use xlink:href="#DejaVuSans-6d" transform="translate(167.048828 0)"/>
     <use xlink:href="#DejaVuSans-20" transform="translate(264.460938 0)"/>
     <use xlink:href="#DejaVuSans-31" transform="translate(296.248047 0)"/>
     <use xlink:href="#DejaVuSans-20" transform="translate(359.871094 0)"/>
     <use xlink:href="#DejaVuSans-28" transform="translate(391.658203 0)"/>
     <use xlink:href="#DejaVuSans-5a" transform="translate(430.671875 0)"/>
     <use xlink:href="#DejaVuSans-3d" transform="translate(499.177734 0)"/>
     <use xlink:href="#DejaVuSans-31" transform="translate(582.966797 0)"/>
     <use xlink:href="#DejaVuSans-38" transform="translate(646.589844 0)"/>
     <use xlink:href="#DejaVuSans-29" transform="translate(710.212891 0)"/>
     <use xlink:href="#DejaVuSans-3a" transform="translate(749.226562 0)"/>
     <use xlink:href="#DejaVuSans-20" transform="translate(782.917969 0)"/>
     <use xlink:href="#DejaVuSans-57" transform="translate(814.705078 0)"/>
     <use xlink:href="#DejaVuSans-61" transform="translate(907.207031 0)"/>
     <use xlink:href="#DejaVuSans-76" transform="translate(968.486328 0)"/>
     <use xlink:href="#DejaVuSans-65" transform="translate(1027.666016 0)"/>
     <use xlink:href="#DejaVuSans-66" transform="translate(1089.189453 0)"/>
     <use xlink:href="#DejaVuSans-75" transform="translate(1124.394531 0)"/>
     <use xlink:href="#DejaVuSans-6e" transform="translate(1187.773438 0)"/>
     <use xlink:href="#DejaVuSans-63" transform="translate(1251.152344 0)"/>
     <use xlink:href="#DejaVuSans-74" transform="translate(1306.132812 0)"/>
     <use xlink:href="#DejaVuSans-69" transform="translate(1345.341797 0)"/>
     <use xlink:href="#DejaVuSans-6f" transform="translate(1373.125 0)"/>
     <use xlink:href="#DejaVuSans-6e" transform="translate(1434.306641 0)"/>
    </g>
   </g>
  </g>
  <g id="axes_2">
   <g id="patch_7">
    <path d="M 45.16 260.12 
L 277.2 260.12 
L 277.2 165.48 
L 45.16 165.48 
z
" style="fill: #ffffff"/>
   </g>
   <g id="matplotlib.axis_3">
    <g id="xtick_6">
     <g id="line2d_15">
      <g>
       <use xlink:href="#m132887787e" x="68.364" y="260.12" style="stroke: #000000; stroke-width: 0.8"/>
      </g>
     </g>
     <g id="text_10">
      <!-- −0.4 -->
      <g transform="translate(56.222594 274.718437) scale(0.1 -0.1)">
       <use xlink:href="#DejaVuSans-2212"/>
       <use xlink:href="#DejaVuSans-30" transform="translate(83.789062 0)"/>
       <use xlink:href="#DejaVuSans-2e" transform="translate(147.412109 0)"/>
       <use xlink:href="#DejaVuSans-34" transform="translate(179.199219 0)"/>
      </g>
     </g>
    </g>
    <g id="xtick_7">
     <g id="line2d_16">
      <g>
       <use xlink:href="#m132887787e" x="114.772" y="260.12" style="stroke: #000000; stroke-width: 0.8"/>
      </g>
     </g>
     <g id="text_11">
      <!-- −0.2 -->
      <g transform="translate(102.630594 274.718437) scale(0.1 -0.1)">
       <use xlink:href="#DejaVuSans-2212"/>
       <use xlink:href="#DejaVuSans-30" transform="translate(83.789062 0)"/>
       <use xlink:href="#DejaVuSans-2e" transform="translate(147.412109 0)"/>
       <use xlink:href="#DejaVuSans-32" transform="translate(179.199219 0)"/>
      </g>
     </g>
    </g>
    <g id="xtick_8">
     <g id="line2d_17">
      <g>
       <use xlink:href="#m132887787e" x="161.18" y="260.12" style="stroke: #000000; stroke-width: 0.8"/>
      </g>
     </g>
     <g id="text_12">
      <!-- 0.0 -->
      <g transform="translate(153.228438 274.718437) scale(0.1 -0.1)">
       <use xlink:href="#DejaVuSans-30"/>
       <use xlink:href="#DejaVuSans-2e" transform="translate(63.623047 0)"/>
       <use xlink:href="#DejaVuSans-30" transform="translate(95.410156 0)"/>
      </g>
     </g>
    </g>
    <g id="xtick_9">
     <g id="line2d_18">
      <g>
       <use xlink:href="#m132887787e" x="207.588" y="260.12" style="stroke: #000000; stroke-width: 0.8"/>
      </g>
     </g>
     <g id="text_13">
      <!-- 0.2 -->
      <g transform="translate(199.636437 274.718437) scale(0.1 -0.1)">
       <use xlink:href="#DejaVuSans-30"/>
       <use xlink:href="#DejaVuSans-2e" transform="translate(63.623047 0)"/>
       <use xlink:href="#DejaVuSans-32" transform="translate(95.410156 0)"/>
      </g>
     </g>
    </g>
    <g id="xtick_10">
     <g id="line2d_19">
      <g>
       <use xlink:href="#m132887787e" x="253.996" y="260.12" style="stroke: #000000; stroke-width: 0.8"/>
      </g>
     </g>
     <g id="text_14">
      <!-- 0.4 -->
      <g transform="translate(246.044437 274.718437) scale(0.1 -0.1)">
       <use xlink:href="#DejaVuSans-30"/>
       <use xlink:href="#DejaVuSans-2e" transform="translate(63.623047 0)"/>
       <use xlink:href="#DejaVuSans-34" transform="translate(95.410156 0)"/>
      </g>
     </g>
    </g>
   </g>
   <g id="matplotlib.axis_4">
    <g id="ytick_4">
     <g id="line2d_20">
      <g>
       <use xlink:href="#m1e055960a2" x="45.16" y="254.536775" style="stroke: #000000; stroke-width: 0.8"/>
      </g>
     </g>
     <g id="text_15">
      <!-- −200 -->
      <g transform="translate(10.692813 258.335994) scale(0.1 -0.1)">
       <use xlink:href="#DejaVuSans-2212"/>
       <use xlink:href="#DejaVuSans-32" transform="translate(83.789062 0)"/>
       <use xlink:href="#DejaVuSans-30" transform="translate(147.412109 0)"/>
       <use xlink:href="#DejaVuSans-30" transform="translate(211.035156 0)"/>
      </g>
     </g>
    </g>
    <g id="ytick_5">
     <g id="line2d_21">
      <g>
       <use xlink:href="#m1e055960a2" x="45.16" y="214.03078" style="stroke: #000000; stroke-width: 0.8"/>
      </g>
     </g>
     <g id="text_16">
      <!-- −100 -->
      <g transform="translate(10.692813 217.829999) scale(0.1 -0.1)">
       <use xlink:href="#DejaVuSans-2212"/>
       <use xlink:href="#DejaVuSans-31" transform="translate(83.789062 0)"/>
       <use xlink:href="#DejaVuSans-30" transform="translate(147.412109 0)"/>
       <use xlink:href="#DejaVuSans-30" transform="translate(211.035156 0)"/>
      </g>
     </g>
    </g>
    <g id="ytick_6">
     <g id="line2d_22">
      <g>
       <use xlink:href="#m1e055960a2" x="45.16" y="173.524785" style="stroke: #000000; stroke-width: 0.8"/>
      </g>
     </g>
     <g id="text_17">
      <!-- 0 -->
      <g transform="translate(31.7975 177.324004) scale(0.1 -0.1)">
       <use xlink:href="#DejaVuSans-30"/>
      </g>
     </g>
    </g>
   </g>
   <g id="line2d_23">
    <path d="M 45.16 226.357595 
L 53.06517 227.015351 
L 61.435351 227.945297 
L 72.130581 229.380289 
L 110.726413 234.763778 
L 138.162004 238.401986 
L 145.602164 239.615858 
L 150.717275 240.661026 
L 154.902365 241.741441 
L 157.227415 242.302127 
L 158.157435 242.346049 
L 158.622445 242.239799 
L 159.087455 241.953815 
L 159.552465 241.313162 
L 160.017475 239.858767 
L 160.482485 235.899308 
L 160.947495 214.185397 
L 161.412505 214.185397 
L 161.877515 235.899308 
L 162.342525 239.858767 
L 162.807535 241.313162 
L 163.272545 241.953815 
L 163.737555 242.239799 
L 164.667575 242.352958 
L 166.062605 242.111086 
L 174.897796 239.967298 
L 180.942926 238.904403 
L 189.778116 237.603496 
L 205.588457 235.536621 
L 228.838958 232.463031 
L 266.03976 227.350855 
L 273.94493 226.601005 
L 277.2 226.357595 
L 277.2 226.357595 
" clip-path="url(#pa2865e4d2d)" style="fill: none; stroke-dasharray: 5.55,2.4; stroke-dashoffset: 0; stroke: #1f77b4; stroke-width: 1.5"/>
   </g>
   <g id="line2d_24">
    <path d="M 45.16 226.357595 
L 53.06517 227.015351 
L 61.435351 227.945297 
L 72.130581 229.380289 
L 110.726413 234.763769 
L 138.162004 238.39693 
L 146.067174 239.673152 
L 151.182285 240.700757 
L 154.902365 241.678567 
L 157.692425 242.666539 
L 159.552465 243.532998 
L 160.947495 244.346667 
L 161.412505 244.346667 
L 163.272545 243.295953 
L 165.597595 242.303221 
L 168.387655 241.4061 
L 172.107735 240.493715 
L 177.222846 239.508759 
L 184.663006 238.328272 
L 196.288257 236.731425 
L 236.279118 231.403349 
L 260.924649 227.945297 
L 269.75984 226.970404 
L 277.2 226.357595 
L 277.2 226.357595 
" clip-path="url(#pa2865e4d2d)" style="fill: none; stroke: #1f77b4; stroke-width: 1.5; stroke-linecap: square"/>
   </g>
   <g id="line2d_25">
    <path d="M 45.16 187.498933 
L 63.295391 188.488147 
L 79.570741 189.597829 
L 94.451062 190.832052 
L 108.866373 192.252727 
L 121.886653 193.750595 
L 130.256834 194.908859 
L 132.116874 195.298126 
L 133.046894 195.713028 
L 133.511904 196.416629 
L 133.976914 187.89904 
L 134.441924 194.465111 
L 134.906934 194.953367 
L 135.836954 195.322825 
L 138.162004 195.819189 
L 145.602164 197.312074 
L 148.857234 198.205111 
L 151.647295 199.218737 
L 153.972345 200.2928 
L 156.762405 201.582722 
L 157.227415 201.672217 
L 157.692425 201.644507 
L 158.157435 201.419931 
L 158.622445 200.85617 
L 159.087455 199.677789 
L 159.552465 197.284847 
L 160.017475 192.101947 
L 160.482485 178.323062 
L 160.947495 103.592913 
L 161.412505 103.592913 
L 161.877515 178.323062 
L 162.342525 192.101947 
L 162.807535 197.284847 
L 163.272545 199.677789 
L 163.737555 200.85617 
L 164.202565 201.419931 
L 164.667575 201.644507 
L 165.132585 201.672217 
L 166.062605 201.423175 
L 167.922645 200.528189 
L 170.712705 199.218737 
L 173.037756 198.355223 
L 175.827816 197.543164 
L 179.547896 196.699069 
L 186.988056 195.17454 
L 187.453066 194.953367 
L 187.918076 194.465111 
L 188.383086 187.89904 
L 188.848096 196.416629 
L 189.313106 195.713028 
L 190.243126 195.298126 
L 192.103166 194.908859 
L 197.218277 194.167539 
L 207.913507 192.867011 
L 221.398798 191.444992 
L 235.814108 190.148424 
L 251.159439 188.998094 
L 267.43479 188.002515 
L 277.2 187.498933 
L 277.2 187.498933 
" clip-path="url(#pa2865e4d2d)" style="fill: none; stroke-dasharray: 5.55,2.4; stroke-dashoffset: 0; stroke: #ff7f0e; stroke-width: 1.5"/>
   </g>
   <g id="line2d_26">
    <path d="M 45.16 187.498933 
L 63.295391 188.488147 
L 79.570741 189.597829 
L 94.451062 190.832053 
L 108.866373 192.25273 
L 121.886653 193.75081 
L 129.791824 194.837135 
L 132.116874 195.321409 
L 133.046894 195.775052 
L 133.511904 196.568351 
L 133.976914 186.815438 
L 134.441924 194.317274 
L 134.906934 194.86428 
L 135.836954 195.263824 
L 138.162004 195.769656 
L 146.532184 197.401848 
L 149.787255 198.277381 
L 152.112305 199.104847 
L 153.972345 199.96684 
L 155.832385 201.100382 
L 157.227415 202.207242 
L 158.622445 203.622227 
L 160.017475 205.456906 
L 160.947495 206.986788 
L 161.412505 206.986788 
L 162.807535 204.790256 
L 164.202565 203.110177 
L 165.597595 201.808595 
L 166.992625 200.785167 
L 168.852665 199.729978 
L 170.712705 198.920654 
L 173.037756 198.135858 
L 176.292826 197.294462 
L 180.942926 196.358683 
L 186.523046 195.263824 
L 187.453066 194.86428 
L 187.918076 194.317274 
L 188.383086 186.815438 
L 188.848096 196.568351 
L 189.313106 195.775052 
L 190.243126 195.321409 
L 192.103166 194.915778 
L 196.753267 194.230141 
L 206.983487 192.973193 
L 220.468778 191.536353 
L 234.884088 190.225498 
L 250.229419 189.061596 
L 266.50477 188.053892 
L 277.2 187.498933 
L 277.2 187.498933 
" clip-path="url(#pa2865e4d2d)" style="fill: none; stroke: #ff7f0e; stroke-width: 1.5; stroke-linecap: square"/>
   </g>
   <g id="line2d_27">
    <path d="M 45.16 181.253333 
L 46.55503 181.90655 
L 48.41507 182.422851 
L 51.20513 182.907749 
L 55.85523 183.447939 
L 65.620441 184.305026 
L 90.730982 186.481518 
L 107.006333 188.142031 
L 122.351663 189.920894 
L 129.326814 190.894704 
L 131.651864 191.38545 
L 132.581884 191.714798 
L 133.046894 191.973378 
L 133.511904 192.396673 
L 133.976914 193.327277 
L 134.441924 198.230076 
L 134.906934 185.871848 
L 135.371944 189.423524 
L 135.836954 190.249836 
L 136.301964 190.647327 
L 137.231984 191.083047 
L 139.092024 191.579419 
L 147.462204 193.474178 
L 149.787255 194.278004 
L 151.647295 195.111063 
L 153.507335 196.152519 
L 156.762405 198.094202 
L 157.227415 198.194418 
L 157.692425 198.126267 
L 158.157435 197.77322 
L 158.622445 196.926734 
L 159.087455 195.182736 
L 159.552465 191.660441 
L 160.017475 184.045994 
L 160.482485 163.810079 
L 160.947495 54.034869 
L 161.412505 54.034869 
L 161.877515 163.810079 
L 162.342525 184.045994 
L 162.807535 191.660441 
L 163.272545 195.182736 
L 163.737555 196.926734 
L 164.202565 197.77322 
L 164.667575 198.126267 
L 165.132585 198.194418 
L 166.062605 197.894436 
L 167.922645 196.743841 
L 170.247695 195.351346 
L 172.107735 194.468242 
L 174.432786 193.617761 
L 177.222846 192.851747 
L 181.872946 191.870182 
L 184.663006 191.231719 
L 185.593026 190.898599 
L 186.058036 190.647327 
L 186.523046 190.249836 
L 186.988056 189.423524 
L 187.453066 185.871848 
L 187.918076 198.230076 
L 188.383086 193.327277 
L 188.848096 192.396673 
L 189.313106 191.973378 
L 190.243126 191.530275 
L 192.103166 191.063832 
L 195.823246 190.470012 
L 204.658437 189.35593 
L 220.468778 187.595847 
L 236.744128 186.005752 
L 256.274549 184.343313 
L 268.82982 183.20124 
L 273.01491 182.609352 
L 275.33996 182.061016 
L 276.73499 181.513157 
L 277.2 181.253333 
L 277.2 181.253333 
" clip-path="url(#pa2865e4d2d)" style="fill: none; stroke-dasharray: 5.55,2.4; stroke-dashoffset: 0; stroke: #2ca02c; stroke-width: 1.5"/>
   </g>
   <g id="line2d_28">
    <path d="M 45.16 181.253333 
L 46.55503 181.90655 
L 48.41507 182.422851 
L 51.20513 182.907749 
L 55.85523 183.447939 
L 65.620441 184.305026 
L 90.730982 186.481518 
L 107.006333 188.142033 
L 122.351663 189.921241 
L 129.326814 190.900018 
L 131.651864 191.403109 
L 132.581884 191.747675 
L 133.046894 192.02144 
L 133.511904 192.473399 
L 133.976914 193.474403 
L 134.441924 198.772972 
L 134.906934 185.383553 
L 135.371944 189.225706 
L 135.836954 190.113492 
L 136.301964 190.53641 
L 137.231984 190.992184 
L 139.092024 191.493131 
L 148.857234 193.622218 
L 151.182285 194.461239 
L 153.042325 195.378922 
L 154.437355 196.283395 
L 155.832385 197.449151 
L 157.227415 198.972246 
L 158.157435 200.249511 
L 159.087455 201.793948 
L 160.017475 203.668234 
L 160.947495 205.949847 
L 161.412505 205.949847 
L 162.342525 203.668234 
L 163.272545 201.793948 
L 164.667575 199.580901 
L 166.062605 197.911478 
L 167.457635 196.638824 
L 168.852665 195.65615 
L 170.712705 194.665735 
L 172.572745 193.926003 
L 174.897796 193.226591 
L 178.152866 192.486661 
L 185.128016 190.992184 
L 186.058036 190.53641 
L 186.523046 190.113492 
L 186.988056 189.225706 
L 187.453066 185.383553 
L 187.918076 198.772972 
L 188.383086 193.474403 
L 188.848096 192.473399 
L 189.313106 192.02144 
L 190.243126 191.553961 
L 191.638156 191.169324 
L 194.428216 190.674904 
L 200.938357 189.805513 
L 214.888657 188.192775 
L 231.164008 186.525833 
L 248.369379 184.995233 
L 269.29483 183.147257 
L 273.01491 182.609352 
L 275.33996 182.061016 
L 276.73499 181.513157 
L 277.2 181.253333 
L 277.2 181.253333 
" clip-path="url(#pa2865e4d2d)" style="fill: none; stroke: #2ca02c; stroke-width: 1.5; stroke-linecap: square"/>
   </g>
   <g id="patch_8">
    <path d="M 45.16 260.12 
L 45.16 165.48 
" style="fill: none; stroke: #000000; stroke-width: 0.8; stroke-linejoin: miter; stroke-linecap: square"/>
   </g>
   <g id="patch_9">
    <path d="M 277.2 260.12 
L 277.2 165.48 
" style="fill: none; stroke: #000000; stroke-width: 0.8; stroke-linejoin: miter; stroke-linecap: square"/>
   </g>
   <g id="patch_10">
    <path d="M 45.16 260.12 
L 277.2 260.12 
" style="fill: none; stroke: #000000; stroke-width: 0.8; stroke-linejoin: miter; stroke-linecap: square"/>
   </g>
   <g id="patch_11">
    <path d="M 45.16 165.48 
L 277.2 165.48 
" style="fill: none; stroke: #000000; stroke-width: 0.8; stroke-linejoin: miter; stroke-linecap: square"/>
   </g>
   <g id="text_18">
    <!-- Atom 1: Local Energy -->
    <g transform="translate(97.19375 159.48) scale(0.12 -0.12)">
     <defs>
      <path id="DejaVuSans-4c" d="M 628 4666 
L 1259 4666 
L 1259 531 
L 3531 531 
L 3531 0 
L 628 0 
L 628 4666 
z
" transform="scale(0.015625)"/>
      <path id="DejaVuSans-6c" d="M 603 4863 
L 1178 4863 
L 1178 0 
L 603 0 
L 603 4863 
z
" transform="scale(0.015625)"/>
      <path id="DejaVuSans-45" d="M 628 4666 
L 3578 4666 
L 3578 4134 
L 1259 4134 
L 1259 2753 
L 3481 2753 
L 3481 2222 
L 1259 2222 
L 1259 531 
L 3634 531 
L 3634 0 
L 628 0 
L 628 4666 
z
" transform="scale(0.015625)"/>
      <path id="DejaVuSans-72" d="M 2631 2963 
Q 2534 3019 2420 3045 
Q 2306 3072 2169 3072 
Q 1681 3072 1420 2755 
Q 1159 2438 1159 1844 
L 1159 0 
L 581 0 
L 581 3500 
L 1159 3500 
L 1159 2956 
Q 1341 3275 1631 3429 
Q 1922 3584 2338 3584 
Q 2397 3584 2469 3576 
Q 2541 3569 2628 3553 
L 2631 2963 
z
" transform="scale(0.015625)"/>
      <path id="DejaVuSans-67" d="M 2906 1791 
Q 2906 2416 2648 2759 
Q 2391 3103 1925 3103 
Q 1463 3103 1205 2759 
Q 947 2416 947 1791 
Q 947 1169 1205 825 
Q 1463 481 1925 481 
Q 2391 481 2648 825 
Q 2906 1169 2906 1791 
z
M 3481 434 
Q 3481 -459 3084 -895 
Q 2688 -1331 1869 -1331 
Q 1566 -1331 1297 -1286 
Q 1028 -1241 775 -1147 
L 775 -588 
Q 1028 -725 1275 -790 
Q 1522 -856 1778 -856 
Q 2344 -856 2625 -561 
Q 2906 -266 2906 331 
L 2906 616 
Q 2728 306 2450 153 
Q 2172 0 1784 0 
Q 1141 0 747 490 
Q 353 981 353 1791 
Q 353 2603 747 3093 
Q 1141 3584 1784 3584 
Q 2172 3584 2450 3431 
Q 2728 3278 2906 2969 
L 2906 3500 
L 3481 3500 
L 3481 434 
z
" transform="scale(0.015625)"/>
      <path id="DejaVuSans-79" d="M 2059 -325 
Q 1816 -950 1584 -1140 
Q 1353 -1331 966 -1331 
L 506 -1331 
L 506 -850 
L 844 -850 
Q 1081 -850 1212 -737 
Q 1344 -625 1503 -206 
L 1606 56 
L 191 3500 
L 800 3500 
L 1894 763 
L 2988 3500 
L 3597 3500 
L 2059 -325 
z
" transform="scale(0.015625)"/>
     </defs>
     <use xlink:href="#DejaVuSans-41"/>
     <use xlink:href="#DejaVuSans-74" transform="translate(66.658203 0)"/>
     <use xlink:href="#DejaVuSans-6f" transform="translate(105.867188 0)"/>
     <use xlink:href="#DejaVuSans-6d" transform="translate(167.048828 0)"/>
     <use xlink:href="#DejaVuSans-20" transform="translate(264.460938 0)"/>
     <use xlink:href="#DejaVuSans-31" transform="translate(296.248047 0)"/>
     <use xlink:href="#DejaVuSans-3a" transform="translate(359.871094 0)"/>
     <use xlink:href="#DejaVuSans-20" transform="translate(393.5625 0)"/>
     <use xlink:href="#DejaVuSans-4c" transform="translate(425.349609 0)"/>
     <use xlink:href="#DejaVuSans-6f" transform="translate(479.3125 0)"/>
     <use xlink:href="#DejaVuSans-63" transform="translate(540.494141 0)"/>
     <use xlink:href="#DejaVuSans-61" transform="translate(595.474609 0)"/>
     <use xlink:href="#DejaVuSans-6c" transform="translate(656.753906 0)"/>
     <use xlink:href="#DejaVuSans-20" transform="translate(684.537109 0)"/>
     <use xlink:href="#DejaVuSans-45" transform="translate(716.324219 0)"/>
     <use xlink:href="#DejaVuSans-6e" transform="translate(779.507812 0)"/>
     <use xlink:href="#DejaVuSans-65" transform="translate(842.886719 0)"/>
     <use xlink:href="#DejaVuSans-72" transform="translate(904.410156 0)"/>
     <use xlink:href="#DejaVuSans-67" transform="translate(943.773438 0)"/>
     <use xlink:href="#DejaVuSans-79" transform="translate(1007.25 0)"/>
    </g>
   </g>
  </g>
 </g>
 <defs>
  <clipPath id="p71e6047d8c">
   <rect x="45.16" y="26.88" width="232.04" height="94.64"/>
  </clipPath>
  <clipPath id="pa2865e4d2d">
   <rect x="45.16" y="165.48" width="232.04" height="94.64"/>
  </clipPath>
 </defs>
</svg>
