<?xml version="1.0" encoding="utf-8" standalone="no"?>
<!DOCTYPE svg PUBLIC "-//W3C//DTD SVG 1.1//EN"
  "http://www.w3.org/Graphics/SVG/1.1/DTD/svg11.dtd">
<svg xmlns:xlink="http://www.w3.org/1999/xlink" width="288pt" height="288pt" viewBox="0 0 288 288" xmlns="http://www.w3.org/2000/svg" version="1.1">
 <metadata>
  <rdf:RDF xmlns:dc="http://purl.org/dc/elements/1.1/" xmlns:cc="http://creativecommons.org/ns#" xmlns:rdf="http://www.w3.org/1999/02/22-rdf-syntax-ns#">
   <cc:Work>
    <dc:type rdf:resource="http://purl.org/dc/dcmitype/StillImage"/>
    <dc:date>2025-09-10T16:42:20.206311</dc:date>
    <dc:format>image/svg+xml</dc:format>
    <dc:creator>
     <cc:Agent>
      <dc:title>Matplotlib v3.9.4, https://matplotlib.org/</dc:title>
     </cc:Agent>
    </dc:creator>
   </cc:Work>
  </rdf:RDF>
 </metadata>
 <defs>
  <style type="text/css">*{stroke-linejoin: round; stroke-linecap: butt}</style>
 </defs>
 <g id="figure_1">
  <g id="patch_1">
   <path d="M 0 288 
L 288 288 
L 288 0 
L 0 0 
z
" style="fill: #ffffff"/>
  </g>
  <g id="axes_1">
   <g id="patch_2">
    <path d="M 36 135.36 
L 259.2 135.36 
L 259.2 34.56 
L 36 34.56 
z
" style="fill: #ffffff"/>
   </g>
   <g id="matplotlib.axis_1">
    <g id="xtick_1">
     <g id="line2d_1">
      <defs>
       <path id="m87d95bbe20" d="M 0 0 
L 0 3.5 
" style="stroke: #000000; stroke-width: 0.8"/>
      </defs>
      <g>
       <use xlink:href="#m87d95bbe20" x="58.32" y="135.36" style="stroke: #000000; stroke-width: 0.8"/>
      </g>
     </g>
     <g id="text_1">
      <!-- −0.4 -->
      <g transform="translate(46.178594 149.958437) scale(0.1 -0.1)">
       <defs>
        <path id="DejaVuSans-2212" d="M 678 2272 
L 4684 2272 
L 4684 1741 
L 678 1741 
L 678 2272 
z
" transform="scale(0.015625)"/>
        <path id="DejaVuSans-30" d="M 2034 4250 
Q 1547 4250 1301 3770 
Q 1056 3291 1056 2328 
Q 1056 1369 1301 889 
Q 1547 409 2034 409 
Q 2525 409 2770 889 
Q 3016 1369 3016 2328 
Q 3016 3291 2770 3770 
Q 2525 4250 2034 4250 
z
M 2034 4750 
Q 2819 4750 3233 4129 
Q 3647 3509 3647 2328 
Q 3647 1150 3233 529 
Q 2819 -91 2034 -91 
Q 1250 -91 836 529 
Q 422 1150 422 2328 
Q 422 3509 836 4129 
Q 1250 4750 2034 4750 
z
" transform="scale(0.015625)"/>
        <path id="DejaVuSans-2e" d="M 684 794 
L 1344 794 
L 1344 0 
L 684 0 
L 684 794 
z
" transform="scale(0.015625)"/>
        <path id="DejaVuSans-34" d="M 2419 4116 
L 825 1625 
L 2419 1625 
L 2419 4116 
z
M 2253 4666 
L 3047 4666 
L 3047 1625 
L 3713 1625 
L 3713 1100 
L 3047 1100 
L 3047 0 
L 2419 0 
L 2419 1100 
L 313 1100 
L 313 1709 
L 2253 4666 
z
" transform="scale(0.015625)"/>
       </defs>
       <use xlink:href="#DejaVuSans-2212"/>
       <use xlink:href="#DejaVuSans-30" x="83.789062"/>
       <use xlink:href="#DejaVuSans-2e" x="147.412109"/>
       <use xlink:href="#DejaVuSans-34" x="179.199219"/>
      </g>
     </g>
    </g>
    <g id="xtick_2">
     <g id="line2d_2">
      <g>
       <use xlink:href="#m87d95bbe20" x="102.96" y="135.36" style="stroke: #000000; stroke-width: 0.8"/>
      </g>
     </g>
     <g id="text_2">
      <!-- −0.2 -->
      <g transform="translate(90.818594 149.958437) scale(0.1 -0.1)">
       <defs>
        <path id="DejaVuSans-32" d="M 1228 531 
L 3431 531 
L 3431 0 
L 469 0 
L 469 531 
Q 828 903 1448 1529 
Q 2069 2156 2228 2338 
Q 2531 2678 2651 2914 
Q 2772 3150 2772 3378 
Q 2772 3750 2511 3984 
Q 2250 4219 1831 4219 
Q 1534 4219 1204 4116 
Q 875 4013 500 3803 
L 500 4441 
Q 881 4594 1212 4672 
Q 1544 4750 1819 4750 
Q 2544 4750 2975 4387 
Q 3406 4025 3406 3419 
Q 3406 3131 3298 2873 
Q 3191 2616 2906 2266 
Q 2828 2175 2409 1742 
Q 1991 1309 1228 531 
z
" transform="scale(0.015625)"/>
       </defs>
       <use xlink:href="#DejaVuSans-2212"/>
       <use xlink:href="#DejaVuSans-30" x="83.789062"/>
       <use xlink:href="#DejaVuSans-2e" x="147.412109"/>
       <use xlink:href="#DejaVuSans-32" x="179.199219"/>
      </g>
     </g>
    </g>
    <g id="xtick_3">
     <g id="line2d_3">
      <g>
       <use xlink:href="#m87d95bbe20" x="147.6" y="135.36" style="stroke: #000000; stroke-width: 0.8"/>
      </g>
     </g>
     <g id="text_3">
      <!-- 0.0 -->
      <g transform="translate(139.648438 149.958437) scale(0.1 -0.1)">
       <use xlink:href="#DejaVuSans-30"/>
       <use xlink:href="#DejaVuSans-2e" x="63.623047"/>
       <use xlink:href="#DejaVuSans-30" x="95.410156"/>
      </g>
     </g>
    </g>
    <g id="xtick_4">
     <g id="line2d_4">
      <g>
       <use xlink:href="#m87d95bbe20" x="192.24" y="135.36" style="stroke: #000000; stroke-width: 0.8"/>
      </g>
     </g>
     <g id="text_4">
      <!-- 0.2 -->
      <g transform="translate(184.288437 149.958437) scale(0.1 -0.1)">
       <use xlink:href="#DejaVuSans-30"/>
       <use xlink:href="#DejaVuSans-2e" x="63.623047"/>
       <use xlink:href="#DejaVuSans-32" x="95.410156"/>
      </g>
     </g>
    </g>
    <g id="xtick_5">
     <g id="line2d_5">
      <g>
       <use xlink:href="#m87d95bbe20" x="236.88" y="135.36" style="stroke: #000000; stroke-width: 0.8"/>
      </g>
     </g>
     <g id="text_5">
      <!-- 0.4 -->
      <g transform="translate(228.928437 149.958437) scale(0.1 -0.1)">
       <use xlink:href="#DejaVuSans-30"/>
       <use xlink:href="#DejaVuSans-2e" x="63.623047"/>
       <use xlink:href="#DejaVuSans-34" x="95.410156"/>
      </g>
     </g>
    </g>
   </g>
   <g id="matplotlib.axis_2">
    <g id="ytick_1">
     <g id="line2d_6">
      <defs>
       <path id="m4dd86c5533" d="M 0 0 
L -3.5 0 
" style="stroke: #000000; stroke-width: 0.8"/>
      </defs>
      <g>
       <use xlink:href="#m4dd86c5533" x="36" y="127.413668" style="stroke: #000000; stroke-width: 0.8"/>
      </g>
     </g>
     <g id="text_6">
      <!-- 0 -->
      <g transform="translate(22.6375 131.212886) scale(0.1 -0.1)">
       <use xlink:href="#DejaVuSans-30"/>
      </g>
     </g>
    </g>
    <g id="ytick_2">
     <g id="line2d_7">
      <g>
       <use xlink:href="#m4dd86c5533" x="36" y="106.405387" style="stroke: #000000; stroke-width: 0.8"/>
      </g>
     </g>
     <g id="text_7">
      <!-- 10 -->
      <g transform="translate(16.275 110.204606) scale(0.1 -0.1)">
       <defs>
        <path id="DejaVuSans-31" d="M 794 531 
L 1825 531 
L 1825 4091 
L 703 3866 
L 703 4441 
L 1819 4666 
L 2450 4666 
L 2450 531 
L 3481 531 
L 3481 0 
L 794 0 
L 794 531 
z
" transform="scale(0.015625)"/>
       </defs>
       <use xlink:href="#DejaVuSans-31"/>
       <use xlink:href="#DejaVuSans-30" x="63.623047"/>
      </g>
     </g>
    </g>
    <g id="ytick_3">
     <g id="line2d_8">
      <g>
       <use xlink:href="#m4dd86c5533" x="36" y="85.397106" style="stroke: #000000; stroke-width: 0.8"/>
      </g>
     </g>
     <g id="text_8">
      <!-- 20 -->
      <g transform="translate(16.275 89.196325) scale(0.1 -0.1)">
       <use xlink:href="#DejaVuSans-32"/>
       <use xlink:href="#DejaVuSans-30" x="63.623047"/>
      </g>
     </g>
    </g>
    <g id="ytick_4">
     <g id="line2d_9">
      <g>
       <use xlink:href="#m4dd86c5533" x="36" y="64.388825" style="stroke: #000000; stroke-width: 0.8"/>
      </g>
     </g>
     <g id="text_9">
      <!-- 30 -->
      <g transform="translate(16.275 68.188044) scale(0.1 -0.1)">
       <defs>
        <path id="DejaVuSans-33" d="M 2597 2516 
Q 3050 2419 3304 2112 
Q 3559 1806 3559 1356 
Q 3559 666 3084 287 
Q 2609 -91 1734 -91 
Q 1441 -91 1130 -33 
Q 819 25 488 141 
L 488 750 
Q 750 597 1062 519 
Q 1375 441 1716 441 
Q 2309 441 2620 675 
Q 2931 909 2931 1356 
Q 2931 1769 2642 2001 
Q 2353 2234 1838 2234 
L 1294 2234 
L 1294 2753 
L 1863 2753 
Q 2328 2753 2575 2939 
Q 2822 3125 2822 3475 
Q 2822 3834 2567 4026 
Q 2313 4219 1838 4219 
Q 1578 4219 1281 4162 
Q 984 4106 628 3988 
L 628 4550 
Q 988 4650 1302 4700 
Q 1616 4750 1894 4750 
Q 2613 4750 3031 4423 
Q 3450 4097 3450 3541 
Q 3450 3153 3228 2886 
Q 3006 2619 2597 2516 
z
" transform="scale(0.015625)"/>
       </defs>
       <use xlink:href="#DejaVuSans-33"/>
       <use xlink:href="#DejaVuSans-30" x="63.623047"/>
      </g>
     </g>
    </g>
    <g id="ytick_5">
     <g id="line2d_10">
      <g>
       <use xlink:href="#m4dd86c5533" x="36" y="43.380544" style="stroke: #000000; stroke-width: 0.8"/>
      </g>
     </g>
     <g id="text_10">
      <!-- 40 -->
      <g transform="translate(16.275 47.179763) scale(0.1 -0.1)">
       <use xlink:href="#DejaVuSans-34"/>
       <use xlink:href="#DejaVuSans-30" x="63.623047"/>
      </g>
     </g>
    </g>
   </g>
   <g id="line2d_11">
    <path d="M 36 127.39403 
L 66.3552 127.240707 
L 79.3008 126.965517 
L 87.7824 126.56978 
L 94.032 126.062297 
L 98.9424 125.45227 
L 102.96 124.74897 
L 106.5312 123.910488 
L 109.656 122.958983 
L 112.3344 121.936573 
L 115.0128 120.675454 
L 117.2448 119.401714 
L 119.4768 117.883258 
L 121.7088 116.072337 
L 123.4944 114.374933 
L 125.28 112.419496 
L 127.0656 110.166175 
L 128.8512 107.568847 
L 130.6368 104.574103 
L 132.4224 101.120055 
L 134.208 97.13493 
L 135.9936 92.535397 
L 137.7792 87.224569 
L 139.5648 81.089557 
L 141.3504 73.998434 
L 143.136 65.796362 
L 144.9216 56.300461 
L 146.7072 45.292742 
L 147.6 39.141818 
L 149.3856 51.000824 
L 151.1712 61.222841 
L 152.9568 70.046968 
L 154.7424 77.672597 
L 156.528 84.267845 
L 158.3136 89.975544 
L 160.0992 94.917676 
L 161.8848 99.198793 
L 163.6704 102.908728 
L 165.456 106.124806 
L 167.2416 108.913666 
L 169.0272 111.332796 
L 170.8128 113.431823 
L 173.0448 115.670208 
L 175.2768 117.546155 
L 177.5088 119.119005 
L 179.7408 120.438267 
L 182.4192 121.744344 
L 185.0976 122.803101 
L 188.2224 123.788334 
L 191.7936 124.656436 
L 195.8112 125.384483 
L 200.2752 125.967832 
L 205.632 126.448631 
L 212.7744 126.848308 
L 222.1488 127.131241 
L 236.4336 127.313935 
L 259.2 127.39403 
L 259.2 127.39403 
" clip-path="url(#pdb67ae04c6)" style="fill: none; stroke-dasharray: 5.55,2.4; stroke-dashoffset: 0; stroke: #1f77b4; stroke-width: 1.5"/>
   </g>
   <g id="line2d_12">
    <path d="M 36 127.39403 
L 66.3552 127.240707 
L 79.3008 126.965517 
L 87.7824 126.56978 
L 94.032 126.062297 
L 98.9424 125.45227 
L 102.96 124.74897 
L 106.5312 123.910488 
L 109.656 122.958983 
L 112.3344 121.936574 
L 115.0128 120.675457 
L 117.2448 119.401721 
L 119.4768 117.883272 
L 121.7088 116.072366 
L 123.4944 114.374985 
L 125.28 112.419589 
L 127.0656 110.166341 
L 128.8512 107.569143 
L 130.6368 104.574634 
L 132.4224 101.121005 
L 134.208 97.136628 
L 135.9936 92.538435 
L 137.7792 87.230004 
L 139.5648 81.099279 
L 141.3504 74.015827 
L 143.136 65.827477 
L 144.9216 56.356121 
L 146.7072 45.392313 
L 147.6 39.274994 
L 149.3856 51.07527 
L 151.1712 61.264457 
L 152.9568 70.070231 
L 154.7424 77.685601 
L 156.528 84.275114 
L 158.3136 89.979607 
L 160.0992 94.919947 
L 161.8848 99.200063 
L 163.6704 102.909438 
L 165.456 106.125203 
L 167.2416 108.913888 
L 169.0272 111.33292 
L 170.8128 113.431893 
L 173.0448 115.670241 
L 175.2768 117.546171 
L 177.5088 119.119013 
L 179.7408 120.438271 
L 182.4192 121.744346 
L 185.0976 122.803102 
L 188.2224 123.788334 
L 191.7936 124.656436 
L 195.8112 125.384483 
L 200.2752 125.967832 
L 205.632 126.448631 
L 212.7744 126.848308 
L 222.1488 127.131241 
L 236.4336 127.313935 
L 259.2 127.39403 
L 259.2 127.39403 
" clip-path="url(#pdb67ae04c6)" style="fill: none; stroke: #1f77b4; stroke-width: 1.5; stroke-linecap: square"/>
   </g>
   <g id="line2d_13">
    <path d="M 36 128.954345 
L 59.2128 129.772423 
L 85.5504 130.69343 
L 94.4784 130.772791 
L 101.1744 130.613513 
L 106.5312 130.266623 
L 110.9952 129.762883 
L 115.0128 129.084769 
L 118.584 128.251377 
L 121.7088 127.299541 
L 124.8336 126.093124 
L 127.512 124.815659 
L 130.1904 123.271005 
L 132.4224 121.745534 
L 134.6544 119.969457 
L 136.8864 117.90572 
L 139.1184 115.511131 
L 141.3504 112.734495 
L 143.136 110.196681 
L 144.9216 107.335318 
L 146.7072 104.100727 
L 147.6 102.323781 
L 149.3856 105.768318 
L 151.1712 108.809255 
L 153.4032 112.128081 
L 155.6352 114.988176 
L 157.8672 117.454778 
L 160.0992 119.581007 
L 162.3312 121.411475 
L 164.5632 122.984355 
L 167.2416 124.577964 
L 169.92 125.896968 
L 172.5984 126.983009 
L 175.7232 128.002625 
L 178.848 128.800614 
L 182.4192 129.4914 
L 186.4368 130.043355 
L 190.9008 130.44045 
L 196.2576 130.694791 
L 202.9536 130.777579 
L 211.8816 130.640924 
L 225.72 130.174137 
L 259.2 128.954345 
L 259.2 128.954345 
" clip-path="url(#pdb67ae04c6)" style="fill: none; stroke-dasharray: 5.55,2.4; stroke-dashoffset: 0; stroke: #ff7f0e; stroke-width: 1.5"/>
   </g>
   <g id="line2d_14">
    <path d="M 36 128.954345 
L 59.2128 129.772423 
L 85.5504 130.69343 
L 94.4784 130.772791 
L 101.1744 130.613513 
L 106.5312 130.266624 
L 110.9952 129.762884 
L 115.0128 129.084772 
L 118.584 128.251388 
L 121.7088 127.299569 
L 124.8336 126.093202 
L 127.512 124.815847 
L 130.1904 123.271453 
L 132.4224 121.746461 
L 134.6544 119.971374 
L 136.8864 117.909687 
L 139.1184 115.519338 
L 141.3504 112.751474 
L 143.5824 109.548533 
L 145.368 106.626738 
L 147.1536 103.338946 
L 147.6 102.453793 
L 149.3856 105.840995 
L 151.6176 109.548533 
L 153.8496 112.751474 
L 156.0816 115.519338 
L 158.3136 117.909687 
L 160.5456 119.971374 
L 162.7776 121.746461 
L 165.0096 123.271453 
L 167.688 124.815847 
L 170.3664 126.093202 
L 173.0448 127.14397 
L 176.1696 128.129206 
L 179.7408 128.993594 
L 183.312 129.632732 
L 187.3296 130.139069 
L 192.24 130.523876 
L 198.0432 130.738272 
L 205.1856 130.764098 
L 215.0064 130.552969 
L 232.8624 129.894756 
L 259.2 128.954345 
L 259.2 128.954345 
" clip-path="url(#pdb67ae04c6)" style="fill: none; stroke: #ff7f0e; stroke-width: 1.5; stroke-linecap: square"/>
   </g>
   <g id="line2d_15">
    <path d="M 36 127.466447 
L 70.8192 128.098633 
L 94.032 128.441501 
L 104.7456 128.387839 
L 112.7808 128.129949 
L 119.0304 127.713363 
L 124.3872 127.133438 
L 128.8512 126.434755 
L 132.8688 125.58698 
L 136.44 124.61352 
L 139.5648 123.552197 
L 142.6896 122.250945 
L 145.368 120.900193 
L 147.6 119.566355 
L 150.2784 121.142661 
L 152.9568 122.453524 
L 156.0816 123.717376 
L 159.2064 124.748178 
L 162.7776 125.693105 
L 166.7952 126.515154 
L 171.2592 127.191503 
L 176.1696 127.713363 
L 181.9728 128.107565 
L 189.1152 128.361272 
L 198.4896 128.449463 
L 211.8816 128.323776 
L 247.1472 127.66304 
L 259.2 127.466447 
L 259.2 127.466447 
" clip-path="url(#pdb67ae04c6)" style="fill: none; stroke-dasharray: 5.55,2.4; stroke-dashoffset: 0; stroke: #2ca02c; stroke-width: 1.5"/>
   </g>
   <g id="line2d_16">
    <path d="M 36 127.466447 
L 70.8192 128.098633 
L 94.032 128.441501 
L 104.7456 128.387839 
L 112.7808 128.12995 
L 119.0304 127.713368 
L 124.3872 127.133469 
L 128.8512 126.434888 
L 132.8688 125.587472 
L 136.44 124.615096 
L 139.5648 123.556558 
L 142.6896 122.263014 
L 145.368 120.929069 
L 147.6 119.626095 
L 150.2784 121.167629 
L 152.9568 122.46396 
L 156.0816 123.721147 
L 159.2064 124.749541 
L 162.7776 125.693531 
L 166.7952 126.515269 
L 171.2592 127.19153 
L 176.1696 127.713368 
L 181.9728 128.107566 
L 189.1152 128.361272 
L 198.4896 128.449463 
L 211.8816 128.323776 
L 247.1472 127.66304 
L 259.2 127.466447 
L 259.2 127.466447 
" clip-path="url(#pdb67ae04c6)" style="fill: none; stroke: #2ca02c; stroke-width: 1.5; stroke-linecap: square"/>
   </g>
   <g id="patch_3">
    <path d="M 36 135.36 
L 36 34.56 
" style="fill: none; stroke: #000000; stroke-width: 0.8; stroke-linejoin: miter; stroke-linecap: square"/>
   </g>
   <g id="patch_4">
    <path d="M 259.2 135.36 
L 259.2 34.56 
" style="fill: none; stroke: #000000; stroke-width: 0.8; stroke-linejoin: miter; stroke-linecap: square"/>
   </g>
   <g id="patch_5">
    <path d="M 36 135.36 
L 259.2 135.36 
" style="fill: none; stroke: #000000; stroke-width: 0.8; stroke-linejoin: miter; stroke-linecap: square"/>
   </g>
   <g id="patch_6">
    <path d="M 36 34.56 
L 259.2 34.56 
" style="fill: none; stroke: #000000; stroke-width: 0.8; stroke-linejoin: miter; stroke-linecap: square"/>
   </g>
  </g>
  <g id="axes_2">
   <g id="patch_7">
    <path d="M 36 256.32 
L 259.2 256.32 
L 259.2 155.52 
L 36 155.52 
z
" style="fill: #ffffff"/>
   </g>
   <g id="matplotlib.axis_3">
    <g id="xtick_6">
     <g id="line2d_17">
      <g>
       <use xlink:href="#m87d95bbe20" x="58.32" y="256.32" style="stroke: #000000; stroke-width: 0.8"/>
      </g>
     </g>
     <g id="text_11">
      <!-- −0.4 -->
      <g transform="translate(46.178594 270.918437) scale(0.1 -0.1)">
       <use xlink:href="#DejaVuSans-2212"/>
       <use xlink:href="#DejaVuSans-30" x="83.789062"/>
       <use xlink:href="#DejaVuSans-2e" x="147.412109"/>
       <use xlink:href="#DejaVuSans-34" x="179.199219"/>
      </g>
     </g>
    </g>
    <g id="xtick_7">
     <g id="line2d_18">
      <g>
       <use xlink:href="#m87d95bbe20" x="102.96" y="256.32" style="stroke: #000000; stroke-width: 0.8"/>
      </g>
     </g>
     <g id="text_12">
      <!-- −0.2 -->
      <g transform="translate(90.818594 270.918437) scale(0.1 -0.1)">
       <use xlink:href="#DejaVuSans-2212"/>
       <use xlink:href="#DejaVuSans-30" x="83.789062"/>
       <use xlink:href="#DejaVuSans-2e" x="147.412109"/>
       <use xlink:href="#DejaVuSans-32" x="179.199219"/>
      </g>
     </g>
    </g>
    <g id="xtick_8">
     <g id="line2d_19">
      <g>
       <use xlink:href="#m87d95bbe20" x="147.6" y="256.32" style="stroke: #000000; stroke-width: 0.8"/>
      </g>
     </g>
     <g id="text_13">
      <!-- 0.0 -->
      <g transform="translate(139.648438 270.918437) scale(0.1 -0.1)">
       <use xlink:href="#DejaVuSans-30"/>
       <use xlink:href="#DejaVuSans-2e" x="63.623047"/>
       <use xlink:href="#DejaVuSans-30" x="95.410156"/>
      </g>
     </g>
    </g>
    <g id="xtick_9">
     <g id="line2d_20">
      <g>
       <use xlink:href="#m87d95bbe20" x="192.24" y="256.32" style="stroke: #000000; stroke-width: 0.8"/>
      </g>
     </g>
     <g id="text_14">
      <!-- 0.2 -->
      <g transform="translate(184.288437 270.918437) scale(0.1 -0.1)">
       <use xlink:href="#DejaVuSans-30"/>
       <use xlink:href="#DejaVuSans-2e" x="63.623047"/>
       <use xlink:href="#DejaVuSans-32" x="95.410156"/>
      </g>
     </g>
    </g>
    <g id="xtick_10">
     <g id="line2d_21">
      <g>
       <use xlink:href="#m87d95bbe20" x="236.88" y="256.32" style="stroke: #000000; stroke-width: 0.8"/>
      </g>
     </g>
     <g id="text_15">
      <!-- 0.4 -->
      <g transform="translate(228.928437 270.918437) scale(0.1 -0.1)">
       <use xlink:href="#DejaVuSans-30"/>
       <use xlink:href="#DejaVuSans-2e" x="63.623047"/>
       <use xlink:href="#DejaVuSans-34" x="95.410156"/>
      </g>
     </g>
    </g>
   </g>
   <g id="matplotlib.axis_4">
    <g id="ytick_6">
     <g id="line2d_22">
      <g>
       <use xlink:href="#m4dd86c5533" x="36" y="250.555996" style="stroke: #000000; stroke-width: 0.8"/>
      </g>
     </g>
     <g id="text_16">
      <!-- −200 -->
      <g transform="translate(1.532812 254.355215) scale(0.1 -0.1)">
       <use xlink:href="#DejaVuSans-2212"/>
       <use xlink:href="#DejaVuSans-32" x="83.789062"/>
       <use xlink:href="#DejaVuSans-30" x="147.412109"/>
       <use xlink:href="#DejaVuSans-30" x="211.035156"/>
      </g>
     </g>
    </g>
    <g id="ytick_7">
     <g id="line2d_23">
      <g>
       <use xlink:href="#m4dd86c5533" x="36" y="228.934632" style="stroke: #000000; stroke-width: 0.8"/>
      </g>
     </g>
     <g id="text_17">
      <!-- −150 -->
      <g transform="translate(1.532812 232.733851) scale(0.1 -0.1)">
       <defs>
        <path id="DejaVuSans-35" d="M 691 4666 
L 3169 4666 
L 3169 4134 
L 1269 4134 
L 1269 2991 
Q 1406 3038 1543 3061 
Q 1681 3084 1819 3084 
Q 2600 3084 3056 2656 
Q 3513 2228 3513 1497 
Q 3513 744 3044 326 
Q 2575 -91 1722 -91 
Q 1428 -91 1123 -41 
Q 819 9 494 109 
L 494 744 
Q 775 591 1075 516 
Q 1375 441 1709 441 
Q 2250 441 2565 725 
Q 2881 1009 2881 1497 
Q 2881 1984 2565 2268 
Q 2250 2553 1709 2553 
Q 1456 2553 1204 2497 
Q 953 2441 691 2322 
L 691 4666 
z
" transform="scale(0.015625)"/>
       </defs>
       <use xlink:href="#DejaVuSans-2212"/>
       <use xlink:href="#DejaVuSans-31" x="83.789062"/>
       <use xlink:href="#DejaVuSans-35" x="147.412109"/>
       <use xlink:href="#DejaVuSans-30" x="211.035156"/>
      </g>
     </g>
    </g>
    <g id="ytick_8">
     <g id="line2d_24">
      <g>
       <use xlink:href="#m4dd86c5533" x="36" y="207.313269" style="stroke: #000000; stroke-width: 0.8"/>
      </g>
     </g>
     <g id="text_18">
      <!-- −100 -->
      <g transform="translate(1.532812 211.112487) scale(0.1 -0.1)">
       <use xlink:href="#DejaVuSans-2212"/>
       <use xlink:href="#DejaVuSans-31" x="83.789062"/>
       <use xlink:href="#DejaVuSans-30" x="147.412109"/>
       <use xlink:href="#DejaVuSans-30" x="211.035156"/>
      </g>
     </g>
    </g>
    <g id="ytick_9">
     <g id="line2d_25">
      <g>
       <use xlink:href="#m4dd86c5533" x="36" y="185.691905" style="stroke: #000000; stroke-width: 0.8"/>
      </g>
     </g>
     <g id="text_19">
      <!-- −50 -->
      <g transform="translate(7.895312 189.491124) scale(0.1 -0.1)">
       <use xlink:href="#DejaVuSans-2212"/>
       <use xlink:href="#DejaVuSans-35" x="83.789062"/>
       <use xlink:href="#DejaVuSans-30" x="147.412109"/>
      </g>
     </g>
    </g>
    <g id="ytick_10">
     <g id="line2d_26">
      <g>
       <use xlink:href="#m4dd86c5533" x="36" y="164.070542" style="stroke: #000000; stroke-width: 0.8"/>
      </g>
     </g>
     <g id="text_20">
      <!-- 0 -->
      <g transform="translate(22.6375 167.86976) scale(0.1 -0.1)">
       <use xlink:href="#DejaVuSans-30"/>
      </g>
     </g>
    </g>
   </g>
   <g id="line2d_27">
    <path d="M 36 220.475616 
L 43.1424 221.127727 
L 50.7312 222.044202 
L 60.1056 223.412999 
L 104.7456 230.252758 
L 123.4944 233.011113 
L 131.5296 234.412057 
L 136.44 235.469192 
L 140.4576 236.559902 
L 144.0288 237.528354 
L 144.9216 237.500618 
L 145.368 237.30449 
L 145.8144 236.841896 
L 146.2608 235.818627 
L 146.7072 233.346036 
L 147.1536 224.967216 
M 148.0464 224.967216 
L 148.4928 233.346036 
L 148.9392 235.818627 
L 149.3856 236.841896 
L 149.832 237.30449 
L 150.2784 237.500618 
L 151.1712 237.528354 
L 152.5104 237.231644 
L 159.6528 235.258287 
L 164.5632 234.241445 
L 171.7056 233.011113 
L 183.312 231.267935 
L 216.3456 226.416634 
L 245.3616 221.925794 
L 253.3968 220.989183 
L 259.2 220.475616 
L 259.2 220.475616 
" clip-path="url(#p7599320eba)" style="fill: none; stroke-dasharray: 5.55,2.4; stroke-dashoffset: 0; stroke: #1f77b4; stroke-width: 1.5"/>
   </g>
   <g id="line2d_28">
    <path d="M 36 220.475616 
L 43.1424 221.127727 
L 50.7312 222.044202 
L 60.1056 223.412999 
L 104.7456 230.252722 
L 123.9408 233.079127 
L 131.976 234.475599 
L 137.3328 235.623219 
L 140.904 236.612778 
L 143.5824 237.592126 
L 145.368 238.437098 
L 147.1536 239.52 
M 148.0464 239.52 
L 149.832 238.437098 
L 152.064 237.408581 
L 154.7424 236.473323 
L 158.3136 235.51576 
L 163.224 234.475599 
L 170.3664 233.223422 
L 181.5264 231.525188 
L 219.024 225.990422 
L 243.576 222.165087 
L 251.6112 221.175551 
L 258.7536 220.510186 
L 259.2 220.475616 
L 259.2 220.475616 
" clip-path="url(#p7599320eba)" style="fill: none; stroke: #1f77b4; stroke-width: 1.5; stroke-linecap: square"/>
   </g>
   <g id="line2d_29">
    <path d="M 36 178.988927 
L 52.9632 180.012332 
L 68.1408 181.149655 
L 81.9792 182.404122 
L 95.3712 183.840105 
L 107.8704 185.39895 
L 116.7984 186.71006 
L 119.4768 187.263474 
L 120.3696 187.631309 
L 120.816 188.092643 
L 121.2624 191.755715 
L 121.7088 185.910734 
L 122.1552 186.806626 
L 123.048 187.284747 
L 124.8336 187.738891 
L 132.8688 189.532515 
L 135.9936 190.505365 
L 138.2256 191.406295 
L 140.4576 192.530675 
L 143.136 193.949074 
L 144.0288 194.123885 
L 144.4752 194.000036 
L 144.9216 193.600563 
L 145.368 192.716082 
L 145.8144 190.919364 
L 146.2608 187.200659 
L 146.7072 178.508652 
L 147.1536 149.536469 
M 148.0464 149.536469 
L 148.4928 178.508652 
L 148.9392 187.200659 
L 149.3856 190.919364 
L 149.832 192.716082 
L 150.2784 193.600563 
L 150.7248 194.000036 
L 151.1712 194.123885 
L 152.064 193.949074 
L 153.4032 193.283436 
L 156.528 191.612859 
L 158.76 190.669318 
L 161.4384 189.783717 
L 165.0096 188.868668 
L 172.5984 187.105424 
L 173.0448 186.806626 
L 173.4912 185.910734 
L 173.9376 191.755715 
L 174.384 188.092643 
L 174.8304 187.631309 
L 175.7232 187.263474 
L 177.9552 186.787508 
L 183.7584 185.892189 
L 194.472 184.48028 
L 207.4176 182.998407 
L 220.8096 181.688737 
L 235.0944 180.518744 
L 250.7184 179.471308 
L 259.2 178.988927 
L 259.2 178.988927 
" clip-path="url(#p7599320eba)" style="fill: none; stroke-dasharray: 5.55,2.4; stroke-dashoffset: 0; stroke: #ff7f0e; stroke-width: 1.5"/>
   </g>
   <g id="line2d_30">
    <path d="M 36 178.988927 
L 52.9632 180.012332 
L 68.1408 181.149655 
L 81.9792 182.404122 
L 95.3712 183.840107 
L 107.8704 185.399063 
L 116.7984 186.714278 
L 119.4768 187.285101 
L 120.3696 187.683818 
L 120.816 188.199891 
L 121.2624 192.371498 
L 121.7088 185.683446 
L 122.1552 186.695963 
L 123.048 187.218472 
L 124.8336 187.686313 
L 134.6544 189.871956 
L 137.3328 190.743405 
L 139.5648 191.704246 
L 141.3504 192.720139 
L 142.6896 193.694905 
L 144.0288 194.92413 
L 145.368 196.498847 
L 146.7072 198.544093 
L 147.1536 199.358448 
M 148.0464 199.358448 
L 149.3856 197.120937 
L 150.7248 195.405279 
L 152.064 194.072463 
L 153.4032 193.021309 
L 155.1888 191.933465 
L 156.9744 191.09529 
L 159.2064 190.278363 
L 162.3312 189.396965 
L 166.7952 188.40912 
L 172.152 187.218472 
L 172.5984 187.025621 
L 173.0448 186.695963 
L 173.4912 185.683446 
L 173.9376 192.371498 
L 174.384 188.199891 
L 174.8304 187.683818 
L 175.7232 187.285101 
L 177.5088 186.87495 
L 181.9728 186.151495 
L 191.7936 184.815535 
L 204.2928 183.335965 
L 217.6848 181.97503 
L 231.5232 180.790822 
L 246.7008 179.71983 
L 259.2 178.988927 
L 259.2 178.988927 
" clip-path="url(#p7599320eba)" style="fill: none; stroke: #ff7f0e; stroke-width: 1.5; stroke-linecap: square"/>
   </g>
   <g id="line2d_31">
    <path d="M 36 172.32 
L 36.8928 172.824955 
L 38.232 173.325661 
L 40.464 173.854757 
L 44.0352 174.398489 
L 50.2848 175.074328 
L 89.568 178.97614 
L 104.7456 180.8358 
L 115.0128 182.276396 
L 118.584 182.964762 
L 119.9232 183.408026 
L 120.816 184.012115 
L 121.2624 184.709337 
L 121.7088 186.945578 
L 122.1552 164.385231 
L 122.6016 180.326412 
L 123.048 181.670754 
L 123.4944 182.210146 
L 124.3872 182.742587 
L 125.7264 183.183884 
L 129.2976 184.010283 
L 133.3152 185.024517 
L 135.9936 185.951458 
L 138.2256 187.00189 
L 140.0112 188.085466 
L 143.136 190.206733 
L 143.5824 190.371496 
L 144.0288 190.39707 
L 144.4752 190.188119 
L 144.9216 189.579127 
L 145.368 188.263081 
L 145.8144 185.612966 
L 146.2608 180.145999 
L 146.7072 167.380078 
L 147.1536 124.827962 
M 148.0464 124.827962 
L 148.4928 167.380078 
L 148.9392 180.145999 
L 149.3856 185.612966 
L 149.832 188.263081 
L 150.2784 189.579127 
L 150.7248 190.188119 
L 151.1712 190.39707 
L 151.6176 190.371496 
L 152.5104 189.960301 
L 157.8672 186.544399 
L 160.0992 185.609234 
L 162.7776 184.771055 
L 166.7952 183.812068 
L 170.3664 182.913584 
L 171.2592 182.523574 
L 171.7056 182.210146 
L 172.152 181.670754 
L 172.5984 180.326412 
L 173.0448 164.385231 
L 173.4912 186.945578 
L 173.9376 184.709337 
L 174.384 184.012115 
L 175.2768 183.408026 
L 176.616 182.964762 
L 179.2944 182.424279 
L 185.0976 181.55334 
L 197.5968 179.93261 
L 212.7744 178.179111 
L 228.3984 176.602925 
L 252.504 174.218849 
L 255.6288 173.67172 
L 257.4144 173.181657 
L 258.7536 172.597119 
L 259.2 172.32 
L 259.2 172.32 
" clip-path="url(#p7599320eba)" style="fill: none; stroke-dasharray: 5.55,2.4; stroke-dashoffset: 0; stroke: #2ca02c; stroke-width: 1.5"/>
   </g>
   <g id="line2d_32">
    <path d="M 36 172.32 
L 36.8928 172.824955 
L 38.232 173.325661 
L 40.464 173.854757 
L 44.0352 174.398489 
L 50.2848 175.074328 
L 89.568 178.97614 
L 104.7456 180.835853 
L 115.0128 182.278774 
L 118.584 182.977862 
L 119.9232 183.438906 
L 120.3696 183.691229 
L 120.816 184.079729 
L 121.2624 184.827765 
L 121.7088 187.241467 
L 122.1552 162.766639 
L 122.6016 180.058251 
L 123.048 181.507049 
L 123.4944 182.08333 
L 124.3872 182.643091 
L 125.7264 183.092919 
L 128.8512 183.796436 
L 133.7616 184.921945 
L 136.44 185.772951 
L 138.2256 186.537152 
L 140.0112 187.55552 
L 141.3504 188.562305 
L 142.6896 189.862615 
L 144.0288 191.564208 
L 144.9216 192.992573 
L 145.8144 194.720761 
L 146.7072 196.818981 
L 147.1536 198.033214 
M 148.0464 198.033214 
L 148.9392 195.718624 
L 150.2784 192.992573 
L 151.6176 190.94426 
L 152.9568 189.390621 
L 154.296 188.198487 
L 155.6352 187.270904 
L 157.4208 186.326261 
L 159.6528 185.457873 
L 162.3312 184.689136 
L 166.7952 183.703455 
L 169.92 182.965447 
L 171.2592 182.41451 
L 171.7056 182.08333 
L 172.152 181.507049 
L 172.5984 180.058251 
L 173.0448 162.766639 
L 173.4912 187.241467 
L 173.9376 184.827765 
L 174.384 184.079729 
L 175.2768 183.438906 
L 176.616 182.977862 
L 179.2944 182.427778 
L 185.0976 181.553691 
L 197.5968 179.932615 
L 212.7744 178.179111 
L 228.3984 176.602925 
L 252.504 174.218849 
L 255.6288 173.67172 
L 257.4144 173.181657 
L 258.7536 172.597119 
L 259.2 172.32 
L 259.2 172.32 
" clip-path="url(#p7599320eba)" style="fill: none; stroke: #2ca02c; stroke-width: 1.5; stroke-linecap: square"/>
   </g>
   <g id="patch_8">
    <path d="M 36 256.32 
L 36 155.52 
" style="fill: none; stroke: #000000; stroke-width: 0.8; stroke-linejoin: miter; stroke-linecap: square"/>
   </g>
   <g id="patch_9">
    <path d="M 259.2 256.32 
L 259.2 155.52 
" style="fill: none; stroke: #000000; stroke-width: 0.8; stroke-linejoin: miter; stroke-linecap: square"/>
   </g>
   <g id="patch_10">
    <path d="M 36 256.32 
L 259.2 256.32 
" style="fill: none; stroke: #000000; stroke-width: 0.8; stroke-linejoin: miter; stroke-linecap: square"/>
   </g>
   <g id="patch_11">
    <path d="M 36 155.52 
L 259.2 155.52 
" style="fill: none; stroke: #000000; stroke-width: 0.8; stroke-linejoin: miter; stroke-linecap: square"/>
   </g>
  </g>
 </g>
 <defs>
  <clipPath id="pdb67ae04c6">
   <rect x="36" y="34.56" width="223.2" height="100.8"/>
  </clipPath>
  <clipPath id="p7599320eba">
   <rect x="36" y="155.52" width="223.2" height="100.8"/>
  </clipPath>
 </defs>
</svg>
